<?xml version="1.0" standalone="no"?>
<!DOCTYPE svg PUBLIC "-//W3C//DTD SVG 1.1//EN" "http://www.w3.org/Graphics/SVG/1.1/DTD/svg11.dtd" >
<svg>
<metadata>
Created by FontForge 20090914 at Wed Jun 14 05:25:09 2017
 By www-data
Copyright (c) 2012 by Fontfabric LLC. All rights reserved.
</metadata>
<defs>
<font id="NexaBlack" horiz-adv-x="622" >
  <font-face 
    font-family="Nexa Black"
    font-weight="900"
    font-stretch="normal"
    units-per-em="1000"
    panose-1="2 0 0 0 0 0 0 0 0 0"
    ascent="733"
    descent="-267"
    x-height="494"
    cap-height="700"
    bbox="-184 -305.001 1273 991"
    underline-thickness="50"
    underline-position="-50"
    unicode-range="U+000D-U+FEFF"
  />
<missing-glyph horiz-adv-x="665" 
d="M250 142c0 -20 6.5 -35.167 19.5 -45.5s27.167 -15.5 42.5 -15.5s29.5 5.16699 42.5 15.5s19.5 25.5 19.5 45.5c0 21.333 -6.5 37.333 -19.5 48s-27.167 16 -42.5 16s-29.5 -5.33301 -42.5 -16s-19.5 -26.667 -19.5 -48zM250 443
c-0.666992 8 0.829102 15.6602 4.49609 22.9932s8.83398 13.833 15.501 19.5s14.334 10 23.001 13s17.667 4.5 27 4.5c8.66699 0 17.334 -0.833008 26.001 -2.5s16.5 -4.66699 23.5 -9s12.833 -10.166 17.5 -17.499s7 -16.666 7 -27.999
c0 -9.33301 -2.16699 -16.666 -6.5 -21.999s-10.333 -9.83301 -18 -13.5s-16.167 -7.16699 -25.5 -10.5s-18.333 -7.66602 -27 -12.999c-5.33301 -5.33301 -11.5 -10.666 -18.5 -15.999s-13.667 -12.833 -20 -22.5s-11.666 -22.167 -15.999 -37.5s-6.5 -35.333 -6.5 -60
l107 -1c0 8 0.833008 17 2.5 27s3.16699 17.333 4.5 22c8.66699 8 20.667 15.167 36 21.5s30.333 14.333 45 24s27.334 22.334 38.001 38.001s15.667 36.834 15 63.501c0 26.667 -5 49.667 -15 69s-23.5 35.333 -40.5 48s-36.667 22 -59 28s-45.5 9 -69.5 9
c-24.667 0 -47.834 -3.33301 -69.501 -10s-40.5 -16.5 -56.5 -29.5s-28.667 -29.333 -38 -49s-14 -42.5 -14 -68.5h108zM39.9961 699.993h563v-700h-563v700z" />
    <glyph glyph-name=".notdef" horiz-adv-x="665" 
d="M250 142c0 -20 6.5 -35.167 19.5 -45.5s27.167 -15.5 42.5 -15.5s29.5 5.16699 42.5 15.5s19.5 25.5 19.5 45.5c0 21.333 -6.5 37.333 -19.5 48s-27.167 16 -42.5 16s-29.5 -5.33301 -42.5 -16s-19.5 -26.667 -19.5 -48zM250 443
c-0.666992 8 0.829102 15.6602 4.49609 22.9932s8.83398 13.833 15.501 19.5s14.334 10 23.001 13s17.667 4.5 27 4.5c8.66699 0 17.334 -0.833008 26.001 -2.5s16.5 -4.66699 23.5 -9s12.833 -10.166 17.5 -17.499s7 -16.666 7 -27.999
c0 -9.33301 -2.16699 -16.666 -6.5 -21.999s-10.333 -9.83301 -18 -13.5s-16.167 -7.16699 -25.5 -10.5s-18.333 -7.66602 -27 -12.999c-5.33301 -5.33301 -11.5 -10.666 -18.5 -15.999s-13.667 -12.833 -20 -22.5s-11.666 -22.167 -15.999 -37.5s-6.5 -35.333 -6.5 -60
l107 -1c0 8 0.833008 17 2.5 27s3.16699 17.333 4.5 22c8.66699 8 20.667 15.167 36 21.5s30.333 14.333 45 24s27.334 22.334 38.001 38.001s15.667 36.834 15 63.501c0 26.667 -5 49.667 -15 69s-23.5 35.333 -40.5 48s-36.667 22 -59 28s-45.5 9 -69.5 9
c-24.667 0 -47.834 -3.33301 -69.501 -10s-40.5 -16.5 -56.5 -29.5s-28.667 -29.333 -38 -49s-14 -42.5 -14 -68.5h108zM39.9961 699.993h563v-700h-563v700z" />
    <glyph glyph-name=".null" horiz-adv-x="0" 
 />
    <glyph glyph-name=".null" horiz-adv-x="0" 
 />
    <glyph glyph-name="nonmarkingreturn" unicode="&#xd;" horiz-adv-x="322" 
 />
    <glyph glyph-name="space" unicode=" " horiz-adv-x="227" 
 />
    <glyph glyph-name="exclam" unicode="!" horiz-adv-x="321" 
d="M67 230l-3 470h194l-4 -470h-187zM159 -5c-23.333 0 -42.833 4.83301 -58.5 14.5s-27.334 21.834 -35.001 36.501s-11.5 30.334 -11.5 47.001s3.83301 32.334 11.5 47.001s19.334 26.834 35.001 36.501s35.167 14.5 58.5 14.5s43 -4.83301 59 -14.5
s28 -21.834 36 -36.501s12 -30.334 12 -47.001s-4 -32.334 -12 -47.001s-19.833 -26.834 -35.5 -36.501s-35.5 -14.5 -59.5 -14.5z" />
    <glyph glyph-name="quotedbl" unicode="&#x22;" horiz-adv-x="471" 
d="M208 701v-273h-150v273h150zM413 701v-273h-150v273h150z" />
    <glyph glyph-name="numbersign" unicode="#" horiz-adv-x="739" 
d="M412 700l-36 -143h93l35 143h170l-36 -143h64v-141h-99l-38 -145h72v-142h-104l-31 -129h-169l31 129h-92l-32 -129h-167l31 129h-68v142h104l35 146h-74v140h109l34 143h168zM344 425l-40 -160h93l40 160h-93z" />
    <glyph glyph-name="dollar" unicode="$" horiz-adv-x="685" 
d="M259 -16c-42 5.33301 -81.1689 16.665 -117.502 33.998s-72.833 45.666 -109.5 84.999l109 125c17.333 -16.667 35 -30.167 53 -40.5s35.833 -18.333 53.5 -24s34.834 -9.5 51.501 -11.5s32.334 -3 47.001 -3c32.667 0 59.167 5.5 79.5 16.5s30.5 26.167 30.5 45.5
c0 35.333 -39 56.666 -117 63.999c-38 3.33301 -74.333 9 -109 17s-65 20.167 -91 36.5s-46.667 38.5 -62 66.5s-23 63.667 -23 107c0 29.333 5.33301 55.5 16 78.5s25.334 43 44.001 60s40.5 30.833 65.5 41.5s51.5 18.667 79.5 24v91h168v-89
c34 -5.33301 65.833 -14.166 95.5 -26.499s58.5 -29.166 86.5 -50.499l-98 -125c-24 18 -49.667 30.5 -77 37.5s-56.333 10.5 -87 10.5c-12 0 -23.667 -1 -35 -3s-21.5 -5 -30.5 -9s-16.167 -9.33301 -21.5 -16s-8 -14.667 -8 -24c0 -12 2.83301 -21.667 8.5 -29
s13.5 -13.166 23.5 -17.499s22.167 -7.5 36.5 -9.5s30.166 -4 47.499 -6c34.667 -4 69 -10.667 103 -20s64.333 -23 91 -41s48.334 -41 65.001 -69s25 -62 25 -102c0 -32.667 -6 -61.667 -18 -87s-28.167 -47 -48.5 -65s-44.333 -32.667 -72 -44
s-56.834 -19.666 -87.501 -24.999h1v-97h-168v94z" />
    <glyph glyph-name="percent" unicode="%" horiz-adv-x="900" 
d="M211 710c30.667 0 57.334 -4.83301 80.001 -14.5s41.334 -22.334 56.001 -38.001s25.5 -33.667 32.5 -54s10.5 -40.833 10.5 -61.5c0 -21.333 -3.5 -42 -10.5 -62s-17.833 -37.833 -32.5 -53.5s-33.334 -28.167 -56.001 -37.5s-49.334 -14 -80.001 -14
s-57.167 4.66699 -79.5 14s-40.833 21.833 -55.5 37.5s-25.5 33.5 -32.5 53.5s-10.5 40.667 -10.5 62c0 20.667 3.5 41.167 10.5 61.5s17.833 38.333 32.5 54s33.167 28.334 55.5 38.001s48.833 14.5 79.5 14.5zM768 699l-458 -699h-183l461 699h180zM211 498
c16.667 0 28.667 4.5 36 13.5s11 19.167 11 30.5s-3.66699 21.5 -11 30.5s-19.333 13.5 -36 13.5c-16 0 -27.833 -4.5 -35.5 -13.5s-11.5 -19.167 -11.5 -30.5s3.83301 -21.5 11.5 -30.5s19.5 -13.5 35.5 -13.5zM688 327c30.667 0 57.334 -4.83301 80.001 -14.5
s41.334 -22.334 56.001 -38.001s25.5 -33.667 32.5 -54s10.5 -40.833 10.5 -61.5c0 -21.333 -3.5 -42 -10.5 -62s-17.833 -37.833 -32.5 -53.5s-33.334 -28.167 -56.001 -37.5s-49.334 -14 -80.001 -14s-57.167 4.66699 -79.5 14s-40.833 21.833 -55.5 37.5
s-25.5 33.5 -32.5 53.5s-10.5 40.667 -10.5 62c0 20.667 3.5 41.167 10.5 61.5s17.833 38.333 32.5 54s33.167 28.334 55.5 38.001s48.833 14.5 79.5 14.5zM688 115c16.667 0 28.667 4.5 36 13.5s11 19.167 11 30.5s-3.66699 21.5 -11 30.5s-19.333 13.5 -36 13.5
c-16 0 -27.833 -4.5 -35.5 -13.5s-11.5 -19.167 -11.5 -30.5s3.83301 -21.5 11.5 -30.5s19.5 -13.5 35.5 -13.5z" />
    <glyph glyph-name="ampersand" unicode="&#x26;" horiz-adv-x="743" 
d="M236 215c0 -12 2.66602 -22.1689 7.99902 -30.502s12.5 -15.333 21.5 -21s19.333 -9.66699 31 -12s23.834 -3.5 36.501 -3.5c14.667 0 28.667 1.83301 42 5.5s25.333 9.33398 36 17.001s19.167 16.834 25.5 27.501s9.5 23 9.5 37v47h-107
c-11.333 0 -23 -0.833008 -35 -2.5s-23 -5 -33 -10s-18.333 -11.833 -25 -20.5s-10 -20 -10 -34zM446.999 497.998c-0.666992 15.333 -5.50293 28.165 -14.5029 38.498s-20.167 18 -33.5 23s-27.833 7.33301 -43.5 7s-30 -3 -43 -8s-24 -12.5 -33 -22.5s-13.5 -22 -13.5 -36
c0 -13.333 2.66699 -24.666 8 -33.999s12 -17 20 -23s17 -10.5 27 -13.5s19.667 -4.5 29 -4.5h345v-140h-71v-54c0 -19.333 6.5 -35 19.5 -47s31.5 -16 55.5 -12v-173c-16 -3.33301 -32.5 -5.16602 -49.5 -5.49902s-33.5 2 -49.5 7s-30.667 13.333 -44 25
s-24 27.834 -32 48.501c-26.667 -28 -57.167 -49.167 -91.5 -63.5s-75.5 -21.5 -123.5 -21.5c-33.333 0 -66.166 3.33301 -98.499 10s-61 18.167 -86 34.5s-45.167 38.333 -60.5 66s-23 62.5 -23 104.5c0 13.333 2.33301 27.166 7 41.499s11.334 28.333 20.001 42
s19.334 26.5 32.001 38.5s26.667 22.333 42 31c-14.667 7.33301 -26.834 16.833 -36.501 28.5s-17.5 24 -23.5 37s-10.333 26 -13 39s-4 24.5 -4 34.5c0 42 9.33301 77 28 105s42.334 50.333 71.001 67s60 28.334 94 35.001s66.667 10 98 10
c35.333 0 69.333 -3.66699 102 -11s61.5 -19.333 86.5 -36s45 -38.834 60 -66.501s22.5 -61.5 22.5 -101.5h-180z" />
    <glyph glyph-name="quotesingle" unicode="'" horiz-adv-x="266" 
d="M208 701v-273h-150v273h150z" />
    <glyph glyph-name="parenleft" unicode="(" horiz-adv-x="374" 
d="M368 699c-26 -21.333 -49.832 -46 -71.499 -74s-40 -58.333 -55 -91s-26.667 -67.167 -35 -103.5s-12.5 -73.833 -12.5 -112.5c0 -35.333 3.83301 -70.833 11.5 -106.5s18.5 -70 32.5 -103s31.167 -63.667 51.5 -92s43.166 -52.833 68.499 -73.5l-79 -106
c-84.667 56.667 -147.667 126.167 -189 208.5s-62 173.166 -62 272.499c0 49.333 6.16699 97 18.5 143s29.833 89.5 52.5 130.5s49.667 78.833 81 113.5s66 65.334 104 92.001z" />
    <glyph glyph-name="parenright" unicode=")" horiz-adv-x="374" 
d="M90 797c38 -26.667 72.668 -57.334 104.001 -92.001s58.333 -72.5 81 -113.5s40.167 -84.5 52.5 -130.5s18.5 -93.667 18.5 -143c0 -99.333 -20.667 -190.166 -62 -272.499s-104.333 -151.833 -189 -208.5l-79 106c25.333 20.667 48.166 45.167 68.499 73.5
s37.5 59 51.5 92s24.833 67.333 32.5 103s11.5 71.167 11.5 106.5c0 38.667 -4.16699 76.167 -12.5 112.5s-20 70.833 -35 103.5s-33.333 63 -55 91s-45.5 52.667 -71.5 74z" />
    <glyph glyph-name="asterisk" unicode="*" horiz-adv-x="433" 
d="M263 384l-46 78l-45 -79l-109 69l62 66l-88 18l37 118l85 -34l-7 86h133l-14 -87l91 38l34 -121l-87 -16l60 -57z" />
    <glyph glyph-name="plus" unicode="+" horiz-adv-x="518" 
d="M176 400v132h165v-132h137v-153h-137v-133h-165v133h-136v153h136z" />
    <glyph glyph-name="comma" unicode="," horiz-adv-x="275" 
d="M230 61c0 -33.333 -19.334 -89.667 -58.001 -169h-96l21 103c-21.333 4 -35.5 12.5 -42.5 25.5s-10.5 26.833 -10.5 41.5c0 13.333 2.66699 25 8 35s12.5 18.5 21.5 25.5s19.333 12.167 31 15.5s23.834 5 36.501 5c11.333 0 22.333 -1.66699 33 -5
s20.167 -8.5 28.5 -15.5s15 -15.5 20 -25.5s7.5 -22 7.5 -36z" />
    <glyph glyph-name="hyphen" unicode="-" horiz-adv-x="510" 
d="M54 363h402v-146h-402v146z" />
    <glyph glyph-name="period" unicode="." horiz-adv-x="283" 
d="M141 -8c-22 0 -40.333 4.5 -55 13.5s-25.667 20.167 -33 33.5s-11 27.833 -11 43.5s3.66699 30.167 11 43.5s18.333 24.5 33 33.5s33 13.5 55 13.5s40.5 -4.5 55.5 -13.5s26.167 -20.167 33.5 -33.5s11 -27.833 11 -43.5s-3.66699 -30.167 -11 -43.5
s-18.5 -24.5 -33.5 -33.5s-33.5 -13.5 -55.5 -13.5z" />
    <glyph glyph-name="slash" unicode="/" horiz-adv-x="532" 
d="M509 752l-314 -829h-171l312 829h173z" />
    <glyph glyph-name="zero" unicode="0" horiz-adv-x="728" 
d="M241 297c0 -53.333 11.6689 -92.333 35.002 -117s52.666 -37 87.999 -37c17.333 0 33.666 3 48.999 9s28.5 15.333 39.5 28s19.667 28.667 26 48s9.5 42.333 9.5 69v95c0 26 -3 48.333 -9 67s-14.5 34.167 -25.5 46.5s-24 21.5 -39 27.5s-31.167 9 -48.5 9
s-33.5 -2.83301 -48.5 -8.5s-28.167 -14.5 -39.5 -26.5s-20.333 -27.5 -27 -46.5s-10 -41.833 -10 -68.5v-95zM47.002 393c0 56.667 8.50293 105.168 25.5029 145.501s40.167 73 69.5 98s63.166 43.333 101.499 55s79.166 17.5 122.499 17.5c44 0 85 -6.16699 123 -18.5
s71.333 -31.333 100 -57s51.167 -58.5 67.5 -98.5s24.5 -87.333 24.5 -142v-95c0 -56 -8.5 -104 -25.5 -144s-39.667 -72.833 -68 -98.5s-61.5 -44.5 -99.5 -56.5s-78 -18 -120 -18c-41.333 0 -81.333 5.66699 -120 17s-72.834 29.666 -102.501 54.999s-53.5 58 -71.5 98
s-27 88.667 -27 146v96z" />
    <glyph glyph-name="one" unicode="1" horiz-adv-x="474" 
d="M48 149h112v333l-106 -31v155l292 106v-563h104v-149h-402v149z" />
    <glyph glyph-name="two" unicode="2" horiz-adv-x="690" 
d="M58 479c0 40.667 7.99902 75.668 23.999 105.001s37.5 53.333 64.5 72s58.167 32.334 93.5 41.001s72.666 13 111.999 13s76.5 -4.5 111.5 -13.5s65.833 -22.667 92.5 -41s47.667 -41.333 63 -69s23 -60.167 23 -97.5c0 -43.333 -7.33301 -79.833 -22 -109.5
s-35.167 -53.5 -61.5 -71.5s-57.333 -31 -93 -39s-74.5 -12 -116.5 -12c-12 0 -24.667 -0.833008 -38 -2.5s-25.666 -5.5 -36.999 -11.5s-20.666 -15 -27.999 -27s-11 -28 -11 -48h402v-168h-591v163c0 52 9 94.333 27 127s41.5 58 70.5 76s61.5 30.333 97.5 37
s72 10 108 10c10 0 20.667 1.16699 32 3.5s21.833 6.16602 31.5 11.499s17.834 12.833 24.501 22.5s10 21.5 10 35.5c0 12 -2.66699 22.333 -8 31s-12.5 15.667 -21.5 21s-19.167 9.16602 -30.5 11.499s-23 3.5 -35 3.5c-29.333 0 -52.833 -5.66699 -70.5 -17
s-27.834 -30.333 -30.501 -57h-193z" />
    <glyph glyph-name="three" unicode="3" horiz-adv-x="696" 
d="M224 287l-0.00585938 140h118c10 0 20.5 0.666992 31.5 2s21.333 4.16602 31 8.49902s17.834 10.333 24.501 18s10.334 17.5 11.001 29.5c0 17.333 -8.66699 32.333 -26 45s-41.333 19 -72 19c-13.333 0 -26 -1.33301 -38 -4s-22.833 -6.66699 -32.5 -12
s-17.5 -12.333 -23.5 -21s-9 -19.334 -9 -32.001h-190c0.666992 42.667 9.83398 78.834 27.501 108.501s40.334 53.667 68.001 72s58.834 31.5 93.501 39.5s69.334 12 104.001 12c34 0 68.5 -3.83301 103.5 -11.5s66.667 -20.167 95 -37.5s51.666 -40 69.999 -68
s27.5 -62 27.5 -102c0 -26.667 -8.16699 -52.667 -24.5 -78s-39.166 -44.333 -68.499 -57c40.667 -15.333 69 -36.833 85 -64.5s24 -57.5 24 -89.5c0 -41.333 -10 -75.833 -30 -103.5s-45.167 -49.834 -75.5 -66.501s-64 -28.667 -101 -36s-72.5 -11 -106.5 -11
c-35.333 0 -71 4.33301 -107 13s-68.5 22.5 -97.5 41.5s-52.5 44 -70.5 75s-27 69.167 -27 114.5h194c0 -16 3.5 -29.333 10.5 -40s16 -19.167 27 -25.5s23.5 -11 37.5 -14s28.333 -4.5 43 -4.5c12 0 23.833 1.5 35.5 4.5s22 7.33301 31 13s16.333 12.834 22 21.501
s8.5 18.667 8.5 30c0 4.66699 -0.666992 11 -2 19s-5.33301 15.833 -12 23.5s-16.5 14.334 -29.5 20.001s-30.833 8.5 -53.5 8.5h-127z" />
    <glyph glyph-name="four" unicode="4" horiz-adv-x="691" 
d="M575 700v-423h75v-156h-75v-121h-186v121h-357l-13 164l373 415h183zM389 277v183l-166 -183h166z" />
    <glyph glyph-name="five" unicode="5" horiz-adv-x="665" 
d="M591 538l-348.996 -0.000976562v-83h94c38.667 0 75.667 -3.16699 111 -9.5s66.5 -18 93.5 -35s48.333 -40.5 64 -70.5s23.5 -68.667 23.5 -116c0 -43.333 -8.83301 -79.666 -26.5 -108.999s-40.334 -53.333 -68.001 -72s-58.667 -32 -93 -40s-67.833 -12 -100.5 -12
c-42 0 -80.833 4.33301 -116.5 13s-66.5 22.5 -92.5 41.5s-46.5 43.833 -61.5 74.5s-22.5 68 -22.5 112h193c0 -14.667 3 -27.167 9 -37.5s13.833 -18.833 23.5 -25.5s20.167 -11.5 31.5 -14.5s22.666 -4.5 33.999 -4.5c7.33301 0 16.5 1 27.5 3s21.667 5.66699 32 11
s19.166 12.833 26.499 22.5s11 22.167 11 37.5c0 16.667 -3.33301 30.167 -10 40.5s-15.167 18 -25.5 23s-21.333 8.33301 -33 10s-21.834 2.5 -30.501 2.5h-277v399h532v-161z" />
    <glyph glyph-name="six" unicode="6" horiz-adv-x="706" 
d="M463 497c-2 21.333 -13.001 36.8311 -33.001 46.498s-44 14.5 -72 14.5c-14 0 -27.5 -1.83301 -40.5 -5.5s-24.667 -9 -35 -16s-18.666 -15.833 -24.999 -26.5s-9.5 -22.667 -9.5 -36v-66c20 15.333 45 27.166 75 35.499s59 12.5 87 12.5
c36.667 0 70.834 -4.83301 102.501 -14.5s59 -24.167 82 -43.5s41 -43.166 54 -71.499s19.5 -60.833 19.5 -97.5c0 -43.333 -8.66699 -80.166 -26 -110.499s-40.333 -55.166 -69 -74.499s-61.167 -33.5 -97.5 -42.5s-73.833 -13.5 -112.5 -13.5c-38 0 -75.333 4.5 -112 13.5
s-69.667 23.333 -99 43s-53 44.834 -71 75.501s-27 67.667 -27 111v243c0 41.333 8.5 77 25.5 107s39.667 54.667 68 74s60.666 33.666 96.999 42.999s73.833 14 112.5 14c39.333 0 76.833 -3.66699 112.5 -11s67 -19.333 94 -36s48.5 -38.667 64.5 -66s24 -61.333 24 -102
h-189zM362.999 149.998c30 0 55.501 6.83203 76.501 20.499s31.5 33.167 31.5 58.5c0 27.333 -9.66699 48.333 -29 63s-45.333 22 -78 22c-38.667 0 -67.334 -8.16699 -86.001 -24.5s-28 -36.166 -28 -59.499c0 -20.667 9.5 -39.167 28.5 -55.5s47.167 -24.5 84.5 -24.5z
" />
    <glyph glyph-name="seven" unicode="7" horiz-adv-x="593" 
d="M71 0l265 538h-307v163h552l5 -89l-301 -612h-214z" />
    <glyph glyph-name="eight" unicode="8" horiz-adv-x="721" 
d="M361 292c-34 0 -61.498 -6.5 -82.498 -19.5s-31.5 -31.167 -31.5 -54.5c0 -24 11.167 -42.333 33.5 -55s48.833 -19 79.5 -19c14 0 27.833 1.5 41.5 4.5s25.667 7.5 36 13.5s18.666 13.5 24.999 22.5s9.16602 19.833 8.49902 32.5c0 22 -9.5 40 -28.5 54
s-46.167 21 -81.5 21zM42.002 218c0 9.33301 1.83398 20.4971 5.50098 33.4971s9.16699 26.333 16.5 40s16.833 26.834 28.5 39.501s25.834 23.334 42.501 32.001c-24 17.333 -41.833 38 -53.5 62s-17.834 49.667 -18.501 77c0 35.333 7.33301 66.333 22 93
s35 48.834 61 66.501s56.667 31 92 40s73.333 13.5 114 13.5c41.333 0 80.666 -4.5 117.999 -13.5s70 -22.167 98 -39.5s50.333 -39.333 67 -66s25 -57.334 25 -92.001c0.666992 -27.333 -5.33301 -52.666 -18 -75.999s-31.334 -42.666 -56.001 -57.999
c18.667 -10 33.834 -21.667 45.501 -35s21 -27 28 -41s11.833 -27.667 14.5 -41s4 -25 4 -35c0.666992 -42.667 -7 -78.834 -23 -108.501s-38.333 -53.667 -67 -72s-62.5 -31.666 -101.5 -39.999s-81.167 -12.5 -126.5 -12.5s-87.5 4 -126.5 12s-72.833 21.333 -101.5 40
s-51.167 42.667 -67.5 72s-23.833 65.666 -22.5 108.999zM356.003 421.997c21.333 0 39.167 3.5 53.5 10.5s25.166 15.833 32.499 26.5s11 22.167 11 34.5s-3.5 23.833 -10.5 34.5s-17.667 19.5 -32 26.5s-32.166 10.5 -53.499 10.5c-32 0 -56.167 -7.5 -72.5 -22.5
s-24.5 -31.333 -24.5 -49s8 -34 24 -49s40 -22.5 72 -22.5z" />
    <glyph glyph-name="nine" unicode="9" horiz-adv-x="708" 
d="M238 203c2 -21.333 12.998 -36.834 32.998 -46.501s44 -14.5 72 -14.5c14 0 27.833 1.83301 41.5 5.5s26.167 9.33398 37.5 17.001s20.5 17 27.5 28s10.5 24.167 10.5 39.5v60c-25.333 -20 -51.666 -33 -78.999 -39s-55 -9 -83 -9
c-37.333 0 -71.666 4.83301 -102.999 14.5s-58.5 24.167 -81.5 43.5s-41 43 -54 71s-19.5 60.667 -19.5 98c0 42.667 8.66699 79.334 26 110.001s40.166 55.667 68.499 75s60.833 33.5 97.5 42.5s74.334 13.5 113.001 13.5c38 0 75.333 -4.5 112 -13.5
s69.667 -23.333 99 -43s53 -44.834 71 -75.501s27 -67.667 27 -111v-236c0 -44 -8.83301 -81.5 -26.5 -112.5s-41 -56.333 -70 -76s-62 -34 -99 -43s-74.833 -13.5 -113.5 -13.5c-39.333 0 -77 3.66699 -113 11s-67.5 19.333 -94.5 36s-48.5 38.667 -64.5 66
s-24 61.333 -24 102h189zM344.998 549.999c-30 0 -55.501 -6.83203 -76.501 -20.499s-31.5 -33.167 -31.5 -58.5c0 -27.333 9.66699 -48.333 29 -63s45.333 -22 78 -22c38.667 0 67.334 8.16699 86.001 24.5s28 36.166 28 59.499c0 20.667 -9.5 39.167 -28.5 55.5
s-47.167 24.5 -84.5 24.5z" />
    <glyph glyph-name="colon" unicode=":" horiz-adv-x="314" 
d="M57 83c0 14.667 2.83301 27.5 8.5 38.5s13.167 20.333 22.5 28s19.833 13.334 31.5 17.001s23.834 5.5 36.501 5.5s25 -1.83301 37 -5.5s22.667 -9.33398 32 -17.001s17 -17 23 -28s9 -23.833 9 -38.5s-3 -27.5 -9 -38.5s-13.667 -20.333 -23 -28
s-20 -13.334 -32 -17.001s-24.333 -5.5 -37 -5.5s-24.834 1.83301 -36.501 5.5s-22.167 9.33398 -31.5 17.001s-16.833 17 -22.5 28s-8.5 23.833 -8.5 38.5zM57 354c0 14.667 2.83301 27.5 8.5 38.5s13.167 20.167 22.5 27.5s19.833 12.833 31.5 16.5s23.834 5.5 36.501 5.5
s25 -1.83301 37 -5.5s22.667 -9.16699 32 -16.5s17 -16.5 23 -27.5s9 -23.833 9 -38.5c0 -15.333 -3 -28.5 -9 -39.5s-13.667 -20.167 -23 -27.5s-20 -12.833 -32 -16.5s-24.333 -5.5 -37 -5.5s-24.834 1.83301 -36.501 5.5s-22.167 9.16699 -31.5 16.5
s-16.833 16.5 -22.5 27.5s-8.5 24.167 -8.5 39.5z" />
    <glyph glyph-name="semicolon" unicode=";" horiz-adv-x="296" 
d="M54 354c0 14 2.66699 26 8 36s12.166 18.5 20.499 25.5s18 12.167 29 15.5s22.5 5 34.5 5s23.5 -1.66699 34.5 -5s21 -8.5 30 -15.5s16.167 -15.5 21.5 -25.5s8 -22 8 -36s-2.66699 -26.167 -8 -36.5s-12.5 -19 -21.5 -26s-19 -12.167 -30 -15.5s-22.5 -5 -34.5 -5
s-23.5 1.66699 -34.5 5s-20.667 8.5 -29 15.5s-15.166 15.667 -20.499 26s-8 22.5 -8 36.5zM241 61c0 -33.333 -19.334 -89.667 -58.001 -169h-96l21 103c-21.333 4 -35.5 12.5 -42.5 25.5s-10.5 26.833 -10.5 41.5c0 13.333 2.66699 25 8 35s12.5 18.5 21.5 25.5
s19.333 12.167 31 15.5s23.834 5 36.501 5c11.333 0 22.333 -1.66699 33 -5s20.167 -8.5 28.5 -15.5s15 -15.5 20 -25.5s7.5 -22 7.5 -36z" />
    <glyph glyph-name="less" unicode="&#x3c;" horiz-adv-x="441" 
d="M389 173l-115 -117l-243 248v12l245 247l114 -117l-145 -137z" />
    <glyph glyph-name="equal" unicode="=" horiz-adv-x="557" 
d="M60 271h437v-144h-437v144zM60 486h437v-145h-437v145z" />
    <glyph glyph-name="greater" unicode="&#x3e;" horiz-adv-x="443" 
d="M202 309l-151 146l116 112l245 -250v-14l-245 -250l-114 111z" />
    <glyph glyph-name="question" unicode="?" horiz-adv-x="601" 
d="M188 230c2 34 7.16992 61.998 15.5029 83.998s18.666 40.333 30.999 55s25.666 26.667 39.999 36s28.5 18 42.5 26c16 9.33301 27.833 18.333 35.5 27s11.834 18.667 12.501 30c0.666992 15.333 -5 29.166 -17 41.499s-30.667 18.5 -56 18.5
c-11.333 0 -22 -1.16699 -32 -3.5s-18.667 -6.33301 -26 -12s-13.333 -13.167 -18 -22.5s-7 -21.333 -7 -36h-176c-4 38.667 0.666992 72.5 14 101.5s32.166 53.333 56.499 73s52.833 34.5 85.5 44.5s67 15 103 15s70.667 -4.16699 104 -12.5s62.666 -21.333 87.999 -39
s45.666 -40.167 60.999 -67.5s23 -60.333 23 -99c0 -24 -4.66699 -44.167 -14 -60.5s-20.666 -30.666 -33.999 -42.999s-28 -23.333 -44 -33s-30.833 -20.167 -44.5 -31.5s-25.167 -24.166 -34.5 -38.499s-14.333 -32.166 -15 -53.499h-194zM287.003 -5.00195
c-23.333 0 -42.833 4.83301 -58.5 14.5s-27.334 21.834 -35.001 36.501s-11.5 30.334 -11.5 47.001s3.83301 32.334 11.5 47.001s19.334 26.834 35.001 36.501s35.167 14.5 58.5 14.5s43 -4.83301 59 -14.5s28 -21.834 36 -36.501s12 -30.334 12 -47.001
s-4 -32.334 -12 -47.001s-19.833 -26.834 -35.5 -36.501s-35.5 -14.5 -59.5 -14.5z" />
    <glyph glyph-name="at" unicode="@" horiz-adv-x="922" 
d="M635 -110c-29.333 -17.333 -59.3311 -29.501 -89.998 -36.501s-59 -10.5 -85 -10.5c-51.333 0 -102.166 7.66699 -152.499 23s-95.166 39.166 -134.499 71.499s-71.166 73.666 -95.499 123.999s-36.5 110.833 -36.5 181.5c0 66.667 12.333 125.334 37 176.001
s57 93.334 97 128.001s85.5 60.834 136.5 78.501s102.833 26.5 155.5 26.5c58.667 0 113.5 -7.83301 164.5 -23.5s95.5 -39.667 133.5 -72s68 -73.833 90 -124.5s33 -111 33 -181c0 -40 -4.5 -76 -13.5 -108s-22 -59.333 -39 -82s-37.5 -40.167 -61.5 -52.5
s-50.667 -18.5 -80 -18.5c-8.66699 0 -18 1.16699 -28 3.5s-19.5 6.5 -28.5 12.5s-17.5 14 -25.5 24s-14.333 23 -19 39c-16.667 -27.333 -37.334 -46.166 -62.001 -56.499s-53.667 -15.5 -87 -15.5c-35.333 0 -67.5 5.5 -96.5 16.5s-53.833 27 -74.5 48
s-36.834 46.667 -48.501 77s-17.5 65.166 -17.5 104.499c0 40 6.83301 75.333 20.5 106s31.667 56.167 54 76.5s47.666 35.666 75.999 45.999s57.166 15.5 86.499 15.5c31.333 0 59.333 -5.83301 84 -17.5s42.667 -27.5 54 -47.5l6 49l107 -17v-321
c0 -12.667 3 -20.667 9 -24s10.333 -5 13 -5c18 0 32.5 12 43.5 36s16.5 60 16.5 108c0 54 -7.16699 100 -21.5 138s-34.833 68.833 -61.5 92.5s-59.167 40.834 -97.5 51.501s-81.5 16 -129.5 16c-40.667 0 -79.667 -7 -117 -21s-70.333 -34.167 -99 -60.5
s-51.5 -58.166 -68.5 -95.499s-25.5 -79.333 -25.5 -126c0 -53.333 8.5 -98.5 25.5 -135.5s39.5 -67.333 67.5 -91s60.5 -40.834 97.5 -51.501s75.5 -16 115.5 -16c16.667 0 36.667 2 60 6s45.666 12.667 66.999 26zM460.002 362.999
c-20 0 -37.168 -3.33398 -51.501 -10.001s-26.166 -15.667 -35.499 -27s-16.166 -24.166 -20.499 -38.499s-6.5 -28.833 -6.5 -43.5s2.16699 -29 6.5 -43s11.333 -26.5 21 -37.5s21.667 -19.833 36 -26.5s31.5 -10 51.5 -10c18.667 0 35.334 3.16699 50.001 9.5
s26.667 15 36 26s16.5 24 21.5 39s7.5 30.833 7.5 47.5c0 15.333 -2.33301 30 -7 44s-11.834 26.167 -21.501 36.5s-21.834 18.5 -36.501 24.5s-31.667 9 -51 9z" />
    <glyph glyph-name="A" unicode="A" horiz-adv-x="797" 
d="M554 115h-313l-46 -115h-210l314 700h200l313 -700h-212zM398 504l-90 -223h179z" />
    <glyph glyph-name="B" unicode="B" horiz-adv-x="739" 
d="M266 154l167 0.000976562c25.333 0 44 6.16699 56 18.5s18 28.166 18 47.499s-6.16699 35.333 -18.5 48s-30.833 19 -55.5 19h-167v-133zM266 433.001h157.999c20.667 0 36.334 4.83301 47.001 14.5s16 22.167 16 37.5s-5.33301 28.333 -16 39s-25.667 16 -45 16h-160
v-107zM428.999 700.001c34.667 0 67.5 -4 98.5 -12s58 -20 81 -36s41.167 -36.333 54.5 -61s20 -53.667 20 -87c0 -13.333 -1.16699 -26.5 -3.5 -39.5s-6.33301 -25.5 -12 -37.5s-13.5 -23.167 -23.5 -33.5s-22.667 -18.833 -38 -25.5c32.667 -17.333 57 -40.833 73 -70.5
s24 -60.5 24 -92.5c0 -39.333 -8.16699 -72 -24.5 -98s-37.333 -47 -63 -63s-54.667 -27.333 -87 -34s-64.5 -10 -96.5 -10h-361v700h358z" />
    <glyph glyph-name="C" unicode="C" horiz-adv-x="707" 
d="M697 91c-40 -39.333 -83.5039 -67.3301 -130.504 -83.9971s-97.167 -25 -150.5 -25c-68.667 0 -127.167 10 -175.5 30s-87.833 46.667 -118.5 80s-53.167 72 -67.5 116s-21.5 89.667 -21.5 137c0 44.667 7.5 89.167 22.5 133.5s38.333 84.166 70 119.499
s71.5 63.833 119.5 85.5s105 32.5 171 32.5c50.667 0 98.5 -9 143.5 -27s87.5 -46.333 127.5 -85l-122 -120c-25.333 24 -50.666 40.167 -75.999 48.5s-49.666 12.5 -72.999 12.5c-34 0 -62.833 -6.16699 -86.5 -18.5s-43 -28.333 -58 -48s-25.833 -41.334 -32.5 -65.001
s-10 -46.834 -10 -69.501s3.33301 -45.5 10 -68.5s17.334 -43.833 32.001 -62.5s33.834 -33.834 57.501 -45.501s52.834 -17.5 87.501 -17.5c12 0 25 1.33301 39 4s28.167 6.83398 42.5 12.501s28.666 13 42.999 22s27.833 19.833 40.5 32.5z" />
    <glyph glyph-name="D" unicode="D" horiz-adv-x="771" 
d="M371 700c62 0 115.833 -9 161.5 -27s83.667 -42.5 114 -73.5s53 -67.5 68 -109.5s22.5 -87 22.5 -135s-7.33301 -93.5 -22 -136.5s-37 -80.667 -67 -113s-68 -58 -114 -77s-100.333 -28.5 -163 -28.5h-300v700h300zM267 167h104.001c31.333 0 57.833 5.33301 79.5 16
s39.167 25 52.5 43s23 38.333 29 61s9 46 9 70s-3.16699 46.833 -9.5 68.5s-16.333 40.5 -30 56.5s-31.334 28.833 -53.001 38.5s-47.5 14.5 -77.5 14.5h-104v-368z" />
    <glyph glyph-name="E" unicode="E" horiz-adv-x="672" 
d="M631 0h-560v700h546v-166h-351v-100h331v-161h-331v-106h365v-167z" />
    <glyph glyph-name="F" unicode="F" horiz-adv-x="641" 
d="M71 0v700h537v-166h-341v-131h320v-162h-320v-241h-196z" />
    <glyph glyph-name="G" unicode="G" horiz-adv-x="756" 
d="M575 493c-25.333 24 -52.4961 40.168 -81.4961 48.501s-55.167 12.5 -78.5 12.5c-57.333 0 -103 -17 -137 -51s-51 -85.333 -51 -154c0 -22.667 3.16699 -45.834 9.5 -69.501s16.833 -45.334 31.5 -65.001s34 -35.667 58 -48s53.667 -18.5 89 -18.5
c9.33301 0 19.666 0.5 30.999 1.5s23 2.83301 35 5.5s24 6.33398 36 11.001s23 10.667 33 18v90h-177v155h342v-311c-11.333 -22 -27 -41.667 -47 -59s-43.167 -31.666 -69.5 -42.999s-55.166 -20 -86.499 -26s-64 -9 -98 -9c-69.333 0 -128.166 10.667 -176.499 32
s-87.833 49.166 -118.5 83.499s-52.834 73.5 -66.501 117.5s-20.5 89 -20.5 135s7.66699 91.167 23 135.5s38.666 84 69.999 119s71 63.167 119 84.5s105 32 171 32c24 0 47.667 -1.5 71 -4.5s46.166 -8.66699 68.499 -17s44.666 -19.833 66.999 -34.5
s45.166 -33.667 68.499 -57z" />
    <glyph glyph-name="H" unicode="H" horiz-adv-x="788" 
d="M521 -1v265h-252v-265h-198v700h198v-266h252v266h196v-700h-196z" />
    <glyph glyph-name="I" unicode="I" horiz-adv-x="339" 
d="M71 0v700h197v-700h-197z" />
    <glyph glyph-name="J" unicode="J" horiz-adv-x="728" 
d="M208 302c0.666992 -26 4.50098 -48.334 11.501 -67.001s16.333 -33.667 28 -45s25.167 -19.666 40.5 -24.999s31.666 -8 48.999 -8c42 0 74.5 12.333 97.5 37s34.5 61 34.5 109v231h-186v166h384v-398c0 -46 -7.16699 -88.333 -21.5 -127s-35.5 -72.167 -63.5 -100.5
s-62.667 -50.333 -104 -66s-89 -23.5 -143 -23.5c-101.333 0 -180 25.5 -236 76.5s-84 131.167 -84 240.5h193z" />
    <glyph glyph-name="K" unicode="K" horiz-adv-x="703" 
d="M690 688l-284 -331l154.5 -171l153.5 -174v-12h-245l-200 233v-233h-198v700h198v-230l92 115l92 115h237v-12z" />
    <glyph glyph-name="L" unicode="L" horiz-adv-x="620" 
d="M269 700v-532h335v-168h-533v700h198z" />
    <glyph glyph-name="M" unicode="M" horiz-adv-x="923" 
d="M656 417l-179 -212h-35l-175 211v-416h-196v700h207l184 -237l184 237h206v-700h-196v417z" />
    <glyph glyph-name="N" unicode="N" horiz-adv-x="799" 
d="M535 317c-1.33301 20.667 -2.33398 38.5 -3.00098 53.5s-1.16699 28 -1.5 39s-0.666016 20.5 -0.999023 28.5s-0.5 15.333 -0.5 22v240h199v-700h-168l-292 377l3 -153v-224h-200v700h168z" />
    <glyph glyph-name="O" unicode="O" horiz-adv-x="842" 
d="M810 350c0 -58.667 -9.5 -110.668 -28.5 -156.001s-45.667 -83.666 -80 -114.999s-75.333 -55.166 -123 -71.499s-100.167 -24.5 -157.5 -24.5s-109.833 8.16699 -157.5 24.5s-88.667 40.166 -123 71.499s-61 69.666 -80 114.999s-28.5 97.333 -28.5 156
c0 57.333 9.5 108.666 28.5 153.999s45.667 83.833 80 115.5s75.333 55.834 123 72.501s100.167 25 157.5 25s109.833 -8.16699 157.5 -24.5s88.667 -40.166 123 -71.499s61 -69.833 80 -115.5s28.5 -97.5 28.5 -155.5zM612 349.999
c0 60.667 -17.168 108.831 -51.501 144.498s-80.833 53.5 -139.5 53.5c-28 0 -53.833 -4.83301 -77.5 -14.5s-43.834 -23.334 -60.501 -41.001s-29.667 -38.667 -39 -63s-14 -50.833 -14 -79.5c0 -29.333 4.66699 -56.166 14 -80.499s22.5 -45.166 39.5 -62.499
s37.167 -30.833 60.5 -40.5s49 -14.5 77 -14.5c28.667 0 54.834 4.83301 78.501 14.5s43.834 23.334 60.501 41.001s29.5 38.5 38.5 62.5s13.5 50.667 13.5 80z" />
    <glyph glyph-name="P" unicode="P" horiz-adv-x="709" 
d="M269 356h142c28 0 48.833 8.5 62.5 25.5s20.5 37.167 20.5 60.5s-7 43.833 -21 61.5s-34.667 26.5 -62 26.5h-142v-174zM269 189l0.00195312 -189h-198v700h340c46.667 0 87.667 -6.83301 123 -20.5s64.666 -32.167 87.999 -55.5s40.833 -50.5 52.5 -81.5
s17.5 -63.5 17.5 -97.5c0 -36 -5.83301 -69.333 -17.5 -100s-29.334 -57.5 -53.001 -80.5s-53 -41.167 -88 -54.5s-75.833 -20.333 -122.5 -21h-142z" />
    <glyph glyph-name="Q" unicode="Q" horiz-adv-x="839" 
d="M806 351c0 -40 -5.16797 -77.333 -15.501 -112s-24.833 -66.667 -43.5 -96l79 -81l-132 -130l-88 90c-53.333 -25.333 -115.666 -38 -186.999 -38c-57.333 0 -109.666 8.33301 -156.999 25s-88 40.667 -122 72s-60.5 69.833 -79.5 115.5s-28.5 97.167 -28.5 154.5
s9.5 108.666 28.5 153.999s45.5 83.666 79.5 114.999s74.667 55.333 122 72s99.666 25 156.999 25s109.833 -8.33301 157.5 -25s88.5 -40.667 122.5 -72s60.333 -69.666 79 -114.999s28 -96.666 28 -153.999zM607.999 351c0 28.667 -4.33301 55.166 -13 79.499
s-21.334 45.333 -38.001 63s-36.667 31.334 -60 41.001s-49.333 14.5 -78 14.5c-28 0 -53.667 -4.83301 -77 -14.5s-43.5 -23.334 -60.5 -41.001s-30.167 -38.667 -39.5 -63s-14 -50.833 -14 -79.5c0 -30.667 4.66699 -58.167 14 -82.5s22.5 -45 39.5 -62
s37.167 -30.167 60.5 -39.5s49 -14 77 -14c58.667 0 104.834 17.333 138.501 52s50.5 83.334 50.5 146.001z" />
    <glyph glyph-name="R" unicode="R" horiz-adv-x="737" 
d="M719 0l-218.002 0.000976562l-163 227h-69v-227h-198v700h342c44.667 0 84 -6.66699 118 -20s62.333 -31.166 85 -53.499s39.834 -48 51.501 -77s17.5 -59.167 17.5 -90.5c0 -21.333 -2.16699 -42 -6.5 -62s-12 -38.833 -23 -56.5s-26.167 -34.334 -45.5 -50.001
s-43.666 -29.834 -72.999 -42.501l182 -236v-12zM268.998 542.001v-167.999h146c26 0 45 8.16699 57 24.5s18 35.166 18 56.499c0 22 -6.33301 42 -19 60s-32 27 -58 27h-144z" />
    <glyph glyph-name="S" unicode="S" horiz-adv-x="666" 
d="M502 506c-24 18 -49.6699 30.501 -77.0029 37.501s-56.333 10.5 -87 10.5c-12 0 -23.667 -1 -35 -3s-21.5 -5 -30.5 -9s-16.167 -9.33301 -21.5 -16s-8 -14.667 -8 -24c0 -12 2.83301 -21.667 8.5 -29s13.5 -13.166 23.5 -17.499s22.167 -7.5 36.5 -9.5
s30.166 -4 47.499 -6c34.667 -4 69 -10.667 103 -20s64.333 -23 91 -41s48.334 -41 65.001 -69s25 -62 25 -102s-8.66699 -74.333 -26 -103s-40.166 -52.167 -68.499 -70.5s-61 -32 -98 -41s-75.167 -13.5 -114.5 -13.5c-31.333 0 -60.833 1.5 -88.5 4.5s-54 9 -79 18
s-49.5 21.667 -73.5 38s-48 37.166 -72 62.499l109 125c17.333 -16.667 35 -30.167 53 -40.5s35.833 -18.333 53.5 -24s34.834 -9.5 51.501 -11.5s32.334 -3 47.001 -3c32.667 0 59.167 5.5 79.5 16.5s30.5 26.167 30.5 45.5c0 35.333 -39 56.666 -117 63.999
c-38 3.33301 -74.333 9 -109 17s-65 20.167 -91 36.5s-46.667 38.5 -62 66.5s-23 63.667 -23 107c0 36.667 8.33301 68.5 25 95.5s38.667 49 66 66s58.5 29.667 93.5 38s71.167 12.5 108.5 12.5c52.667 0 100 -6.33301 142 -19s82 -34 120 -64z" />
    <glyph glyph-name="T" unicode="T" horiz-adv-x="636" 
d="M219 537h-204v163h606v-163h-205v-537h-197v537z" />
    <glyph glyph-name="U" unicode="U" horiz-adv-x="782" 
d="M721 699l0.00195312 -391.002c0 -52 -7.5 -98 -22.5 -138s-36.833 -73.667 -65.5 -101s-63.334 -48.166 -104.001 -62.499s-86.667 -21.5 -138 -21.5s-97.333 6.83301 -138 20.5s-75.334 34.167 -104.001 61.5s-50.5 61.333 -65.5 102s-22.5 87.667 -22.5 141v389h197
v-389c0 -55.333 12.167 -95.166 36.5 -119.499s56.5 -36.5 96.5 -36.5s72.167 12.333 96.5 37s36.5 63.667 36.5 117v391h197z" />
    <glyph glyph-name="V" unicode="V" horiz-adv-x="749" 
d="M471 -3h-193l-291 703h219l80 -210l88 -259l89 259l80 210h219z" />
    <glyph glyph-name="W" unicode="W" horiz-adv-x="1066" 
d="M817 1l-161 0.000976562l-124 335l-120 -335h-160l-261 699h216l90 -246c8.66699 -26.667 15.667 -53.834 21 -81.501l16 -80.5l129 408h137l133 -408c10 54 23 109.667 39 167l84 241h216z" />
    <glyph glyph-name="X" unicode="X" horiz-adv-x="714" 
d="M357 469l66 126l64 105h213v-11l-220 -337l235 -344v-8h-215l-65 97l-78 130l-79 -132l-64 -95h-215v8l235 344l-220 337v11h213l65 -107z" />
    <glyph glyph-name="Y" unicode="Y" horiz-adv-x="722" 
d="M362 460l151 240h223v-9l-278 -412v-279h-198v279l-266 413v8h223z" />
    <glyph glyph-name="Z" unicode="Z" horiz-adv-x="643" 
d="M42 700h561v-56l-306 -473h314v-171h-586v62l313 478h-296v160z" />
    <glyph glyph-name="bracketleft" unicode="[" horiz-adv-x="372" 
d="M66 -157v860h271v-145h-106v-570h106v-145h-271z" />
    <glyph glyph-name="backslash" unicode="\" horiz-adv-x="533" 
d="M195 752l314 -829h-173l-313 829h172z" />
    <glyph glyph-name="bracketright" unicode="]" horiz-adv-x="374" 
d="M35 -157v145h106v570h-106v145h273v-860h-273z" />
    <glyph glyph-name="asciicircum" unicode="^" horiz-adv-x="638" 
d="M36 344l225 347h106l235 -346v-14h-177l-112 163l-105 -163h-172v13z" />
    <glyph glyph-name="underscore" unicode="_" horiz-adv-x="511" 
d="M9 3h493v-146h-493v146z" />
    <glyph glyph-name="grave" unicode="`" horiz-adv-x="288" 
d="M-3 701h193l77 -161v-6h-161l-109 159v8z" />
    <glyph glyph-name="a" unicode="a" horiz-adv-x="648" 
d="M421 494l173 0.000976562v-494h-170l-8 53c-21.333 -24 -46.833 -40.667 -76.5 -50s-58.5 -13.333 -86.5 -12c-36 2 -68.167 9.83301 -96.5 23.5s-52 31.667 -71 54s-33.5 48.666 -43.5 78.999s-15 63.5 -15 99.5c0 36.667 5.66699 70.667 17 102s27.5 58.5 48.5 81.5
s46.333 41.167 76 54.5s62.5 20 98.5 20c35.333 0 65 -5.66699 89 -17s42.667 -27 56 -47zM309 356.001c-28 0 -51.499 -9.49902 -70.499 -28.499s-28.5 -45.833 -28.5 -80.5s9.5 -61.334 28.5 -80.001s42.5 -28 70.5 -28c15.333 0 29.333 2.83301 42 8.5
s23.5 13.5 32.5 23.5s15.833 21.5 20.5 34.5s7 26.833 7 41.5c0 33.333 -8.83301 59.833 -26.5 79.5s-42.834 29.5 -75.501 29.5z" />
    <glyph glyph-name="b" unicode="b" horiz-adv-x="643" 
d="M238 452c13.333 16.667 31.5 29.6689 54.5 39.002s50.5 14 82.5 14c36 0 68.667 -6.33301 98 -19s54.5 -30.5 75.5 -53.5s37.333 -50.167 49 -81.5s17.5 -66 17.5 -104c0 -78.667 -19.5 -139.834 -58.5 -183.501s-94.833 -67.834 -167.5 -72.501
c-28 -1.33301 -56.833 2.66699 -86.5 12s-55.167 26 -76.5 50l-8 -53h-164v700h184v-248zM333 356.002c-16 0 -30.168 -3.1709 -42.501 -9.50391s-22.666 -14.666 -30.999 -24.999s-14.666 -22.5 -18.999 -36.5s-6.5 -28.333 -6.5 -43
c0 -13.333 2.16699 -26.166 6.5 -38.499s10.833 -23.166 19.5 -32.499s19.167 -17 31.5 -23s26.166 -9 41.499 -9c28 0 51.5 9.33301 70.5 28s28.5 45.334 28.5 80.001s-9.5 61.5 -28.5 80.5s-42.5 28.5 -70.5 28.5z" />
    <glyph glyph-name="c" unicode="c" horiz-adv-x="519" 
d="M511 74c-30 -26.667 -62.1699 -47.335 -96.5029 -62.002s-70.166 -22 -107.499 -22c-36 0 -70.833 4.66699 -104.5 14s-63.5 24.166 -89.5 44.499s-46.833 46.833 -62.5 79.5s-23.5 72 -23.5 118c0 44.667 7.83301 83.334 23.5 116.001s36.5 59.667 62.5 81
s55.667 37 89 47s67.333 15 102 15c36 0 70.833 -6.33301 104.5 -19s63.5 -32 89.5 -58l-98 -106c-23.333 24 -51.666 36 -84.999 36c-35.333 0 -62.166 -11 -80.499 -33s-27.5 -48.667 -27.5 -80c0 -13.333 2.33301 -26.166 7 -38.499s11.5 -23.166 20.5 -32.499
s20.167 -16.833 33.5 -22.5s28.666 -8.5 45.999 -8.5s33.833 3.5 49.5 10.5s29.834 17.167 42.501 30.5z" />
    <glyph glyph-name="d" unicode="d" horiz-adv-x="643" 
d="M405 700l184 -0.00195312v-700h-164l-8 53c-21.333 -24 -46.833 -40.667 -76.5 -50s-58.5 -13.333 -86.5 -12c-72.667 4.66699 -128.5 28.834 -167.5 72.501s-58.5 104.834 -58.5 183.501c0 38 5.66699 72.667 17 104s27.5 58.5 48.5 81.5s46.333 40.833 76 53.5
s62.5 19 98.5 19c32 0 59.5 -4.66699 82.5 -14s41.167 -22.333 54.5 -39v248zM310 355.998c-28 0 -51.5 -9.49609 -70.5 -28.4961s-28.5 -45.833 -28.5 -80.5s9.5 -61.334 28.5 -80.001s42.5 -28 70.5 -28c15.333 0 29.166 3 41.499 9s22.666 13.667 30.999 23
s14.833 20.166 19.5 32.499s7 25.166 7 38.499c0 14.667 -2.16699 29 -6.5 43s-10.666 26.167 -18.999 36.5s-18.666 18.666 -30.999 24.999s-26.5 9.5 -42.5 9.5z" />
    <glyph glyph-name="e" unicode="e" horiz-adv-x="590" 
d="M393 313c-0.666992 12.667 -5.33105 23.501 -13.998 32.501s-19.334 15.667 -32.001 20s-26.334 6.66602 -41.001 6.99902s-28.5 -1.66699 -41.5 -6s-24.167 -11 -33.5 -20s-15 -20.167 -17 -33.5h179zM302.003 506.001c44 0 84 -6.99805 120 -20.998
s65.833 -34.333 89.5 -61s40 -59.334 49 -98.001s8.16699 -82.334 -2.5 -131.001h-345c3.33301 -11.333 9 -20.833 17 -28.5s17.333 -14.167 28 -19.5s21.667 -9.16602 33 -11.499s22 -3.5 32 -3.5c27.333 0 51.333 3.66699 72 11s39 17 55 29l90 -101
c-30 -28 -64.333 -48.667 -103 -62s-79.334 -20 -122.001 -20c-39.333 0 -76.333 5 -111 15s-65.167 25.333 -91.5 46s-47.166 47.167 -62.499 79.5s-23 71.166 -23 116.499c0 44.667 8 83.5 24 116.5s37 60 63 81s55.5 36.667 88.5 47s66.167 15.5 99.5 15.5z" />
    <glyph glyph-name="f" unicode="f" horiz-adv-x="428" 
d="M102 0l0.00195312 343h-84v142h84v24c0 36 6.33301 66.833 19 92.5s29.167 46.667 49.5 63s43.166 28.166 68.499 35.499s50.666 11 75.999 11c28.667 0 56 -4.5 82 -13.5s48.333 -22.5 67 -40.5l-56 -111c-10 8.66699 -20.667 14.834 -32 18.501s-23 5.5 -35 5.5
c-14.667 0 -27.5 -4.83301 -38.5 -14.5s-16.5 -25.167 -16.5 -46.5v-24h128v-142h-128v-343h-184z" />
    <glyph glyph-name="g" unicode="g" horiz-adv-x="615" 
d="M207 -35c-0.666992 -19.333 1.49805 -34.998 6.49805 -46.998s11.833 -21.5 20.5 -28.5s18.834 -11.833 30.501 -14.5s23.5 -4 35.5 -4c24 0 45.167 5.83301 63.5 17.5s27.5 29.5 27.5 53.5c0 18 -6.5 33.5 -19.5 46.5s-36.167 19.5 -69.5 19.5
c-41.333 0 -79 5.83301 -113 17.5s-63 28.167 -87 49.5s-42.5 47.5 -55.5 78.5s-19.5 65.5 -19.5 103.5c0 38.667 7.16699 73.667 21.5 105s33.833 58 58.5 80s53.834 38.833 87.501 50.5s69.5 17.5 107.5 17.5c33.333 0 67.333 -6.33301 102 -19l27 34.5l26 33.5l133 -95
l-64 -76c18 -20 30.667 -41.667 38 -65s10.333 -46 9 -68c-0.666992 -31.333 -8.66699 -61.333 -24 -90s-37.333 -53.334 -66 -74.001c22.667 -13.333 40.5 -27.166 53.5 -41.499s22.667 -28.333 29 -42s10.333 -26.334 12 -38.001s2.5 -20.834 2.5 -27.501
c0 -40 -8 -74 -24 -102s-37 -50.667 -63 -68s-55.833 -30 -89.5 -38s-68.167 -12 -103.5 -12c-44 0 -83.167 5.5 -117.5 16.5s-62.833 27 -85.5 48s-39.5 46.5 -50.5 76.5s-15.167 64 -12.5 102h173zM301.998 359.002c-27.333 0 -50.1689 -8.66602 -68.502 -25.999
s-27.5 -42.666 -27.5 -75.999c0 -30 9.16699 -53.667 27.5 -71s41.166 -26 68.499 -26c24.667 0 46.334 7.83301 65.001 23.5s28 40.167 28 73.5c0 14 -2.33301 27.167 -7 39.5s-11.167 23.166 -19.5 32.499s-18.166 16.666 -29.499 21.999s-23.666 8 -36.999 8z" />
    <glyph glyph-name="h" unicode="h" horiz-adv-x="613" 
d="M240 700v-259.002c17.333 22.667 36.166 39 56.499 49s45.5 15 75.5 15c24.667 0 48.667 -4.33301 72 -13s44 -22.167 62 -40.5s32.5 -42.166 43.5 -71.499s16.5 -64.666 16.5 -105.999v-274h-183v273c-1.33301 28 -8.16602 47.167 -20.499 57.5s-27.833 15.5 -46.5 15.5
c-18 0 -35.167 -6.83301 -51.5 -20.5s-24.833 -35.167 -25.5 -64.5v-261h-185v700h186z" />
    <glyph glyph-name="i" unicode="i" horiz-adv-x="293" 
d="M43 621c0 15.333 3 28.833 9 40.5s13.833 21.334 23.5 29.001s20.667 13.5 33 17.5s25.166 6 38.499 6c12.667 0 25.167 -2 37.5 -6s23.333 -9.83301 33 -17.5s17.5 -17.334 23.5 -29.001s9 -25.167 9 -40.5s-3 -28.666 -9 -39.999s-13.833 -20.833 -23.5 -28.5
s-20.667 -13.5 -33 -17.5s-24.833 -6 -37.5 -6c-13.333 0 -26.166 2 -38.499 6s-23.333 9.83301 -33 17.5s-17.5 17.167 -23.5 28.5s-9 24.666 -9 39.999zM54 0v486h185v-486h-185z" />
    <glyph glyph-name="j" unicode="j" horiz-adv-x="292" 
d="M43 621c0 15.333 3 28.833 9 40.5s13.833 21.334 23.5 29.001s20.667 13.5 33 17.5s25.166 6 38.499 6c12.667 0 25.167 -2 37.5 -6s23.333 -9.83301 33 -17.5s17.5 -17.334 23.5 -29.001s9 -25.167 9 -40.5s-3 -28.666 -9 -39.999s-13.833 -20.833 -23.5 -28.5
s-20.667 -13.5 -33 -17.5s-24.833 -6 -37.5 -6c-13.333 0 -26.166 2 -38.499 6s-23.333 9.83301 -33 17.5s-17.5 17.167 -23.5 28.5s-9 24.666 -9 39.999zM-35 -72c27.333 -15.333 49 -18.6689 65 -10.002s24 28.334 24 59.001v509h184v-509
c0 -48 -8.5 -87.833 -25.5 -119.5s-39 -54.667 -66 -69s-55.5 -21.5 -85.5 -21.5c-12 -0.666992 -24.167 -0.166992 -36.5 1.5s-26.333 4.83398 -42 9.50098s-33.167 11.667 -52.5 21z" />
    <glyph glyph-name="k" unicode="k" horiz-adv-x="569" 
d="M239 700v-351l103 145h205v-8l-173 -224l201 -251v-11h-208l-128 172v-172h-185v700h185z" />
    <glyph glyph-name="l" unicode="l" horiz-adv-x="290" 
d="M236 701v-701h-182v701h182z" />
    <glyph glyph-name="m" unicode="m" horiz-adv-x="882" 
d="M354 0v273.997c0 28.667 -4.5 48.5 -13.5 59.5s-21.833 16.5 -38.5 16.5c-15.333 0 -29.833 -6.33301 -43.5 -19s-20.834 -32.667 -21.501 -60v-271h-183v494h155l13 -53c15.333 21.333 35.5 37.333 60.5 48s50.167 15.667 75.5 15s49 -6.66699 71 -18
s39.333 -28.666 52 -51.999c20.667 25.333 44.667 43.5 72 54.5s58 16.5 92 16.5c26.667 0 51.5 -4.33301 74.5 -13s43 -22.167 60 -40.5s30.333 -42.166 40 -71.499s14.5 -64.333 14.5 -105v-275h-184v274c0 26 -5.16699 44.667 -15.5 56s-22.166 17 -35.499 17
c-15.333 0 -29.833 -5.66699 -43.5 -17s-20.5 -30.666 -20.5 -57.999v-272h-181z" />
    <glyph glyph-name="n" unicode="n" 
d="M390 0l0.000976562 273c0 15.333 -2 28.166 -6 38.499s-9.33301 18.833 -16 25.5s-14 11.334 -22 14.001s-16.333 4 -25 4c-22 0 -41.667 -7.66699 -59 -23s-26 -39.333 -26 -72v-260h-182v494h163l8 -54c21.333 24.667 46.166 42 74.499 52s55.5 14.667 81.5 14
c26 0 50.667 -3.83301 74 -11.5s43.833 -20.5 61.5 -38.5s31.667 -41.833 42 -71.5s15.5 -66.5 15.5 -110.5v-274h-184z" />
    <glyph glyph-name="o" unicode="o" horiz-adv-x="618" 
d="M309 505c36.667 0 72.002 -4.99902 106.002 -14.999s64 -25.667 90 -47s46.833 -48.333 62.5 -81s23.5 -71.334 23.5 -116.001c0 -45.333 -8.16699 -84.166 -24.5 -116.499s-37.833 -59 -64.5 -80s-56.834 -36.5 -90.501 -46.5s-67.834 -15 -102.501 -15
c-35.333 0 -70 5 -104 15s-64.167 25.5 -90.5 46.5s-47.5 47.667 -63.5 80s-24 71.166 -24 116.499c0 46 8 85.333 24 118s37.167 59.5 63.5 80.5s56.333 36.333 90 46s68.5 14.5 104.5 14.5zM309.002 139.001c31.333 0 56.1699 10.333 74.5029 31s27.5 46 27.5 76
c0 14 -2.33301 27.5 -7 40.5s-11.334 24.5 -20.001 34.5s-19.334 18 -32.001 24s-27 9 -43 9s-30.333 -3 -43 -9s-23.334 -14 -32.001 -24s-15.334 -21.5 -20.001 -34.5s-7 -26.5 -7 -40.5c0 -28.667 8.83301 -53.667 26.5 -75s42.834 -32 75.501 -32z" />
    <glyph glyph-name="p" unicode="p" horiz-adv-x="643" 
d="M238 -206l-184 0.00195312v700h164l8 -53c21.333 24 46.833 40.667 76.5 50s58.5 13.333 86.5 12c72.667 -4.66699 128.5 -28.834 167.5 -72.501s58.5 -104.834 58.5 -183.501c0 -38 -5.83301 -72.667 -17.5 -104s-28 -58.5 -49 -81.5s-46.167 -40.833 -75.5 -53.5
s-62 -19 -98 -19c-32 0 -59.5 4.66699 -82.5 14s-41.167 22.333 -54.5 39v-248zM333 138.002c28 0 51.501 9.49902 70.501 28.499s28.5 45.833 28.5 80.5s-9.5 61.334 -28.5 80.001s-42.5 28 -70.5 28c-15.333 0 -29.166 -3 -41.499 -9s-22.833 -13.667 -31.5 -23
s-15.167 -20.333 -19.5 -33s-6.5 -25.334 -6.5 -38.001c0 -15.333 2.16699 -29.833 6.5 -43.5s10.666 -25.667 18.999 -36s18.666 -18.666 30.999 -24.999s26.5 -9.5 42.5 -9.5z" />
    <glyph glyph-name="q" unicode="q" horiz-adv-x="643" 
d="M405 42c-13.333 -16.667 -31.5 -29.6689 -54.5 -39.002s-50.5 -14 -82.5 -14c-36 0 -68.833 6.33301 -98.5 19s-55 30.5 -76 53.5s-37.167 50.167 -48.5 81.5s-17 66 -17 104c0 78.667 19.5 139.834 58.5 183.501s94.833 67.834 167.5 72.501
c28 1.33301 56.833 -2.66699 86.5 -12s55.167 -26 76.5 -50l8 53h164v-700h-184v248zM310 137.998c16 0 30.167 3.16797 42.5 9.50098s22.666 14.666 30.999 24.999s14.666 22.333 18.999 36s6.5 28.167 6.5 43.5c0 12.667 -2.33301 25.334 -7 38.001
s-11.167 23.667 -19.5 33s-18.666 17 -30.999 23s-26.166 9 -41.499 9c-28 0 -51.5 -9.33301 -70.5 -28s-28.5 -45.334 -28.5 -80.001s9.5 -61.5 28.5 -80.5s42.5 -28.5 70.5 -28.5z" />
    <glyph glyph-name="r" unicode="r" horiz-adv-x="472" 
d="M219 494l10.999 -53.998c13.333 23.333 30.666 40.166 51.999 50.499s44 15.5 68 15.5c25.333 0 49.333 -4.5 72 -13.5s42 -22.167 58 -39.5l-74 -133c-15.333 12 -29.166 20 -41.499 24s-26.166 6 -41.499 6c-23.333 0 -43.333 -7.33301 -60 -22
s-25 -38.334 -25 -71.001v-257h-184v494h165z" />
    <glyph glyph-name="s" unicode="s" horiz-adv-x="511" 
d="M79 186c18.667 -12 36.5 -21.6689 53.5 -29.002s32.833 -12.833 47.5 -16.5s28.167 -6 40.5 -7s23.5 -1.83301 33.5 -2.5c33.333 0 50 8 50 24c0 15.333 -17.333 24.333 -52 27c-24 0.666992 -48.5 3.83398 -73.5 9.50098s-47.833 14.834 -68.5 27.501
s-37.5 29.167 -50.5 49.5s-19.5 45.5 -19.5 75.5s6.5 55.167 19.5 75.5s30 37 51 50s45.167 22.333 72.5 28s55.666 8.5 84.999 8.5c40 0 77.667 -5.5 113 -16.5s65 -25.5 89 -43.5l-78 -110c-6.66699 4 -15 8 -25 12s-20.667 7.33301 -32 10s-22.833 4.66699 -34.5 6
s-22.5 2 -32.5 2c-13.333 0 -24 -1.66699 -32 -5s-12 -9.66602 -12 -18.999c0 -4.66699 2.33301 -9.66699 7 -15s14.667 -8.33301 30 -9c26 -0.666992 52.333 -3.5 79 -8.5s51 -13.5 73 -25.5s40 -28.333 54 -49s21 -47.334 21 -80.001c0 -30.667 -6.33301 -56.667 -19 -78
s-29.667 -38.666 -51 -51.999s-45.833 -23 -73.5 -29s-56.5 -9 -86.5 -9c-21.333 0 -43.166 1.5 -65.499 4.5s-44 7.16699 -65 12.5s-40.833 12.166 -59.5 20.499s-35 17.5 -49 27.5z" />
    <glyph glyph-name="t" unicode="t" horiz-adv-x="432" 
d="M281 634v-143.001h111v-141h-112v-162c0.666992 -17.333 5.5 -29.666 14.5 -36.999s20.5 -11 34.5 -11c9.33301 0 18.833 1.5 28.5 4.5s18.167 7.16699 25.5 12.5l40 -136c-21.333 -12 -44 -20.5 -68 -25.5s-48.667 -7.5 -74 -7.5c-24.667 0 -48.167 3.16699 -70.5 9.5
s-42 17.166 -59 32.499s-30.333 35.833 -40 61.5s-14.167 57.834 -13.5 96.501v162h-79v141h79v123z" />
    <glyph glyph-name="u" unicode="u" 
d="M232 494v-273c0 -15.333 2 -28.166 6 -38.499s9.16699 -18.833 15.5 -25.5s13.666 -11.334 21.999 -14.001s16.833 -4 25.5 -4c22 0 41.667 7.16699 59 21.5s26 37.833 26 70.5v263h182v-494h-163l-8 54c-21.333 -24.667 -46.166 -42 -74.499 -52
s-55.5 -14.667 -81.5 -14c-26 0 -50.667 3.83301 -74 11.5s-43.833 20.5 -61.5 38.5s-31.667 41.833 -42 71.5s-15.5 66.5 -15.5 110.5v274h184z" />
    <glyph glyph-name="v" unicode="v" horiz-adv-x="589" 
d="M241 356l53 -160l50 160l53 138h195l-204 -497h-183l-213 497h195z" />
    <glyph glyph-name="w" unicode="w" horiz-adv-x="836" 
d="M474 494l87 -275l37 140l46 135h193l-181 -497h-169l-69 187l-68 -187h-171l-180 497h192l47 -136l38 -139l87 275h111z" />
    <glyph glyph-name="x" unicode="x" horiz-adv-x="566" 
d="M283 139l-48 -84l-32 -55h-203l166 248l-150 237v9h198l34 -60l35 -70l35 69l34 61h198v-9l-149 -236l165 -249h-203l-32 55z" />
    <glyph glyph-name="y" unicode="y" horiz-adv-x="582" 
d="M591 494l-306 -703h-192l100 231l-196 472h195l42 -118l54 -171l60 172l46 117h197z" />
    <glyph glyph-name="z" unicode="z" horiz-adv-x="495" 
d="M455 494v-62l-188 -274h197v-158h-441v57l197 291h-178v146h413z" />
    <glyph glyph-name="braceleft" unicode="{" horiz-adv-x="386" 
d="M350 -146c-16 -3.33301 -32.6689 -5.83398 -50.002 -7.50098s-31.666 -2.5 -42.999 -2.5c-59.333 0 -102 15.833 -128 47.5s-39 74.167 -39 127.5v141c0 6 -0.666992 12.167 -2 18.5s-4.16602 12.333 -8.49902 18s-10.666 10.167 -18.999 13.5s-19.5 5 -33.5 5v128
c14 0 25.167 1.66699 33.5 5s14.666 7.66602 18.999 12.999s7.16602 11.333 8.49902 18s2 13.334 2 20.001v133c0 28.667 2.83301 54.334 8.5 77.001s15.167 42 28.5 58s30.5 28.167 51.5 36.5s47.167 12.5 78.5 12.5c11.333 0 25.333 -0.666992 42 -2
s33.667 -3.66602 51 -6.99902v-122c-10.667 2 -21.167 3.16699 -31.5 3.5s-19.666 -1.33398 -27.999 -5.00098s-15 -10.167 -20 -19.5s-7.5 -22.333 -7.5 -39v-140c0 -11.333 -0.166992 -22.166 -0.5 -32.499s-2 -20 -5 -29s-7.66699 -17.333 -14 -25
s-15.5 -14.834 -27.5 -21.501c21.333 -12 34.5 -26.833 39.5 -44.5s7.5 -37.5 7.5 -59.5v-136c0 -15.333 2.66699 -26.833 8 -34.5s12 -13 20 -16s17.167 -4.16699 27.5 -3.5s20.833 1.66699 31.5 3v-132z" />
    <glyph glyph-name="bar" unicode="|" horiz-adv-x="311" 
d="M245 -70h-179v820h179v-820z" />
    <glyph glyph-name="braceright" unicode="}" horiz-adv-x="386" 
d="M36 -14c10.667 -1.33301 21.166 -2.33203 31.499 -2.99902s19.5 0.5 27.5 3.5s14.667 8.33301 20 16s8 19.167 8 34.5v136c0 22 2.5 41.833 7.5 59.5s18.167 32.5 39.5 44.5c-12 6.66699 -21.167 13.834 -27.5 21.501s-11 16 -14 25s-4.66699 18.667 -5 29
s-0.5 21.166 -0.5 32.499v140c0 16.667 -2.5 29.667 -7.5 39s-11.667 15.833 -20 19.5s-17.666 5.33398 -27.999 5.00098s-20.833 -1.5 -31.5 -3.5v122c17.333 3.33301 34.333 5.66602 51 6.99902s30.667 2 42 2c30.667 0 56.667 -4.16699 78 -12.5
s38.666 -20.5 51.999 -36.5s22.833 -35.333 28.5 -58s8.5 -48.334 8.5 -77.001v-133c0 -6.66699 0.666992 -13.334 2 -20.001s4.16602 -12.667 8.49902 -18s10.666 -9.66602 18.999 -12.999s19.5 -5 33.5 -5v-128c-14 0 -25.167 -1.66699 -33.5 -5
s-14.666 -7.83301 -18.999 -13.5s-7.16602 -11.667 -8.49902 -18s-2 -12.5 -2 -18.5v-141c0 -53.333 -13 -95.833 -39 -127.5s-68.667 -47.5 -128 -47.5c-11.333 0 -25.666 0.833008 -42.999 2.5s-34 4.16699 -50 7.5v132z" />
    <glyph glyph-name="asciitilde" unicode="~" horiz-adv-x="619" 
d="M170 208l-122.999 44.999c3.33301 22.667 9.5 43.667 18.5 63s20.5 35.833 34.5 49.5s30.833 24.334 50.5 32.001s41.5 11.167 65.5 10.5c17.333 -0.666992 34.166 -4.16699 50.499 -10.5s32 -13.333 47 -21l43 -21.5c13.667 -6.66699 26.334 -10.5 38.001 -11.5
s22.167 2.16699 31.5 9.5s17.666 21.333 24.999 42l123 -45c-3.33301 -22.667 -9.5 -43.667 -18.5 -63s-20.5 -35.833 -34.5 -49.5s-30.833 -24.334 -50.5 -32.001s-41.5 -11.167 -65.5 -10.5c-17.333 0 -33.5 3.33301 -48.5 10s-29.167 13.834 -42.5 21.501l-38.5 21.5
c-12.333 6.66699 -24.333 10.5 -36 11.5s-23.167 -2.16699 -34.5 -9.5s-23 -21.333 -35 -42z" />
    <glyph glyph-name="nonbreakingspace" unicode="&#xa0;" horiz-adv-x="227" 
 />
    <glyph glyph-name="exclamdown" unicode="&#xa1;" horiz-adv-x="303" 
d="M244 269l3 -470h-194l4 470h187zM152 504c23.333 0 42.833 -4.83301 58.5 -14.5s27.334 -21.834 35.001 -36.501s11.5 -30.334 11.5 -47.001s-3.83301 -32.334 -11.5 -47.001s-19.334 -26.834 -35.001 -36.501s-35.167 -14.5 -58.5 -14.5s-43 4.83301 -59 14.5
s-28 21.834 -36 36.501s-12 30.334 -12 47.001s4 32.334 12 47.001s19.833 26.834 35.5 36.501s35.5 14.5 59.5 14.5z" />
    <glyph glyph-name="cent" unicode="&#xa2;" horiz-adv-x="561" 
d="M527 74c-21.333 -19.333 -44.1689 -35.6699 -68.502 -49.0029s-49.5 -22.666 -75.5 -27.999v-76h-161v82c-25.333 6.66699 -48.833 16.5 -70.5 29.5s-40.5 29.5 -56.5 49.5s-28.667 43.5 -38 70.5s-14 58.167 -14 93.5c0 34 4.66699 64.5 14 91.5s22 50.667 38 71
s34.833 37.333 56.5 51s45.167 24.167 70.5 31.5v85h161v-78c24 -5.33301 47.167 -13.833 69.5 -25.5s42.833 -26.5 61.5 -44.5l-98 -106c-23.333 24 -51.666 36 -84.999 36c-35.333 0 -62.166 -11 -80.499 -33s-27.5 -48.667 -27.5 -80
c0 -13.333 2.33301 -26.166 7 -38.499s11.5 -23.166 20.5 -32.499s20.167 -16.833 33.5 -22.5s28.666 -8.5 45.999 -8.5s33.833 3.5 49.5 10.5s29.834 17.167 42.501 30.5z" />
    <glyph glyph-name="sterling" unicode="&#xa3;" horiz-adv-x="669" 
d="M291 472c0 -10.667 0.836914 -22.002 2.50391 -34.002s4.16699 -23.667 7.5 -35h189v-136h-166c1.33301 -8.66699 1.5 -18.167 0.5 -28.5s-2.83301 -20.5 -5.5 -30.5s-6.16699 -19.5 -10.5 -28.5s-9.5 -16.5 -15.5 -22.5h333v-157h-576v156
c16 0.666992 29.667 4.5 41 11.5s20.666 16 27.999 27s12.333 22.833 15 35.5s3.66699 25 3 37h-87v136h60c-2.66699 10.667 -4.83398 22.334 -6.50098 35.001s-2.83398 23.667 -3.50098 33c-1.33301 34.667 3.33398 66.667 14.001 96s27.167 54.5 49.5 75.5
s50 37.5 83 49.5s71.167 18 114.5 18c38 0 72.667 -4.66699 104 -14s58.166 -23.333 80.499 -42s39.333 -42.167 51 -70.5s16.5 -61.833 14.5 -100.5h-175c-0.666992 24.667 -7.33398 42.834 -20.001 54.501s-29 17.5 -49 17.5c-23.333 0 -41.833 -6.83301 -55.5 -20.5
s-20.5 -34.5 -20.5 -62.5z" />
    <glyph glyph-name="currency" unicode="&#xa4;" horiz-adv-x="632" 
d="M316 233c23.333 0 41.833 6.66699 55.5 20s20.5 32 20.5 56s-6.83301 42.667 -20.5 56s-32.167 20 -55.5 20s-41.833 -6.66699 -55.5 -20s-20.5 -32 -20.5 -56s6.83301 -42.667 20.5 -56s32.167 -20 55.5 -20zM316 520c13.333 0 26.667 -0.834961 40 -2.50195
s26.666 -4.16699 39.999 -7.5l68 69l121 -121l-56 -56c12 -26 18 -57 18 -93c0 -18 -1.66699 -34.667 -5 -50s-7.66602 -29.666 -12.999 -42.999l55 -54l-121 -121l-67 67c-27.333 -7.33301 -54 -11 -80 -11c-29.333 0 -56.333 3.33301 -81 10l-66 -67l-121 121l55 56
c-11.333 26.667 -17 57.334 -17 92.001c0 34 5.66699 64.333 17 91l-58 58l121 121l70 -69c24 6.66699 50.667 10 80 10z" />
    <glyph glyph-name="yen" unicode="&#xa5;" horiz-adv-x="797" 
d="M139 229h157v41h-157v127h80l-191 295v8h220l74 -123l74 -140l76 139l78 124h220v-9l-200 -294h80v-127h-160v-41h160v-119h-160v-110h-194v110h-157v119z" />
    <glyph glyph-name="brokenbar" unicode="&#xa6;" horiz-adv-x="318" 
d="M66 339v360h186v-360h-186zM252 280v-366h-186v366h186z" />
    <glyph glyph-name="section" unicode="&#xa7;" horiz-adv-x="639" 
d="M116 186c21.333 -14.667 41.834 -26.168 61.501 -34.501s38.167 -14.666 55.5 -18.999s33.166 -7 47.499 -8s27.166 -1.5 38.499 -1.5c29.333 0 52.5 2.5 69.5 7.5s25.5 12.833 25.5 23.5c0 8.66699 -7.83301 15.667 -23.5 21s-38.167 7.66602 -67.5 6.99902
c-32 -0.666992 -64 1.83301 -96 7.5s-60.833 15 -86.5 28s-46.334 30 -62.001 51s-22.5 47.167 -20.5 78.5c0.666992 14.667 7.33398 31.334 20.001 50.001s29.667 32.334 51 41.001c-26 14 -43.333 30.667 -52 50s-13 36.333 -13 51c0 34 8.5 62 25.5 84
s38.833 39.5 65.5 52.5s56 22 88 27s62.667 7.5 92 7.5c18.667 0 37.667 -0.666992 57 -2s39 -4.66602 59 -9.99902s40 -13.166 60 -23.499s40 -24.5 60 -42.5l-97 -96c-15.333 11.333 -35 20.166 -59 26.499s-50.667 9.5 -80 9.5c-60 0 -90 -9.66699 -90 -29
c0 -9.33301 7.33301 -16 22 -20s35.334 -6 62.001 -6c29.333 0 60.166 -2.16699 92.499 -6.5s61.5 -12.5 87.5 -24.5s47.167 -29 63.5 -51s23.166 -50.667 20.499 -86c-2 -15.333 -8.66699 -31.333 -20 -48s-25.333 -30.667 -42 -42c19.333 -13.333 34.333 -29.333 45 -48
s16 -37 16 -55c0 -38 -10 -68.5 -30 -91.5s-44.167 -40.5 -72.5 -52.5s-58.5 -20 -90.5 -24s-60 -6 -84 -6c-25.333 0 -50.166 1.16699 -74.499 3.5s-48.166 6.66602 -71.499 12.999s-46 15.166 -68 26.499s-43.333 26 -64 44zM421.001 350.999
c0 13.333 -8.33398 23.166 -25.001 29.499s-39 9.5 -67 9.5c-30 0 -54.167 -3 -72.5 -9s-27.5 -15.667 -27.5 -29c0 -12 8.33301 -21.333 25 -28s37.667 -10 63 -10c8.66699 0 18.834 0.333008 30.501 1s23 2.33398 34 5.00098s20.333 6.5 28 11.5s11.5 11.5 11.5 19.5z" />
    <glyph glyph-name="dieresis" unicode="&#xa8;" horiz-adv-x="565" 
d="M38 626c0 14 2.66699 26.333 8 37s12.333 19.667 21 27s18.5 12.833 29.5 16.5s22.5 5.5 34.5 5.5s23.667 -1.83301 35 -5.5s21.5 -9.16699 30.5 -16.5s16.167 -16.333 21.5 -27s8 -23 8 -37c0 -13.333 -2.66699 -25.166 -8 -35.499s-12.5 -19 -21.5 -26
s-19.167 -12.333 -30.5 -16s-23 -5.5 -35 -5.5s-23.5 1.83301 -34.5 5.5s-20.833 9 -29.5 16s-15.667 15.667 -21 26s-8 22.166 -8 35.499zM328 626c0 14 2.66699 26.333 8 37s12.5 19.667 21.5 27s19.167 12.833 30.5 16.5s23 5.5 35 5.5
c11.333 0 22.666 -1.83301 33.999 -5.5s21.5 -9.16699 30.5 -16.5s16.167 -16.333 21.5 -27s8 -23 8 -37c0 -13.333 -2.66699 -25.166 -8 -35.499s-12.5 -19 -21.5 -26s-19.167 -12.333 -30.5 -16s-22.666 -5.5 -33.999 -5.5c-12 0 -23.667 1.83301 -35 5.5
s-21.5 9 -30.5 16s-16.167 15.667 -21.5 26s-8 22.166 -8 35.499z" />
    <glyph glyph-name="copyright" unicode="&#xa9;" horiz-adv-x="818" 
d="M413 721c58 0 109.667 -9.16602 155 -27.499s83.5 -43.833 114.5 -76.5s54.667 -71.334 71 -116.001s24.5 -93 24.5 -145c0 -52.667 -8.16699 -101.334 -24.5 -146.001s-40 -83.167 -71 -115.5s-69.167 -57.666 -114.5 -75.999s-97 -27.5 -155 -27.5
c-57.333 0 -109.166 9.16699 -155.499 27.5s-85.666 43.666 -117.999 75.999s-57.166 70.833 -74.499 115.5s-26 93.334 -26 146.001c0 50.667 8.66699 98.167 26 142.5s42.166 83 74.499 116s71.666 59 117.999 78s98.166 28.5 155.499 28.5zM225 352.001
c2 32 8.49805 59.998 19.498 83.998s25.5 44.333 43.5 61s38.833 29.167 62.5 37.5s48.5 12.5 74.5 12.5c56.667 0 106.667 -21 150 -63l-67 -66c-9.33301 8.66699 -21.166 15.834 -35.499 21.501s-28.5 8.5 -42.5 8.5c-26 0 -49 -7.66699 -69 -23s-30 -39.666 -30 -72.999
c0 -15.333 2.83301 -28.5 8.5 -39.5s13.167 -20.167 22.5 -27.5s19.833 -12.833 31.5 -16.5s23.834 -5.5 36.501 -5.5c31.333 0 58 11 80 33l68 -68c-24.667 -24 -50 -40.833 -76 -50.5s-53 -14.5 -81 -14.5c-25.333 0 -49.833 4.16699 -73.5 12.5s-44.5 20.5 -62.5 36.5
s-32.5 35.667 -43.5 59s-16.5 50.333 -16.5 81zM148.998 355.999c0 -40 6.33301 -76.502 19 -109.502s30.5 -61.167 53.5 -84.5s50.667 -41.5 83 -54.5s68.5 -19.5 108.5 -19.5s75.833 6.33301 107.5 19s58.5 30.667 80.5 54s38.833 51.5 50.5 84.5s17.5 69.833 17.5 110.5
s-5.83301 77.334 -17.5 110.001s-28.5 60.667 -50.5 84s-48.833 41.333 -80.5 54s-67.5 19 -107.5 19s-76.167 -6.66699 -108.5 -20s-60 -31.666 -83 -54.999s-40.833 -51.5 -53.5 -84.5s-19 -68.833 -19 -107.5z" />
    <glyph glyph-name="ordfeminine" unicode="&#xaa;" horiz-adv-x="438" 
d="M287 694l107.001 0.000976562v-332h-113l-8 44c-10.667 -20.667 -25.334 -34.5 -44.001 -41.5s-38 -10.5 -58 -10.5c-22 1.33301 -42.5 5.83301 -61.5 13.5s-35.5 18.667 -49.5 33s-24.833 32.166 -32.5 53.499s-11.5 46 -11.5 74s4 52.833 12 74.5
s19.167 39.667 33.5 54s31.166 25.333 50.499 33s40.333 11.5 63 11.5c28 0 49.333 -4.83301 64 -14.5s26.334 -21.167 35.001 -34.5zM199.001 588.001c-16.667 0 -30.5 -5.16895 -41.5 -15.502s-16.5 -25.166 -16.5 -44.499c0 -20 5.5 -35.167 16.5 -45.5
s24.833 -15.5 41.5 -15.5c19.333 0 33.833 6.33301 43.5 19s14.5 26.667 14.5 42c0 14.667 -4.83301 28.334 -14.5 41.001s-24.167 19 -43.5 19zM36.001 311.999h355v-106h-355v106z" />
    <glyph glyph-name="guillemotleft" unicode="&#xab;" horiz-adv-x="558" 
d="M374 519h153l-138 -222l139 -223h-154l-139 223zM168 519h152l-138 -222l68.5 -112.5c22.333 -37 45.833 -73.833 70.5 -110.5h-153l-139 223z" />
    <glyph glyph-name="logicalnot" unicode="&#xac;" horiz-adv-x="557" 
d="M491 135h-154v125h-279v134h433v-259z" />
    <glyph glyph-name="uni00AD" unicode="&#xad;" horiz-adv-x="510" 
d="M54 363h402v-146h-402v146z" />
    <glyph glyph-name="registered" unicode="&#xae;" horiz-adv-x="818" 
d="M583 170h-110.998l-60 108h-42v-108h-103v362h166c28.667 0 53 -5 73 -15s35.667 -22.667 47 -38s18.666 -32.333 21.999 -51s2.66602 -36.667 -2.00098 -54s-13 -32.833 -25 -46.5s-28 -23.167 -48 -28.5zM368.002 443v-80.998h70c12.667 0 22 4.16699 28 12.5
s9 17.666 9 27.999s-3.16699 19.666 -9.5 27.999s-15.833 12.5 -28.5 12.5h-69zM413.002 721.002c58 0 109.667 -9.16602 155 -27.499s83.5 -43.833 114.5 -76.5s54.667 -71.334 71 -116.001s24.5 -93 24.5 -145c0 -52.667 -8.16699 -101.334 -24.5 -146.001
s-40 -83.167 -71 -115.5s-69.167 -57.666 -114.5 -75.999s-97 -27.5 -155 -27.5c-57.333 0 -109.166 9.16699 -155.499 27.5s-85.666 43.666 -117.999 75.999s-57.166 70.833 -74.499 115.5s-26 93.334 -26 146.001c0 50.667 8.66699 98.167 26 142.5s42.166 83 74.499 116
s71.666 59 117.999 78s98.166 28.5 155.499 28.5zM149.002 356.003c0 -40 6.33301 -76.502 19 -109.502s30.5 -61.167 53.5 -84.5s50.667 -41.5 83 -54.5s68.5 -19.5 108.5 -19.5s75.833 6.33301 107.5 19s58.5 30.667 80.5 54s38.833 51.5 50.5 84.5
s17.5 69.833 17.5 110.5s-5.83301 77.334 -17.5 110.001s-28.5 60.667 -50.5 84s-48.833 41.333 -80.5 54s-67.5 19 -107.5 19s-76.167 -6.66699 -108.5 -20s-60 -31.666 -83 -54.999s-40.833 -51.5 -53.5 -84.5s-19 -68.833 -19 -107.5z" />
    <glyph glyph-name="macron" unicode="&#xaf;" horiz-adv-x="453" 
d="M45 701h350v-140h-350v140z" />
    <glyph glyph-name="degree" unicode="&#xb0;" horiz-adv-x="389" 
d="M195 708c26.667 0 49.998 -4.33398 69.998 -13.001s36.667 -19.834 50 -33.501s23.333 -29.167 30 -46.5s10 -34.666 10 -51.999c0 -18 -3.33301 -35.667 -10 -53s-16.667 -32.833 -30 -46.5s-30.166 -24.5 -50.499 -32.5s-44.166 -12 -71.499 -12
c-26.667 0 -50 4 -70 12s-36.5 18.833 -49.5 32.5s-22.833 29 -29.5 46s-10 34.5 -10 52.5s3.33301 35.667 10 53s16.667 32.833 30 46.5s30 24.834 50 33.501s43.667 13 71 13zM193.998 606.999c-16 0 -27.667 -4.66699 -35 -14s-11 -19.333 -11 -30
c0 -11.333 3.83301 -21.333 11.5 -30s19.167 -13 34.5 -13s26.833 4.33301 34.5 13s11.5 18.667 11.5 30c0 10.667 -3.5 20.667 -10.5 30s-18.833 14 -35.5 14z" />
    <glyph glyph-name="plusminus" unicode="&#xb1;" horiz-adv-x="563" 
d="M60 484h137v134h170v-134h136v-156h-136v-134h-170v134h-137v156zM58 145h447v-147h-447v147z" />
    <glyph glyph-name="twosuperior" unicode="&#xb2;" horiz-adv-x="378" 
d="M37 636c0 20 4.16504 37.8281 12.498 53.4951s19.333 28.667 33 39s29.5 18.333 47.5 24s37 8.5 57 8.5c21.333 0 41.5 -2.66699 60.5 -8s35.667 -13.166 50 -23.499s25.666 -23.5 33.999 -39.5s12.5 -34.333 12.5 -55c0 -22.667 -4.5 -41.167 -13.5 -55.5
s-20.5 -25.666 -34.5 -33.999s-29.5 -14.666 -46.5 -18.999s-33.167 -8.16602 -48.5 -11.499c-16 -3.33301 -30.167 -7.33301 -42.5 -12s-19.166 -12.334 -20.499 -23.001h203v-102h-306v99c0 22 4.16699 40 12.5 54s18.833 25.333 31.5 34s26.834 15.334 42.501 20.001
s30.834 8.66699 45.501 12c18 4.66699 33.667 9.33398 47 14.001s20 12.667 20 24c0 10.667 -4.33301 18.5 -13 23.5s-19.667 7.5 -33 7.5c-26.667 0 -42 -10 -46 -30h-105z" />
    <glyph glyph-name="threesuperior" unicode="&#xb3;" horiz-adv-x="384" 
d="M127 529v80.001h58c18 0 30.833 3 38.5 9s11.5 13.333 11.5 22c0 9.33301 -4.66699 16.333 -14 21s-21.666 7 -36.999 7c-12.667 0 -24.334 -2.33301 -35.001 -7s-17 -11.667 -19 -21h-96c0 21.333 4.66699 39.666 14 54.999s21.333 27.833 36 37.5
s31.167 16.834 49.5 21.501s36.166 7 53.499 7c18 0 36.167 -2.16699 54.5 -6.5s35 -11.5 50 -21.5s27.333 -22.667 37 -38s14.5 -34 14.5 -56c0 -13.333 -3.83301 -26.666 -11.5 -39.999s-18.167 -23.333 -31.5 -30c18.667 -7.33301 32.167 -18.333 40.5 -33
s12.5 -30.334 12.5 -47.001c0 -24 -5.16699 -43.833 -15.5 -59.5s-23.666 -27.834 -39.999 -36.501s-34.166 -14.667 -53.499 -18s-38 -5 -56 -5c-20 0 -39.5 2.33301 -58.5 7s-36 12 -51 22s-27.333 22.833 -37 38.5s-14.5 34.5 -14.5 56.5h112
c1.33301 -11.333 6.83301 -18.833 16.5 -22.5s20.167 -5.5 31.5 -5.5c13.333 0 25.166 2.5 35.499 7.5s15.5 13.167 15.5 24.5c0 9.33301 -4.16699 16.833 -12.5 22.5s-20.5 8.5 -36.5 8.5h-62z" />
    <glyph glyph-name="acute" unicode="&#xb4;" horiz-adv-x="288" 
d="M276 693l-109 -159h-161v6l77 161h193v-8z" />
    <glyph glyph-name="mu" unicode="&#xb5;" horiz-adv-x="641" 
d="M448 0l-18.0029 62.9961c-7.33301 -19.333 -19 -34.666 -35 -45.999s-33.5 -18.166 -52.5 -20.499s-38.167 0.333984 -57.5 8.00098s-36 20.834 -50 39.501v-249h-172v699h179v-235c0 -18.667 2.66699 -34.167 8 -46.5s12.333 -22.333 21 -30s18.334 -13 29.001 -16
s21.334 -4.5 32.001 -4.5c23.333 0 43.833 7.66699 61.5 23s26.834 40.333 27.501 75v234h176v-494h-149z" />
    <glyph glyph-name="mu" unicode="&#x3bc;" horiz-adv-x="641" 
d="M448 0l-18.0029 62.9961c-7.33301 -19.333 -19 -34.666 -35 -45.999s-33.5 -18.166 -52.5 -20.499s-38.167 0.333984 -57.5 8.00098s-36 20.834 -50 39.501v-249h-172v699h179v-235c0 -18.667 2.66699 -34.167 8 -46.5s12.333 -22.333 21 -30s18.334 -13 29.001 -16
s21.334 -4.5 32.001 -4.5c23.333 0 43.833 7.66699 61.5 23s26.834 40.333 27.501 75v234h176v-494h-149z" />
    <glyph glyph-name="paragraph" unicode="&#xb6;" horiz-adv-x="891" 
d="M456 -200h-177.998v392c-53.333 0 -98.333 12.5 -135 37.5s-64.334 56.333 -83.001 94s-28.334 78.5 -29.001 122.5s8.83301 84.833 28.5 122.5s49.667 69 90 94s91.5 37.5 153.5 37.5h548v-168h-91v-732h-182v732h-122v-732z" />
    <glyph glyph-name="periodcentered" unicode="&#xb7;" horiz-adv-x="298" 
d="M148 199c-22.667 0 -41.8311 4.66699 -57.498 14s-27.334 21 -35.001 35s-11.5 29.333 -11.5 46s3.83301 32 11.5 46s19.167 25.667 34.5 35s34.666 14 57.999 14s42.666 -4.66699 57.999 -14s26.833 -21 34.5 -35s11.5 -29.333 11.5 -46s-3.83301 -32 -11.5 -46
s-19.167 -25.667 -34.5 -35s-34.666 -14 -57.999 -14z" />
    <glyph glyph-name="cedilla" unicode="&#xb8;" horiz-adv-x="364" 
d="M105 -133c7.33301 -7.33301 16.5029 -13.5029 27.5029 -18.5029s22 -8 33 -9s21 0.333008 30 4s14.833 10.834 17.5 21.501c2 8.66699 0.333008 16.334 -5 23.001s-12.5 11.834 -21.5 15.501s-18.833 5.16699 -29.5 4.5s-20.334 -4 -29.001 -10l-28 21l42 110h118
l-19 -53c22 -2 40.667 -7.5 56 -16.5s27.166 -20 35.499 -33s13.166 -27.667 14.499 -44s-0.666992 -32.833 -6 -49.5c-10 -30 -28 -52.667 -54 -68s-54.5 -24 -85.5 -26s-61.167 2.33301 -90.5 13s-52.333 27 -69 49z" />
    <glyph glyph-name="onesuperior" unicode="&#xb9;" horiz-adv-x="286" 
d="M33 474l61.001 -0.00195312v158c-8 -1.33301 -16.833 -3.16602 -26.5 -5.49902s-17.834 -4.16602 -24.501 -5.49902v93l158 42v-282h63v-95h-231v95z" />
    <glyph glyph-name="ordmasculine" unicode="&#xba;" horiz-adv-x="425" 
d="M35 305h356v-124h-356v124zM212 344c-28 0 -53.832 3.83301 -77.499 11.5s-44.167 19.334 -61.5 35.001s-31 35 -41 58s-15 50.167 -15 81.5c0 30.667 4.83301 57.334 14.5 80.001s23.167 41.5 40.5 56.5s38 26.333 62 34s50 11.5 78 11.5
c28.667 0 54.834 -3.83301 78.501 -11.5s44.167 -19 61.5 -34s30.833 -33.833 40.5 -56.5s14.5 -49.334 14.5 -80.001c0 -31.333 -4.83301 -58.5 -14.5 -81.5s-23.334 -42.333 -41.001 -58s-38.334 -27.334 -62.001 -35.001s-49.5 -11.5 -77.5 -11.5zM212.001 469
c16.667 0 30.834 5.16699 42.501 15.5s17.5 25.5 17.5 45.5c0 19.333 -5.83301 34.333 -17.5 45s-25.834 16 -42.501 16c-16 0 -30 -5.33301 -42 -16s-18 -25.667 -18 -45c0 -20 6 -35.167 18 -45.5s26 -15.5 42 -15.5z" />
    <glyph glyph-name="guillemotright" unicode="&#xbb;" horiz-adv-x="557" 
d="M529 299l-139 -222h-154l139 222l-139 222h154zM324 299l-139 -222h-153l139 222l-139 222h153z" />
    <glyph glyph-name="onequarter" unicode="&#xbc;" horiz-adv-x="798" 
d="M720 372v-217h44v-95h-44v-60h-104v60h-193l-4 91l165 221h136zM616 259c-15.333 -18.667 -29 -36 -41 -52s-25.667 -33.333 -41 -52h82v104zM134 -1l388 705h123l-390 -705h-121zM42 420h61v156c-7.33301 -1.33301 -16 -3 -26 -5s-18.667 -3.66699 -26 -5v92l160 42
v-280h62v-97h-231v97z" />
    <glyph glyph-name="onehalf" unicode="&#xbd;" horiz-adv-x="812" 
d="M129 -2l388 706h121l-390 -706h-119zM39 419h61v156c-7.33301 -2 -15.833 -3.83301 -25.5 -5.5l-25.5 -4.5v93l159 42v-281h63v-97h-232v97zM469 253c0 20 4.33105 37.668 12.998 53.001s20 28.333 34 39s29.833 18.667 47.5 24s36.167 8 55.5 8
c22 0 42.667 -2.5 62 -7.5s36 -12.833 50 -23.5s25 -23.834 33 -39.501s12 -33.834 12 -54.501c0 -22.667 -4.5 -41.167 -13.5 -55.5s-20.333 -26 -34 -35s-28.834 -16 -45.501 -21s-32.667 -9.16699 -48 -12.5c-16 -3.33301 -30.167 -7 -42.5 -11s-19.833 -10 -22.5 -18
h203v-104h-306v99c0 22 4 40 12 54s18.333 25.333 31 34s26.834 15.334 42.501 20.001s30.834 8.66699 45.501 12c18 4 33.833 8.5 47.5 13.5s20.5 13.167 20.5 24.5c0 10 -4.66699 17.333 -14 22s-19.333 7 -30 7c-11.333 0 -21.666 -2.33301 -30.999 -7
s-15 -11.667 -17 -21h-105z" />
    <glyph glyph-name="threequarters" unicode="&#xbe;" horiz-adv-x="842" 
d="M183 -6l391 710h123l-392 -710h-122zM764 372v-217h44v-95h-44v-60h-104v60h-193l-4 91l166 221h135zM660 259l-81 -104h81v104zM132 485l0.00390625 76.9961h56c17.333 0 29.666 3 36.999 9s11 13 11 21c0 8.66699 -4.33301 15.334 -13 20.001s-20.667 7 -36 7
c-12 0 -23.333 -2.16699 -34 -6.5s-16.667 -11.166 -18 -20.499h-93c0 20.667 4.5 38.334 13.5 53.001s20.667 26.667 35 36s30.166 16.333 47.499 21s34.666 7 51.999 7s34.833 -2.16699 52.5 -6.5s33.834 -11.166 48.501 -20.499s26.5 -21.5 35.5 -36.5
s13.5 -33.167 13.5 -54.5c0 -13.333 -3.5 -26.333 -10.5 -39s-17.167 -22.334 -30.5 -29.001c18 -7.33301 31 -18 39 -32s12 -29 12 -45c0 -23.333 -5 -42.5 -15 -57.5s-22.833 -26.833 -38.5 -35.5s-32.834 -14.5 -51.501 -17.5s-36.667 -4.5 -54 -4.5
c-19.333 0 -38.333 2.33301 -57 7s-35.167 11.834 -49.5 21.501s-26.166 22 -35.499 37s-14 33.167 -14 54.5h108c1.33301 -10.667 6.66602 -17.834 15.999 -21.501s19.666 -5.5 30.999 -5.5c12.667 0 24 2.33301 34 7s15 12.667 15 24c0 8.66699 -4 15.834 -12 21.501
s-19.667 8.5 -35 8.5h-60z" />
    <glyph glyph-name="questiondown" unicode="&#xbf;" horiz-adv-x="594" 
d="M410 271c-2 -34 -7.16992 -62.0029 -15.5029 -84.0029s-18.666 -40.333 -30.999 -55s-25.666 -26.667 -39.999 -36s-28.5 -18 -42.5 -26c-16 -9.33301 -27.833 -18.333 -35.5 -27s-11.834 -18.667 -12.501 -30c-0.666992 -15.333 5 -29.166 17 -41.499
s30.667 -18.5 56 -18.5c10.667 0 21.167 1.16699 31.5 3.5s19.166 6.33301 26.499 12s13.333 13.167 18 22.5s7 21.333 7 36h176c4 -38.667 -0.666992 -72.5 -14 -101.5s-32.166 -53.333 -56.499 -73s-52.833 -34.5 -85.5 -44.5s-67 -15 -103 -15s-70.5 3.66699 -103.5 11
s-62.333 19.166 -88 35.499s-46 37.833 -61 64.5s-22.5 59.334 -22.5 98.001c0 24 4.5 44.5 13.5 61.5s20.333 31.833 34 44.5s28.334 24.334 44.001 35.001s30.334 21.834 44.001 33.501s25.167 25 34.5 40s14.333 33.167 15 54.5h194zM310.997 505.997
c23.333 0 42.833 -4.83301 58.5 -14.5s27.334 -21.834 35.001 -36.501s11.5 -30.334 11.5 -47.001s-3.83301 -32.334 -11.5 -47.001s-19.334 -26.834 -35.001 -36.501s-35.167 -14.5 -58.5 -14.5s-43 4.83301 -59 14.5s-28 21.834 -36 36.501s-12 30.334 -12 47.001
s4 32.334 12 47.001s19.833 26.834 35.5 36.501s35.5 14.5 59.5 14.5z" />
    <glyph glyph-name="Agrave" unicode="&#xc0;" horiz-adv-x="797" 
d="M212 919h193l77 -161v-6h-161l-109 159v8zM554 115h-313l-46 -115h-210l314 700h200l313 -700h-212zM398 504l-90 -223h179z" />
    <glyph glyph-name="Aacute" unicode="&#xc1;" horiz-adv-x="797" 
d="M591 911l-109 -159h-161v6l77 161h193v-8zM554 115h-313l-46 -115h-210l314 700h200l313 -700h-212zM398 504l-90 -223h179z" />
    <glyph glyph-name="Acircumflex" unicode="&#xc2;" horiz-adv-x="797" 
d="M454 915l152 -157v-8h-158l-51 47l-51 -47h-158v8l152 157h114zM554 115h-313l-46 -115h-210l314 700h200l313 -700h-212zM398 504l-90 -223h179z" />
    <glyph glyph-name="Atilde" unicode="&#xc3;" horiz-adv-x="797" 
d="M391 771c-22 12 -42.501 18 -61.501 18s-33.5 -10.667 -43.5 -32l-101 64c8.66699 22.667 21 41.334 37 56.001s34 25 54 31s40.833 8 62.5 6s42.167 -8.33301 61.5 -19c22 -12 42 -17.833 60 -17.5s33.667 11.833 47 34.5l97 -63
c-8.66699 -22.667 -20.167 -41.834 -34.5 -57.501s-30.666 -27 -48.999 -34s-38.5 -9.5 -60.5 -7.5s-45 9 -69 21zM553.999 115h-313l-46 -115h-210l314 700h200l313 -700h-212zM397.999 504l-90 -223h179z" />
    <glyph glyph-name="Adieresis" unicode="&#xc4;" horiz-adv-x="797" 
d="M158 830c0 14 2.66699 26.333 8 37s12.333 19.667 21 27s18.5 12.833 29.5 16.5s22.5 5.5 34.5 5.5s23.667 -1.83301 35 -5.5s21.5 -9.16699 30.5 -16.5s16.167 -16.333 21.5 -27s8 -23 8 -37c0 -13.333 -2.66699 -25.166 -8 -35.499s-12.5 -19 -21.5 -26
s-19.167 -12.333 -30.5 -16s-23 -5.5 -35 -5.5s-23.5 1.83301 -34.5 5.5s-20.833 9 -29.5 16s-15.667 15.667 -21 26s-8 22.166 -8 35.499zM448 830c0 14 2.66699 26.333 8 37s12.5 19.667 21.5 27s19.167 12.833 30.5 16.5s23 5.5 35 5.5
c11.333 0 22.666 -1.83301 33.999 -5.5s21.5 -9.16699 30.5 -16.5s16.167 -16.333 21.5 -27s8 -23 8 -37c0 -13.333 -2.66699 -25.166 -8 -35.499s-12.5 -19 -21.5 -26s-19.167 -12.333 -30.5 -16s-22.666 -5.5 -33.999 -5.5c-12 0 -23.667 1.83301 -35 5.5
s-21.5 9 -30.5 16s-16.167 15.667 -21.5 26s-8 22.166 -8 35.499zM554 115h-313l-46 -115h-210l314 700h200l313 -700h-212zM398 504l-90 -223h179z" />
    <glyph glyph-name="Aring" unicode="&#xc5;" horiz-adv-x="797" 
d="M277 650c-17.333 20 -27.665 43.3359 -30.998 70.0029s0 51.667 10 75s27 43.166 51 59.499s54.667 24.5 92 24.5c38 0 69.167 -8.33301 93.5 -25s41.666 -36.834 51.999 -60.501s13.666 -48.834 9.99902 -75.501s-14.5 -50 -32.5 -70zM401.001 783.003
c-15.333 0 -27 -4.33301 -35 -13s-12 -18.334 -12 -29.001s4 -20.334 12 -29.001s19.667 -13 35 -13c14.667 0 25.834 4.33301 33.501 13s11.5 18.334 11.5 29.001s-3.83301 20.334 -11.5 29.001s-18.834 13 -33.501 13zM554.001 115.003h-313l-46 -115h-210l314 700h200
l313 -700h-212zM398.001 504.003l-90 -223h179z" />
    <glyph glyph-name="AE" unicode="&#xc6;" horiz-adv-x="925" 
d="M-26 11l415 689h480v-158h-243v-110h226v-153h-226v-122h258v-157h-440v105h-208l-63 -105h-199v11zM444 278l3 116l12 124l-124 -240h109z" />
    <glyph glyph-name="Ccedilla" unicode="&#xc7;" horiz-adv-x="708" 
d="M439 -8l-17.001 -42.9961c22.667 -2 41.834 -7.33301 57.501 -16s27.667 -19.334 36 -32.001s13.333 -26.834 15 -42.501s-0.166016 -31.834 -5.49902 -48.501c-6.66699 -19.333 -17.334 -35.5 -32.001 -48.5s-31.667 -23 -51 -30s-39.666 -11.167 -60.999 -12.5
s-42.333 0 -63 4s-39.834 10.667 -57.501 20s-32.167 21.333 -43.5 36l65 64c7.33301 -7.33301 16.833 -13.333 28.5 -18s23.167 -7.5 34.5 -8.5s21.5 0.333008 30.5 4s14.833 10.5 17.5 20.5c2 8.66699 0.333008 16.167 -5 22.5s-12.5 11.166 -21.5 14.499
s-19.167 4.83301 -30.5 4.5s-21.333 -3.5 -30 -9.5l-29 21l40 98h122zM697.999 91.0039c-40 -39.333 -83.5039 -67.3301 -130.504 -83.9971s-97.167 -25 -150.5 -25c-68.667 0 -127.167 10 -175.5 30s-87.833 46.667 -118.5 80s-53.167 72 -67.5 116s-21.5 89.667 -21.5 137
c0 44.667 7.5 89.167 22.5 133.5s38.333 84.166 70 119.499s71.5 63.833 119.5 85.5s105 32.5 171 32.5c50.667 0 98.5 -9 143.5 -27s87.5 -46.333 127.5 -85l-122 -120c-25.333 24 -50.666 40.167 -75.999 48.5s-49.666 12.5 -72.999 12.5
c-34 0 -62.833 -6.16699 -86.5 -18.5s-43 -28.333 -58 -48s-25.833 -41.334 -32.5 -65.001s-10 -46.834 -10 -69.501s3.33301 -45.5 10 -68.5s17.334 -43.833 32.001 -62.5s33.834 -33.834 57.501 -45.501s52.834 -17.5 87.501 -17.5c12 0 25 1.33301 39 4
s28.167 6.83398 42.5 12.501s28.666 13 42.999 22s27.833 19.833 40.5 32.5z" />
    <glyph glyph-name="Egrave" unicode="&#xc8;" horiz-adv-x="672" 
d="M177 918h193l77 -161v-6h-161l-109 159v8zM631 0h-560v700h546v-166h-351v-100h331v-161h-331v-106h365v-167z" />
    <glyph glyph-name="Eacute" unicode="&#xc9;" horiz-adv-x="672" 
d="M530 910l-109 -159h-161v6l77 161h193v-8zM631 0h-560v700h546v-166h-351v-100h331v-161h-331v-106h365v-167z" />
    <glyph glyph-name="Ecircumflex" unicode="&#xca;" horiz-adv-x="672" 
d="M410 912l152 -157v-8h-158l-51 47l-51 -47h-158v8l152 157h114zM631 0h-560v700h546v-166h-351v-100h331v-161h-331v-106h365v-167z" />
    <glyph glyph-name="Edieresis" unicode="&#xcb;" horiz-adv-x="672" 
d="M112 836c0 14 2.66699 26.333 8 37s12.333 19.667 21 27s18.5 12.833 29.5 16.5s22.5 5.5 34.5 5.5s23.667 -1.83301 35 -5.5s21.5 -9.16699 30.5 -16.5s16.167 -16.333 21.5 -27s8 -23 8 -37c0 -13.333 -2.66699 -25.166 -8 -35.499s-12.5 -19 -21.5 -26
s-19.167 -12.333 -30.5 -16s-23 -5.5 -35 -5.5s-23.5 1.83301 -34.5 5.5s-20.833 9 -29.5 16s-15.667 15.667 -21 26s-8 22.166 -8 35.499zM402 836c0 14 2.66699 26.333 8 37s12.5 19.667 21.5 27s19.167 12.833 30.5 16.5s23 5.5 35 5.5
c11.333 0 22.666 -1.83301 33.999 -5.5s21.5 -9.16699 30.5 -16.5s16.167 -16.333 21.5 -27s8 -23 8 -37c0 -13.333 -2.66699 -25.166 -8 -35.499s-12.5 -19 -21.5 -26s-19.167 -12.333 -30.5 -16s-22.666 -5.5 -33.999 -5.5c-12 0 -23.667 1.83301 -35 5.5
s-21.5 9 -30.5 16s-16.167 15.667 -21.5 26s-8 22.166 -8 35.499zM631 0h-560v700h546v-166h-351v-100h331v-161h-331v-106h365v-167z" />
    <glyph glyph-name="Igrave" unicode="&#xcc;" horiz-adv-x="339" 
d="M-9 918h193l77 -161v-6h-161l-109 159v8zM71 0v700h197v-700h-197z" />
    <glyph glyph-name="Iacute" unicode="&#xcd;" horiz-adv-x="339" 
d="M350 908l-109 -159h-161v6l77 161h193v-8zM71 0v700h197v-700h-197z" />
    <glyph glyph-name="Icircumflex" unicode="&#xce;" horiz-adv-x="339" 
d="M229 915l152 -157v-8h-158l-51 47l-51 -47h-158v8l152 157h114zM71 0v700h197v-700h-197z" />
    <glyph glyph-name="Idieresis" unicode="&#xcf;" horiz-adv-x="339" 
d="M-50 847c0 14 2.66699 26.333 8 37s12.333 19.667 21 27s18.5 12.833 29.5 16.5s22.5 5.5 34.5 5.5s23.667 -1.83301 35 -5.5s21.5 -9.16699 30.5 -16.5s16.167 -16.333 21.5 -27s8 -23 8 -37c0 -13.333 -2.66699 -25.166 -8 -35.499s-12.5 -19 -21.5 -26
s-19.167 -12.333 -30.5 -16s-23 -5.5 -35 -5.5s-23.5 1.83301 -34.5 5.5s-20.833 9 -29.5 16s-15.667 15.667 -21 26s-8 22.166 -8 35.499zM213 847c0 14 2.66699 26.333 8 37s12.5 19.667 21.5 27s19.167 12.833 30.5 16.5s23 5.5 35 5.5
c11.333 0 22.666 -1.83301 33.999 -5.5s21.5 -9.16699 30.5 -16.5s16.167 -16.333 21.5 -27s8 -23 8 -37c0 -13.333 -2.66699 -25.166 -8 -35.499s-12.5 -19 -21.5 -26s-19.167 -12.333 -30.5 -16s-22.666 -5.5 -33.999 -5.5c-12 0 -23.667 1.83301 -35 5.5
s-21.5 9 -30.5 16s-16.167 15.667 -21.5 26s-8 22.166 -8 35.499zM71 0v700h197v-700h-197z" />
    <glyph glyph-name="Eth" unicode="&#xd0;" horiz-adv-x="773" 
d="M7 423h390v-142h-390v142zM379 700c60.667 0 113.499 -9 158.499 -27s82.5 -42.5 112.5 -73.5s52.333 -67.5 67 -109.5s22 -87 22 -135s-7.16699 -93.5 -21.5 -136.5s-36.333 -80.667 -66 -113s-67.167 -58 -112.5 -77s-98.666 -28.5 -159.999 -28.5h-295v700h295z
M276.999 167h101.997c30.667 0 56.667 5.33301 78 16s38.5 25 51.5 43s22.5 38.333 28.5 61s9 46 9 70s-3.16699 46.833 -9.5 68.5s-16.166 40.5 -29.499 56.5s-30.666 28.833 -51.999 38.5s-46.666 14.5 -75.999 14.5h-102v-368z" />
    <glyph glyph-name="Ntilde" unicode="&#xd1;" horiz-adv-x="799" 
d="M387 785c-23.333 12.667 -45.0029 19.001 -65.0029 19.001s-35.333 -11.333 -46 -34l-107 68c9.33301 24 22.5 43.833 39.5 59.5s36 26.667 57 33s43 8.5 66 6.5s44.833 -8.66699 65.5 -20c23.333 -12.667 44.5 -18.834 63.5 -18.501s35.833 12.5 50.5 36.5l103 -67
c-9.33301 -24 -21.666 -44.333 -36.999 -61s-32.666 -28.667 -51.999 -36s-40.666 -10 -63.999 -8s-48 9.33301 -74 22zM534.997 317.001c-1.33301 20.667 -2.33398 38.5 -3.00098 53.5s-1.16699 28 -1.5 39s-0.666016 20.5 -0.999023 28.5s-0.5 15.333 -0.5 22v240h199
v-700h-168l-292 377l3 -153v-224h-200v700h168z" />
    <glyph glyph-name="Ograve" unicode="&#xd2;" horiz-adv-x="842" 
d="M247 936h193l77 -161v-6h-161l-109 159v8zM810 350c0 -58.667 -9.5 -110.668 -28.5 -156.001s-45.667 -83.666 -80 -114.999s-75.333 -55.166 -123 -71.499s-100.167 -24.5 -157.5 -24.5s-109.833 8.16699 -157.5 24.5s-88.667 40.166 -123 71.499
s-61 69.666 -80 114.999s-28.5 97.333 -28.5 156c0 57.333 9.5 108.666 28.5 153.999s45.667 83.833 80 115.5s75.333 55.834 123 72.501s100.167 25 157.5 25s109.833 -8.16699 157.5 -24.5s88.667 -40.166 123 -71.499s61 -69.833 80 -115.5s28.5 -97.5 28.5 -155.5z
M612 349.999c0 60.667 -17.168 108.831 -51.501 144.498s-80.833 53.5 -139.5 53.5c-28 0 -53.833 -4.83301 -77.5 -14.5s-43.834 -23.334 -60.501 -41.001s-29.667 -38.667 -39 -63s-14 -50.833 -14 -79.5c0 -29.333 4.66699 -56.166 14 -80.499s22.5 -45.166 39.5 -62.499
s37.167 -30.833 60.5 -40.5s49 -14.5 77 -14.5c28.667 0 54.834 4.83301 78.501 14.5s43.834 23.334 60.501 41.001s29.5 38.5 38.5 62.5s13.5 50.667 13.5 80z" />
    <glyph glyph-name="Oacute" unicode="&#xd3;" horiz-adv-x="842" 
d="M602 928l-109 -159h-161v6l77 161h193v-8zM810 350c0 -58.667 -9.5 -110.668 -28.5 -156.001s-45.667 -83.666 -80 -114.999s-75.333 -55.166 -123 -71.499s-100.167 -24.5 -157.5 -24.5s-109.833 8.16699 -157.5 24.5s-88.667 40.166 -123 71.499
s-61 69.666 -80 114.999s-28.5 97.333 -28.5 156c0 57.333 9.5 108.666 28.5 153.999s45.667 83.833 80 115.5s75.333 55.834 123 72.501s100.167 25 157.5 25s109.833 -8.16699 157.5 -24.5s88.667 -40.166 123 -71.499s61 -69.833 80 -115.5s28.5 -97.5 28.5 -155.5z
M612 349.999c0 60.667 -17.168 108.831 -51.501 144.498s-80.833 53.5 -139.5 53.5c-28 0 -53.833 -4.83301 -77.5 -14.5s-43.834 -23.334 -60.501 -41.001s-29.667 -38.667 -39 -63s-14 -50.833 -14 -79.5c0 -29.333 4.66699 -56.166 14 -80.499s22.5 -45.166 39.5 -62.499
s37.167 -30.833 60.5 -40.5s49 -14.5 77 -14.5c28.667 0 54.834 4.83301 78.501 14.5s43.834 23.334 60.501 41.001s29.5 38.5 38.5 62.5s13.5 50.667 13.5 80z" />
    <glyph glyph-name="Ocircumflex" unicode="&#xd4;" horiz-adv-x="842" 
d="M481 928l152 -157v-8h-158l-51 47l-51 -47h-158v8l152 157h114zM810 350c0 -58.667 -9.5 -110.668 -28.5 -156.001s-45.667 -83.666 -80 -114.999s-75.333 -55.166 -123 -71.499s-100.167 -24.5 -157.5 -24.5s-109.833 8.16699 -157.5 24.5s-88.667 40.166 -123 71.499
s-61 69.666 -80 114.999s-28.5 97.333 -28.5 156c0 57.333 9.5 108.666 28.5 153.999s45.667 83.833 80 115.5s75.333 55.834 123 72.501s100.167 25 157.5 25s109.833 -8.16699 157.5 -24.5s88.667 -40.166 123 -71.499s61 -69.833 80 -115.5s28.5 -97.5 28.5 -155.5z
M612 349.999c0 60.667 -17.168 108.831 -51.501 144.498s-80.833 53.5 -139.5 53.5c-28 0 -53.833 -4.83301 -77.5 -14.5s-43.834 -23.334 -60.501 -41.001s-29.667 -38.667 -39 -63s-14 -50.833 -14 -79.5c0 -29.333 4.66699 -56.166 14 -80.499s22.5 -45.166 39.5 -62.499
s37.167 -30.833 60.5 -40.5s49 -14.5 77 -14.5c28.667 0 54.834 4.83301 78.501 14.5s43.834 23.334 60.501 41.001s29.5 38.5 38.5 62.5s13.5 50.667 13.5 80z" />
    <glyph glyph-name="Otilde" unicode="&#xd5;" horiz-adv-x="842" 
d="M419 788c-22.667 12.667 -44.001 19.002 -64.001 19.002s-35.333 -11 -46 -33l-106 67c9.33301 23.333 22.333 42.666 39 57.999s35.5 26.166 56.5 32.499s42.833 8.5 65.5 6.5s44.334 -8.66699 65.001 -20c22.667 -12.667 43.5 -18.834 62.5 -18.501
s35.5 12.5 49.5 36.5l101 -66c-8.66699 -24 -20.5 -44.167 -35.5 -60.5s-32.167 -28.166 -51.5 -35.499s-40.5 -10 -63.5 -8s-47.167 9.33301 -72.5 22zM809.999 350.002c0 -58.667 -9.5 -110.668 -28.5 -156.001s-45.667 -83.666 -80 -114.999
s-75.333 -55.166 -123 -71.499s-100.167 -24.5 -157.5 -24.5s-109.833 8.16699 -157.5 24.5s-88.667 40.166 -123 71.499s-61 69.666 -80 114.999s-28.5 97.333 -28.5 156c0 57.333 9.5 108.666 28.5 153.999s45.667 83.833 80 115.5s75.333 55.834 123 72.501
s100.167 25 157.5 25s109.833 -8.16699 157.5 -24.5s88.667 -40.166 123 -71.499s61 -69.833 80 -115.5s28.5 -97.5 28.5 -155.5zM611.999 350.001c0 60.667 -17.168 108.831 -51.501 144.498s-80.833 53.5 -139.5 53.5c-28 0 -53.833 -4.83301 -77.5 -14.5
s-43.834 -23.334 -60.501 -41.001s-29.667 -38.667 -39 -63s-14 -50.833 -14 -79.5c0 -29.333 4.66699 -56.166 14 -80.499s22.5 -45.166 39.5 -62.499s37.167 -30.833 60.5 -40.5s49 -14.5 77 -14.5c28.667 0 54.834 4.83301 78.501 14.5s43.834 23.334 60.501 41.001
s29.5 38.5 38.5 62.5s13.5 50.667 13.5 80z" />
    <glyph glyph-name="Odieresis" unicode="&#xd6;" horiz-adv-x="842" 
d="M184 843c0 14 2.66699 26.333 8 37s12.333 19.667 21 27s18.5 12.833 29.5 16.5s22.5 5.5 34.5 5.5s23.667 -1.83301 35 -5.5s21.5 -9.16699 30.5 -16.5s16.167 -16.333 21.5 -27s8 -23 8 -37c0 -13.333 -2.66699 -25.166 -8 -35.499s-12.5 -19 -21.5 -26
s-19.167 -12.333 -30.5 -16s-23 -5.5 -35 -5.5s-23.5 1.83301 -34.5 5.5s-20.833 9 -29.5 16s-15.667 15.667 -21 26s-8 22.166 -8 35.499zM474 843c0 14 2.66699 26.333 8 37s12.5 19.667 21.5 27s19.167 12.833 30.5 16.5s23 5.5 35 5.5
c11.333 0 22.666 -1.83301 33.999 -5.5s21.5 -9.16699 30.5 -16.5s16.167 -16.333 21.5 -27s8 -23 8 -37c0 -13.333 -2.66699 -25.166 -8 -35.499s-12.5 -19 -21.5 -26s-19.167 -12.333 -30.5 -16s-22.666 -5.5 -33.999 -5.5c-12 0 -23.667 1.83301 -35 5.5
s-21.5 9 -30.5 16s-16.167 15.667 -21.5 26s-8 22.166 -8 35.499zM810 350c0 -58.667 -9.5 -110.668 -28.5 -156.001s-45.667 -83.666 -80 -114.999s-75.333 -55.166 -123 -71.499s-100.167 -24.5 -157.5 -24.5s-109.833 8.16699 -157.5 24.5s-88.667 40.166 -123 71.499
s-61 69.666 -80 114.999s-28.5 97.333 -28.5 156c0 57.333 9.5 108.666 28.5 153.999s45.667 83.833 80 115.5s75.333 55.834 123 72.501s100.167 25 157.5 25s109.833 -8.16699 157.5 -24.5s88.667 -40.166 123 -71.499s61 -69.833 80 -115.5s28.5 -97.5 28.5 -155.5z
M612 349.999c0 60.667 -17.168 108.831 -51.501 144.498s-80.833 53.5 -139.5 53.5c-28 0 -53.833 -4.83301 -77.5 -14.5s-43.834 -23.334 -60.501 -41.001s-29.667 -38.667 -39 -63s-14 -50.833 -14 -79.5c0 -29.333 4.66699 -56.166 14 -80.499s22.5 -45.166 39.5 -62.499
s37.167 -30.833 60.5 -40.5s49 -14.5 77 -14.5c28.667 0 54.834 4.83301 78.501 14.5s43.834 23.334 60.501 41.001s29.5 38.5 38.5 62.5s13.5 50.667 13.5 80z" />
    <glyph glyph-name="multiply" unicode="&#xd7;" horiz-adv-x="476" 
d="M240 424l83 85l111 -111l-87 -89l87 -87l-113 -106l-83 84l-42 -43l-39 -42l-116 114l84 83l-81 83l117 113z" />
    <glyph glyph-name="Oslash" unicode="&#xd8;" horiz-adv-x="842" 
d="M783 769l-546 -843h-171l544 843h173zM810 350c0 -58.667 -9.5 -110.668 -28.5 -156.001s-45.667 -83.666 -80 -114.999s-75.333 -55.166 -123 -71.499s-100.167 -24.5 -157.5 -24.5s-109.833 8.16699 -157.5 24.5s-88.667 40.166 -123 71.499s-61 69.666 -80 114.999
s-28.5 97.333 -28.5 156c0 57.333 9.5 108.666 28.5 153.999s45.667 83.833 80 115.5s75.333 55.834 123 72.501s100.167 25 157.5 25s109.833 -8.16699 157.5 -24.5s88.667 -40.166 123 -71.499s61 -69.833 80 -115.5s28.5 -97.5 28.5 -155.5zM612 349.999
c0 60.667 -17.168 108.831 -51.501 144.498s-80.833 53.5 -139.5 53.5c-28 0 -53.833 -4.83301 -77.5 -14.5s-43.834 -23.334 -60.501 -41.001s-29.667 -38.667 -39 -63s-14 -50.833 -14 -79.5c0 -29.333 4.66699 -56.166 14 -80.499s22.5 -45.166 39.5 -62.499
s37.167 -30.833 60.5 -40.5s49 -14.5 77 -14.5c28.667 0 54.834 4.83301 78.501 14.5s43.834 23.334 60.501 41.001s29.5 38.5 38.5 62.5s13.5 50.667 13.5 80z" />
    <glyph glyph-name="Ugrave" unicode="&#xd9;" horiz-adv-x="780" 
d="M216 925h193l77 -161v-6h-161l-109 159v8zM720 699l0.00195312 -391.002c0 -52 -7.5 -98 -22.5 -138s-36.833 -73.667 -65.5 -101s-63.334 -48.166 -104.001 -62.499s-86.667 -21.5 -138 -21.5s-97.333 6.83301 -138 20.5s-75.334 34.167 -104.001 61.5
s-50.5 61.333 -65.5 102s-22.5 87.667 -22.5 141v389h197v-389c0 -55.333 12.167 -95.166 36.5 -119.499s56.5 -36.5 96.5 -36.5s72.167 12.333 96.5 37s36.5 63.667 36.5 117v391h197z" />
    <glyph glyph-name="Uacute" unicode="&#xda;" horiz-adv-x="780" 
d="M567 916l-109 -159h-161v6l77 161h193v-8zM720 699l0.00195312 -391.002c0 -52 -7.5 -98 -22.5 -138s-36.833 -73.667 -65.5 -101s-63.334 -48.166 -104.001 -62.499s-86.667 -21.5 -138 -21.5s-97.333 6.83301 -138 20.5s-75.334 34.167 -104.001 61.5
s-50.5 61.333 -65.5 102s-22.5 87.667 -22.5 141v389h197v-389c0 -55.333 12.167 -95.166 36.5 -119.499s56.5 -36.5 96.5 -36.5s72.167 12.333 96.5 37s36.5 63.667 36.5 117v391h197z" />
    <glyph glyph-name="Ucircumflex" unicode="&#xdb;" horiz-adv-x="780" 
d="M450 929l152 -157v-8h-158l-51 47l-51 -47h-158v8l152 157h114zM720 699l0.00195312 -391.002c0 -52 -7.5 -98 -22.5 -138s-36.833 -73.667 -65.5 -101s-63.334 -48.166 -104.001 -62.499s-86.667 -21.5 -138 -21.5s-97.333 6.83301 -138 20.5
s-75.334 34.167 -104.001 61.5s-50.5 61.333 -65.5 102s-22.5 87.667 -22.5 141v389h197v-389c0 -55.333 12.167 -95.166 36.5 -119.499s56.5 -36.5 96.5 -36.5s72.167 12.333 96.5 37s36.5 63.667 36.5 117v391h197z" />
    <glyph glyph-name="Udieresis" unicode="&#xdc;" horiz-adv-x="780" 
d="M148 848c0 14 2.66699 26.333 8 37s12.333 19.667 21 27s18.5 12.833 29.5 16.5s22.5 5.5 34.5 5.5s23.667 -1.83301 35 -5.5s21.5 -9.16699 30.5 -16.5s16.167 -16.333 21.5 -27s8 -23 8 -37c0 -13.333 -2.66699 -25.166 -8 -35.499s-12.5 -19 -21.5 -26
s-19.167 -12.333 -30.5 -16s-23 -5.5 -35 -5.5s-23.5 1.83301 -34.5 5.5s-20.833 9 -29.5 16s-15.667 15.667 -21 26s-8 22.166 -8 35.499zM438 848c0 14 2.66699 26.333 8 37s12.5 19.667 21.5 27s19.167 12.833 30.5 16.5s23 5.5 35 5.5
c11.333 0 22.666 -1.83301 33.999 -5.5s21.5 -9.16699 30.5 -16.5s16.167 -16.333 21.5 -27s8 -23 8 -37c0 -13.333 -2.66699 -25.166 -8 -35.499s-12.5 -19 -21.5 -26s-19.167 -12.333 -30.5 -16s-22.666 -5.5 -33.999 -5.5c-12 0 -23.667 1.83301 -35 5.5
s-21.5 9 -30.5 16s-16.167 15.667 -21.5 26s-8 22.166 -8 35.499zM720 699l0.00195312 -391.002c0 -52 -7.5 -98 -22.5 -138s-36.833 -73.667 -65.5 -101s-63.334 -48.166 -104.001 -62.499s-86.667 -21.5 -138 -21.5s-97.333 6.83301 -138 20.5
s-75.334 34.167 -104.001 61.5s-50.5 61.333 -65.5 102s-22.5 87.667 -22.5 141v389h197v-389c0 -55.333 12.167 -95.166 36.5 -119.499s56.5 -36.5 96.5 -36.5s72.167 12.333 96.5 37s36.5 63.667 36.5 117v391h197z" />
    <glyph glyph-name="Yacute" unicode="&#xdd;" horiz-adv-x="722" 
d="M545 916l-109 -159h-161v6l77 161h193v-8zM362 460l151 240h223v-9l-278 -412v-279h-198v279l-266 413v8h223z" />
    <glyph glyph-name="Thorn" unicode="&#xde;" horiz-adv-x="696" 
d="M71 700l196 0.00195312v-108h134c46.667 0 87.5 -6.83301 122.5 -20.5s64.167 -31.834 87.5 -54.501s40.833 -48.5 52.5 -77.5s17.5 -58.5 17.5 -88.5s-5.83301 -59.5 -17.5 -88.5s-29.167 -54.833 -52.5 -77.5s-52.5 -40.834 -87.5 -54.501s-75.833 -20.5 -122.5 -20.5
h-134v-110h-197zM267 272.002l134 0.00195312c28 0 49 8 63 24s21 33.667 21 53c0 9.33301 -1.83301 18.666 -5.5 27.999s-9 17.666 -16 24.999s-15.667 13.333 -26 18s-22.5 7 -36.5 7h-134v-155z" />
    <glyph glyph-name="germandbls" unicode="&#xdf;" horiz-adv-x="634" 
d="M290 141c18.667 -4 32.6689 -6.00098 42.002 -6.00098c18 0 32.667 3 44 9s20 13.5 26 22.5s10 18.667 12 29s3 19.833 3 28.5c0 16 -3 29 -9 39s-13.667 17.667 -23 23s-20 8.83301 -32 10.5s-24.333 2.5 -37 2.5h-26v161h16c20.667 0 36.667 4.33301 48 13
s17 20.667 17 36c0 16 -6 28.167 -18 36.5s-25.333 12.5 -40 12.5c-19.333 0 -35 -4.66699 -47 -14s-18.333 -22.666 -19 -39.999v-504h-193v507c0 33.333 7.5 62.666 22.5 87.999s34.667 46.666 59 63.999s52.166 30.333 83.499 39s63 13 95 13
c30.667 0 60.834 -3.5 90.501 -10.5s56.167 -18.333 79.5 -34s42.166 -36 56.499 -61s21.5 -55.167 21.5 -90.5c0 -30 -8.16699 -55.667 -24.5 -77s-37.5 -38 -63.5 -50c26 -9.33301 47.667 -20.666 65 -33.999s31 -27.833 41 -43.5s17.167 -32 21.5 -49
s6.5 -33.833 6.5 -50.5c0 -37.333 -6.33301 -69.666 -19 -96.999s-30.167 -50.333 -52.5 -69s-48.5 -32.5 -78.5 -41.5s-62.333 -13.5 -97 -13.5c-11.333 0 -22.833 0.333008 -34.5 1s-23.834 2 -36.501 4v146z" />
    <glyph glyph-name="agrave" unicode="&#xe0;" horiz-adv-x="648" 
d="M165 715h189l76 -158v-6h-158l-107 157v7zM421 494l173 0.000976562v-494h-170l-8 53c-21.333 -24 -46.833 -40.667 -76.5 -50s-58.5 -13.333 -86.5 -12c-36 2 -68.167 9.83301 -96.5 23.5s-52 31.667 -71 54s-33.5 48.666 -43.5 78.999s-15 63.5 -15 99.5
c0 36.667 5.66699 70.667 17 102s27.5 58.5 48.5 81.5s46.333 41.167 76 54.5s62.5 20 98.5 20c35.333 0 65 -5.66699 89 -17s42.667 -27 56 -47zM309 356.001c-28 0 -51.499 -9.49902 -70.499 -28.499s-28.5 -45.833 -28.5 -80.5s9.5 -61.334 28.5 -80.001
s42.5 -28 70.5 -28c15.333 0 29.333 2.83301 42 8.5s23.5 13.5 32.5 23.5s15.833 21.5 20.5 34.5s7 26.833 7 41.5c0 33.333 -8.83301 59.833 -26.5 79.5s-42.834 29.5 -75.501 29.5z" />
    <glyph glyph-name="aacute" unicode="&#xe1;" horiz-adv-x="648" 
d="M498 706l-107 -155h-157v6l75 157h189v-8zM421 494l173 0.000976562v-494h-170l-8 53c-21.333 -24 -46.833 -40.667 -76.5 -50s-58.5 -13.333 -86.5 -12c-36 2 -68.167 9.83301 -96.5 23.5s-52 31.667 -71 54s-33.5 48.666 -43.5 78.999s-15 63.5 -15 99.5
c0 36.667 5.66699 70.667 17 102s27.5 58.5 48.5 81.5s46.333 41.167 76 54.5s62.5 20 98.5 20c35.333 0 65 -5.66699 89 -17s42.667 -27 56 -47zM309 356.001c-28 0 -51.499 -9.49902 -70.499 -28.499s-28.5 -45.833 -28.5 -80.5s9.5 -61.334 28.5 -80.001
s42.5 -28 70.5 -28c15.333 0 29.333 2.83301 42 8.5s23.5 13.5 32.5 23.5s15.833 21.5 20.5 34.5s7 26.833 7 41.5c0 33.333 -8.83301 59.833 -26.5 79.5s-42.834 29.5 -75.501 29.5z" />
    <glyph glyph-name="acircumflex" unicode="&#xe2;" horiz-adv-x="648" 
d="M388 715l152 -157v-8h-158l-51 47l-51 -47h-158v8l152 157h114zM421 494l173 0.000976562v-494h-170l-8 53c-21.333 -24 -46.833 -40.667 -76.5 -50s-58.5 -13.333 -86.5 -12c-36 2 -68.167 9.83301 -96.5 23.5s-52 31.667 -71 54s-33.5 48.666 -43.5 78.999
s-15 63.5 -15 99.5c0 36.667 5.66699 70.667 17 102s27.5 58.5 48.5 81.5s46.333 41.167 76 54.5s62.5 20 98.5 20c35.333 0 65 -5.66699 89 -17s42.667 -27 56 -47zM309 356.001c-28 0 -51.499 -9.49902 -70.499 -28.499s-28.5 -45.833 -28.5 -80.5
s9.5 -61.334 28.5 -80.001s42.5 -28 70.5 -28c15.333 0 29.333 2.83301 42 8.5s23.5 13.5 32.5 23.5s15.833 21.5 20.5 34.5s7 26.833 7 41.5c0 33.333 -8.83301 59.833 -26.5 79.5s-42.834 29.5 -75.501 29.5z" />
    <glyph glyph-name="atilde" unicode="&#xe3;" horiz-adv-x="648" 
d="M323 573c-21.333 12.667 -41.165 19.001 -59.498 19.001s-32.166 -11 -41.499 -33l-97 66c8 22.667 19.833 41.5 35.5 56.5s33 25.667 52 32s39 8.5 60 6.5s40.833 -8.66699 59.5 -20c20.667 -12 39.667 -17.833 57 -17.5s32.666 12.166 45.999 35.499l93 -65
c-8.66699 -23.333 -19.834 -43 -33.501 -59s-29.334 -27.5 -47.001 -34.5s-37 -9.5 -58 -7.5s-43.167 9 -66.5 21zM421.001 494.001l173 0.000976562v-494h-170l-8 53c-21.333 -24 -46.833 -40.667 -76.5 -50s-58.5 -13.333 -86.5 -12c-36 2 -68.167 9.83301 -96.5 23.5
s-52 31.667 -71 54s-33.5 48.666 -43.5 78.999s-15 63.5 -15 99.5c0 36.667 5.66699 70.667 17 102s27.5 58.5 48.5 81.5s46.333 41.167 76 54.5s62.5 20 98.5 20c35.333 0 65 -5.66699 89 -17s42.667 -27 56 -47zM309.001 356.002c-28 0 -51.499 -9.49902 -70.499 -28.499
s-28.5 -45.833 -28.5 -80.5s9.5 -61.334 28.5 -80.001s42.5 -28 70.5 -28c15.333 0 29.333 2.83301 42 8.5s23.5 13.5 32.5 23.5s15.833 21.5 20.5 34.5s7 26.833 7 41.5c0 33.333 -8.83301 59.833 -26.5 79.5s-42.834 29.5 -75.501 29.5z" />
    <glyph glyph-name="adieresis" unicode="&#xe4;" horiz-adv-x="648" 
d="M122 635c0 14 2.66699 26.333 8 37s12.333 19.667 21 27s18.5 12.833 29.5 16.5s22.5 5.5 34.5 5.5s23.667 -1.83301 35 -5.5s21.5 -9.16699 30.5 -16.5s16.167 -16.333 21.5 -27s8 -23 8 -37c0 -13.333 -2.66699 -25.166 -8 -35.499s-12.5 -19 -21.5 -26
s-19.167 -12.333 -30.5 -16s-23 -5.5 -35 -5.5s-23.5 1.83301 -34.5 5.5s-20.833 9 -29.5 16s-15.667 15.667 -21 26s-8 22.166 -8 35.499zM378 635c0 14 2.66699 26.333 8 37s12.5 19.667 21.5 27s19.167 12.833 30.5 16.5s23 5.5 35 5.5
c11.333 0 22.666 -1.83301 33.999 -5.5s21.5 -9.16699 30.5 -16.5s16.167 -16.333 21.5 -27s8 -23 8 -37c0 -13.333 -2.66699 -25.166 -8 -35.499s-12.5 -19 -21.5 -26s-19.167 -12.333 -30.5 -16s-22.666 -5.5 -33.999 -5.5c-12 0 -23.667 1.83301 -35 5.5
s-21.5 9 -30.5 16s-16.167 15.667 -21.5 26s-8 22.166 -8 35.499zM421 494l173 0.000976562v-494h-170l-8 53c-21.333 -24 -46.833 -40.667 -76.5 -50s-58.5 -13.333 -86.5 -12c-36 2 -68.167 9.83301 -96.5 23.5s-52 31.667 -71 54s-33.5 48.666 -43.5 78.999
s-15 63.5 -15 99.5c0 36.667 5.66699 70.667 17 102s27.5 58.5 48.5 81.5s46.333 41.167 76 54.5s62.5 20 98.5 20c35.333 0 65 -5.66699 89 -17s42.667 -27 56 -47zM309 356.001c-28 0 -51.499 -9.49902 -70.499 -28.499s-28.5 -45.833 -28.5 -80.5
s9.5 -61.334 28.5 -80.001s42.5 -28 70.5 -28c15.333 0 29.333 2.83301 42 8.5s23.5 13.5 32.5 23.5s15.833 21.5 20.5 34.5s7 26.833 7 41.5c0 33.333 -8.83301 59.833 -26.5 79.5s-42.834 29.5 -75.501 29.5z" />
    <glyph glyph-name="aring" unicode="&#xe5;" horiz-adv-x="648" 
d="M322 788c32.667 0 60.334 -6 83.001 -18s39.5 -27 50.5 -45s16.5 -37.833 16.5 -59.5s-5.33301 -41.5 -16 -59.5s-27.334 -33 -50.001 -45s-50.667 -18 -84 -18c-32.667 0 -60.167 6 -82.5 18s-38.833 27 -49.5 45s-16 37.833 -16 59.5s5.33301 41.5 16 59.5
s27.167 33 49.5 45s49.833 18 82.5 18zM323 700c-14 0 -24.5 -3.5 -31.5 -10.5s-10.5 -14.833 -10.5 -23.5s3.5 -16.5 10.5 -23.5s17.5 -10.5 31.5 -10.5s24.333 3.5 31 10.5s10 14.833 10 23.5s-3.33301 16.5 -10 23.5s-17 10.5 -31 10.5zM421 494l173 0.000976562v-494
h-170l-8 53c-21.333 -24 -46.833 -40.667 -76.5 -50s-58.5 -13.333 -86.5 -12c-36 2 -68.167 9.83301 -96.5 23.5s-52 31.667 -71 54s-33.5 48.666 -43.5 78.999s-15 63.5 -15 99.5c0 36.667 5.66699 70.667 17 102s27.5 58.5 48.5 81.5s46.333 41.167 76 54.5
s62.5 20 98.5 20c35.333 0 65 -5.66699 89 -17s42.667 -27 56 -47zM309 356.001c-28 0 -51.499 -9.49902 -70.499 -28.499s-28.5 -45.833 -28.5 -80.5s9.5 -61.334 28.5 -80.001s42.5 -28 70.5 -28c15.333 0 29.333 2.83301 42 8.5s23.5 13.5 32.5 23.5
s15.833 21.5 20.5 34.5s7 26.833 7 41.5c0 33.333 -8.83301 59.833 -26.5 79.5s-42.834 29.5 -75.501 29.5z" />
    <glyph glyph-name="ae" unicode="&#xe6;" horiz-adv-x="946" 
d="M315 356c-28 0 -51.5 -9.49902 -70.5 -28.499s-28.5 -45.833 -28.5 -80.5s9.5 -61.334 28.5 -80.001s42.5 -28 70.5 -28c31.333 0 56.5 9.5 75.5 28.5s28.5 43.833 28.5 74.5c0 36 -9.16699 64 -27.5 84s-43.833 30 -76.5 30zM755 313.001
c-0.666992 12.667 -5.5 23.501 -14.5 32.501s-19.833 15.667 -32.5 20s-26.5 6.66602 -41.5 6.99902s-29 -1.66699 -42 -6s-24.333 -11 -34 -20s-15.5 -20.167 -17.5 -33.5h182zM572 195.002c3.33301 -11.333 9.16797 -20.8311 17.501 -28.498s18 -14.167 29 -19.5
s22.333 -9.16602 34 -11.499s22.5 -3.5 32.5 -3.5c27.333 0 51.333 3.66699 72 11s39 17 55 29l90 -101c-30 -28 -64.333 -48.667 -103 -62s-79.334 -20 -122.001 -20c-26.667 0 -52.334 4.33301 -77.001 13s-44.667 23 -60 43l-3 -45h-113l-8 53
c-21.333 -24 -46.833 -40.667 -76.5 -50s-58.5 -13.333 -86.5 -12c-36 2 -68.167 9.83301 -96.5 23.5s-52 31.667 -71 54s-33.5 48.666 -43.5 78.999s-15 63.5 -15 99.5c0 36.667 5.66699 70.667 17 102s27.5 58.5 48.5 81.5s46.333 41.167 76 54.5s62.5 20 98.5 20
c35.333 0 65 -5.66699 89 -17s42.667 -27 56 -47l9 53h116l3 -41c21.333 17.333 44.833 30.166 70.5 38.499s51.5 12.166 77.5 11.499c36 0 69.833 -7 101.5 -21s58.334 -34 80.001 -60s36.5 -58.167 44.5 -96.5s6.66699 -81.833 -4 -130.5h-338z" />
    <glyph glyph-name="ccedilla" unicode="&#xe7;" horiz-adv-x="520" 
d="M337 2l-22.002 -52.9971c22 -2 40.833 -7 56.5 -15s27.834 -18 36.501 -30s13.834 -25.333 15.501 -40s-0.166016 -29.667 -5.49902 -45c-10 -28.667 -28.167 -50.5 -54.5 -65.5s-55.333 -23.667 -87 -26s-62.5 1.5 -92.5 11.5s-53.333 26 -70 48l64 61
c7.33301 -6.66699 16.666 -12.334 27.999 -17.001s22.5 -7.5 33.5 -8.5s21 0.166992 30 3.5s14.833 10 17.5 20c2 8 0.333008 15.167 -5 21.5s-12.5 11.166 -21.5 14.499s-19 4.66602 -30 3.99902s-20.833 -3.66699 -29.5 -9l-28 19l45 106h119zM510.998 74.0029
c-30 -26.667 -62.1699 -47.335 -96.5029 -62.002s-70.166 -22 -107.499 -22c-36 0 -70.833 4.66699 -104.5 14s-63.5 24.166 -89.5 44.499s-46.833 46.833 -62.5 79.5s-23.5 72 -23.5 118c0 44.667 7.83301 83.334 23.5 116.001s36.5 59.667 62.5 81s55.667 37 89 47
s67.333 15 102 15c36 0 70.833 -6.33301 104.5 -19s63.5 -32 89.5 -58l-98 -106c-23.333 24 -51.666 36 -84.999 36c-35.333 0 -62.166 -11 -80.499 -33s-27.5 -48.667 -27.5 -80c0 -13.333 2.33301 -26.166 7 -38.499s11.5 -23.166 20.5 -32.499s20.167 -16.833 33.5 -22.5
s28.666 -8.5 45.999 -8.5s33.833 3.5 49.5 10.5s29.834 17.167 42.501 30.5z" />
    <glyph glyph-name="egrave" unicode="&#xe8;" horiz-adv-x="590" 
d="M143 715h187l75 -156v-6h-156l-106 154v8zM393 313c-0.666992 12.667 -5.33105 23.501 -13.998 32.501s-19.334 15.667 -32.001 20s-26.334 6.66602 -41.001 6.99902s-28.5 -1.66699 -41.5 -6s-24.167 -11 -33.5 -20s-15 -20.167 -17 -33.5h179zM302.003 506.001
c44 0 84 -6.99805 120 -20.998s65.833 -34.333 89.5 -61s40 -59.334 49 -98.001s8.16699 -82.334 -2.5 -131.001h-345c3.33301 -11.333 9 -20.833 17 -28.5s17.333 -14.167 28 -19.5s21.667 -9.16602 33 -11.499s22 -3.5 32 -3.5c27.333 0 51.333 3.66699 72 11s39 17 55 29
l90 -101c-30 -28 -64.333 -48.667 -103 -62s-79.334 -20 -122.001 -20c-39.333 0 -76.333 5 -111 15s-65.167 25.333 -91.5 46s-47.166 47.167 -62.499 79.5s-23 71.166 -23 116.499c0 44.667 8 83.5 24 116.5s37 60 63 81s55.5 36.667 88.5 47s66.167 15.5 99.5 15.5z" />
    <glyph glyph-name="eacute" unicode="&#xe9;" horiz-adv-x="590" 
d="M481 706l-106 -154h-156v6l75 156h187v-8zM393 313c-0.666992 12.667 -5.33105 23.501 -13.998 32.501s-19.334 15.667 -32.001 20s-26.334 6.66602 -41.001 6.99902s-28.5 -1.66699 -41.5 -6s-24.167 -11 -33.5 -20s-15 -20.167 -17 -33.5h179zM302.003 506.001
c44 0 84 -6.99805 120 -20.998s65.833 -34.333 89.5 -61s40 -59.334 49 -98.001s8.16699 -82.334 -2.5 -131.001h-345c3.33301 -11.333 9 -20.833 17 -28.5s17.333 -14.167 28 -19.5s21.667 -9.16602 33 -11.499s22 -3.5 32 -3.5c27.333 0 51.333 3.66699 72 11s39 17 55 29
l90 -101c-30 -28 -64.333 -48.667 -103 -62s-79.334 -20 -122.001 -20c-39.333 0 -76.333 5 -111 15s-65.167 25.333 -91.5 46s-47.166 47.167 -62.499 79.5s-23 71.166 -23 116.499c0 44.667 8 83.5 24 116.5s37 60 63 81s55.5 36.667 88.5 47s66.167 15.5 99.5 15.5z" />
    <glyph glyph-name="ecircumflex" unicode="&#xea;" horiz-adv-x="590" 
d="M361 711l152 -157v-8h-158l-51 47l-51 -47h-158v8l152 157h114zM393 313c-0.666992 12.667 -5.33105 23.501 -13.998 32.501s-19.334 15.667 -32.001 20s-26.334 6.66602 -41.001 6.99902s-28.5 -1.66699 -41.5 -6s-24.167 -11 -33.5 -20s-15 -20.167 -17 -33.5h179z
M302.003 506.001c44 0 84 -6.99805 120 -20.998s65.833 -34.333 89.5 -61s40 -59.334 49 -98.001s8.16699 -82.334 -2.5 -131.001h-345c3.33301 -11.333 9 -20.833 17 -28.5s17.333 -14.167 28 -19.5s21.667 -9.16602 33 -11.499s22 -3.5 32 -3.5
c27.333 0 51.333 3.66699 72 11s39 17 55 29l90 -101c-30 -28 -64.333 -48.667 -103 -62s-79.334 -20 -122.001 -20c-39.333 0 -76.333 5 -111 15s-65.167 25.333 -91.5 46s-47.166 47.167 -62.499 79.5s-23 71.166 -23 116.499c0 44.667 8 83.5 24 116.5s37 60 63 81
s55.5 36.667 88.5 47s66.167 15.5 99.5 15.5z" />
    <glyph glyph-name="edieresis" unicode="&#xeb;" horiz-adv-x="590" 
d="M106 635c0 26.667 9.16504 47 27.498 61s38.5 21 60.5 21c11.333 0 22.333 -1.83301 33 -5.5s20.334 -9 29.001 -16s15.5 -15.5 20.5 -25.5s7.5 -21.667 7.5 -35c0 -12.667 -2.5 -24 -7.5 -34s-11.833 -18.333 -20.5 -25s-18.334 -11.667 -29.001 -15s-21.667 -5 -33 -5
s-22.166 1.66699 -32.499 5s-19.666 8.33301 -27.999 15s-15 15 -20 25s-7.5 21.333 -7.5 34zM349.998 635c0 13.333 2.5 25 7.5 35s11.667 18.5 20 25.5s18 12.333 29 16s22.167 5.5 33.5 5.5c10.667 0 21.334 -1.83301 32.001 -5.5s20.167 -9 28.5 -16
s15.166 -15.5 20.499 -25.5s8 -21.667 8 -35c0 -12.667 -2.66699 -24 -8 -34s-12.166 -18.333 -20.499 -25s-17.833 -11.667 -28.5 -15s-21.334 -5 -32.001 -5c-11.333 0 -22.5 1.66699 -33.5 5s-20.667 8.33301 -29 15s-15 15 -20 25s-7.5 21.333 -7.5 34zM392.998 313
c-0.666992 12.667 -5.33105 23.501 -13.998 32.501s-19.334 15.667 -32.001 20s-26.334 6.66602 -41.001 6.99902s-28.5 -1.66699 -41.5 -6s-24.167 -11 -33.5 -20s-15 -20.167 -17 -33.5h179zM302.001 506.001c44 0 84 -6.99805 120 -20.998s65.833 -34.333 89.5 -61
s40 -59.334 49 -98.001s8.16699 -82.334 -2.5 -131.001h-345c3.33301 -11.333 9 -20.833 17 -28.5s17.333 -14.167 28 -19.5s21.667 -9.16602 33 -11.499s22 -3.5 32 -3.5c27.333 0 51.333 3.66699 72 11s39 17 55 29l90 -101c-30 -28 -64.333 -48.667 -103 -62
s-79.334 -20 -122.001 -20c-39.333 0 -76.333 5 -111 15s-65.167 25.333 -91.5 46s-47.166 47.167 -62.499 79.5s-23 71.166 -23 116.499c0 44.667 8 83.5 24 116.5s37 60 63 81s55.5 36.667 88.5 47s66.167 15.5 99.5 15.5z" />
    <glyph glyph-name="igrave" unicode="&#xec;" horiz-adv-x="292" 
d="M0 706h171l52 -157v-6h-149l-74 155v8zM54 0v494h184v-494h-184z" />
    <glyph glyph-name="iacute" unicode="&#xed;" horiz-adv-x="292" 
d="M283 698l-74 -155h-154v6l57 157h171v-8zM54 0v494h184v-494h-184z" />
    <glyph glyph-name="icircumflex" unicode="&#xee;" horiz-adv-x="292" 
d="M192 709l134 -159v-8h-142l-43 45l-45 -45h-140v8l135 159h101zM54 0v494h184v-494h-184z" />
    <glyph glyph-name="idieresis" unicode="&#xef;" horiz-adv-x="292" 
d="M-55 619c0 29.333 9 51.499 27 66.499s38.333 22.5 61 22.5c10.667 0 21.5 -2 32.5 -6s20.667 -9.66699 29 -17s15.166 -16.5 20.499 -27.5s8 -23.833 8 -38.5c0 -14 -2.66699 -26.167 -8 -36.5s-12.166 -19.166 -20.499 -26.499s-18 -12.833 -29 -16.5
s-21.833 -5.5 -32.5 -5.5c-22.667 0 -43 7.16699 -61 21.5s-27 35.5 -27 63.5zM165 618.999c0 14.667 2.5 27.5 7.5 38.5s11.833 20.167 20.5 27.5s18.334 13 29.001 17s21.667 6 33 6c10.667 0 21.334 -2 32.001 -6s20.334 -9.66699 29.001 -17s15.5 -16.5 20.5 -27.5
s7.5 -23.833 7.5 -38.5c0 -14 -2.5 -26.167 -7.5 -36.5s-11.833 -19.166 -20.5 -26.499s-18.334 -12.833 -29.001 -16.5s-21.334 -5.5 -32.001 -5.5c-11.333 0 -22.333 1.83301 -33 5.5s-20.334 9.16699 -29.001 16.5s-15.5 16.166 -20.5 26.499s-7.5 22.5 -7.5 36.5z
M54 -0.000976562v494h184v-494h-184z" />
    <glyph glyph-name="eth" unicode="&#xf0;" horiz-adv-x="585" 
d="M450 640l-109 -126l-106 73l112 131zM382 238c0 23.333 -4.33301 42.668 -13 58.001s-19.667 26.666 -33 33.999s-27.5 11 -42.5 11s-29.167 -3.83301 -42.5 -11.5s-24.333 -19.167 -33 -34.5s-13 -34 -13 -56c0 -22.667 4.33301 -41.334 13 -56.001
s19.667 -25.667 33 -33s27.5 -11 42.5 -11s29.167 3.83301 42.5 11.5s24.333 18.834 33 33.501s13 32.667 13 54zM267 482.002c6 0 14.998 -0.495117 26.998 -1.49512s21.667 -3.16699 29 -6.5c-10 12.667 -23.167 24.667 -39.5 36s-33.5 21.333 -51.5 30s-36 15.667 -54 21
s-33.667 8.66602 -47 9.99902l28 130c60.667 -4.66699 115.5 -19.5 164.5 -44.5s90.833 -57.833 125.5 -98.5s61.334 -87.334 80.001 -140.001s28 -108.667 28 -168c0 -38 -6.16699 -72.833 -18.5 -104.5s-29.666 -58.834 -51.999 -81.501s-49.833 -40.334 -82.5 -53.001
s-69.667 -19 -111 -19c-44 0 -82.5 7 -115.5 21s-60.667 32.5 -83 55.5s-39 49.167 -50 78.5s-16.5 59.666 -16.5 90.999c0 34 5.16699 65.833 15.5 95.5s25.5 55.5 45.5 77.5s44.833 39.333 74.5 52s64.167 19 103.5 19z" />
    <glyph glyph-name="ntilde" unicode="&#xf1;" 
d="M315 585c-19.333 12.667 -37.6641 19.001 -54.9971 19.001s-30.333 -11 -39 -33l-91 65c8 22.667 19.167 41.5 33.5 56.5s30.5 25.5 48.5 31.5s36.667 8 56 6s37.666 -8.66699 54.999 -20c20 -12 38.167 -17.833 54.5 -17.5s30.5 12.166 42.5 35.499l87 -64
c-8 -22.667 -18.333 -42 -31 -58s-27.334 -27.5 -44.001 -34.5s-34.834 -9.5 -54.501 -7.5s-40.5 9 -62.5 21zM390.002 0.000976562l0.000976562 273c0 15.333 -2 28.166 -6 38.499s-9.33301 18.833 -16 25.5s-14 11.334 -22 14.001s-16.333 4 -25 4
c-22 0 -41.667 -7.66699 -59 -23s-26 -39.333 -26 -72v-260h-182v494h163l8 -54c21.333 24.667 46.166 42 74.499 52s55.5 14.667 81.5 14c26 0 50.667 -3.83301 74 -11.5s43.833 -20.5 61.5 -38.5s31.667 -41.833 42 -71.5s15.5 -66.5 15.5 -110.5v-274h-184z" />
    <glyph glyph-name="ograve" unicode="&#xf2;" horiz-adv-x="618" 
d="M138 716h194l77 -153v-6h-162l-109 152v7zM309 505c36.667 0 72.002 -4.99902 106.002 -14.999s64 -25.667 90 -47s46.833 -48.333 62.5 -81s23.5 -71.334 23.5 -116.001c0 -45.333 -8.16699 -84.166 -24.5 -116.499s-37.833 -59 -64.5 -80s-56.834 -36.5 -90.501 -46.5
s-67.834 -15 -102.501 -15c-35.333 0 -70 5 -104 15s-64.167 25.5 -90.5 46.5s-47.5 47.667 -63.5 80s-24 71.166 -24 116.499c0 46 8 85.333 24 118s37.167 59.5 63.5 80.5s56.333 36.333 90 46s68.5 14.5 104.5 14.5zM309.002 139.001c31.333 0 56.1699 10.333 74.5029 31
s27.5 46 27.5 76c0 14 -2.33301 27.5 -7 40.5s-11.334 24.5 -20.001 34.5s-19.334 18 -32.001 24s-27 9 -43 9s-30.333 -3 -43 -9s-23.334 -14 -32.001 -24s-15.334 -21.5 -20.001 -34.5s-7 -26.5 -7 -40.5c0 -28.667 8.83301 -53.667 26.5 -75s42.834 -32 75.501 -32z" />
    <glyph glyph-name="oacute" unicode="&#xf3;" horiz-adv-x="618" 
d="M477 705l-107 -153h-157v6l75 155h189v-8zM309 505c36.667 0 72.002 -4.99902 106.002 -14.999s64 -25.667 90 -47s46.833 -48.333 62.5 -81s23.5 -71.334 23.5 -116.001c0 -45.333 -8.16699 -84.166 -24.5 -116.499s-37.833 -59 -64.5 -80s-56.834 -36.5 -90.501 -46.5
s-67.834 -15 -102.501 -15c-35.333 0 -70 5 -104 15s-64.167 25.5 -90.5 46.5s-47.5 47.667 -63.5 80s-24 71.166 -24 116.499c0 46 8 85.333 24 118s37.167 59.5 63.5 80.5s56.333 36.333 90 46s68.5 14.5 104.5 14.5zM309.002 139.001c31.333 0 56.1699 10.333 74.5029 31
s27.5 46 27.5 76c0 14 -2.33301 27.5 -7 40.5s-11.334 24.5 -20.001 34.5s-19.334 18 -32.001 24s-27 9 -43 9s-30.333 -3 -43 -9s-23.334 -14 -32.001 -24s-15.334 -21.5 -20.001 -34.5s-7 -26.5 -7 -40.5c0 -28.667 8.83301 -53.667 26.5 -75s42.834 -32 75.501 -32z" />
    <glyph glyph-name="ocircumflex" unicode="&#xf4;" horiz-adv-x="618" 
d="M366 710l152 -157v-8h-158l-51 47l-51 -47h-158v8l152 157h114zM309 505c36.667 0 72.002 -4.99902 106.002 -14.999s64 -25.667 90 -47s46.833 -48.333 62.5 -81s23.5 -71.334 23.5 -116.001c0 -45.333 -8.16699 -84.166 -24.5 -116.499s-37.833 -59 -64.5 -80
s-56.834 -36.5 -90.501 -46.5s-67.834 -15 -102.501 -15c-35.333 0 -70 5 -104 15s-64.167 25.5 -90.5 46.5s-47.5 47.667 -63.5 80s-24 71.166 -24 116.499c0 46 8 85.333 24 118s37.167 59.5 63.5 80.5s56.333 36.333 90 46s68.5 14.5 104.5 14.5zM309.002 139.001
c31.333 0 56.1699 10.333 74.5029 31s27.5 46 27.5 76c0 14 -2.33301 27.5 -7 40.5s-11.334 24.5 -20.001 34.5s-19.334 18 -32.001 24s-27 9 -43 9s-30.333 -3 -43 -9s-23.334 -14 -32.001 -24s-15.334 -21.5 -20.001 -34.5s-7 -26.5 -7 -40.5
c0 -28.667 8.83301 -53.667 26.5 -75s42.834 -32 75.501 -32z" />
    <glyph glyph-name="otilde" unicode="&#xf5;" horiz-adv-x="618" 
d="M315 569c-20.667 12.667 -39.999 19.002 -57.999 19.002s-31.667 -11 -41 -33l-96 65c8.66699 23.333 20.5 42.666 35.5 57.999s32 26 51 32s38.667 8 59 6s39.833 -8.66699 58.5 -20c20.667 -12 39.5 -17.833 56.5 -17.5s31.833 12.166 44.5 35.499l91 -65
c-8 -23.333 -18.833 -43 -32.5 -59s-29.167 -27.667 -46.5 -35s-36.333 -9.83301 -57 -7.5s-42.334 9.5 -65.001 21.5zM309.001 505.002c36.667 0 72.002 -4.99902 106.002 -14.999s64 -25.667 90 -47s46.833 -48.333 62.5 -81s23.5 -71.334 23.5 -116.001
c0 -45.333 -8.16699 -84.166 -24.5 -116.499s-37.833 -59 -64.5 -80s-56.834 -36.5 -90.501 -46.5s-67.834 -15 -102.501 -15c-35.333 0 -70 5 -104 15s-64.167 25.5 -90.5 46.5s-47.5 47.667 -63.5 80s-24 71.166 -24 116.499c0 46 8 85.333 24 118s37.167 59.5 63.5 80.5
s56.333 36.333 90 46s68.5 14.5 104.5 14.5zM309.003 139.003c31.333 0 56.1699 10.333 74.5029 31s27.5 46 27.5 76c0 14 -2.33301 27.5 -7 40.5s-11.334 24.5 -20.001 34.5s-19.334 18 -32.001 24s-27 9 -43 9s-30.333 -3 -43 -9s-23.334 -14 -32.001 -24
s-15.334 -21.5 -20.001 -34.5s-7 -26.5 -7 -40.5c0 -28.667 8.83301 -53.667 26.5 -75s42.834 -32 75.501 -32z" />
    <glyph glyph-name="odieresis" unicode="&#xf6;" horiz-adv-x="618" 
d="M96 638c0 14 2.66699 26.333 8 37s12.333 19.667 21 27s18.5 12.833 29.5 16.5s22.5 5.5 34.5 5.5s23.667 -1.83301 35 -5.5s21.5 -9.16699 30.5 -16.5s16.167 -16.333 21.5 -27s8 -23 8 -37c0 -13.333 -2.66699 -25.166 -8 -35.499s-12.5 -19 -21.5 -26
s-19.167 -12.333 -30.5 -16s-23 -5.5 -35 -5.5s-23.5 1.83301 -34.5 5.5s-20.833 9 -29.5 16s-15.667 15.667 -21 26s-8 22.166 -8 35.499zM336 638c0 14 2.66699 26.333 8 37s12.5 19.667 21.5 27s19.167 12.833 30.5 16.5s23 5.5 35 5.5
c11.333 0 22.666 -1.83301 33.999 -5.5s21.5 -9.16699 30.5 -16.5s16.167 -16.333 21.5 -27s8 -23 8 -37c0 -13.333 -2.66699 -25.166 -8 -35.499s-12.5 -19 -21.5 -26s-19.167 -12.333 -30.5 -16s-22.666 -5.5 -33.999 -5.5c-12 0 -23.667 1.83301 -35 5.5
s-21.5 9 -30.5 16s-16.167 15.667 -21.5 26s-8 22.166 -8 35.499zM309 508c36.667 0 72.002 -4.99902 106.002 -14.999s64 -25.667 90 -47s46.833 -48.333 62.5 -81s23.5 -71.334 23.5 -116.001c0 -45.333 -8.16699 -84.166 -24.5 -116.499s-37.833 -59 -64.5 -80
s-56.834 -36.5 -90.501 -46.5s-67.834 -15 -102.501 -15c-35.333 0 -70 5 -104 15s-64.167 25.5 -90.5 46.5s-47.5 47.667 -63.5 80s-24 71.166 -24 116.499c0 46 8 85.333 24 118s37.167 59.5 63.5 80.5s56.333 36.333 90 46s68.5 14.5 104.5 14.5zM309.002 142.001
c31.333 0 56.1699 10.333 74.5029 31s27.5 46 27.5 76c0 14 -2.33301 27.5 -7 40.5s-11.334 24.5 -20.001 34.5s-19.334 18 -32.001 24s-27 9 -43 9s-30.333 -3 -43 -9s-23.334 -14 -32.001 -24s-15.334 -21.5 -20.001 -34.5s-7 -26.5 -7 -40.5
c0 -28.667 8.83301 -53.667 26.5 -75s42.834 -32 75.501 -32z" />
    <glyph glyph-name="divide" unicode="&#xf7;" horiz-adv-x="541" 
d="M38 399h465v-145h-465v145zM177 133c0 14.667 2.83301 27.667 8.5 39s13 20.666 22 27.999s19.333 12.833 31 16.5s23.834 5.5 36.501 5.5c12 0 24 -1.83301 36 -5.5s22.5 -9.16699 31.5 -16.5s16.333 -16.666 22 -27.999s8.5 -24.333 8.5 -39
s-2.83301 -27.334 -8.5 -38.001s-13 -19.667 -22 -27s-19.5 -12.833 -31.5 -16.5s-24 -5.5 -36 -5.5c-12.667 0 -24.834 1.83301 -36.501 5.5s-22 9.16699 -31 16.5s-16.333 16.333 -22 27s-8.5 23.334 -8.5 38.001zM177 521c0 14.667 2.83301 27.667 8.5 39
s13 20.5 22 27.5s19.333 12.333 31 16s23.834 5.5 36.501 5.5c12 0 24 -1.83301 36 -5.5s22.5 -9 31.5 -16s16.333 -16.167 22 -27.5s8.5 -24.333 8.5 -39s-2.83301 -27.5 -8.5 -38.5s-13 -20.167 -22 -27.5s-19.5 -12.833 -31.5 -16.5s-24 -5.5 -36 -5.5
c-12.667 0 -24.834 1.83301 -36.501 5.5s-22 9.16699 -31 16.5s-16.333 16.5 -22 27.5s-8.5 23.833 -8.5 38.5z" />
    <glyph glyph-name="oslash" unicode="&#xf8;" horiz-adv-x="619" 
d="M543 555l-357 -615h-106l358 615h105zM310 505c36.667 0 72.002 -4.99902 106.002 -14.999s64 -25.667 90 -47s46.833 -48.333 62.5 -81s23.5 -71.334 23.5 -116.001c0 -45.333 -8.16699 -84.166 -24.5 -116.499s-37.833 -59 -64.5 -80s-56.834 -36.5 -90.501 -46.5
s-67.834 -15 -102.501 -15c-35.333 0 -70 5 -104 15s-64.167 25.5 -90.5 46.5s-47.5 47.667 -63.5 80s-24 71.166 -24 116.499c0 46 8 85.333 24 118s37.167 59.5 63.5 80.5s56.333 36.333 90 46s68.5 14.5 104.5 14.5zM310.002 139.001c31.333 0 56.1699 10.333 74.5029 31
s27.5 46 27.5 76c0 14 -2.33301 27.5 -7 40.5s-11.334 24.5 -20.001 34.5s-19.334 18 -32.001 24s-27 9 -43 9s-30.333 -3 -43 -9s-23.334 -14 -32.001 -24s-15.334 -21.5 -20.001 -34.5s-7 -26.5 -7 -40.5c0 -28.667 8.83301 -53.667 26.5 -75s42.834 -32 75.501 -32z" />
    <glyph glyph-name="ugrave" unicode="&#xf9;" 
d="M130 709h193l77 -155v-5h-161l-109 152v8zM232 494v-273c0 -15.333 2 -28.166 6 -38.499s9.16699 -18.833 15.5 -25.5s13.666 -11.334 21.999 -14.001s16.833 -4 25.5 -4c22 0 41.667 7.16699 59 21.5s26 37.833 26 70.5v263h182v-494h-163l-8 54
c-21.333 -24.667 -46.166 -42 -74.499 -52s-55.5 -14.667 -81.5 -14c-26 0 -50.667 3.83301 -74 11.5s-43.833 20.5 -61.5 38.5s-31.667 41.833 -42 71.5s-15.5 66.5 -15.5 110.5v274h184z" />
    <glyph glyph-name="uacute" unicode="&#xfa;" 
d="M494 705l-110 -155h-162v6l78 157h194v-8zM232 494v-273c0 -15.333 2 -28.166 6 -38.499s9.16699 -18.833 15.5 -25.5s13.666 -11.334 21.999 -14.001s16.833 -4 25.5 -4c22 0 41.667 7.16699 59 21.5s26 37.833 26 70.5v263h182v-494h-163l-8 54
c-21.333 -24.667 -46.166 -42 -74.499 -52s-55.5 -14.667 -81.5 -14c-26 0 -50.667 3.83301 -74 11.5s-43.833 20.5 -61.5 38.5s-31.667 41.833 -42 71.5s-15.5 66.5 -15.5 110.5v274h184z" />
    <glyph glyph-name="ucircumflex" unicode="&#xfb;" 
d="M365 713l155 -150v-8h-161l-52 45l-52 -45h-162v8l155 150h117zM232 494v-273c0 -15.333 2 -28.166 6 -38.499s9.16699 -18.833 15.5 -25.5s13.666 -11.334 21.999 -14.001s16.833 -4 25.5 -4c22 0 41.667 7.16699 59 21.5s26 37.833 26 70.5v263h182v-494h-163l-8 54
c-21.333 -24.667 -46.166 -42 -74.499 -52s-55.5 -14.667 -81.5 -14c-26 0 -50.667 3.83301 -74 11.5s-43.833 20.5 -61.5 38.5s-31.667 41.833 -42 71.5s-15.5 66.5 -15.5 110.5v274h184z" />
    <glyph glyph-name="udieresis" unicode="&#xfc;" 
d="M74 629c0 13.333 2.66699 25.166 8 35.499s12.333 19 21 26s18.334 12.333 29.001 16s22 5.5 34 5.5s23.5 -1.83301 34.5 -5.5s20.833 -9 29.5 -16s15.667 -15.667 21 -26s8 -22.166 8 -35.499s-2.66699 -24.833 -8 -34.5s-12.333 -18 -21 -25s-18.5 -12.167 -29.5 -15.5
s-22.5 -5 -34.5 -5s-23.333 1.66699 -34 5s-20.334 8.5 -29.001 15.5s-15.667 15.333 -21 25s-8 21.167 -8 34.5zM360 629c0 13.333 2.5 25.166 7.5 35.499s12 19 21 26s19 12.333 30 16s22.5 5.5 34.5 5.5c11.333 0 22.5 -1.83301 33.5 -5.5s21 -9 30 -16
s16 -15.667 21 -26s7.5 -22.166 7.5 -35.499s-2.5 -24.833 -7.5 -34.5s-12 -18 -21 -25s-19 -12.167 -30 -15.5s-22.167 -5 -33.5 -5c-12 0 -23.5 1.66699 -34.5 5s-21 8.5 -30 15.5s-16 15.333 -21 25s-7.5 21.167 -7.5 34.5zM232 494v-273c0 -15.333 2 -28.166 6 -38.499
s9.16699 -18.833 15.5 -25.5s13.666 -11.334 21.999 -14.001s16.833 -4 25.5 -4c22 0 41.667 7.16699 59 21.5s26 37.833 26 70.5v263h182v-494h-163l-8 54c-21.333 -24.667 -46.166 -42 -74.499 -52s-55.5 -14.667 -81.5 -14c-26 0 -50.667 3.83301 -74 11.5
s-43.833 20.5 -61.5 38.5s-31.667 41.833 -42 71.5s-15.5 66.5 -15.5 110.5v274h184z" />
    <glyph glyph-name="yacute" unicode="&#xfd;" horiz-adv-x="582" 
d="M477 703l-109 -159h-161v6l77 161h193v-8zM591 494l-306 -703h-192l100 231l-196 472h195l42 -118l54 -171l60 172l46 117h197z" />
    <glyph glyph-name="thorn" unicode="&#xfe;" horiz-adv-x="640" 
d="M340 147c25.333 0 46.833 8.83105 64.5 26.498s26.5 41.834 26.5 72.501s-8.83301 54.834 -26.5 72.501s-39.167 26.5 -64.5 26.5c-12 0 -23.5 -2.66699 -34.5 -8s-20.5 -12.5 -28.5 -21.5s-14.5 -19.5 -19.5 -31.5s-7.5 -24.667 -7.5 -38s2.33301 -26 7 -38
s11.167 -22.5 19.5 -31.5s18 -16.167 29 -21.5s22.5 -8 34.5 -8zM54 -194.002v882.002h183v-237c21.333 19.333 44.5 33 69.5 41s52.5 12 82.5 12c36 0 68 -7 96 -21s51.5 -32.833 70.5 -56.5s33.333 -50.834 43 -81.501s14.5 -62.334 14.5 -95.001
c0 -33.333 -4.66699 -65.5 -14 -96.5s-23.5 -58.5 -42.5 -82.5s-43.333 -43.333 -73 -58s-64.5 -22 -104.5 -22c-22 0 -46.167 4 -72.5 12s-49.5 21 -69.5 39v-236h-183z" />
    <glyph glyph-name="ydieresis" unicode="&#xff;" horiz-adv-x="582" 
d="M61 627c0 14 2.66699 26.333 8 37s12.333 19.667 21 27s18.5 12.833 29.5 16.5s22.5 5.5 34.5 5.5s23.667 -1.83301 35 -5.5s21.5 -9.16699 30.5 -16.5s16.167 -16.333 21.5 -27s8 -23 8 -37c0 -13.333 -2.66699 -25.166 -8 -35.499s-12.5 -19 -21.5 -26
s-19.167 -12.333 -30.5 -16s-23 -5.5 -35 -5.5s-23.5 1.83301 -34.5 5.5s-20.833 9 -29.5 16s-15.667 15.667 -21 26s-8 22.166 -8 35.499zM351 627c0 14 2.66699 26.333 8 37s12.5 19.667 21.5 27s19.167 12.833 30.5 16.5s23 5.5 35 5.5
c11.333 0 22.666 -1.83301 33.999 -5.5s21.5 -9.16699 30.5 -16.5s16.167 -16.333 21.5 -27s8 -23 8 -37c0 -13.333 -2.66699 -25.166 -8 -35.499s-12.5 -19 -21.5 -26s-19.167 -12.333 -30.5 -16s-22.666 -5.5 -33.999 -5.5c-12 0 -23.667 1.83301 -35 5.5
s-21.5 9 -30.5 16s-16.167 15.667 -21.5 26s-8 22.166 -8 35.499zM591 494l-306 -703h-192l100 231l-196 472h195l42 -118l54 -171l60 172l46 117h197z" />
    <glyph glyph-name="Amacron" unicode="&#x100;" horiz-adv-x="797" 
d="M223 884h350v-140h-350v140zM554 115h-313l-46 -115h-210l314 700h200l313 -700h-212zM398 504l-90 -223h179z" />
    <glyph glyph-name="amacron" unicode="&#x101;" horiz-adv-x="648" 
d="M169 707h335v-139h-335v139zM421 494l173 0.000976562v-494h-170l-8 53c-21.333 -24 -46.833 -40.667 -76.5 -50s-58.5 -13.333 -86.5 -12c-36 2 -68.167 9.83301 -96.5 23.5s-52 31.667 -71 54s-33.5 48.666 -43.5 78.999s-15 63.5 -15 99.5
c0 36.667 5.66699 70.667 17 102s27.5 58.5 48.5 81.5s46.333 41.167 76 54.5s62.5 20 98.5 20c35.333 0 65 -5.66699 89 -17s42.667 -27 56 -47zM309 356.001c-28 0 -51.499 -9.49902 -70.499 -28.499s-28.5 -45.833 -28.5 -80.5s9.5 -61.334 28.5 -80.001
s42.5 -28 70.5 -28c15.333 0 29.333 2.83301 42 8.5s23.5 13.5 32.5 23.5s15.833 21.5 20.5 34.5s7 26.833 7 41.5c0 33.333 -8.83301 59.833 -26.5 79.5s-42.834 29.5 -75.501 29.5z" />
    <glyph glyph-name="Abreve" unicode="&#x102;" horiz-adv-x="797" 
d="M355 904c0 -9.33301 1.66602 -16.833 4.99902 -22.5s7.5 -9.83398 12.5 -12.501s9.83301 -4.5 14.5 -5.5s8.33398 -1.5 11.001 -1.5c3.33301 0 7.33301 0.5 12 1.5s9.5 2.83301 14.5 5.5s9.16699 6.83398 12.5 12.501s5 13.167 5 22.5h140
c1.33301 -51.333 -15 -91 -49 -119s-79 -42 -135 -42c-55.333 0 -100 14 -134 42s-50.333 67.667 -49 119h140zM553.999 115h-313l-46 -115h-210l314 700h200l313 -700h-212zM397.999 504l-90 -223h179z" />
    <glyph glyph-name="abreve" unicode="&#x103;" horiz-adv-x="648" 
d="M291 714c0 -9.33301 1.66992 -16.5 5.00293 -21.5s7.5 -9 12.5 -12s9.83301 -4.83301 14.5 -5.5s8.33398 -1 11.001 -1s6.5 0.333008 11.5 1s9.83301 2.5 14.5 5.5s8.66699 7 12 12s5 12.167 5 21.5h138c1.33301 -49.333 -14.834 -87.666 -48.501 -114.999
s-77.834 -41 -132.501 -41s-98.834 13.667 -132.501 41s-49.834 65.666 -48.501 114.999h138zM421.003 494l173 0.000976562v-494h-170l-8 53c-21.333 -24 -46.833 -40.667 -76.5 -50s-58.5 -13.333 -86.5 -12c-36 2 -68.167 9.83301 -96.5 23.5s-52 31.667 -71 54
s-33.5 48.666 -43.5 78.999s-15 63.5 -15 99.5c0 36.667 5.66699 70.667 17 102s27.5 58.5 48.5 81.5s46.333 41.167 76 54.5s62.5 20 98.5 20c35.333 0 65 -5.66699 89 -17s42.667 -27 56 -47zM309.003 356.001c-28 0 -51.499 -9.49902 -70.499 -28.499
s-28.5 -45.833 -28.5 -80.5s9.5 -61.334 28.5 -80.001s42.5 -28 70.5 -28c15.333 0 29.333 2.83301 42 8.5s23.5 13.5 32.5 23.5s15.833 21.5 20.5 34.5s7 26.833 7 41.5c0 33.333 -8.83301 59.833 -26.5 79.5s-42.834 29.5 -75.501 29.5z" />
    <glyph glyph-name="Aogonek" unicode="&#x104;" horiz-adv-x="797" 
d="M807 0c-33.333 3.33301 -60.3359 3.6709 -81.0029 1.00391c-21.333 -2 -37.666 -5.83301 -48.999 -11.5s-18.166 -12.334 -20.499 -20.001s-2.16602 -15.167 0.500977 -22.5s8 -12.5 16 -15.5s16.667 -4.66699 26 -5s18.5 0.5 27.5 2.5s16.167 4.33301 21.5 7l70 -89
c-20.667 -18 -47.167 -30.833 -79.5 -38.5s-64.5 -9.33398 -96.5 -5.00098s-60.667 15.166 -86 32.499s-41.333 41.666 -48 72.999c-6.66699 32 -3.16699 60.5 10.5 85.5s34.5 43.167 62.5 54.5l-5 12zM553.997 115.005h-313l-46 -115h-210l314 700h200l313 -700h-212z
M397.997 504.005l-90 -223h179z" />
    <glyph glyph-name="aogonek" unicode="&#x105;" horiz-adv-x="648" 
d="M594 16l-0.00292969 -55.001c-8 2 -17.667 3.33301 -29 4s-22.166 -0.333008 -32.499 -3s-18.666 -7.16699 -24.999 -13.5s-8.16602 -15.166 -5.49902 -26.499c2 -6.66699 6.5 -11.167 13.5 -13.5s14.833 -3.5 23.5 -3.5s17.167 1 25.5 3s14.833 4 19.5 6l56 -77
c-19.333 -14.667 -42.833 -25.167 -70.5 -31.5s-54.834 -7.5 -81.501 -3.5s-50.5 13.167 -71.5 27.5s-34.167 34.5 -39.5 60.5c-5.33301 26.667 -2.66602 50 8.00098 70s27 35 49 45l-3 11h163zM420.997 493.999l173 0.000976562v-494h-170l-8 53
c-21.333 -24 -46.833 -40.667 -76.5 -50s-58.5 -13.333 -86.5 -12c-36 2 -68.167 9.83301 -96.5 23.5s-52 31.667 -71 54s-33.5 48.666 -43.5 78.999s-15 63.5 -15 99.5c0 36.667 5.66699 70.667 17 102s27.5 58.5 48.5 81.5s46.333 41.167 76 54.5s62.5 20 98.5 20
c35.333 0 65 -5.66699 89 -17s42.667 -27 56 -47zM308.997 356c-28 0 -51.499 -9.49902 -70.499 -28.499s-28.5 -45.833 -28.5 -80.5s9.5 -61.334 28.5 -80.001s42.5 -28 70.5 -28c15.333 0 29.333 2.83301 42 8.5s23.5 13.5 32.5 23.5s15.833 21.5 20.5 34.5
s7 26.833 7 41.5c0 33.333 -8.83301 59.833 -26.5 79.5s-42.834 29.5 -75.501 29.5z" />
    <glyph glyph-name="Cacute" unicode="&#x106;" horiz-adv-x="707" 
d="M566 911l-103 -151h-153v6l73 153h183v-8zM697 91c-40 -39.333 -83.5039 -67.3301 -130.504 -83.9971s-97.167 -25 -150.5 -25c-68.667 0 -127.167 10 -175.5 30s-87.833 46.667 -118.5 80s-53.167 72 -67.5 116s-21.5 89.667 -21.5 137c0 44.667 7.5 89.167 22.5 133.5
s38.333 84.166 70 119.499s71.5 63.833 119.5 85.5s105 32.5 171 32.5c50.667 0 98.5 -9 143.5 -27s87.5 -46.333 127.5 -85l-122 -120c-25.333 24 -50.666 40.167 -75.999 48.5s-49.666 12.5 -72.999 12.5c-34 0 -62.833 -6.16699 -86.5 -18.5s-43 -28.333 -58 -48
s-25.833 -41.334 -32.5 -65.001s-10 -46.834 -10 -69.501s3.33301 -45.5 10 -68.5s17.334 -43.833 32.001 -62.5s33.834 -33.834 57.501 -45.501s52.834 -17.5 87.501 -17.5c12 0 25 1.33301 39 4s28.167 6.83398 42.5 12.501s28.666 13 42.999 22s27.833 19.833 40.5 32.5z
" />
    <glyph glyph-name="cacute" unicode="&#x107;" horiz-adv-x="519" 
d="M445 693l-98 -144h-147v5l70 146h175v-7zM511 74c-30 -26.667 -62.1699 -47.335 -96.5029 -62.002s-70.166 -22 -107.499 -22c-36 0 -70.833 4.66699 -104.5 14s-63.5 24.166 -89.5 44.499s-46.833 46.833 -62.5 79.5s-23.5 72 -23.5 118
c0 44.667 7.83301 83.334 23.5 116.001s36.5 59.667 62.5 81s55.667 37 89 47s67.333 15 102 15c36 0 70.833 -6.33301 104.5 -19s63.5 -32 89.5 -58l-98 -106c-23.333 24 -51.666 36 -84.999 36c-35.333 0 -62.166 -11 -80.499 -33s-27.5 -48.667 -27.5 -80
c0 -13.333 2.33301 -26.166 7 -38.499s11.5 -23.166 20.5 -32.499s20.167 -16.833 33.5 -22.5s28.666 -8.5 45.999 -8.5s33.833 3.5 49.5 10.5s29.834 17.167 42.501 30.5z" />
    <glyph glyph-name="Ccircumflex" unicode="&#x108;" horiz-adv-x="707" 
d="M464 940l152 -157v-8h-158l-51 47l-51 -47h-158v8l152 157h114zM697 91c-40 -39.333 -83.5039 -67.3301 -130.504 -83.9971s-97.167 -25 -150.5 -25c-68.667 0 -127.167 10 -175.5 30s-87.833 46.667 -118.5 80s-53.167 72 -67.5 116s-21.5 89.667 -21.5 137
c0 44.667 7.5 89.167 22.5 133.5s38.333 84.166 70 119.499s71.5 63.833 119.5 85.5s105 32.5 171 32.5c50.667 0 98.5 -9 143.5 -27s87.5 -46.333 127.5 -85l-122 -120c-25.333 24 -50.666 40.167 -75.999 48.5s-49.666 12.5 -72.999 12.5
c-34 0 -62.833 -6.16699 -86.5 -18.5s-43 -28.333 -58 -48s-25.833 -41.334 -32.5 -65.001s-10 -46.834 -10 -69.501s3.33301 -45.5 10 -68.5s17.334 -43.833 32.001 -62.5s33.834 -33.834 57.501 -45.501s52.834 -17.5 87.501 -17.5c12 0 25 1.33301 39 4
s28.167 6.83398 42.5 12.501s28.666 13 42.999 22s27.833 19.833 40.5 32.5z" />
    <glyph glyph-name="ccircumflex" unicode="&#x109;" horiz-adv-x="519" 
d="M352 703l141 -146v-7h-147l-47 43l-47 -43h-146v7l140 146h106zM511 74c-30 -26.667 -62.1699 -47.335 -96.5029 -62.002s-70.166 -22 -107.499 -22c-36 0 -70.833 4.66699 -104.5 14s-63.5 24.166 -89.5 44.499s-46.833 46.833 -62.5 79.5s-23.5 72 -23.5 118
c0 44.667 7.83301 83.334 23.5 116.001s36.5 59.667 62.5 81s55.667 37 89 47s67.333 15 102 15c36 0 70.833 -6.33301 104.5 -19s63.5 -32 89.5 -58l-98 -106c-23.333 24 -51.666 36 -84.999 36c-35.333 0 -62.166 -11 -80.499 -33s-27.5 -48.667 -27.5 -80
c0 -13.333 2.33301 -26.166 7 -38.499s11.5 -23.166 20.5 -32.499s20.167 -16.833 33.5 -22.5s28.666 -8.5 45.999 -8.5s33.833 3.5 49.5 10.5s29.834 17.167 42.501 30.5z" />
    <glyph glyph-name="Cdotaccent" unicode="&#x10a;" horiz-adv-x="707" 
d="M311 858c0 13.333 2.83301 25.166 8.5 35.499s13.167 19.166 22.5 26.499s20 12.666 32 15.999s24 5 36 5c12.667 0 24.834 -1.66699 36.501 -5s22.167 -8.66602 31.5 -15.999s16.833 -16.166 22.5 -26.499s8.5 -22.166 8.5 -35.499c0 -14 -2.83301 -26 -8.5 -36
s-13.167 -18.667 -22.5 -26s-19.833 -12.666 -31.5 -15.999s-23.834 -5 -36.501 -5c-12 0 -24 1.66699 -36 5s-22.667 8.66602 -32 15.999s-16.833 16 -22.5 26s-8.5 22 -8.5 36zM697 91c-40 -39.333 -83.5039 -67.3301 -130.504 -83.9971s-97.167 -25 -150.5 -25
c-68.667 0 -127.167 10 -175.5 30s-87.833 46.667 -118.5 80s-53.167 72 -67.5 116s-21.5 89.667 -21.5 137c0 44.667 7.5 89.167 22.5 133.5s38.333 84.166 70 119.499s71.5 63.833 119.5 85.5s105 32.5 171 32.5c50.667 0 98.5 -9 143.5 -27s87.5 -46.333 127.5 -85
l-122 -120c-25.333 24 -50.666 40.167 -75.999 48.5s-49.666 12.5 -72.999 12.5c-34 0 -62.833 -6.16699 -86.5 -18.5s-43 -28.333 -58 -48s-25.833 -41.334 -32.5 -65.001s-10 -46.834 -10 -69.501s3.33301 -45.5 10 -68.5s17.334 -43.833 32.001 -62.5
s33.834 -33.834 57.501 -45.501s52.834 -17.5 87.501 -17.5c12 0 25 1.33301 39 4s28.167 6.83398 42.5 12.501s28.666 13 42.999 22s27.833 19.833 40.5 32.5z" />
    <glyph glyph-name="cdotaccent" unicode="&#x10b;" horiz-adv-x="519" 
d="M210 638c0 13.333 2.5 24.833 7.5 34.5s11.833 18 20.5 25s18.334 12 29.001 15s21.667 4.5 33 4.5s22.333 -1.5 33 -4.5s20.167 -8 28.5 -15s15.166 -15.333 20.499 -25s8 -21.167 8 -34.5c0 -12.667 -2.66699 -23.834 -8 -33.501s-12.166 -18 -20.499 -25
s-17.833 -12.167 -28.5 -15.5s-21.667 -5 -33 -5s-22.333 1.66699 -33 5s-20.334 8.5 -29.001 15.5s-15.5 15.333 -20.5 25s-7.5 20.834 -7.5 33.501zM511 74c-30 -26.667 -62.1699 -47.335 -96.5029 -62.002s-70.166 -22 -107.499 -22c-36 0 -70.833 4.66699 -104.5 14
s-63.5 24.166 -89.5 44.499s-46.833 46.833 -62.5 79.5s-23.5 72 -23.5 118c0 44.667 7.83301 83.334 23.5 116.001s36.5 59.667 62.5 81s55.667 37 89 47s67.333 15 102 15c36 0 70.833 -6.33301 104.5 -19s63.5 -32 89.5 -58l-98 -106c-23.333 24 -51.666 36 -84.999 36
c-35.333 0 -62.166 -11 -80.499 -33s-27.5 -48.667 -27.5 -80c0 -13.333 2.33301 -26.166 7 -38.499s11.5 -23.166 20.5 -32.499s20.167 -16.833 33.5 -22.5s28.666 -8.5 45.999 -8.5s33.833 3.5 49.5 10.5s29.834 17.167 42.501 30.5z" />
    <glyph glyph-name="Ccaron" unicode="&#x10c;" horiz-adv-x="707" 
d="M354 761l-152 146v7h158l52 -43l51 43h158v-7l-152 -146h-115zM697 91c-40 -39.333 -83.5039 -67.3301 -130.504 -83.9971s-97.167 -25 -150.5 -25c-68.667 0 -127.167 10 -175.5 30s-87.833 46.667 -118.5 80s-53.167 72 -67.5 116s-21.5 89.667 -21.5 137
c0 44.667 7.5 89.167 22.5 133.5s38.333 84.166 70 119.499s71.5 63.833 119.5 85.5s105 32.5 171 32.5c50.667 0 98.5 -9 143.5 -27s87.5 -46.333 127.5 -85l-122 -120c-25.333 24 -50.666 40.167 -75.999 48.5s-49.666 12.5 -72.999 12.5
c-34 0 -62.833 -6.16699 -86.5 -18.5s-43 -28.333 -58 -48s-25.833 -41.334 -32.5 -65.001s-10 -46.834 -10 -69.501s3.33301 -45.5 10 -68.5s17.334 -43.833 32.001 -62.5s33.834 -33.834 57.501 -45.501s52.834 -17.5 87.501 -17.5c12 0 25 1.33301 39 4
s28.167 6.83398 42.5 12.501s28.666 13 42.999 22s27.833 19.833 40.5 32.5z" />
    <glyph glyph-name="ccaron" unicode="&#x10d;" horiz-adv-x="519" 
d="M242 552l-142 140v7h147l48 -42l47 42h148v-7l-142 -140h-106zM511 74c-30 -26.667 -62.1699 -47.335 -96.5029 -62.002s-70.166 -22 -107.499 -22c-36 0 -70.833 4.66699 -104.5 14s-63.5 24.166 -89.5 44.499s-46.833 46.833 -62.5 79.5s-23.5 72 -23.5 118
c0 44.667 7.83301 83.334 23.5 116.001s36.5 59.667 62.5 81s55.667 37 89 47s67.333 15 102 15c36 0 70.833 -6.33301 104.5 -19s63.5 -32 89.5 -58l-98 -106c-23.333 24 -51.666 36 -84.999 36c-35.333 0 -62.166 -11 -80.499 -33s-27.5 -48.667 -27.5 -80
c0 -13.333 2.33301 -26.166 7 -38.499s11.5 -23.166 20.5 -32.499s20.167 -16.833 33.5 -22.5s28.666 -8.5 45.999 -8.5s33.833 3.5 49.5 10.5s29.834 17.167 42.501 30.5z" />
    <glyph glyph-name="Dcaron" unicode="&#x10e;" horiz-adv-x="771" 
d="M274 764l-165 145v7h172l55 -43l55 43h171v-7l-164 -145h-124zM371 700c62 0 115.833 -9 161.5 -27s83.667 -42.5 114 -73.5s53 -67.5 68 -109.5s22.5 -87 22.5 -135s-7.33301 -93.5 -22 -136.5s-37 -80.667 -67 -113s-68 -58 -114 -77s-100.333 -28.5 -163 -28.5h-300
v700h300zM267 167h104.001c31.333 0 57.833 5.33301 79.5 16s39.167 25 52.5 43s23 38.333 29 61s9 46 9 70s-3.16699 46.833 -9.5 68.5s-16.333 40.5 -30 56.5s-31.334 28.833 -53.001 38.5s-47.5 14.5 -77.5 14.5h-104v-368z" />
    <glyph glyph-name="dcaron" unicode="&#x10f;" horiz-adv-x="752" 
d="M658 701h151l-77 -221h-118zM405 700l184 -0.00195312v-700h-164l-8 53c-21.333 -24 -46.833 -40.667 -76.5 -50s-58.5 -13.333 -86.5 -12c-72.667 4.66699 -128.5 28.834 -167.5 72.501s-58.5 104.834 -58.5 183.501c0 38 5.66699 72.667 17 104s27.5 58.5 48.5 81.5
s46.333 40.833 76 53.5s62.5 19 98.5 19c32 0 59.5 -4.66699 82.5 -14s41.167 -22.333 54.5 -39v248zM310 355.998c-28 0 -51.5 -9.49609 -70.5 -28.4961s-28.5 -45.833 -28.5 -80.5s9.5 -61.334 28.5 -80.001s42.5 -28 70.5 -28c15.333 0 29.166 3 41.499 9
s22.666 13.667 30.999 23s14.833 20.166 19.5 32.499s7 25.166 7 38.499c0 14.667 -2.16699 29 -6.5 43s-10.666 26.167 -18.999 36.5s-18.666 18.666 -30.999 24.999s-26.5 9.5 -42.5 9.5z" />
    <glyph glyph-name="Dcroat" unicode="&#x110;" horiz-adv-x="767" 
d="M17 423h349v-138h-349v138zM371 700c62 0 115.833 -9 161.5 -27s83.667 -42.5 114 -73.5s53 -67.5 68 -109.5s22.5 -87 22.5 -135s-7.33301 -93.5 -22 -136.5s-37 -80.667 -67 -113s-68 -58 -114 -77s-100.333 -28.5 -163 -28.5h-300v700h300zM267 167h104.001
c31.333 0 57.833 5.33301 79.5 16s39.167 25 52.5 43s23 38.333 29 61s9 46 9 70s-3.16699 46.833 -9.5 68.5s-16.333 40.5 -30 56.5s-31.334 28.833 -53.001 38.5s-47.5 14.5 -77.5 14.5h-104v-368z" />
    <glyph glyph-name="dcroat" unicode="&#x111;" horiz-adv-x="643" 
d="M651 543h-330v104h330v-104zM405 700l184 -0.00195312v-700h-164l-8 53c-21.333 -24 -46.833 -40.667 -76.5 -50s-58.5 -13.333 -86.5 -12c-72.667 4.66699 -128.5 28.834 -167.5 72.501s-58.5 104.834 -58.5 183.501c0 38 5.66699 72.667 17 104s27.5 58.5 48.5 81.5
s46.333 40.833 76 53.5s62.5 19 98.5 19c32 0 59.5 -4.66699 82.5 -14s41.167 -22.333 54.5 -39v248zM310 355.998c-28 0 -51.5 -9.49609 -70.5 -28.4961s-28.5 -45.833 -28.5 -80.5s9.5 -61.334 28.5 -80.001s42.5 -28 70.5 -28c15.333 0 29.166 3 41.499 9
s22.666 13.667 30.999 23s14.833 20.166 19.5 32.499s7 25.166 7 38.499c0 14.667 -2.16699 29 -6.5 43s-10.666 26.167 -18.999 36.5s-18.666 18.666 -30.999 24.999s-26.5 9.5 -42.5 9.5z" />
    <glyph glyph-name="Emacron" unicode="&#x112;" horiz-adv-x="672" 
d="M191 891h335v-134h-335v134zM631 0h-560v700h546v-166h-351v-100h331v-161h-331v-106h365v-167z" />
    <glyph glyph-name="emacron" unicode="&#x113;" horiz-adv-x="590" 
d="M154 693h312v-129h-312v129zM393 313c-0.666992 12.667 -5.33105 23.501 -13.998 32.501s-19.334 15.667 -32.001 20s-26.334 6.66602 -41.001 6.99902s-28.5 -1.66699 -41.5 -6s-24.167 -11 -33.5 -20s-15 -20.167 -17 -33.5h179zM302.003 506.001
c44 0 84 -6.99805 120 -20.998s65.833 -34.333 89.5 -61s40 -59.334 49 -98.001s8.16699 -82.334 -2.5 -131.001h-345c3.33301 -11.333 9 -20.833 17 -28.5s17.333 -14.167 28 -19.5s21.667 -9.16602 33 -11.499s22 -3.5 32 -3.5c27.333 0 51.333 3.66699 72 11s39 17 55 29
l90 -101c-30 -28 -64.333 -48.667 -103 -62s-79.334 -20 -122.001 -20c-39.333 0 -76.333 5 -111 15s-65.167 25.333 -91.5 46s-47.166 47.167 -62.499 79.5s-23 71.166 -23 116.499c0 44.667 8 83.5 24 116.5s37 60 63 81s55.5 36.667 88.5 47s66.167 15.5 99.5 15.5z" />
    <glyph glyph-name="Ebreve" unicode="&#x114;" horiz-adv-x="672" 
d="M309 901c0 -8.66699 1.66406 -15.5 4.99707 -20.5s7.33301 -8.83301 12 -11.5s9.33398 -4.5 14.001 -5.5s8.33398 -1.5 11.001 -1.5s6.33398 0.5 11.001 1.5s9.33398 2.83301 14.001 5.5s8.66699 6.5 12 11.5s5 11.833 5 20.5h135
c1.33301 -48 -14.334 -85.167 -47.001 -111.5s-76 -39.5 -130 -39.5c-53.333 0 -96.5 13.167 -129.5 39.5s-48.833 63.5 -47.5 111.5h135zM630.997 0h-560v700h546v-166h-351v-100h331v-161h-331v-106h365v-167z" />
    <glyph glyph-name="ebreve" unicode="&#x115;" horiz-adv-x="590" 
d="M274 710c0 -9.33301 1.66504 -16.5 4.99805 -21.5s7.33301 -9 12 -12s9.5 -4.83301 14.5 -5.5s8.83301 -1 11.5 -1s6.33398 0.333008 11.001 1s9.33398 2.5 14.001 5.5s8.66699 7 12 12s5 12.167 5 21.5h137c1.33301 -50 -14.667 -88.667 -48 -116s-77 -41 -131 -41
c-54.667 0 -98.667 13.667 -132 41s-49 66 -47 116h136zM392.998 313c-0.666992 12.667 -5.33105 23.501 -13.998 32.501s-19.334 15.667 -32.001 20s-26.334 6.66602 -41.001 6.99902s-28.5 -1.66699 -41.5 -6s-24.167 -11 -33.5 -20s-15 -20.167 -17 -33.5h179z
M302.001 506.001c44 0 84 -6.99805 120 -20.998s65.833 -34.333 89.5 -61s40 -59.334 49 -98.001s8.16699 -82.334 -2.5 -131.001h-345c3.33301 -11.333 9 -20.833 17 -28.5s17.333 -14.167 28 -19.5s21.667 -9.16602 33 -11.499s22 -3.5 32 -3.5
c27.333 0 51.333 3.66699 72 11s39 17 55 29l90 -101c-30 -28 -64.333 -48.667 -103 -62s-79.334 -20 -122.001 -20c-39.333 0 -76.333 5 -111 15s-65.167 25.333 -91.5 46s-47.166 47.167 -62.499 79.5s-23 71.166 -23 116.499c0 44.667 8 83.5 24 116.5s37 60 63 81
s55.5 36.667 88.5 47s66.167 15.5 99.5 15.5z" />
    <glyph glyph-name="Edotaccent" unicode="&#x116;" horiz-adv-x="672" 
d="M257 845c0 14 2.83301 26.167 8.5 36.5s13.5 19.166 23.5 26.499s21.333 12.833 34 16.5s25.667 5.5 39 5.5s26.166 -1.83301 38.499 -5.5s23.333 -9.16699 33 -16.5s17.667 -16.166 24 -26.499s9.5 -22.5 9.5 -36.5s-3.16699 -26.333 -9.5 -37s-14.333 -19.667 -24 -27
s-20.667 -12.666 -33 -15.999s-25.166 -5 -38.499 -5s-26.333 1.66699 -39 5s-24 8.66602 -34 15.999s-17.833 16.333 -23.5 27s-8.5 23 -8.5 37zM631 0h-560v700h546v-166h-351v-100h331v-161h-331v-106h365v-167z" />
    <glyph glyph-name="edotaccent" unicode="&#x117;" horiz-adv-x="590" 
d="M208 631c0 14 2.83301 26.333 8.5 37s13.334 19.667 23.001 27s20.5 12.833 32.5 16.5s24.333 5.5 37 5.5s25 -1.83301 37 -5.5s22.667 -9.16699 32 -16.5s17 -16.333 23 -27s9 -23 9 -37s-3 -26.333 -9 -37s-13.667 -19.667 -23 -27s-20 -12.666 -32 -15.999
s-24.333 -5 -37 -5s-25 1.66699 -37 5s-22.833 8.66602 -32.5 15.999s-17.334 16.333 -23.001 27s-8.5 23 -8.5 37zM393 313c-0.666992 12.667 -5.33105 23.501 -13.998 32.501s-19.334 15.667 -32.001 20s-26.334 6.66602 -41.001 6.99902s-28.5 -1.66699 -41.5 -6
s-24.167 -11 -33.5 -20s-15 -20.167 -17 -33.5h179zM302.003 506.001c44 0 84 -6.99805 120 -20.998s65.833 -34.333 89.5 -61s40 -59.334 49 -98.001s8.16699 -82.334 -2.5 -131.001h-345c3.33301 -11.333 9 -20.833 17 -28.5s17.333 -14.167 28 -19.5
s21.667 -9.16602 33 -11.499s22 -3.5 32 -3.5c27.333 0 51.333 3.66699 72 11s39 17 55 29l90 -101c-30 -28 -64.333 -48.667 -103 -62s-79.334 -20 -122.001 -20c-39.333 0 -76.333 5 -111 15s-65.167 25.333 -91.5 46s-47.166 47.167 -62.499 79.5s-23 71.166 -23 116.499
c0 44.667 8 83.5 24 116.5s37 60 63 81s55.5 36.667 88.5 47s66.167 15.5 99.5 15.5z" />
    <glyph glyph-name="Eogonek" unicode="&#x118;" horiz-adv-x="672" 
d="M581 1c-3.33301 0 -6.33496 -0.329102 -9.00195 -0.996094c-14.667 -2.66699 -26 -6.83398 -34 -12.501s-12.833 -12 -14.5 -19s-0.833984 -13.5 2.49902 -19.5s8.83301 -10 16.5 -12s15.834 -2.83301 24.501 -2.5s17.167 1.66602 25.5 3.99902s14.833 4.83301 19.5 7.5
l68 -84c-17.333 -14.667 -39 -26.834 -65 -36.501s-52.833 -15.334 -80.5 -17.001s-54.167 1.16602 -79.5 8.49902s-45.666 21 -60.999 41c-8.66699 10.667 -14.167 22.834 -16.5 36.501s-2.16602 27 0.500977 40s8 25.333 16 37s18.333 21.167 31 28.5l148 7z
M630.998 0.00390625h-560v700h546v-166h-351v-100h331v-161h-331v-106h365v-167z" />
    <glyph glyph-name="eogonek" unicode="&#x119;" horiz-adv-x="591" 
d="M406 0c-10 -3.33301 -17.6699 -8.33594 -23.0029 -15.0029s-7 -14.667 -5 -24c2 -7.33301 6.83301 -13.666 14.5 -18.999s16.334 -8.16602 26.001 -8.49902s19.5 0.833984 29.5 3.50098s18.667 7 26 13l63 -80c-15.333 -18.667 -36.166 -32.5 -62.499 -41.5
s-53.5 -13 -81.5 -12s-54.333 6.83301 -79 17.5s-43 28.667 -55 54c-9.33301 19.333 -11.666 38.333 -6.99902 57s15.667 33.667 33 45zM392.997 312.997c-0.666992 12.667 -5.33105 23.501 -13.998 32.501s-19.334 15.667 -32.001 20s-26.334 6.66602 -41.001 6.99902
s-28.5 -1.66699 -41.5 -6s-24.167 -11 -33.5 -20s-15 -20.167 -17 -33.5h179zM302 505.998c44 0 84 -6.99805 120 -20.998s65.833 -34.333 89.5 -61s40 -59.334 49 -98.001s8.16699 -82.334 -2.5 -131.001h-345c3.33301 -11.333 9 -20.833 17 -28.5s17.333 -14.167 28 -19.5
s21.667 -9.16602 33 -11.499s22 -3.5 32 -3.5c27.333 0 51.333 3.66699 72 11s39 17 55 29l90 -101c-30 -28 -64.333 -48.667 -103 -62s-79.334 -20 -122.001 -20c-39.333 0 -76.333 5 -111 15s-65.167 25.333 -91.5 46s-47.166 47.167 -62.499 79.5s-23 71.166 -23 116.499
c0 44.667 8 83.5 24 116.5s37 60 63 81s55.5 36.667 88.5 47s66.167 15.5 99.5 15.5z" />
    <glyph glyph-name="Ecaron" unicode="&#x11a;" horiz-adv-x="672" 
d="M298 750l-153 143v8h159l52 -43l51 43h159v-8l-153 -143h-115zM631 0h-560v700h546v-166h-351v-100h331v-161h-331v-106h365v-167z" />
    <glyph glyph-name="ecaron" unicode="&#x11b;" horiz-adv-x="590" 
d="M252 550l-152 142v7h158l50 -43l51 43h158v-7l-152 -142h-113zM393 313c-0.666992 12.667 -5.33105 23.501 -13.998 32.501s-19.334 15.667 -32.001 20s-26.334 6.66602 -41.001 6.99902s-28.5 -1.66699 -41.5 -6s-24.167 -11 -33.5 -20s-15 -20.167 -17 -33.5h179z
M302.003 506.001c44 0 84 -6.99805 120 -20.998s65.833 -34.333 89.5 -61s40 -59.334 49 -98.001s8.16699 -82.334 -2.5 -131.001h-345c3.33301 -11.333 9 -20.833 17 -28.5s17.333 -14.167 28 -19.5s21.667 -9.16602 33 -11.499s22 -3.5 32 -3.5
c27.333 0 51.333 3.66699 72 11s39 17 55 29l90 -101c-30 -28 -64.333 -48.667 -103 -62s-79.334 -20 -122.001 -20c-39.333 0 -76.333 5 -111 15s-65.167 25.333 -91.5 46s-47.166 47.167 -62.499 79.5s-23 71.166 -23 116.499c0 44.667 8 83.5 24 116.5s37 60 63 81
s55.5 36.667 88.5 47s66.167 15.5 99.5 15.5z" />
    <glyph glyph-name="Gcircumflex" unicode="&#x11c;" horiz-adv-x="756" 
d="M465 924l158 -150v-7h-164l-53 45l-53 -45h-164v7l158 150h118zM575 493c-25.333 24 -52.4961 40.168 -81.4961 48.501s-55.167 12.5 -78.5 12.5c-57.333 0 -103 -17 -137 -51s-51 -85.333 -51 -154c0 -22.667 3.16699 -45.834 9.5 -69.501s16.833 -45.334 31.5 -65.001
s34 -35.667 58 -48s53.667 -18.5 89 -18.5c9.33301 0 19.666 0.5 30.999 1.5s23 2.83301 35 5.5s24 6.33398 36 11.001s23 10.667 33 18v90h-177v155h342v-311c-11.333 -22 -27 -41.667 -47 -59s-43.167 -31.666 -69.5 -42.999s-55.166 -20 -86.499 -26s-64 -9 -98 -9
c-69.333 0 -128.166 10.667 -176.499 32s-87.833 49.166 -118.5 83.499s-52.834 73.5 -66.501 117.5s-20.5 89 -20.5 135s7.66699 91.167 23 135.5s38.666 84 69.999 119s71 63.167 119 84.5s105 32 171 32c24 0 47.667 -1.5 71 -4.5s46.166 -8.66699 68.499 -17
s44.666 -19.833 66.999 -34.5s45.166 -33.667 68.499 -57z" />
    <glyph glyph-name="gcircumflex" unicode="&#x11d;" horiz-adv-x="610" 
d="M376 731l164 -153v-7h-170l-56 45l-55 -45h-171v7l165 153h123zM207 -35c-0.666992 -19.333 1.49805 -34.998 6.49805 -46.998s11.833 -21.5 20.5 -28.5s18.834 -11.833 30.501 -14.5s23.5 -4 35.5 -4c24 0 45.167 5.83301 63.5 17.5s27.5 29.5 27.5 53.5
c0 18 -6.5 33.5 -19.5 46.5s-36.167 19.5 -69.5 19.5c-41.333 0 -79 5.83301 -113 17.5s-63 28.167 -87 49.5s-42.5 47.5 -55.5 78.5s-19.5 65.5 -19.5 103.5c0 38.667 7.16699 73.667 21.5 105s33.833 58 58.5 80s53.834 38.833 87.501 50.5s69.5 17.5 107.5 17.5
c33.333 0 67.333 -6.33301 102 -19l27 34.5l26 33.5l133 -95l-64 -76c18 -20 30.667 -41.667 38 -65s10.333 -46 9 -68c-0.666992 -31.333 -8.66699 -61.333 -24 -90s-37.333 -53.334 -66 -74.001c22.667 -13.333 40.5 -27.166 53.5 -41.499s22.667 -28.333 29 -42
s10.333 -26.334 12 -38.001s2.5 -20.834 2.5 -27.501c0 -40 -8 -74 -24 -102s-37 -50.667 -63 -68s-55.833 -30 -89.5 -38s-68.167 -12 -103.5 -12c-44 0 -83.167 5.5 -117.5 16.5s-62.833 27 -85.5 48s-39.5 46.5 -50.5 76.5s-15.167 64 -12.5 102h173zM301.998 359.002
c-27.333 0 -50.1689 -8.66602 -68.502 -25.999s-27.5 -42.666 -27.5 -75.999c0 -30 9.16699 -53.667 27.5 -71s41.166 -26 68.499 -26c24.667 0 46.334 7.83301 65.001 23.5s28 40.167 28 73.5c0 14 -2.33301 27.167 -7 39.5s-11.167 23.166 -19.5 32.499
s-18.166 16.666 -29.499 21.999s-23.666 8 -36.999 8z" />
    <glyph glyph-name="Gbreve" unicode="&#x11e;" horiz-adv-x="756" 
d="M362 927c0 -10 1.66699 -17.667 5 -23s7.5 -9.33301 12.5 -12s10 -4.5 15 -5.5s8.83301 -1.5 11.5 -1.5s6.5 0.5 11.5 1.5s10 2.83301 15 5.5s9.16699 6.66699 12.5 12s5 13 5 23h141c1.33301 -51.333 -15.167 -90.833 -49.5 -118.5s-79.5 -41.5 -135.5 -41.5
s-101.333 13.833 -136 41.5s-51 67.167 -49 118.5h141zM575 493c-25.333 24 -52.4961 40.168 -81.4961 48.501s-55.167 12.5 -78.5 12.5c-57.333 0 -103 -17 -137 -51s-51 -85.333 -51 -154c0 -22.667 3.16699 -45.834 9.5 -69.501s16.833 -45.334 31.5 -65.001
s34 -35.667 58 -48s53.667 -18.5 89 -18.5c9.33301 0 19.666 0.5 30.999 1.5s23 2.83301 35 5.5s24 6.33398 36 11.001s23 10.667 33 18v90h-177v155h342v-311c-11.333 -22 -27 -41.667 -47 -59s-43.167 -31.666 -69.5 -42.999s-55.166 -20 -86.499 -26s-64 -9 -98 -9
c-69.333 0 -128.166 10.667 -176.499 32s-87.833 49.166 -118.5 83.499s-52.834 73.5 -66.501 117.5s-20.5 89 -20.5 135s7.66699 91.167 23 135.5s38.666 84 69.999 119s71 63.167 119 84.5s105 32 171 32c24 0 47.667 -1.5 71 -4.5s46.166 -8.66699 68.499 -17
s44.666 -19.833 66.999 -34.5s45.166 -33.667 68.499 -57z" />
    <glyph glyph-name="gbreve" unicode="&#x11f;" horiz-adv-x="615" 
d="M256 720c0 -9.33301 1.66699 -16.5 5 -21.5s7.5 -9 12.5 -12s10 -5 15 -6s8.83301 -1.5 11.5 -1.5s6.5 0.5 11.5 1.5s10 3 15 6s9.16699 7 12.5 12s5 12.167 5 21.5h141c1.33301 -50 -15.167 -88.833 -49.5 -116.5s-79.5 -41.5 -135.5 -41.5s-101.333 13.833 -136 41.5
s-51 66.5 -49 116.5h141zM207 -35c-0.666992 -19.333 1.49805 -34.998 6.49805 -46.998s11.833 -21.5 20.5 -28.5s18.834 -11.833 30.501 -14.5s23.5 -4 35.5 -4c24 0 45.167 5.83301 63.5 17.5s27.5 29.5 27.5 53.5c0 18 -6.5 33.5 -19.5 46.5s-36.167 19.5 -69.5 19.5
c-41.333 0 -79 5.83301 -113 17.5s-63 28.167 -87 49.5s-42.5 47.5 -55.5 78.5s-19.5 65.5 -19.5 103.5c0 38.667 7.16699 73.667 21.5 105s33.833 58 58.5 80s53.834 38.833 87.501 50.5s69.5 17.5 107.5 17.5c33.333 0 67.333 -6.33301 102 -19l27 34.5l26 33.5l133 -95
l-64 -76c18 -20 30.667 -41.667 38 -65s10.333 -46 9 -68c-0.666992 -31.333 -8.66699 -61.333 -24 -90s-37.333 -53.334 -66 -74.001c22.667 -13.333 40.5 -27.166 53.5 -41.499s22.667 -28.333 29 -42s10.333 -26.334 12 -38.001s2.5 -20.834 2.5 -27.501
c0 -40 -8 -74 -24 -102s-37 -50.667 -63 -68s-55.833 -30 -89.5 -38s-68.167 -12 -103.5 -12c-44 0 -83.167 5.5 -117.5 16.5s-62.833 27 -85.5 48s-39.5 46.5 -50.5 76.5s-15.167 64 -12.5 102h173zM301.998 359.002c-27.333 0 -50.1689 -8.66602 -68.502 -25.999
s-27.5 -42.666 -27.5 -75.999c0 -30 9.16699 -53.667 27.5 -71s41.166 -26 68.499 -26c24.667 0 46.334 7.83301 65.001 23.5s28 40.167 28 73.5c0 14 -2.33301 27.167 -7 39.5s-11.167 23.166 -19.5 32.499s-18.166 16.666 -29.499 21.999s-23.666 8 -36.999 8z" />
    <glyph glyph-name="Gdotaccent" unicode="&#x120;" horiz-adv-x="756" 
d="M308 858c0 14.667 3 27.5 9 38.5s14 20.333 24 28s21.167 13.334 33.5 17.001s25.166 5.5 38.499 5.5c12.667 0 25.334 -1.83301 38.001 -5.5s23.834 -9.33398 33.501 -17.001s17.5 -17 23.5 -28s9 -23.833 9 -38.5s-3 -27.5 -9 -38.5s-13.833 -20.333 -23.5 -28
s-20.834 -13.334 -33.501 -17.001s-25.334 -5.5 -38.001 -5.5c-13.333 0 -26.166 1.83301 -38.499 5.5s-23.5 9.33398 -33.5 17.001s-18 17 -24 28s-9 23.833 -9 38.5zM575 493c-25.333 24 -52.4961 40.168 -81.4961 48.501s-55.167 12.5 -78.5 12.5
c-57.333 0 -103 -17 -137 -51s-51 -85.333 -51 -154c0 -22.667 3.16699 -45.834 9.5 -69.501s16.833 -45.334 31.5 -65.001s34 -35.667 58 -48s53.667 -18.5 89 -18.5c9.33301 0 19.666 0.5 30.999 1.5s23 2.83301 35 5.5s24 6.33398 36 11.001s23 10.667 33 18v90h-177v155
h342v-311c-11.333 -22 -27 -41.667 -47 -59s-43.167 -31.666 -69.5 -42.999s-55.166 -20 -86.499 -26s-64 -9 -98 -9c-69.333 0 -128.166 10.667 -176.499 32s-87.833 49.166 -118.5 83.499s-52.834 73.5 -66.501 117.5s-20.5 89 -20.5 135s7.66699 91.167 23 135.5
s38.666 84 69.999 119s71 63.167 119 84.5s105 32 171 32c24 0 47.667 -1.5 71 -4.5s46.166 -8.66699 68.499 -17s44.666 -19.833 66.999 -34.5s45.166 -33.667 68.499 -57z" />
    <glyph glyph-name="gdotaccent" unicode="&#x121;" horiz-adv-x="615" 
d="M202 650c0 14.667 3 27.5 9 38.5s13.833 20.333 23.5 28s20.834 13.334 33.501 17.001s25.334 5.5 38.001 5.5c13.333 0 26.166 -1.83301 38.499 -5.5s23.333 -9.33398 33 -17.001s17.5 -17 23.5 -28s9 -23.833 9 -38.5s-3 -27.5 -9 -38.5s-13.833 -20.333 -23.5 -28
s-20.667 -13.334 -33 -17.001s-25.166 -5.5 -38.499 -5.5c-12.667 0 -25.334 1.83301 -38.001 5.5s-23.834 9.33398 -33.501 17.001s-17.5 17 -23.5 28s-9 23.833 -9 38.5zM207 -35c-0.666992 -19.333 1.49805 -34.998 6.49805 -46.998s11.833 -21.5 20.5 -28.5
s18.834 -11.833 30.501 -14.5s23.5 -4 35.5 -4c24 0 45.167 5.83301 63.5 17.5s27.5 29.5 27.5 53.5c0 18 -6.5 33.5 -19.5 46.5s-36.167 19.5 -69.5 19.5c-41.333 0 -79 5.83301 -113 17.5s-63 28.167 -87 49.5s-42.5 47.5 -55.5 78.5s-19.5 65.5 -19.5 103.5
c0 38.667 7.16699 73.667 21.5 105s33.833 58 58.5 80s53.834 38.833 87.501 50.5s69.5 17.5 107.5 17.5c33.333 0 67.333 -6.33301 102 -19l27 34.5l26 33.5l133 -95l-64 -76c18 -20 30.667 -41.667 38 -65s10.333 -46 9 -68c-0.666992 -31.333 -8.66699 -61.333 -24 -90
s-37.333 -53.334 -66 -74.001c22.667 -13.333 40.5 -27.166 53.5 -41.499s22.667 -28.333 29 -42s10.333 -26.334 12 -38.001s2.5 -20.834 2.5 -27.501c0 -40 -8 -74 -24 -102s-37 -50.667 -63 -68s-55.833 -30 -89.5 -38s-68.167 -12 -103.5 -12
c-44 0 -83.167 5.5 -117.5 16.5s-62.833 27 -85.5 48s-39.5 46.5 -50.5 76.5s-15.167 64 -12.5 102h173zM301.998 359.002c-27.333 0 -50.1689 -8.66602 -68.502 -25.999s-27.5 -42.666 -27.5 -75.999c0 -30 9.16699 -53.667 27.5 -71s41.166 -26 68.499 -26
c24.667 0 46.334 7.83301 65.001 23.5s28 40.167 28 73.5c0 14 -2.33301 27.167 -7 39.5s-11.167 23.166 -19.5 32.499s-18.166 16.666 -29.499 21.999s-23.666 8 -36.999 8z" />
    <glyph glyph-name="Gcommaaccent" unicode="&#x122;" horiz-adv-x="756" 
d="M500 -141c0 -32 -19.333 -86.667 -58 -164h-97l22 100c-22 4 -36.5 12.333 -43.5 25s-10.5 26 -10.5 40c0 13.333 2.66699 24.833 8 34.5s12.666 17.834 21.999 24.501s19.833 11.667 31.5 15s23.834 5 36.501 5c11.333 0 22.333 -1.66699 33 -5
s20.167 -8.33301 28.5 -15s15 -14.834 20 -24.501s7.5 -21.5 7.5 -35.5zM575 493c-25.333 24 -52.4961 40.168 -81.4961 48.501s-55.167 12.5 -78.5 12.5c-57.333 0 -103 -17 -137 -51s-51 -85.333 -51 -154c0 -22.667 3.16699 -45.834 9.5 -69.501
s16.833 -45.334 31.5 -65.001s34 -35.667 58 -48s53.667 -18.5 89 -18.5c9.33301 0 19.666 0.5 30.999 1.5s23 2.83301 35 5.5s24 6.33398 36 11.001s23 10.667 33 18v90h-177v155h342v-311c-11.333 -22 -27 -41.667 -47 -59s-43.167 -31.666 -69.5 -42.999
s-55.166 -20 -86.499 -26s-64 -9 -98 -9c-69.333 0 -128.166 10.667 -176.499 32s-87.833 49.166 -118.5 83.499s-52.834 73.5 -66.501 117.5s-20.5 89 -20.5 135s7.66699 91.167 23 135.5s38.666 84 69.999 119s71 63.167 119 84.5s105 32 171 32c24 0 47.667 -1.5 71 -4.5
s46.166 -8.66699 68.499 -17s44.666 -19.833 66.999 -34.5s45.166 -33.667 68.499 -57z" />
    <glyph glyph-name="gcommaaccent" unicode="&#x123;" horiz-adv-x="615" 
d="M209 652c1.33301 24.667 7.66895 49.165 19.002 73.498l33 72.5h117l-17 -88c17.333 -5.33301 30 -12.166 38 -20.499s11.667 -20.166 11 -35.499c0 -14 -3 -26 -9 -36s-13.833 -18.333 -23.5 -25s-20.334 -11.667 -32.001 -15s-23.5 -5 -35.5 -5
c-12.667 0 -25 1.66699 -37 5s-22.833 8.33301 -32.5 15s-17.334 15 -23.001 25s-8.5 21.333 -8.5 34zM207.003 -35.002c-0.666992 -19.333 1.49805 -34.998 6.49805 -46.998s11.833 -21.5 20.5 -28.5s18.834 -11.833 30.501 -14.5s23.5 -4 35.5 -4
c24 0 45.167 5.83301 63.5 17.5s27.5 29.5 27.5 53.5c0 18 -6.5 33.5 -19.5 46.5s-36.167 19.5 -69.5 19.5c-41.333 0 -79 5.83301 -113 17.5s-63 28.167 -87 49.5s-42.5 47.5 -55.5 78.5s-19.5 65.5 -19.5 103.5c0 38.667 7.16699 73.667 21.5 105s33.833 58 58.5 80
s53.834 38.833 87.501 50.5s69.5 17.5 107.5 17.5c33.333 0 67.333 -6.33301 102 -19l27 34.5l26 33.5l133 -95l-64 -76c18 -20 30.667 -41.667 38 -65s10.333 -46 9 -68c-0.666992 -31.333 -8.66699 -61.333 -24 -90s-37.333 -53.334 -66 -74.001
c22.667 -13.333 40.5 -27.166 53.5 -41.499s22.667 -28.333 29 -42s10.333 -26.334 12 -38.001s2.5 -20.834 2.5 -27.501c0 -40 -8 -74 -24 -102s-37 -50.667 -63 -68s-55.833 -30 -89.5 -38s-68.167 -12 -103.5 -12c-44 0 -83.167 5.5 -117.5 16.5s-62.833 27 -85.5 48
s-39.5 46.5 -50.5 76.5s-15.167 64 -12.5 102h173zM302.001 359c-27.333 0 -50.1689 -8.66602 -68.502 -25.999s-27.5 -42.666 -27.5 -75.999c0 -30 9.16699 -53.667 27.5 -71s41.166 -26 68.499 -26c24.667 0 46.334 7.83301 65.001 23.5s28 40.167 28 73.5
c0 14 -2.33301 27.167 -7 39.5s-11.167 23.166 -19.5 32.499s-18.166 16.666 -29.499 21.999s-23.666 8 -36.999 8z" />
    <glyph glyph-name="Hcircumflex" unicode="&#x124;" horiz-adv-x="788" 
d="M449 926l160 -156v-8h-166l-54 46l-53 -46h-167v8l160 156h120zM521 0v265h-252v-265h-198v700h198v-266h252v266h196v-700h-196z" />
    <glyph glyph-name="hcircumflex" unicode="&#x125;" horiz-adv-x="613" 
d="M357 911l146 -152v-7h-152l-49 45l-49 -45h-151v7l146 152h109zM240 700v-259.002c17.333 22.667 36.166 39 56.499 49s45.5 15 75.5 15c24.667 0 48.667 -4.33301 72 -13s44 -22.167 62 -40.5s32.5 -42.166 43.5 -71.499s16.5 -64.666 16.5 -105.999v-274h-183v273
c-1.33301 28 -8.16602 47.167 -20.499 57.5s-27.833 15.5 -46.5 15.5c-18 0 -35.167 -6.83301 -51.5 -20.5s-24.833 -35.167 -25.5 -64.5v-261h-185v700h186z" />
    <glyph glyph-name="Hbar" unicode="&#x126;" horiz-adv-x="798" 
d="M784 511h-767v103h767v-103zM526 -1v265h-252v-265h-198v700h198v-266h252v266h196v-700h-196z" />
    <glyph glyph-name="hbar" unicode="&#x127;" horiz-adv-x="613" 
d="M321 549h-322v101h322v-101zM240 700v-259.002c17.333 22.667 36.166 39 56.499 49s45.5 15 75.5 15c24.667 0 48.667 -4.33301 72 -13s44 -22.167 62 -40.5s32.5 -42.166 43.5 -71.499s16.5 -64.666 16.5 -105.999v-274h-183v273
c-1.33301 28 -8.16602 47.167 -20.499 57.5s-27.833 15.5 -46.5 15.5c-18 0 -35.167 -6.83301 -51.5 -20.5s-24.833 -35.167 -25.5 -64.5v-261h-185v700h186z" />
    <glyph glyph-name="Itilde" unicode="&#x128;" horiz-adv-x="339" 
d="M167 782c-21.333 12 -41.333 17.999 -60 17.999s-32.667 -10.667 -42 -32l-99 65c8.66699 22.667 20.834 41.5 36.501 56.5s33.167 25.5 52.5 31.5s39.5 8 60.5 6s41.167 -8.33301 60.5 -19c21.333 -12.667 40.666 -18.667 57.999 -18s32.666 12.334 45.999 35.001
l94 -64c-8 -22.667 -19 -42 -33 -58s-30 -27.5 -48 -34.5s-37.667 -9.5 -59 -7.5s-43.666 9 -66.999 21zM71 -0.000976562v700h197v-700h-197z" />
    <glyph glyph-name="itilde" unicode="&#x129;" horiz-adv-x="292" 
d="M54 0v494h184v-494h-184zM146 569c-17.333 12 -33.334 18 -48.001 18s-26 -10.667 -34 -32l-79 63c6.66699 22.667 16.334 41.167 29.001 55.5s26.667 24.5 42 30.5s31.5 8 48.5 6s33.167 -8.33301 48.5 -19c16.667 -11.333 32 -17 46 -17s26.333 11.333 37 34l75 -62
c-6.66699 -22.667 -15.5 -41.667 -26.5 -57s-23.667 -26.5 -38 -33.5s-30 -9.5 -47 -7.5s-34.833 9 -53.5 21z" />
    <glyph glyph-name="Imacron" unicode="&#x12a;" horiz-adv-x="339" 
d="M17 905h301v-144h-301v144zM71 0v700h197v-700h-197z" />
    <glyph glyph-name="imacron" unicode="&#x12b;" horiz-adv-x="292" 
d="M16 697h263v-134h-263v134zM54 0v494h184v-494h-184z" />
    <glyph glyph-name="Ibreve" unicode="&#x12c;" horiz-adv-x="339" 
d="M127 923c0 -10 1.66504 -17.833 4.99805 -23.5s7.33301 -10 12 -13s9.33398 -5 14.001 -6s8.33398 -1.5 11.001 -1.5s6.33398 0.5 11.001 1.5s9.33398 3 14.001 6s8.66699 7.33301 12 13s5 13.5 5 23.5h134c1.33301 -54 -14.334 -95.833 -47.001 -125.5
s-75.667 -44.5 -129 -44.5s-96.333 14.833 -129 44.5s-48.334 71.5 -47.001 125.5h134zM70.998 0v700h197v-700h-197z" />
    <glyph glyph-name="ibreve" unicode="&#x12d;" horiz-adv-x="292" 
d="M54 0v494h184v-494h-184zM111 701c0 -9.33301 1.33496 -16.666 4.00195 -21.999s6.16699 -9.5 10.5 -12.5s8.5 -4.83301 12.5 -5.5s7.33301 -1 10 -1c2 0 5 0.333008 9 1s8.16699 2.5 12.5 5.5s8 7.16699 11 12.5s4.5 12.666 4.5 21.999h118
c0.666992 -50.667 -13.333 -90 -42 -118s-66.334 -42 -113.001 -42c-47.333 0 -85.333 14 -114 42s-42.334 67.333 -41.001 118h118z" />
    <glyph glyph-name="Iogonek" unicode="&#x12e;" horiz-adv-x="339" 
d="M228 0c-15.333 -1.33301 -28.001 -6.00293 -38.001 -14.0029s-13.333 -18.333 -10 -31c2 -7.33301 6.33301 -12.333 13 -15s14.334 -4 23.001 -4s17.167 1 25.5 3s14.833 4 19.5 6l62 -83c-16.667 -15.333 -38.5 -27.666 -65.5 -36.999s-54.5 -14.166 -82.5 -14.499
s-54.167 4.83398 -78.5 15.501s-41.833 28.334 -52.5 53.001c-9.33301 21.333 -11.333 43.666 -6 66.999s16.333 42.333 33 57v8zM70.999 -0.00292969v700h197v-700h-197z" />
    <glyph glyph-name="iogonek" unicode="&#x12f;" horiz-adv-x="294" 
d="M240 5l-0.00488281 -15.001c-8.66699 2 -19.167 3 -31.5 3s-23.666 -1.5 -33.999 -4.5s-18.666 -7.66699 -24.999 -14s-8.16602 -14.833 -5.49902 -25.5c2 -6.66699 6.33301 -11.5 13 -14.5s14.5 -4.66699 23.5 -5s18.167 0.666992 27.5 3s17 5.5 23 9.5l55 -82
c-17.333 -15.333 -40.166 -26.666 -68.499 -33.999s-56.666 -9.33301 -84.999 -6s-53.5 12.5 -75.5 27.5s-35.333 36.833 -40 65.5c-3.33301 22.667 -2 42 4 58s17.333 30.667 34 44zM43.9951 620.999c0 15.333 3 28.833 9 40.5s13.833 21.334 23.5 29.001
s20.667 13.5 33 17.5s25.166 6 38.499 6c12.667 0 25.167 -2 37.5 -6s23.333 -9.83301 33 -17.5s17.5 -17.334 23.5 -29.001s9 -25.167 9 -40.5s-3 -28.666 -9 -39.999s-13.833 -20.833 -23.5 -28.5s-20.667 -13.5 -33 -17.5s-24.833 -6 -37.5 -6
c-13.333 0 -26.166 2 -38.499 6s-23.333 9.83301 -33 17.5s-17.5 17.167 -23.5 28.5s-9 24.666 -9 39.999zM54.9951 -0.000976562v486h185v-486h-185z" />
    <glyph glyph-name="Idotaccent" unicode="&#x130;" horiz-adv-x="339" 
d="M57 835c0 14 3 26.5 9 37.5s14.167 20.167 24.5 27.5s22 12.833 35 16.5s26.5 5.5 40.5 5.5c13.333 0 26.5 -1.83301 39.5 -5.5s24.5 -9.16699 34.5 -16.5s18.333 -16.5 25 -27.5s10 -23.5 10 -37.5c0 -14.667 -3.33301 -27.5 -10 -38.5s-15 -20.167 -25 -27.5
s-21.5 -12.833 -34.5 -16.5s-26.167 -5.5 -39.5 -5.5c-14 0 -27.5 1.83301 -40.5 5.5s-24.667 9.16699 -35 16.5s-18.5 16.5 -24.5 27.5s-9 23.833 -9 38.5zM71 0v700h197v-700h-197z" />
    <glyph glyph-name="dotlessi" unicode="&#x131;" horiz-adv-x="292" 
d="M54 0v494h184v-494h-184z" />
    <glyph glyph-name="IJ" unicode="&#x132;" horiz-adv-x="1067" 
d="M71 0v700h197v-700h-197zM547 302c0.666992 -26 4.50098 -48.334 11.501 -67.001s16.333 -33.667 28 -45s25.167 -19.666 40.5 -24.999s31.666 -8 48.999 -8c42 0 74.5 12.333 97.5 37s34.5 61 34.5 109v231h-186v166h384v-398c0 -46 -7.16699 -88.333 -21.5 -127
s-35.5 -72.167 -63.5 -100.5s-62.667 -50.333 -104 -66s-89 -23.5 -143 -23.5c-101.333 0 -180 25.5 -236 76.5s-84 131.167 -84 240.5h193z" />
    <glyph glyph-name="ij" unicode="&#x133;" horiz-adv-x="585" 
d="M43 621c0 15.333 3 28.833 9 40.5s13.833 21.334 23.5 29.001s20.667 13.5 33 17.5s25.166 6 38.499 6c12.667 0 25.167 -2 37.5 -6s23.333 -9.83301 33 -17.5s17.5 -17.334 23.5 -29.001s9 -25.167 9 -40.5s-3 -28.666 -9 -39.999s-13.833 -20.833 -23.5 -28.5
s-20.667 -13.5 -33 -17.5s-24.833 -6 -37.5 -6c-13.333 0 -26.166 2 -38.499 6s-23.333 9.83301 -33 17.5s-17.5 17.167 -23.5 28.5s-9 24.666 -9 39.999zM54 0v486h185v-486h-185zM336 621c0 15.333 3 28.833 9 40.5s13.833 21.334 23.5 29.001s20.667 13.5 33 17.5
s25.166 6 38.499 6c12.667 0 25.167 -2 37.5 -6s23.333 -9.83301 33 -17.5s17.5 -17.334 23.5 -29.001s9 -25.167 9 -40.5s-3 -28.666 -9 -39.999s-13.833 -20.833 -23.5 -28.5s-20.667 -13.5 -33 -17.5s-24.833 -6 -37.5 -6c-13.333 0 -26.166 2 -38.499 6
s-23.333 9.83301 -33 17.5s-17.5 17.167 -23.5 28.5s-9 24.666 -9 39.999zM258 -72c27.333 -15.333 49 -18.6689 65 -10.002s24 28.334 24 59.001v509h184v-509c0 -48 -8.5 -87.833 -25.5 -119.5s-39 -54.667 -66 -69s-55.5 -21.5 -85.5 -21.5
c-12 -0.666992 -24.167 -0.166992 -36.5 1.5s-26.333 4.83398 -42 9.50098s-33.167 11.667 -52.5 21z" />
    <glyph glyph-name="Jcircumflex" unicode="&#x134;" horiz-adv-x="728" 
d="M494 924l158 -164v-9h-164l-53 49l-53 -49h-165v9l158 164h119zM208 302c0.666992 -26 4.50098 -48.334 11.501 -67.001s16.333 -33.667 28 -45s25.167 -19.666 40.5 -24.999s31.666 -8 48.999 -8c42 0 74.5 12.333 97.5 37s34.5 61 34.5 109v231h-186v166h384v-398
c0 -46 -7.16699 -88.333 -21.5 -127s-35.5 -72.167 -63.5 -100.5s-62.667 -50.333 -104 -66s-89 -23.5 -143 -23.5c-101.333 0 -180 25.5 -236 76.5s-84 131.167 -84 240.5h193z" />
    <glyph glyph-name="jcircumflex" unicode="&#x135;" horiz-adv-x="292" 
d="M173 723l135 -172v-9h-140l-46 52l-45 -52h-141v9l136 172h101zM-35 -72c27.333 -15.333 49 -18.668 65 -10.001s24 28.334 24 59.001v509h184v-509c0 -48 -8.66699 -88 -26 -120s-40.333 -55.5 -69 -70.5s-61.5 -21.5 -98.5 -19.5s-75.167 12.667 -114.5 32z" />
    <glyph glyph-name="Kcommaaccent" unicode="&#x136;" horiz-adv-x="703" 
d="M449 -126c0 -31.333 -19.998 -85.332 -59.998 -161.999h-101l22 99c-22.667 4 -37.667 12.167 -45 24.5s-11 25.5 -11 39.5c0 13.333 2.83301 24.666 8.5 33.999s13.167 17.333 22.5 24s20.166 11.667 32.499 15s25.166 5 38.499 5c12 0 23.5 -1.66699 34.5 -5
s21 -8.33301 30 -15s16 -14.667 21 -24s7.5 -21 7.5 -35zM690.002 688.001l-284 -331l154.5 -171l153.5 -174v-12h-245l-200 233v-233h-198v700h198v-230l92 115l92 115h237v-12z" />
    <glyph glyph-name="kcommaaccent" unicode="&#x137;" horiz-adv-x="569" 
d="M387 -125c0 -32 -19.334 -86.667 -58.001 -164h-96l21 100c-21.333 4 -35.5 12.333 -42.5 25s-10.5 26 -10.5 40c0 13.333 2.66699 24.833 8 34.5s12.5 17.834 21.5 24.501s19.333 11.667 31 15s23.834 5 36.501 5c11.333 0 22.333 -1.66699 33 -5
s20.167 -8.33301 28.5 -15s15 -14.834 20 -24.501s7.5 -21.5 7.5 -35.5zM238.999 700v-351l103 145h205v-8l-173 -224l201 -251v-11h-208l-128 172v-172h-185v700h185z" />
    <glyph glyph-name="kgreenlandic" unicode="&#x138;" horiz-adv-x="569" 
d="M239 495v-146l103 145h205v-8l-173 -224l201 -251v-11h-208l-128 172v-172h-185v495h185z" />
    <glyph glyph-name="Lacute" unicode="&#x139;" horiz-adv-x="620" 
d="M354 903l-110 -146h-163v6l78 147h195v-7zM269 700v-532h335v-168h-533v700h198z" />
    <glyph glyph-name="lacute" unicode="&#x13a;" horiz-adv-x="290" 
d="M320 899l-104 -142h-153v5l73 144h184v-7zM236 701v-701h-182v701h182z" />
    <glyph glyph-name="Lcommaaccent" unicode="&#x13b;" horiz-adv-x="620" 
d="M430 -127c0 -33.333 -19.334 -89.667 -58.001 -169h-96l21 103c-21.333 4 -35.5 12.5 -42.5 25.5s-10.5 26.833 -10.5 41.5c0 13.333 2.66699 25 8 35s12.5 18.5 21.5 25.5s19.333 12.167 31 15.5s23.834 5 36.501 5c11.333 0 22.333 -1.66699 33 -5
s20.167 -8.5 28.5 -15.5s15 -15.5 20 -25.5s7.5 -22 7.5 -36zM268.999 699.999v-532h335v-168h-533v700h198z" />
    <glyph glyph-name="lcommaaccent" unicode="&#x13c;" horiz-adv-x="290" 
d="M236 -132c0 -33.333 -19.334 -89.667 -58.001 -169h-96l21 103c-21.333 4 -35.5 12.5 -42.5 25.5s-10.5 26.833 -10.5 41.5c0 13.333 2.66699 25 8 35s12.5 18.5 21.5 25.5s19.333 12.167 31 15.5s23.834 5 36.501 5c11.333 0 22.333 -1.66699 33 -5
s20.167 -8.5 28.5 -15.5s15 -15.5 20 -25.5s7.5 -22 7.5 -36zM235.999 700.999v-701h-182v701h182z" />
    <glyph glyph-name="Lcaron" unicode="&#x13d;" 
d="M426 702h161l-82 -235h-126zM269 700v-532h335v-168h-533v700h198z" />
    <glyph glyph-name="lcaron" unicode="&#x13e;" horiz-adv-x="419" 
d="M308 700h161l-82 -236h-126zM53 0v700h183v-700h-183z" />
    <glyph glyph-name="Ldot" unicode="&#x13f;" horiz-adv-x="620" 
d="M446 275c-22.667 0 -41.8311 4.66699 -57.498 14s-27.334 21 -35.001 35s-11.5 29.333 -11.5 46s3.83301 32 11.5 46s19.167 25.667 34.5 35s34.666 14 57.999 14s42.666 -4.66699 57.999 -14s26.833 -21 34.5 -35s11.5 -29.333 11.5 -46s-3.83301 -32 -11.5 -46
s-19.167 -25.667 -34.5 -35s-34.666 -14 -57.999 -14zM269.003 700v-532h335v-168h-533v700h198z" />
    <glyph glyph-name="ldot" unicode="&#x140;" horiz-adv-x="481" 
d="M386 245c-22.667 0 -41.8311 4.66699 -57.498 14s-27.334 21 -35.001 35s-11.5 29.333 -11.5 46s3.83301 32 11.5 46s19.167 25.667 34.5 35s34.666 14 57.999 14s42.666 -4.66699 57.999 -14s26.833 -21 34.5 -35s11.5 -29.333 11.5 -46s-3.83301 -32 -11.5 -46
s-19.167 -25.667 -34.5 -35s-34.666 -14 -57.999 -14zM236.003 701v-701h-182v701h182z" />
    <glyph glyph-name="Lslash" unicode="&#x141;" horiz-adv-x="628" 
d="M376 356l-365 -182v145l365 186v-149zM277 700v-532h335v-168h-533v700h198z" />
    <glyph glyph-name="lslash" unicode="&#x142;" horiz-adv-x="331" 
d="M317 339l-304 -156v135l304 152v-131zM253 687v-687h-182v687h182z" />
    <glyph glyph-name="Nacute" unicode="&#x143;" horiz-adv-x="799" 
d="M573 911l-115 -155h-170v6l81 157h204v-8zM535 317c-1.33301 20.667 -2.33398 38.5 -3.00098 53.5s-1.16699 28 -1.5 39s-0.666016 20.5 -0.999023 28.5s-0.5 15.333 -0.5 22v240h199v-700h-168l-292 377l3 -153v-224h-200v700h168z" />
    <glyph glyph-name="nacute" unicode="&#x144;" 
d="M478 705l-103 -150h-151v6l72 151h182v-7zM390 0l0.000976562 273c0 15.333 -2 28.166 -6 38.499s-9.33301 18.833 -16 25.5s-14 11.334 -22 14.001s-16.333 4 -25 4c-22 0 -41.667 -7.66699 -59 -23s-26 -39.333 -26 -72v-260h-182v494h163l8 -54
c21.333 24.667 46.166 42 74.499 52s55.5 14.667 81.5 14c26 0 50.667 -3.83301 74 -11.5s43.833 -20.5 61.5 -38.5s31.667 -41.833 42 -71.5s15.5 -66.5 15.5 -110.5v-274h-184z" />
    <glyph glyph-name="Ncommaaccent" unicode="&#x145;" horiz-adv-x="799" 
d="M502 -115c0 -33.333 -19.334 -89.667 -58.001 -169h-96l21 103c-21.333 4 -35.5 12.5 -42.5 25.5s-10.5 26.833 -10.5 41.5c0 13.333 2.66699 25 8 35s12.5 18.5 21.5 25.5s19.333 12.167 31 15.5s23.834 5 36.501 5c11.333 0 22.333 -1.66699 33 -5
s20.167 -8.5 28.5 -15.5s15 -15.5 20 -25.5s7.5 -22 7.5 -36zM534.999 316.999c-1.33301 20.667 -2.33398 38.5 -3.00098 53.5s-1.16699 28 -1.5 39s-0.666016 20.5 -0.999023 28.5s-0.5 15.333 -0.5 22v240h199v-700h-168l-292 377l3 -153v-224h-200v700h168z" />
    <glyph glyph-name="ncommaaccent" unicode="&#x146;" 
d="M405 -121c0 -33.333 -19.334 -89.667 -58.001 -169h-96l21 103c-21.333 4 -35.5 12.5 -42.5 25.5s-10.5 26.833 -10.5 41.5c0 13.333 2.66699 25 8 35s12.5 18.5 21.5 25.5s19.333 12.167 31 15.5s23.834 5 36.501 5c11.333 0 22.333 -1.66699 33 -5
s20.167 -8.5 28.5 -15.5s15 -15.5 20 -25.5s7.5 -22 7.5 -36zM389.999 -0.000976562l0.000976562 273c0 15.333 -2 28.166 -6 38.499s-9.33301 18.833 -16 25.5s-14 11.334 -22 14.001s-16.333 4 -25 4c-22 0 -41.667 -7.66699 -59 -23s-26 -39.333 -26 -72v-260h-182v494
h163l8 -54c21.333 24.667 46.166 42 74.499 52s55.5 14.667 81.5 14c26 0 50.667 -3.83301 74 -11.5s43.833 -20.5 61.5 -38.5s31.667 -41.833 42 -71.5s15.5 -66.5 15.5 -110.5v-274h-184z" />
    <glyph glyph-name="Ncaron" unicode="&#x147;" horiz-adv-x="799" 
d="M341 753l-152 145v7h158l50 -43l51 43h158v-7l-152 -145h-113zM535 317c-1.33301 20.667 -2.33398 38.5 -3.00098 53.5s-1.16699 28 -1.5 39s-0.666016 20.5 -0.999023 28.5s-0.5 15.333 -0.5 22v240h199v-700h-168l-292 377l3 -153v-224h-200v700h168z" />
    <glyph glyph-name="ncaron" unicode="&#x148;" 
d="M261 553l-146 143v8h151l49 -43l49 43h151v-8l-145 -143h-109zM390 0l0.000976562 273c0 15.333 -2 28.166 -6 38.499s-9.33301 18.833 -16 25.5s-14 11.334 -22 14.001s-16.333 4 -25 4c-22 0 -41.667 -7.66699 -59 -23s-26 -39.333 -26 -72v-260h-182v494h163l8 -54
c21.333 24.667 46.166 42 74.499 52s55.5 14.667 81.5 14c26 0 50.667 -3.83301 74 -11.5s43.833 -20.5 61.5 -38.5s31.667 -41.833 42 -71.5s15.5 -66.5 15.5 -110.5v-274h-184z" />
    <glyph glyph-name="napostrophe" unicode="&#x149;" 
d="M390 0l0.000976562 273c0 15.333 -2 28.166 -6 38.499s-9.33301 18.833 -16 25.5s-14 11.334 -22 14.001s-16.333 4 -25 4c-22 0 -41.667 -7.66699 -59 -23s-26 -39.333 -26 -72v-260h-182v494h163l8 -54c21.333 24.667 46.166 42 74.499 52s55.5 14.667 81.5 14
c26 0 50.667 -3.83301 74 -11.5s43.833 -20.5 61.5 -38.5s31.667 -41.833 42 -71.5s15.5 -66.5 15.5 -110.5v-274h-184z" />
    <glyph glyph-name="Eng" unicode="&#x14a;" horiz-adv-x="794" 
d="M723 59l0.000976562 -82.002c0 -48 -7.16699 -88 -21.5 -120s-34.833 -55.5 -61.5 -70.5s-59 -21.5 -97 -19.5s-80.667 12.667 -128 32l35 129c27.333 -15.333 49.666 -18.666 66.999 -9.99902s26 28.334 26 59.001v82h180zM533.001 316.998
c-1.33301 20.667 -2.33398 38.5 -3.00098 53.5s-1.16699 28 -1.5 39s-0.666016 20.5 -0.999023 28.5s-0.5 15.333 -0.5 22v240h199v-700h-168l-292 377l3 -153v-224h-200v700h168z" />
    <glyph glyph-name="eng" unicode="&#x14b;" 
d="M574 42v-67c0 -46.667 -8.66699 -85.5 -26 -116.5s-40.333 -54 -69 -69s-61.5 -21.5 -98.5 -19.5s-75.167 12.667 -114.5 32l35 126c27.333 -15.333 49.333 -18 66 -8s25 29 25 57v65h182zM393 0v273c0 15.333 -2 28.166 -6 38.499s-9.33301 18.833 -16 25.5
s-13.834 11.334 -21.501 14.001s-15.834 4 -24.501 4c-21.333 0 -40.666 -7.66699 -57.999 -23s-26 -39.333 -26 -72v-260h-179v494h161l8 -54c20.667 24.667 45 42 73 52s54.667 14.667 80 14c26 0 50.333 -3.83301 73 -11.5s42.834 -20.5 60.501 -38.5
s31.5 -41.833 41.5 -71.5s15 -66.5 15 -110.5v-274h-181z" />
    <glyph glyph-name="Omacron" unicode="&#x14c;" horiz-adv-x="842" 
d="M245 910h350v-140h-350v140zM810 350c0 -58.667 -9.5 -110.668 -28.5 -156.001s-45.667 -83.666 -80 -114.999s-75.333 -55.166 -123 -71.499s-100.167 -24.5 -157.5 -24.5s-109.833 8.16699 -157.5 24.5s-88.667 40.166 -123 71.499s-61 69.666 -80 114.999
s-28.5 97.333 -28.5 156c0 57.333 9.5 108.666 28.5 153.999s45.667 83.833 80 115.5s75.333 55.834 123 72.501s100.167 25 157.5 25s109.833 -8.16699 157.5 -24.5s88.667 -40.166 123 -71.499s61 -69.833 80 -115.5s28.5 -97.5 28.5 -155.5zM612 349.999
c0 60.667 -17.168 108.831 -51.501 144.498s-80.833 53.5 -139.5 53.5c-28 0 -53.833 -4.83301 -77.5 -14.5s-43.834 -23.334 -60.501 -41.001s-29.667 -38.667 -39 -63s-14 -50.833 -14 -79.5c0 -29.333 4.66699 -56.166 14 -80.499s22.5 -45.166 39.5 -62.499
s37.167 -30.833 60.5 -40.5s49 -14.5 77 -14.5c28.667 0 54.834 4.83301 78.501 14.5s43.834 23.334 60.501 41.001s29.5 38.5 38.5 62.5s13.5 50.667 13.5 80z" />
    <glyph glyph-name="omacron" unicode="&#x14d;" horiz-adv-x="618" 
d="M156 698h305v-143h-305v143zM309 505c36.667 0 72.002 -4.99902 106.002 -14.999s64 -25.667 90 -47s46.833 -48.333 62.5 -81s23.5 -71.334 23.5 -116.001c0 -45.333 -8.16699 -84.166 -24.5 -116.499s-37.833 -59 -64.5 -80s-56.834 -36.5 -90.501 -46.5
s-67.834 -15 -102.501 -15c-35.333 0 -70 5 -104 15s-64.167 25.5 -90.5 46.5s-47.5 47.667 -63.5 80s-24 71.166 -24 116.499c0 46 8 85.333 24 118s37.167 59.5 63.5 80.5s56.333 36.333 90 46s68.5 14.5 104.5 14.5zM309.002 139.001c31.333 0 56.1699 10.333 74.5029 31
s27.5 46 27.5 76c0 14 -2.33301 27.5 -7 40.5s-11.334 24.5 -20.001 34.5s-19.334 18 -32.001 24s-27 9 -43 9s-30.333 -3 -43 -9s-23.334 -14 -32.001 -24s-15.334 -21.5 -20.001 -34.5s-7 -26.5 -7 -40.5c0 -28.667 8.83301 -53.667 26.5 -75s42.834 -32 75.501 -32z" />
    <glyph glyph-name="Obreve" unicode="&#x14e;" horiz-adv-x="842" 
d="M379 919c0 -9.33301 1.83691 -16.5 5.50391 -21.5s8 -9 13 -12s9.83301 -5 14.5 -6s8.66699 -1.5 12 -1.5c2.66699 0 6.5 0.5 11.5 1.5s10 3 15 6s9.16699 7 12.5 12s5 12.167 5 21.5h143c1.33301 -50 -15.334 -88.833 -50.001 -116.5s-80.334 -41.5 -137.001 -41.5
s-102.334 13.833 -137.001 41.5s-51.334 66.5 -50.001 116.5h142zM810.004 350c0 -58.667 -9.5 -110.668 -28.5 -156.001s-45.667 -83.666 -80 -114.999s-75.333 -55.166 -123 -71.499s-100.167 -24.5 -157.5 -24.5s-109.833 8.16699 -157.5 24.5
s-88.667 40.166 -123 71.499s-61 69.666 -80 114.999s-28.5 97.333 -28.5 156c0 57.333 9.5 108.666 28.5 153.999s45.667 83.833 80 115.5s75.333 55.834 123 72.501s100.167 25 157.5 25s109.833 -8.16699 157.5 -24.5s88.667 -40.166 123 -71.499s61 -69.833 80 -115.5
s28.5 -97.5 28.5 -155.5zM612.004 349.999c0 60.667 -17.168 108.831 -51.501 144.498s-80.833 53.5 -139.5 53.5c-28 0 -53.833 -4.83301 -77.5 -14.5s-43.834 -23.334 -60.501 -41.001s-29.667 -38.667 -39 -63s-14 -50.833 -14 -79.5
c0 -29.333 4.66699 -56.166 14 -80.499s22.5 -45.166 39.5 -62.499s37.167 -30.833 60.5 -40.5s49 -14.5 77 -14.5c28.667 0 54.834 4.83301 78.501 14.5s43.834 23.334 60.501 41.001s29.5 38.5 38.5 62.5s13.5 50.667 13.5 80z" />
    <glyph glyph-name="obreve" unicode="&#x14f;" horiz-adv-x="618" 
d="M267 707c0 -9.33301 1.49805 -16.5 4.49805 -21.5s6.83301 -8.83301 11.5 -11.5s9.33398 -4.5 14.001 -5.5s8.33398 -1.5 11.001 -1.5s6.33398 0.5 11.001 1.5s9.33398 2.83301 14.001 5.5s8.66699 6.5 12 11.5s5 12.167 5 21.5h133
c1.33301 -49.333 -14.334 -87.5 -47.001 -114.5s-75.334 -40.5 -128.001 -40.5s-95.167 13.5 -127.5 40.5s-47.833 65.167 -46.5 114.5h133zM308.998 505c36.667 0 72.002 -4.99902 106.002 -14.999s64 -25.667 90 -47s46.833 -48.333 62.5 -81s23.5 -71.334 23.5 -116.001
c0 -45.333 -8.16699 -84.166 -24.5 -116.499s-37.833 -59 -64.5 -80s-56.834 -36.5 -90.501 -46.5s-67.834 -15 -102.501 -15c-35.333 0 -70 5 -104 15s-64.167 25.5 -90.5 46.5s-47.5 47.667 -63.5 80s-24 71.166 -24 116.499c0 46 8 85.333 24 118s37.167 59.5 63.5 80.5
s56.333 36.333 90 46s68.5 14.5 104.5 14.5zM309 139.001c31.333 0 56.1699 10.333 74.5029 31s27.5 46 27.5 76c0 14 -2.33301 27.5 -7 40.5s-11.334 24.5 -20.001 34.5s-19.334 18 -32.001 24s-27 9 -43 9s-30.333 -3 -43 -9s-23.334 -14 -32.001 -24
s-15.334 -21.5 -20.001 -34.5s-7 -26.5 -7 -40.5c0 -28.667 8.83301 -53.667 26.5 -75s42.834 -32 75.501 -32z" />
    <glyph glyph-name="Ohungarumlaut" unicode="&#x150;" horiz-adv-x="842" 
d="M491 912v-7l-103 -142h-166l99 149h170zM718 912v-7l-103 -142h-166l99 149h170zM810 350c0 -58.667 -9.5 -110.668 -28.5 -156.001s-45.667 -83.666 -80 -114.999s-75.333 -55.166 -123 -71.499s-100.167 -24.5 -157.5 -24.5s-109.833 8.16699 -157.5 24.5
s-88.667 40.166 -123 71.499s-61 69.666 -80 114.999s-28.5 97.333 -28.5 156c0 57.333 9.5 108.666 28.5 153.999s45.667 83.833 80 115.5s75.333 55.834 123 72.501s100.167 25 157.5 25s109.833 -8.16699 157.5 -24.5s88.667 -40.166 123 -71.499s61 -69.833 80 -115.5
s28.5 -97.5 28.5 -155.5zM612 349.999c0 60.667 -17.168 108.831 -51.501 144.498s-80.833 53.5 -139.5 53.5c-28 0 -53.833 -4.83301 -77.5 -14.5s-43.834 -23.334 -60.501 -41.001s-29.667 -38.667 -39 -63s-14 -50.833 -14 -79.5c0 -29.333 4.66699 -56.166 14 -80.499
s22.5 -45.166 39.5 -62.499s37.167 -30.833 60.5 -40.5s49 -14.5 77 -14.5c28.667 0 54.834 4.83301 78.501 14.5s43.834 23.334 60.501 41.001s29.5 38.5 38.5 62.5s13.5 50.667 13.5 80z" />
    <glyph glyph-name="ohungarumlaut" unicode="&#x151;" horiz-adv-x="618" 
d="M378 696v-7l-97 -137h-156l93 144h160zM592 696v-7l-97 -137h-156l93 144h160zM309 505c36.667 0 72.002 -4.99902 106.002 -14.999s64 -25.667 90 -47s46.833 -48.333 62.5 -81s23.5 -71.334 23.5 -116.001c0 -45.333 -8.16699 -84.166 -24.5 -116.499
s-37.833 -59 -64.5 -80s-56.834 -36.5 -90.501 -46.5s-67.834 -15 -102.501 -15c-35.333 0 -70 5 -104 15s-64.167 25.5 -90.5 46.5s-47.5 47.667 -63.5 80s-24 71.166 -24 116.499c0 46 8 85.333 24 118s37.167 59.5 63.5 80.5s56.333 36.333 90 46s68.5 14.5 104.5 14.5z
M309.002 139.001c31.333 0 56.1699 10.333 74.5029 31s27.5 46 27.5 76c0 14 -2.33301 27.5 -7 40.5s-11.334 24.5 -20.001 34.5s-19.334 18 -32.001 24s-27 9 -43 9s-30.333 -3 -43 -9s-23.334 -14 -32.001 -24s-15.334 -21.5 -20.001 -34.5s-7 -26.5 -7 -40.5
c0 -28.667 8.83301 -53.667 26.5 -75s42.834 -32 75.501 -32z" />
    <glyph glyph-name="OE" unicode="&#x152;" horiz-adv-x="1023" 
d="M979 0l-448 0.000976562c-18 -5.33301 -38.333 -9.5 -61 -12.5s-45.667 -4.5 -69 -4.5c-62.667 0 -117 9.16699 -163 27.5s-84.167 44 -114.5 77s-53 72.167 -68 117.5s-22.5 94.666 -22.5 147.999s7.66699 102.333 23 147s38.333 83 69 115s69 57 115 75
s99.667 27 161 27c21.333 0 42.333 -1.5 63 -4.5s41.667 -6.83301 63 -11.5h444v-152h-302v-112h284v-150h-284v-131h310v-156zM222 352.001c0 -29.333 3.99902 -57.501 11.999 -84.501s20 -51 36 -72s35.833 -37.667 59.5 -50s51.5 -18.5 83.5 -18.5
c14.667 0 29.334 1 44.001 3s29.334 6.33301 44.001 13v416c-16.667 6.66699 -32.334 11 -47.001 13s-30 3 -46 3c-28 0 -53.333 -6.16699 -76 -18.5s-42.167 -28.666 -58.5 -48.999s-29 -44 -38 -71s-13.5 -55.167 -13.5 -84.5z" />
    <glyph glyph-name="oe" unicode="&#x153;" horiz-adv-x="948" 
d="M751 313c-0.666992 12.667 -5.33203 23.501 -13.999 32.501s-19.167 15.667 -31.5 20s-25.833 6.66602 -40.5 6.99902s-28.334 -1.66699 -41.001 -6s-23.667 -11 -33 -20s-15 -20.167 -17 -33.5h177zM309.002 139.001c32.667 0 57.167 10.333 73.5 31s24.5 46 24.5 76
s-8.16699 55.5 -24.5 76.5s-40.833 31.5 -73.5 31.5s-57.167 -10.5 -73.5 -31.5s-24.5 -46.5 -24.5 -76.5s8.16699 -55.333 24.5 -76s40.833 -31 73.5 -31zM309.002 505.001c35.333 0 68.6699 -5.5 100.003 -16.5s58.666 -30.5 81.999 -58.5
c19.333 22 44.333 40.167 75 54.5s62 21.5 94 21.5c44 0 84 -7 120 -21s65.833 -34.333 89.5 -61s40 -59.334 49 -98.001s8.16699 -82.334 -2.5 -131.001h-343c3.33301 -11.333 9 -20.833 17 -28.5s17 -14.167 27 -19.5s20.667 -9.16602 32 -11.499s22 -3.5 32 -3.5
c27.333 0 51.333 3.66699 72 11s39 17 55 29l92 -106c-30 -25.333 -65.333 -44.333 -106 -57s-82 -19 -124 -19c-35.333 0 -68.5 5.33301 -99.5 16s-57.833 30 -80.5 58c-26.667 -24.667 -55.5 -43.5 -86.5 -56.5s-66.5 -19.5 -106.5 -19.5c-36 0 -70.333 5.33301 -103 16
s-61.334 26.667 -86.001 48s-44.334 48.166 -59.001 80.499s-22 70.166 -22 113.499c0 46.667 8 86.334 24 119.001s37.167 59.334 63.5 80.001s56.333 35.834 90 45.501s68.5 14.5 104.5 14.5z" />
    <glyph glyph-name="Racute" unicode="&#x154;" horiz-adv-x="737" 
d="M517 915l-109 -152h-161v5l77 155h193v-8zM719 0l-218.002 0.000976562l-163 227h-69v-227h-198v700h342c44.667 0 84 -6.66699 118 -20s62.333 -31.166 85 -53.499s39.834 -48 51.501 -77s17.5 -59.167 17.5 -90.5c0 -21.333 -2.16699 -42 -6.5 -62
s-12 -38.833 -23 -56.5s-26.167 -34.334 -45.5 -50.001s-43.666 -29.834 -72.999 -42.501l182 -236v-12zM268.998 542.001v-167.999h146c26 0 45 8.16699 57 24.5s18 35.166 18 56.499c0 22 -6.33301 42 -19 60s-32 27 -58 27h-144z" />
    <glyph glyph-name="racute" unicode="&#x155;" horiz-adv-x="472" 
d="M399 698l-102 -139h-149v5l71 141h180v-7zM219 494l10.999 -53.998c13.333 23.333 30.666 40.166 51.999 50.499s44 15.5 68 15.5c25.333 0 49.333 -4.5 72 -13.5s42 -22.167 58 -39.5l-74 -133c-15.333 12 -29.166 20 -41.499 24s-26.166 6 -41.499 6
c-23.333 0 -43.333 -7.33301 -60 -22s-25 -38.334 -25 -71.001v-257h-184v494h165z" />
    <glyph glyph-name="Rcommaaccent" unicode="&#x156;" horiz-adv-x="737" 
d="M466 -123c0 -33.333 -19.334 -89.667 -58.001 -169h-96l21 103c-21.333 4 -35.5 12.5 -42.5 25.5s-10.5 26.833 -10.5 41.5c0 13.333 2.66699 25 8 35s12.5 18.5 21.5 25.5s19.333 12.167 31 15.5s23.834 5 36.501 5c11.333 0 22.333 -1.66699 33 -5
s20.167 -8.5 28.5 -15.5s15 -15.5 20 -25.5s7.5 -22 7.5 -36zM718.999 -0.000976562l-218.002 0.000976562l-163 227h-69v-227h-198v700h342c44.667 0 84 -6.66699 118 -20s62.333 -31.166 85 -53.499s39.834 -48 51.501 -77s17.5 -59.167 17.5 -90.5
c0 -21.333 -2.16699 -42 -6.5 -62s-12 -38.833 -23 -56.5s-26.167 -34.334 -45.5 -50.001s-43.666 -29.834 -72.999 -42.501l182 -236v-12zM268.997 542v-167.999h146c26 0 45 8.16699 57 24.5s18 35.166 18 56.499c0 22 -6.33301 42 -19 60s-32 27 -58 27h-144z" />
    <glyph glyph-name="rcommaaccent" unicode="&#x157;" horiz-adv-x="472" 
d="M235 -127c0 -32 -18.666 -86.667 -55.999 -164h-93l20 100c-20.667 4 -34.334 12.333 -41.001 25s-10 26 -10 40c0 13.333 2.5 24.833 7.5 34.5s11.833 17.834 20.5 24.501s18.667 11.667 30 15s23.333 5 36 5c10.667 0 21.167 -1.66699 31.5 -5s19.5 -8.33301 27.5 -15
s14.5 -14.834 19.5 -24.501s7.5 -21.5 7.5 -35.5zM219.001 494l10.999 -53.998c13.333 23.333 30.666 40.166 51.999 50.499s44 15.5 68 15.5c25.333 0 49.333 -4.5 72 -13.5s42 -22.167 58 -39.5l-74 -133c-15.333 12 -29.166 20 -41.499 24s-26.166 6 -41.499 6
c-23.333 0 -43.333 -7.33301 -60 -22s-25 -38.334 -25 -71.001v-257h-184v494h165z" />
    <glyph glyph-name="Rcaron" unicode="&#x158;" horiz-adv-x="737" 
d="M284 755l-154 151v8h160l51 -46l52 46h159v-8l-153 -151h-115zM719 0l-218.002 0.000976562l-163 227h-69v-227h-198v700h342c44.667 0 84 -6.66699 118 -20s62.333 -31.166 85 -53.499s39.834 -48 51.501 -77s17.5 -59.167 17.5 -90.5c0 -21.333 -2.16699 -42 -6.5 -62
s-12 -38.833 -23 -56.5s-26.167 -34.334 -45.5 -50.001s-43.666 -29.834 -72.999 -42.501l182 -236v-12zM268.998 542.001v-167.999h146c26 0 45 8.16699 57 24.5s18 35.166 18 56.499c0 22 -6.33301 42 -19 60s-32 27 -58 27h-144z" />
    <glyph glyph-name="rcaron" unicode="&#x159;" horiz-adv-x="472" 
d="M206 552l-142 143v7h148l47 -42l48 42h148v-7l-142 -143h-107zM219 494l10.999 -53.998c13.333 23.333 30.666 40.166 51.999 50.499s44 15.5 68 15.5c25.333 0 49.333 -4.5 72 -13.5s42 -22.167 58 -39.5l-74 -133c-15.333 12 -29.166 20 -41.499 24
s-26.166 6 -41.499 6c-23.333 0 -43.333 -7.33301 -60 -22s-25 -38.334 -25 -71.001v-257h-184v494h165z" />
    <glyph glyph-name="Sacute" unicode="&#x15a;" horiz-adv-x="666" 
d="M504 921l-108 -157h-160v6l76 159h192v-8zM502 506c-24 18 -49.6699 30.501 -77.0029 37.501s-56.333 10.5 -87 10.5c-12 0 -23.667 -1 -35 -3s-21.5 -5 -30.5 -9s-16.167 -9.33301 -21.5 -16s-8 -14.667 -8 -24c0 -12 2.83301 -21.667 8.5 -29
s13.5 -13.166 23.5 -17.499s22.167 -7.5 36.5 -9.5s30.166 -4 47.499 -6c34.667 -4 69 -10.667 103 -20s64.333 -23 91 -41s48.334 -41 65.001 -69s25 -62 25 -102s-8.66699 -74.333 -26 -103s-40.166 -52.167 -68.499 -70.5s-61 -32 -98 -41s-75.167 -13.5 -114.5 -13.5
c-31.333 0 -60.833 1.5 -88.5 4.5s-54 9 -79 18s-49.5 21.667 -73.5 38s-48 37.166 -72 62.499l109 125c17.333 -16.667 35 -30.167 53 -40.5s35.833 -18.333 53.5 -24s34.834 -9.5 51.501 -11.5s32.334 -3 47.001 -3c32.667 0 59.167 5.5 79.5 16.5s30.5 26.167 30.5 45.5
c0 35.333 -39 56.666 -117 63.999c-38 3.33301 -74.333 9 -109 17s-65 20.167 -91 36.5s-46.667 38.5 -62 66.5s-23 63.667 -23 107c0 36.667 8.33301 68.5 25 95.5s38.667 49 66 66s58.5 29.667 93.5 38s71.167 12.5 108.5 12.5c52.667 0 100 -6.33301 142 -19
s82 -34 120 -64z" />
    <glyph glyph-name="sacute" unicode="&#x15b;" horiz-adv-x="511" 
d="M428 702l-100 -146h-148v5l70 148h178v-7zM79 186c18.667 -12 36.5 -21.6689 53.5 -29.002s32.833 -12.833 47.5 -16.5s28.167 -6 40.5 -7s23.5 -1.83301 33.5 -2.5c33.333 0 50 8 50 24c0 15.333 -17.333 24.333 -52 27c-24 0.666992 -48.5 3.83398 -73.5 9.50098
s-47.833 14.834 -68.5 27.501s-37.5 29.167 -50.5 49.5s-19.5 45.5 -19.5 75.5s6.5 55.167 19.5 75.5s30 37 51 50s45.167 22.333 72.5 28s55.666 8.5 84.999 8.5c40 0 77.667 -5.5 113 -16.5s65 -25.5 89 -43.5l-78 -110c-6.66699 4 -15 8 -25 12s-20.667 7.33301 -32 10
s-22.833 4.66699 -34.5 6s-22.5 2 -32.5 2c-13.333 0 -24 -1.66699 -32 -5s-12 -9.66602 -12 -18.999c0 -4.66699 2.33301 -9.66699 7 -15s14.667 -8.33301 30 -9c26 -0.666992 52.333 -3.5 79 -8.5s51 -13.5 73 -25.5s40 -28.333 54 -49s21 -47.334 21 -80.001
c0 -30.667 -6.33301 -56.667 -19 -78s-29.667 -38.666 -51 -51.999s-45.833 -23 -73.5 -29s-56.5 -9 -86.5 -9c-21.333 0 -43.166 1.5 -65.499 4.5s-44 7.16699 -65 12.5s-40.833 12.166 -59.5 20.499s-35 17.5 -49 27.5z" />
    <glyph glyph-name="Scircumflex" unicode="&#x15c;" horiz-adv-x="666" 
d="M404 921l152 -157v-8h-158l-51 47l-51 -47h-158v8l152 157h114zM502 506c-24 18 -49.6699 30.501 -77.0029 37.501s-56.333 10.5 -87 10.5c-12 0 -23.667 -1 -35 -3s-21.5 -5 -30.5 -9s-16.167 -9.33301 -21.5 -16s-8 -14.667 -8 -24c0 -12 2.83301 -21.667 8.5 -29
s13.5 -13.166 23.5 -17.499s22.167 -7.5 36.5 -9.5s30.166 -4 47.499 -6c34.667 -4 69 -10.667 103 -20s64.333 -23 91 -41s48.334 -41 65.001 -69s25 -62 25 -102s-8.66699 -74.333 -26 -103s-40.166 -52.167 -68.499 -70.5s-61 -32 -98 -41s-75.167 -13.5 -114.5 -13.5
c-31.333 0 -60.833 1.5 -88.5 4.5s-54 9 -79 18s-49.5 21.667 -73.5 38s-48 37.166 -72 62.499l109 125c17.333 -16.667 35 -30.167 53 -40.5s35.833 -18.333 53.5 -24s34.834 -9.5 51.501 -11.5s32.334 -3 47.001 -3c32.667 0 59.167 5.5 79.5 16.5s30.5 26.167 30.5 45.5
c0 35.333 -39 56.666 -117 63.999c-38 3.33301 -74.333 9 -109 17s-65 20.167 -91 36.5s-46.667 38.5 -62 66.5s-23 63.667 -23 107c0 36.667 8.33301 68.5 25 95.5s38.667 49 66 66s58.5 29.667 93.5 38s71.167 12.5 108.5 12.5c52.667 0 100 -6.33301 142 -19
s82 -34 120 -64z" />
    <glyph glyph-name="scircumflex" unicode="&#x15d;" horiz-adv-x="511" 
d="M327 708l145 -153v-8h-151l-49 46l-48 -46h-151v8l145 153h109zM79 186c18.667 -12 36.5 -21.6689 53.5 -29.002s32.833 -12.833 47.5 -16.5s28.167 -6 40.5 -7s23.5 -1.83301 33.5 -2.5c33.333 0 50 8 50 24c0 15.333 -17.333 24.333 -52 27
c-24 0.666992 -48.5 3.83398 -73.5 9.50098s-47.833 14.834 -68.5 27.501s-37.5 29.167 -50.5 49.5s-19.5 45.5 -19.5 75.5s6.5 55.167 19.5 75.5s30 37 51 50s45.167 22.333 72.5 28s55.666 8.5 84.999 8.5c40 0 77.667 -5.5 113 -16.5s65 -25.5 89 -43.5l-78 -110
c-6.66699 4 -15 8 -25 12s-20.667 7.33301 -32 10s-22.833 4.66699 -34.5 6s-22.5 2 -32.5 2c-13.333 0 -24 -1.66699 -32 -5s-12 -9.66602 -12 -18.999c0 -4.66699 2.33301 -9.66699 7 -15s14.667 -8.33301 30 -9c26 -0.666992 52.333 -3.5 79 -8.5s51 -13.5 73 -25.5
s40 -28.333 54 -49s21 -47.334 21 -80.001c0 -30.667 -6.33301 -56.667 -19 -78s-29.667 -38.666 -51 -51.999s-45.833 -23 -73.5 -29s-56.5 -9 -86.5 -9c-21.333 0 -43.166 1.5 -65.499 4.5s-44 7.16699 -65 12.5s-40.833 12.166 -59.5 20.499s-35 17.5 -49 27.5z" />
    <glyph glyph-name="Scedilla" unicode="&#x15e;" horiz-adv-x="668" 
d="M391 -13l-12.002 -32.001c22.667 -2 42 -7.16699 58 -15.5s28.333 -18.833 37 -31.5s13.834 -26.667 15.501 -42s-0.166016 -31.333 -5.49902 -48c-10 -30.667 -28.5 -54 -55.5 -70s-56.833 -25.167 -89.5 -27.5s-64.667 1.83398 -96 12.501s-56.333 27 -75 49l67 68
c8 -6.66699 17.833 -12.5 29.5 -17.5s23.167 -8 34.5 -9s21.666 0.5 30.999 4.5s15.666 11 18.999 21c2 8 0.166992 15.333 -5.5 22s-13.167 11.5 -22.5 14.5s-19.666 4.33301 -30.999 4s-21.666 -3.5 -30.999 -9.5l-29 20l34 87h127zM501.998 505.999
c-24 18 -49.6699 30.501 -77.0029 37.501s-56.333 10.5 -87 10.5c-12 0 -23.667 -1 -35 -3s-21.5 -5 -30.5 -9s-16.167 -9.33301 -21.5 -16s-8 -14.667 -8 -24c0 -12 2.83301 -21.667 8.5 -29s13.5 -13.166 23.5 -17.499s22.167 -7.5 36.5 -9.5s30.166 -4 47.499 -6
c34.667 -4 69 -10.667 103 -20s64.333 -23 91 -41s48.334 -41 65.001 -69s25 -62 25 -102s-8.66699 -74.333 -26 -103s-40.166 -52.167 -68.499 -70.5s-61 -32 -98 -41s-75.167 -13.5 -114.5 -13.5c-31.333 0 -60.833 1.5 -88.5 4.5s-54 9 -79 18s-49.5 21.667 -73.5 38
s-48 37.166 -72 62.499l109 125c17.333 -16.667 35 -30.167 53 -40.5s35.833 -18.333 53.5 -24s34.834 -9.5 51.501 -11.5s32.334 -3 47.001 -3c32.667 0 59.167 5.5 79.5 16.5s30.5 26.167 30.5 45.5c0 35.333 -39 56.666 -117 63.999c-38 3.33301 -74.333 9 -109 17
s-65 20.167 -91 36.5s-46.667 38.5 -62 66.5s-23 63.667 -23 107c0 36.667 8.33301 68.5 25 95.5s38.667 49 66 66s58.5 29.667 93.5 38s71.167 12.5 108.5 12.5c52.667 0 100 -6.33301 142 -19s82 -34 120 -64z" />
    <glyph glyph-name="scedilla" unicode="&#x15f;" horiz-adv-x="513" 
d="M313 -8l-14 -36.999c21.333 -2 39.333 -6.83301 54 -14.5s26 -17.334 34 -29.001s12.833 -24.834 14.5 -39.501s-0.166016 -29.667 -5.49902 -45c-6.66699 -18.667 -16.834 -34.167 -30.501 -46.5s-29.334 -22 -47.001 -29s-36.5 -11 -56.5 -12s-39.667 0.5 -59 4.5
s-37.333 10.5 -54 19.5s-30.334 20.5 -41.001 34.5l60 62c6.66699 -6 15.334 -11.167 26.001 -15.5s21.5 -7 32.5 -8s20.833 0 29.5 3s14.334 8.83301 17.001 17.5c2 7.33301 0.5 14 -4.5 20s-11.833 10.5 -20.5 13.5s-18.167 4.33301 -28.5 4
s-19.833 -3.16602 -28.5 -8.49902l-28 19l36 87h114zM79 186.001c18.667 -12 36.5 -21.6689 53.5 -29.002s32.833 -12.833 47.5 -16.5s28.167 -6 40.5 -7s23.5 -1.83301 33.5 -2.5c33.333 0 50 8 50 24c0 15.333 -17.333 24.333 -52 27
c-24 0.666992 -48.5 3.83398 -73.5 9.50098s-47.833 14.834 -68.5 27.501s-37.5 29.167 -50.5 49.5s-19.5 45.5 -19.5 75.5s6.5 55.167 19.5 75.5s30 37 51 50s45.167 22.333 72.5 28s55.666 8.5 84.999 8.5c40 0 77.667 -5.5 113 -16.5s65 -25.5 89 -43.5l-78 -110
c-6.66699 4 -15 8 -25 12s-20.667 7.33301 -32 10s-22.833 4.66699 -34.5 6s-22.5 2 -32.5 2c-13.333 0 -24 -1.66699 -32 -5s-12 -9.66602 -12 -18.999c0 -4.66699 2.33301 -9.66699 7 -15s14.667 -8.33301 30 -9c26 -0.666992 52.333 -3.5 79 -8.5s51 -13.5 73 -25.5
s40 -28.333 54 -49s21 -47.334 21 -80.001c0 -30.667 -6.33301 -56.667 -19 -78s-29.667 -38.666 -51 -51.999s-45.833 -23 -73.5 -29s-56.5 -9 -86.5 -9c-21.333 0 -43.166 1.5 -65.499 4.5s-44 7.16699 -65 12.5s-40.833 12.166 -59.5 20.499s-35 17.5 -49 27.5z" />
    <glyph glyph-name="Scaron" unicode="&#x160;" horiz-adv-x="666" 
d="M287 762l-154 150v7h160l51 -44l52 44h160v-7l-154 -150h-115zM502 506c-24 18 -49.6699 30.501 -77.0029 37.501s-56.333 10.5 -87 10.5c-12 0 -23.667 -1 -35 -3s-21.5 -5 -30.5 -9s-16.167 -9.33301 -21.5 -16s-8 -14.667 -8 -24c0 -12 2.83301 -21.667 8.5 -29
s13.5 -13.166 23.5 -17.499s22.167 -7.5 36.5 -9.5s30.166 -4 47.499 -6c34.667 -4 69 -10.667 103 -20s64.333 -23 91 -41s48.334 -41 65.001 -69s25 -62 25 -102s-8.66699 -74.333 -26 -103s-40.166 -52.167 -68.499 -70.5s-61 -32 -98 -41s-75.167 -13.5 -114.5 -13.5
c-31.333 0 -60.833 1.5 -88.5 4.5s-54 9 -79 18s-49.5 21.667 -73.5 38s-48 37.166 -72 62.499l109 125c17.333 -16.667 35 -30.167 53 -40.5s35.833 -18.333 53.5 -24s34.834 -9.5 51.501 -11.5s32.334 -3 47.001 -3c32.667 0 59.167 5.5 79.5 16.5s30.5 26.167 30.5 45.5
c0 35.333 -39 56.666 -117 63.999c-38 3.33301 -74.333 9 -109 17s-65 20.167 -91 36.5s-46.667 38.5 -62 66.5s-23 63.667 -23 107c0 36.667 8.33301 68.5 25 95.5s38.667 49 66 66s58.5 29.667 93.5 38s71.167 12.5 108.5 12.5c52.667 0 100 -6.33301 142 -19
s82 -34 120 -64z" />
    <glyph glyph-name="scaron" unicode="&#x161;" horiz-adv-x="511" 
d="M221 552l-139 143v7h144l46 -42l47 42h143v-7l-138 -143h-103zM79 186c18.667 -12 36.5 -21.6689 53.5 -29.002s32.833 -12.833 47.5 -16.5s28.167 -6 40.5 -7s23.5 -1.83301 33.5 -2.5c33.333 0 50 8 50 24c0 15.333 -17.333 24.333 -52 27
c-24 0.666992 -48.5 3.83398 -73.5 9.50098s-47.833 14.834 -68.5 27.501s-37.5 29.167 -50.5 49.5s-19.5 45.5 -19.5 75.5s6.5 55.167 19.5 75.5s30 37 51 50s45.167 22.333 72.5 28s55.666 8.5 84.999 8.5c40 0 77.667 -5.5 113 -16.5s65 -25.5 89 -43.5l-78 -110
c-6.66699 4 -15 8 -25 12s-20.667 7.33301 -32 10s-22.833 4.66699 -34.5 6s-22.5 2 -32.5 2c-13.333 0 -24 -1.66699 -32 -5s-12 -9.66602 -12 -18.999c0 -4.66699 2.33301 -9.66699 7 -15s14.667 -8.33301 30 -9c26 -0.666992 52.333 -3.5 79 -8.5s51 -13.5 73 -25.5
s40 -28.333 54 -49s21 -47.334 21 -80.001c0 -30.667 -6.33301 -56.667 -19 -78s-29.667 -38.666 -51 -51.999s-45.833 -23 -73.5 -29s-56.5 -9 -86.5 -9c-21.333 0 -43.166 1.5 -65.499 4.5s-44 7.16699 -65 12.5s-40.833 12.166 -59.5 20.499s-35 17.5 -49 27.5z" />
    <glyph glyph-name="Tcommaaccent" unicode="&#x162;" horiz-adv-x="636" 
d="M360 3l-8.99512 -39c22 -2 40.667 -7.5 56 -16.5s27.166 -20 35.499 -33s13.166 -27.667 14.499 -44s-0.666992 -32.833 -6 -49.5c-6.66699 -20.667 -17.5 -38 -32.5 -52s-32.167 -24.833 -51.5 -32.5s-40 -12.334 -62 -14.001s-43.333 -0.166992 -64 4.5
s-39.834 12.167 -57.501 22.5s-31.834 23.5 -42.501 39.5l63 66c7.33301 -7.33301 17.166 -13.5 29.499 -18.5s24.666 -8 36.999 -9s23.5 0.333008 33.5 4s16.333 10.834 19 21.501c2.66699 10 0.833984 18.5 -5.49902 25.5s-14.833 12 -25.5 15s-22 4 -34 3
s-22.333 -4.5 -31 -10.5l-28 21l21 96h140zM219.005 537h-204v163h606v-163h-205v-537h-197v537z" />
    <glyph glyph-name="tcommaaccent" unicode="&#x163;" horiz-adv-x="434" 
d="M306 8l-21.999 -52.001c44 -4.66699 74.5 -19.667 91.5 -45s19.833 -53.666 8.5 -84.999c-11.333 -30 -30 -52.5 -56 -67.5s-54 -23.167 -84 -24.5s-59.833 3.5 -89.5 14.5s-53.5 27.167 -71.5 48.5l64 60c7.33301 -6.66699 16.5 -12.334 27.5 -17.001s22 -7.5 33 -8.5
s21 0.333008 30 4s14.833 10.167 17.5 19.5c2 8 0.333008 15 -5 21s-12.5 10.5 -21.5 13.5s-18.833 4.33301 -29.5 4s-20.334 -3.16602 -29.001 -8.49902l-28 19l44 104h120zM281.001 633.999v-143.001h111v-141h-112v-162c0.666992 -17.333 5.5 -29.666 14.5 -36.999
s20.5 -11 34.5 -11c9.33301 0 18.833 1.5 28.5 4.5s18.167 7.16699 25.5 12.5l40 -136c-21.333 -12 -44 -20.5 -68 -25.5s-48.667 -7.5 -74 -7.5c-24.667 0 -48.167 3.16699 -70.5 9.5s-42 17.166 -59 32.499s-30.333 35.833 -40 61.5s-14.167 57.834 -13.5 96.501v162h-79
v141h79v123z" />
    <glyph glyph-name="Tcaron" unicode="&#x164;" horiz-adv-x="636" 
d="M264 751l-152 157v8h158l51 -47l51 47h158v-8l-152 -157h-114zM219 537h-204v163h606v-163h-205v-537h-197v537z" />
    <glyph glyph-name="tcaron" unicode="&#x165;" horiz-adv-x="528" 
d="M281 634v-143.001h86v-141h-87v-162c0.666992 -17.333 5.5 -29.666 14.5 -36.999s20.5 -11 34.5 -11c9.33301 0 18.833 1.5 28.5 4.5s18.167 7.16699 25.5 12.5l40 -136c-21.333 -12 -44 -20.5 -68 -25.5s-48.667 -7.5 -74 -7.5c-24.667 0 -48.167 3.16699 -70.5 9.5
s-42 17.166 -59 32.499s-30.333 35.833 -40 61.5s-14.167 57.834 -13.5 96.501v162h-79v141h79v123zM438 647.999h158l-80 -231h-123z" />
    <glyph glyph-name="Tbar" unicode="&#x166;" horiz-adv-x="645" 
d="M540 272h-432v141h432v-141zM223 537h-204v163h606v-163h-205v-537h-197v537z" />
    <glyph glyph-name="tbar" unicode="&#x167;" horiz-adv-x="431" 
d="M361 201h-324v102h324v-102zM281 634v-143.001h111v-141h-112v-162c0.666992 -17.333 5.5 -29.666 14.5 -36.999s20.5 -11 34.5 -11c9.33301 0 18.833 1.5 28.5 4.5s18.167 7.16699 25.5 12.5l40 -136c-21.333 -12 -44 -20.5 -68 -25.5s-48.667 -7.5 -74 -7.5
c-24.667 0 -48.167 3.16699 -70.5 9.5s-42 17.166 -59 32.499s-30.333 35.833 -40 61.5s-14.167 57.834 -13.5 96.501v162h-79v141h79v123z" />
    <glyph glyph-name="Utilde" unicode="&#x168;" horiz-adv-x="780" 
d="M378 775c-21.333 12.667 -41.165 19.001 -59.498 19.001s-32.5 -11.333 -42.5 -34l-97 69c8 24 19.833 43.833 35.5 59.5s33.167 26.667 52.5 33s39.333 8.5 60 6.5s40.334 -8.66699 59.001 -20c21.333 -13.333 40.666 -19.666 57.999 -18.999s32.333 13 45 37l94 -68
c-8.66699 -24 -19.834 -44.333 -33.501 -61s-29.334 -28.834 -47.001 -36.501s-37.167 -10.334 -58.5 -8.00098s-43.333 9.83301 -66 22.5zM720.001 699.001l0.00195312 -391.002c0 -52 -7.5 -98 -22.5 -138s-36.833 -73.667 -65.5 -101s-63.334 -48.166 -104.001 -62.499
s-86.667 -21.5 -138 -21.5s-97.333 6.83301 -138 20.5s-75.334 34.167 -104.001 61.5s-50.5 61.333 -65.5 102s-22.5 87.667 -22.5 141v389h197v-389c0 -55.333 12.167 -95.166 36.5 -119.499s56.5 -36.5 96.5 -36.5s72.167 12.333 96.5 37s36.5 63.667 36.5 117v391h197z
" />
    <glyph glyph-name="utilde" unicode="&#x169;" 
d="M309 573c-20.667 13.333 -40.001 20.001 -58.001 20.001s-32 -12 -42 -36l-96 71c8.66699 24.667 20.5 45.167 35.5 61.5s32 27.833 51 34.5s38.833 8.83398 59.5 6.50098s40.334 -9.5 59.001 -21.5c20.667 -12.667 39.5 -18.834 56.5 -18.501s31.833 12.833 44.5 37.5
l92 -69c-8 -25.333 -18.833 -46.666 -32.5 -63.999s-29.167 -29.833 -46.5 -37.5s-36.5 -10.334 -57.5 -8.00098s-42.833 10.166 -65.5 23.499zM231.999 494.001v-273c0 -15.333 2 -28.166 6 -38.499s9.16699 -18.833 15.5 -25.5s13.666 -11.334 21.999 -14.001
s16.833 -4 25.5 -4c22 0 41.667 7.16699 59 21.5s26 37.833 26 70.5v263h182v-494h-163l-8 54c-21.333 -24.667 -46.166 -42 -74.499 -52s-55.5 -14.667 -81.5 -14c-26 0 -50.667 3.83301 -74 11.5s-43.833 20.5 -61.5 38.5s-31.667 41.833 -42 71.5s-15.5 66.5 -15.5 110.5
v274h184z" />
    <glyph glyph-name="Umacron" unicode="&#x16a;" horiz-adv-x="780" 
d="M225 906h333v-147h-333v147zM720 699l0.00195312 -391.002c0 -52 -7.5 -98 -22.5 -138s-36.833 -73.667 -65.5 -101s-63.334 -48.166 -104.001 -62.499s-86.667 -21.5 -138 -21.5s-97.333 6.83301 -138 20.5s-75.334 34.167 -104.001 61.5s-50.5 61.333 -65.5 102
s-22.5 87.667 -22.5 141v389h197v-389c0 -55.333 12.167 -95.166 36.5 -119.499s56.5 -36.5 96.5 -36.5s72.167 12.333 96.5 37s36.5 63.667 36.5 117v391h197z" />
    <glyph glyph-name="umacron" unicode="&#x16b;" 
d="M154 709h311v-139h-311v139zM232 494v-273c0 -15.333 2 -28.166 6 -38.499s9.16699 -18.833 15.5 -25.5s13.666 -11.334 21.999 -14.001s16.833 -4 25.5 -4c22 0 41.667 7.16699 59 21.5s26 37.833 26 70.5v263h182v-494h-163l-8 54
c-21.333 -24.667 -46.166 -42 -74.499 -52s-55.5 -14.667 -81.5 -14c-26 0 -50.667 3.83301 -74 11.5s-43.833 20.5 -61.5 38.5s-31.667 41.833 -42 71.5s-15.5 66.5 -15.5 110.5v274h184z" />
    <glyph glyph-name="Ubreve" unicode="&#x16c;" horiz-adv-x="780" 
d="M349 918c0 -9.33301 1.83203 -16.833 5.49902 -22.5s8 -9.83398 13 -12.501s10 -4.5 15 -5.5s9.16699 -1.5 12.5 -1.5c2.66699 0 6.5 0.5 11.5 1.5s10 2.83301 15 5.5s9.33301 6.83398 13 12.501s5.5 13.167 5.5 22.5h145c1.33301 -52 -15.667 -92.5 -51 -121.5
s-81.666 -43.5 -138.999 -43.5c-58 0 -104.667 14.5 -140 43.5s-52.333 69.5 -51 121.5h145zM719.999 699l0.00195312 -391.002c0 -52 -7.5 -98 -22.5 -138s-36.833 -73.667 -65.5 -101s-63.334 -48.166 -104.001 -62.499s-86.667 -21.5 -138 -21.5
s-97.333 6.83301 -138 20.5s-75.334 34.167 -104.001 61.5s-50.5 61.333 -65.5 102s-22.5 87.667 -22.5 141v389h197v-389c0 -55.333 12.167 -95.166 36.5 -119.499s56.5 -36.5 96.5 -36.5s72.167 12.333 96.5 37s36.5 63.667 36.5 117v391h197z" />
    <glyph glyph-name="ubreve" unicode="&#x16d;" 
d="M272 708c0 -9.33301 1.66602 -16.666 4.99902 -21.999s7.5 -9.5 12.5 -12.5s9.83301 -5 14.5 -6s8.66699 -1.5 12 -1.5c2.66699 0 6.33398 0.5 11.001 1.5s9.5 3 14.5 6s9.16699 7.16699 12.5 12.5s5 12.666 5 21.999h140c1.33301 -50.667 -15 -90 -49 -118
s-78.667 -42 -134 -42c-56 0 -101 14 -135 42s-50.333 67.333 -49 118h140zM231.999 494v-273c0 -15.333 2 -28.166 6 -38.499s9.16699 -18.833 15.5 -25.5s13.666 -11.334 21.999 -14.001s16.833 -4 25.5 -4c22 0 41.667 7.16699 59 21.5s26 37.833 26 70.5v263h182v-494
h-163l-8 54c-21.333 -24.667 -46.166 -42 -74.499 -52s-55.5 -14.667 -81.5 -14c-26 0 -50.667 3.83301 -74 11.5s-43.833 20.5 -61.5 38.5s-31.667 41.833 -42 71.5s-15.5 66.5 -15.5 110.5v274h184z" />
    <glyph glyph-name="Uring" unicode="&#x16e;" horiz-adv-x="780" 
d="M396 991c32.667 0 60 -6.16699 82 -18.5s38.5 -27.833 49.5 -46.5s16.5 -38.834 16.5 -60.501s-5.33301 -41.834 -16 -60.501s-27 -34.167 -49 -46.5s-49.667 -18.5 -83 -18.5c-32 0 -58.667 6.16699 -80 18.5s-37.333 27.833 -48 46.5s-16 38.834 -16 60.501
s5.33301 41.834 16 60.501s26.667 34.167 48 46.5s48 18.5 80 18.5zM398 901c-14 0 -24.333 -3.66699 -31 -11s-10 -15.5 -10 -24.5s3.33301 -17 10 -24s17 -10.5 31 -10.5c13.333 0 23.333 3.5 30 10.5s10 15 10 24s-3.33301 17.167 -10 24.5s-16.667 11 -30 11zM720 699
l0.00195312 -391.002c0 -52 -7.5 -98 -22.5 -138s-36.833 -73.667 -65.5 -101s-63.334 -48.166 -104.001 -62.499s-86.667 -21.5 -138 -21.5s-97.333 6.83301 -138 20.5s-75.334 34.167 -104.001 61.5s-50.5 61.333 -65.5 102s-22.5 87.667 -22.5 141v389h197v-389
c0 -55.333 12.167 -95.166 36.5 -119.499s56.5 -36.5 96.5 -36.5s72.167 12.333 96.5 37s36.5 63.667 36.5 117v391h197z" />
    <glyph glyph-name="uring" unicode="&#x16f;" 
d="M314 763c30.667 0 56.5 -5.66699 77.5 -17s36.667 -25.333 47 -42s15.5 -35 15.5 -55s-5.16699 -38.333 -15.5 -55s-25.833 -30.667 -46.5 -42s-46.667 -17 -78 -17c-30 0 -55.333 5.66699 -76 17s-36 25.333 -46 42s-15 35 -15 55s5 38.333 15 55s25.333 30.667 46 42
s46 17 76 17zM316 681c-13.333 0 -23.166 -3.16699 -29.499 -9.5s-9.5 -13.666 -9.5 -21.999s3.16699 -15.666 9.5 -21.999s16.166 -9.5 29.499 -9.5c12.667 0 22 3.16699 28 9.5s9 13.666 9 21.999s-3 15.666 -9 21.999s-15.333 9.5 -28 9.5zM232 494v-273
c0 -15.333 2 -28.166 6 -38.499s9.16699 -18.833 15.5 -25.5s13.666 -11.334 21.999 -14.001s16.833 -4 25.5 -4c22 0 41.667 7.16699 59 21.5s26 37.833 26 70.5v263h182v-494h-163l-8 54c-21.333 -24.667 -46.166 -42 -74.499 -52s-55.5 -14.667 -81.5 -14
c-26 0 -50.667 3.83301 -74 11.5s-43.833 20.5 -61.5 38.5s-31.667 41.833 -42 71.5s-15.5 66.5 -15.5 110.5v274h184z" />
    <glyph glyph-name="Uhungarumlaut" unicode="&#x170;" horiz-adv-x="780" 
d="M452 909v-8l-101 -152h-162l97 160h166zM674 909v-8l-101 -152h-162l97 160h166zM720 699l0.00195312 -391.002c0 -52 -7.5 -98 -22.5 -138s-36.833 -73.667 -65.5 -101s-63.334 -48.166 -104.001 -62.499s-86.667 -21.5 -138 -21.5s-97.333 6.83301 -138 20.5
s-75.334 34.167 -104.001 61.5s-50.5 61.333 -65.5 102s-22.5 87.667 -22.5 141v389h197v-389c0 -55.333 12.167 -95.166 36.5 -119.499s56.5 -36.5 96.5 -36.5s72.167 12.333 96.5 37s36.5 63.667 36.5 117v391h197z" />
    <glyph glyph-name="uhungarumlaut" unicode="&#x171;" 
d="M370 700v-7l-97 -137h-156l93 144h160zM584 700v-7l-97 -137h-156l93 144h160zM232 494v-273c0 -15.333 2 -28.166 6 -38.499s9.16699 -18.833 15.5 -25.5s13.666 -11.334 21.999 -14.001s16.833 -4 25.5 -4c22 0 41.667 7.16699 59 21.5s26 37.833 26 70.5v263h182v-494
h-163l-8 54c-21.333 -24.667 -46.166 -42 -74.499 -52s-55.5 -14.667 -81.5 -14c-26 0 -50.667 3.83301 -74 11.5s-43.833 20.5 -61.5 38.5s-31.667 41.833 -42 71.5s-15.5 66.5 -15.5 110.5v274h184z" />
    <glyph glyph-name="Uogonek" unicode="&#x172;" horiz-adv-x="784" 
d="M545 15l-29.999 -13.999c-10.667 -3.33301 -18.834 -8.66602 -24.501 -15.999s-7.16699 -16 -4.5 -26c4.66699 -16 16.667 -24.667 36 -26s39 3.66699 59 15l74 -97c-23.333 -16.667 -50.166 -29.834 -80.499 -39.501s-60.333 -14.667 -90 -15s-57 4.66699 -82 15
s-43.833 27.5 -56.5 51.5c-11.333 21.333 -14.833 43.666 -10.5 66.999s15.166 42 32.499 56zM721.001 699.001l0.00195312 -391.002c0 -52 -7.5 -98 -22.5 -138s-36.833 -73.667 -65.5 -101s-63.334 -48.166 -104.001 -62.499s-86.667 -21.5 -138 -21.5
s-97.333 6.83301 -138 20.5s-75.334 34.167 -104.001 61.5s-50.5 61.333 -65.5 102s-22.5 87.667 -22.5 141v389h197v-389c0 -55.333 12.167 -95.166 36.5 -119.499s56.5 -36.5 96.5 -36.5s72.167 12.333 96.5 37s36.5 63.667 36.5 117v391h197z" />
    <glyph glyph-name="uogonek" unicode="&#x173;" 
d="M568 7v-42.999c-15.333 4 -29 5.33301 -41 4s-22 -4.33301 -30 -9s-13.833 -10.5 -17.5 -17.5s-4.83398 -13.833 -3.50098 -20.5c2 -9.33301 9.66699 -15.833 23 -19.5s31.333 -0.5 54 9.5l56 -77c-19.333 -14.667 -42.833 -25.334 -70.5 -32.001
s-55 -8.33398 -82 -5.00098s-51.167 12 -72.5 26s-34.666 34 -39.999 60c-5.33301 26.667 -2 50.834 10 72.501s29.333 37.5 52 47.5l-1 4h163zM232 494.001v-273c0 -15.333 2 -28.166 6 -38.499s9.16699 -18.833 15.5 -25.5s13.666 -11.334 21.999 -14.001
s16.833 -4 25.5 -4c22 0 41.667 7.16699 59 21.5s26 37.833 26 70.5v263h182v-494h-163l-8 54c-21.333 -24.667 -46.166 -42 -74.499 -52s-55.5 -14.667 -81.5 -14c-26 0 -50.667 3.83301 -74 11.5s-43.833 20.5 -61.5 38.5s-31.667 41.833 -42 71.5s-15.5 66.5 -15.5 110.5
v274h184z" />
    <glyph glyph-name="Wcircumflex" unicode="&#x174;" horiz-adv-x="1066" 
d="M599 941l165 -170v-8h-172l-55 51l-56 -51h-172v8l166 170h124zM817 1l-161 0.000976562l-124 335l-120 -335h-160l-261 699h216l90 -246c8.66699 -26.667 15.667 -53.834 21 -81.501l16 -80.5l129 408h137l133 -408c10 54 23 109.667 39 167l84 241h216z" />
    <glyph glyph-name="wcircumflex" unicode="&#x175;" horiz-adv-x="836" 
d="M475 719l155 -156v-8h-161l-52 47l-51 -47h-161v8l155 156h115zM474 494l87 -275l37 140l46 135h193l-181 -497h-169l-69 187l-68 -187h-171l-180 497h192l47 -136l38 -139l87 275h111z" />
    <glyph glyph-name="Ycircumflex" unicode="&#x176;" horiz-adv-x="722" 
d="M420 918l158 -155v-7h-164l-53 46l-52 -46h-164v7l157 155h118zM362 460l151 240h223v-9l-278 -412v-279h-198v279l-266 413v8h223z" />
    <glyph glyph-name="ycircumflex" unicode="&#x177;" horiz-adv-x="582" 
d="M353 720l170 -163v-9h-176l-57 49l-57 -49h-175v9l169 163h126zM591 494l-306 -703h-192l100 231l-196 472h195l42 -118l54 -171l60 172l46 117h197z" />
    <glyph glyph-name="Ydieresis" unicode="&#x178;" horiz-adv-x="722" 
d="M125 847c0 14 2.66699 26.333 8 37s12.333 19.667 21 27s18.5 12.833 29.5 16.5s22.5 5.5 34.5 5.5s23.667 -1.83301 35 -5.5s21.5 -9.16699 30.5 -16.5s16.167 -16.333 21.5 -27s8 -23 8 -37c0 -13.333 -2.66699 -25.166 -8 -35.499s-12.5 -19 -21.5 -26
s-19.167 -12.333 -30.5 -16s-23 -5.5 -35 -5.5s-23.5 1.83301 -34.5 5.5s-20.833 9 -29.5 16s-15.667 15.667 -21 26s-8 22.166 -8 35.499zM415 847c0 14 2.66699 26.333 8 37s12.5 19.667 21.5 27s19.167 12.833 30.5 16.5s23 5.5 35 5.5
c11.333 0 22.666 -1.83301 33.999 -5.5s21.5 -9.16699 30.5 -16.5s16.167 -16.333 21.5 -27s8 -23 8 -37c0 -13.333 -2.66699 -25.166 -8 -35.499s-12.5 -19 -21.5 -26s-19.167 -12.333 -30.5 -16s-22.666 -5.5 -33.999 -5.5c-12 0 -23.667 1.83301 -35 5.5
s-21.5 9 -30.5 16s-16.167 15.667 -21.5 26s-8 22.166 -8 35.499zM362 460l151 240h223v-9l-278 -412v-279h-198v279l-266 413v8h223z" />
    <glyph glyph-name="Zacute" unicode="&#x179;" horiz-adv-x="643" 
d="M504 920l-109 -159h-161v6l77 161h193v-8zM42 700h561v-56l-306 -473h314v-171h-586v62l313 478h-296v160z" />
    <glyph glyph-name="zacute" unicode="&#x17a;" horiz-adv-x="495" 
d="M419 693l-102 -138h-149v5l71 140h180v-7zM455 494v-62l-188 -274h197v-158h-441v57l197 291h-178v146h413z" />
    <glyph glyph-name="Zdotaccent" unicode="&#x17b;" horiz-adv-x="643" 
d="M222 850c0 14.667 3.16699 27.667 9.5 39s14.666 20.833 24.999 28.5s21.833 13.5 34.5 17.5s25.667 6 39 6c14 0 27.333 -2 40 -6s24 -9.83301 34 -17.5s18.167 -17.167 24.5 -28.5s9.5 -24.333 9.5 -39c0 -15.333 -3.16699 -28.666 -9.5 -39.999
s-14.5 -20.833 -24.5 -28.5s-21.333 -13.334 -34 -17.001s-26 -5.5 -40 -5.5c-13.333 0 -26.333 1.83301 -39 5.5s-24.167 9.33398 -34.5 17.001s-18.666 17.167 -24.999 28.5s-9.5 24.666 -9.5 39.999zM42 700h561v-56l-306 -473h314v-171h-586v62l313 478h-296v160z" />
    <glyph glyph-name="zdotaccent" unicode="&#x17c;" horiz-adv-x="495" 
d="M158 632c0 13.333 2.5 24.833 7.5 34.5s12 18 21 25s19.167 12 30.5 15s23 4.5 35 4.5c11.333 0 22.666 -1.5 33.999 -4.5s21.333 -8 30 -15s15.834 -15.333 21.501 -25s8.5 -21.167 8.5 -34.5c0 -12.667 -2.83301 -23.834 -8.5 -33.501s-12.834 -18 -21.501 -25
s-18.667 -12.167 -30 -15.5s-22.666 -5 -33.999 -5c-12 0 -23.667 1.66699 -35 5s-21.5 8.5 -30.5 15.5s-16 15.333 -21 25s-7.5 20.834 -7.5 33.501zM455 494v-62l-188 -274h197v-158h-441v57l197 291h-178v146h413z" />
    <glyph glyph-name="Zcaron" unicode="&#x17d;" horiz-adv-x="643" 
d="M280 760l-152 157v8h158l51 -47l51 47h158v-8l-152 -157h-114zM42 700h561v-56l-306 -473h314v-171h-586v62l313 478h-296v160z" />
    <glyph glyph-name="zcaron" unicode="&#x17e;" horiz-adv-x="495" 
d="M205 547l-143 142v7h148l48 -43l48 43h149v-7l-143 -142h-107zM455 494v-62l-188 -274h197v-158h-441v57l197 291h-178v146h413z" />
    <glyph glyph-name="longs" unicode="&#x17f;" horiz-adv-x="360" 
d="M102 0l0.00195312 343h-84v142h84v24c0 36 6.33301 66.833 19 92.5s29.167 46.667 49.5 63s43.166 28.166 68.499 35.499s50.666 11 75.999 11c28.667 0 56 -4.5 82 -13.5s48.333 -22.5 67 -40.5l-56 -111c-10 8.66699 -20.667 14.834 -32 18.501s-23 5.5 -35 5.5
c-14.667 0 -27.5 -4.83301 -38.5 -14.5s-16.5 -25.167 -16.5 -46.5v-509h-184z" />
    <glyph glyph-name="florin" unicode="&#x192;" horiz-adv-x="525" 
d="M336 337l0.00195312 -337.999c0 -37.333 -5.83301 -69.333 -17.5 -96s-27.167 -48.5 -46.5 -65.5s-41.5 -29.5 -66.5 -37.5s-50.5 -11.5 -76.5 -10.5s-51.667 6.33301 -77 16s-48.333 23.167 -69 40.5l56 111c10 -8.66699 19.167 -14.834 27.5 -18.501
s18.5 -5.5 30.5 -5.5c14.667 0 27.5 5 38.5 15s16.5 26.667 16.5 50v339h-109v142h109v30c0 36 6.33301 66.833 19 92.5s29.167 46.667 49.5 63s43.166 28.166 68.499 35.499s50.666 11 75.999 11c28.667 0 56 -4.5 82 -13.5s48.333 -22.5 67 -40.5l-56 -111
c-10 8.66699 -20.667 14.834 -32 18.501s-23 5.5 -35 5.5c-14.667 0 -27.5 -4.83301 -38.5 -14.5s-16.5 -25.167 -16.5 -46.5v-30h128v-142h-128z" />
    <glyph glyph-name="Aringacute" unicode="&#x1fa;" horiz-adv-x="797" 
d="M277 650c-18.667 19.333 -29.832 40.833 -33.499 64.5s-0.166992 45.667 10.5 66s28.167 37.5 52.5 51.5s55.166 21 92.499 21c38 0 69.5 -7.16699 94.5 -21.5s43 -31.833 54 -52.5s14.5 -43 10.5 -67s-16 -45.333 -36 -64zM401.002 774
c-15.333 0 -27 -3.83301 -35 -11.5s-12 -16 -12 -25s4 -17.333 12 -25s19.667 -11.5 35 -11.5c14.667 0 25.834 3.83301 33.501 11.5s11.5 16 11.5 25s-3.83301 17.333 -11.5 25s-18.834 11.5 -33.501 11.5zM600.002 984l-114 -107h-168v4l81 109h201v-6zM554.002 115h-313
l-46 -115h-210l314 700h200l313 -700h-212zM398.002 504l-90 -223h179z" />
    <glyph glyph-name="aringacute" unicode="&#x1fb;" horiz-adv-x="648" 
d="M324 750c30.667 0 56.5 -5.33301 77.5 -16s36.667 -23.834 47 -39.501s15.5 -32.834 15.5 -51.501s-5.16699 -36 -15.5 -52s-25.833 -29.167 -46.5 -39.5s-46.667 -15.5 -78 -15.5c-30 0 -55.333 5.16699 -76 15.5s-36 23.5 -46 39.5s-15 33.333 -15 52
s5 35.834 15 51.501s25.333 28.834 46 39.501s46 16 76 16zM326 673c-13.333 0 -23.166 -3.16699 -29.499 -9.5s-9.5 -13.333 -9.5 -21s3.16699 -14.5 9.5 -20.5s16.166 -9 29.499 -9c12.667 0 22 3 28 9s9 12.833 9 20.5s-3 14.667 -9 21s-15.333 9.5 -28 9.5zM509 885
l-104 -109h-153v4l73 111h184v-6zM421 494l173 0.000976562v-494h-170l-8 53c-21.333 -24 -46.833 -40.667 -76.5 -50s-58.5 -13.333 -86.5 -12c-36 2 -68.167 9.83301 -96.5 23.5s-52 31.667 -71 54s-33.5 48.666 -43.5 78.999s-15 63.5 -15 99.5
c0 36.667 5.66699 70.667 17 102s27.5 58.5 48.5 81.5s46.333 41.167 76 54.5s62.5 20 98.5 20c35.333 0 65 -5.66699 89 -17s42.667 -27 56 -47zM309 356.001c-28 0 -51.499 -9.49902 -70.499 -28.499s-28.5 -45.833 -28.5 -80.5s9.5 -61.334 28.5 -80.001
s42.5 -28 70.5 -28c15.333 0 29.333 2.83301 42 8.5s23.5 13.5 32.5 23.5s15.833 21.5 20.5 34.5s7 26.833 7 41.5c0 33.333 -8.83301 59.833 -26.5 79.5s-42.834 29.5 -75.501 29.5z" />
    <glyph glyph-name="AEacute" unicode="&#x1fc;" horiz-adv-x="925" 
d="M-26 11l415 689h480v-158h-243v-110h226v-153h-226v-122h258v-157h-440v105h-208l-63 -105h-199v11zM444 278l3 116l12 124l-124 -240h109zM749.984 899.576l-112.153 -149.267h-165.657v5.63281l79.2275 151.144h198.583v-7.50977z" />
    <glyph glyph-name="aeacute" unicode="&#x1fd;" horiz-adv-x="946" 
d="M643.247 687.884l-95.2754 -145.666h-140.728v5.49707l67.3047 147.498h168.698v-7.3291zM315 356c-28 0 -51.5 -9.49902 -70.5 -28.499s-28.5 -45.833 -28.5 -80.5s9.5 -61.334 28.5 -80.001s42.5 -28 70.5 -28c31.333 0 56.5 9.5 75.5 28.5s28.5 43.833 28.5 74.5
c0 36 -9.16699 64 -27.5 84s-43.833 30 -76.5 30zM755 313.001c-0.666992 12.667 -5.5 23.501 -14.5 32.501s-19.833 15.667 -32.5 20s-26.5 6.66602 -41.5 6.99902s-29 -1.66699 -42 -6s-24.333 -11 -34 -20s-15.5 -20.167 -17.5 -33.5h182zM572 195.002
c3.33301 -11.333 9.16797 -20.8311 17.501 -28.498s18 -14.167 29 -19.5s22.333 -9.16602 34 -11.499s22.5 -3.5 32.5 -3.5c27.333 0 51.333 3.66699 72 11s39 17 55 29l90 -101c-30 -28 -64.333 -48.667 -103 -62s-79.334 -20 -122.001 -20
c-26.667 0 -52.334 4.33301 -77.001 13s-44.667 23 -60 43l-3 -45h-113l-8 53c-21.333 -24 -46.833 -40.667 -76.5 -50s-58.5 -13.333 -86.5 -12c-36 2 -68.167 9.83301 -96.5 23.5s-52 31.667 -71 54s-33.5 48.666 -43.5 78.999s-15 63.5 -15 99.5
c0 36.667 5.66699 70.667 17 102s27.5 58.5 48.5 81.5s46.333 41.167 76 54.5s62.5 20 98.5 20c35.333 0 65 -5.66699 89 -17s42.667 -27 56 -47l9 53h116l3 -41c21.333 17.333 44.833 30.166 70.5 38.499s51.5 12.166 77.5 11.499c36 0 69.833 -7 101.5 -21
s58.334 -34 80.001 -60s36.5 -58.167 44.5 -96.5s6.66699 -81.833 -4 -130.5h-338z" />
    </font>
</defs>
</svg>
