<?xml version="1.0" standalone="no"?>
<!DOCTYPE svg PUBLIC "-//W3C//DTD SVG 1.1//EN" "http://www.w3.org/Graphics/SVG/1.1/DTD/svg11.dtd" >
<svg>
<metadata>
Created by FontForge 20090622 at Sat Jun 17 09:29:20 2017
 By deploy user
Copyright (c) 2012 by Fontfabric LLC. All rights reserved.
</metadata>
<defs>
<font id="NexaBook" horiz-adv-x="689" >
  <font-face 
    font-family="Nexa Book"
    font-weight="400"
    font-stretch="normal"
    units-per-em="1000"
    panose-1="2 0 0 0 0 0 0 0 0 0"
    ascent="733"
    descent="-267"
    x-height="494"
    cap-height="700"
    bbox="-146 -298 1087 980"
    underline-thickness="50"
    underline-position="-50"
    unicode-range="U+000D-U+FEFF"
  />
<missing-glyph horiz-adv-x="645" 
d="M256 127q0 -17 10.5 -26t23 -9t23 9t10.5 26t-10.5 25.5t-23 8.5t-23 -8.5t-10.5 -25.5zM176 446q0 28 11.5 47t29.5 30.5t40.5 16t44.5 4.5t46.5 -4t44 -14.5t32.5 -30t13 -49.5q0 -23 -6.5 -38.5t-17 -25t-24.5 -15.5t-28 -11q-27 -9 -46 -20.5t-30.5 -28.5
t-16.5 -41.5t-5 -59.5l49 -1q0 28 2 45.5t9 29t20 19t35 14.5q16 6 35 14t35 22.5t26.5 37.5t10.5 59q0 41 -16 68.5t-42 44t-59 23.5t-67 7q-33 0 -64.5 -7.5t-56 -25t-39.5 -44.5t-15 -66h49zM37 700h538v-700h-538v700z" />
    <glyph glyph-name=".notdef" horiz-adv-x="645" 
d="M256 127q0 -17 10.5 -26t23 -9t23 9t10.5 26t-10.5 25.5t-23 8.5t-23 -8.5t-10.5 -25.5zM176 446q0 28 11.5 47t29.5 30.5t40.5 16t44.5 4.5t46.5 -4t44 -14.5t32.5 -30t13 -49.5q0 -23 -6.5 -38.5t-17 -25t-24.5 -15.5t-28 -11q-27 -9 -46 -20.5t-30.5 -28.5
t-16.5 -41.5t-5 -59.5l49 -1q0 28 2 45.5t9 29t20 19t35 14.5q16 6 35 14t35 22.5t26.5 37.5t10.5 59q0 41 -16 68.5t-42 44t-59 23.5t-67 7q-33 0 -64.5 -7.5t-56 -25t-39.5 -44.5t-15 -66h49zM37 700h538v-700h-538v700z" />
    <glyph glyph-name=".null" horiz-adv-x="0" 
 />
    <glyph glyph-name=".null" horiz-adv-x="0" 
 />
    <glyph glyph-name="nonmarkingreturn" unicode="&#xd;" horiz-adv-x="322" 
 />
    <glyph glyph-name="space" unicode=" " horiz-adv-x="261" 
 />
    <glyph glyph-name="exclam" unicode="!" horiz-adv-x="253" 
d="M162 700v-547h-71v547h71zM79 44q0 25 15.5 37t34 12t34 -12t15.5 -37q0 -24 -15.5 -36.5t-34 -12.5t-34 12.5t-15.5 36.5z" />
    <glyph glyph-name="quotedbl" unicode="&#x22;" horiz-adv-x="361" 
d="M137 702v-259h-62v259h62zM286 702v-259h-61v259h61z" />
    <glyph glyph-name="numbersign" unicode="#" horiz-adv-x="678" 
d="M332 700l-40 -164h178l41 164h68l-41 -164h102v-57h-116l-66 -258h107v-59h-120l-40 -162h-68l40 162h-178l-40 -162h-68l40 162h-94v59h107l67 258h-99v57h112l40 164h68zM277 481l-68 -262h183l67 262h-182z" />
    <glyph glyph-name="dollar" unicode="$" horiz-adv-x="655" 
d="M531 551q-14 25 -36 43t-49 29.5t-56.5 17.5t-57.5 6q-31 0 -67 -6t-67 -20.5t-51 -39.5t-19 -63q0 -31 17 -51.5t45.5 -34t65.5 -22t78 -15.5q52 -9 102.5 -21t90.5 -34t64.5 -57.5t24.5 -92.5q0 -50 -23 -86t-59 -59.5t-80.5 -36t-88.5 -14.5v-98h-64v97
q-39 2 -78.5 11t-75 26.5t-64 44t-46.5 63.5l60 31q15 -30 41.5 -51t58.5 -34t67 -19t67 -6q33 0 70 5.5t69 20t53 40t21 66.5q0 36 -18.5 59t-49.5 38t-70.5 24t-80.5 17q-50 8 -97 19t-84.5 31t-60.5 52.5t-24 84.5q-1 49 20.5 84t57 58t79 35t85.5 15v97h65v-97
q33 -3 66 -11t62 -23t53.5 -37.5t41.5 -54.5z" />
    <glyph glyph-name="percent" unicode="%" horiz-adv-x="753" 
d="M635 700l-452 -700h-73l110.5 172l115.5 177l115.5 177.5l111.5 173.5h72zM192 699q39 0 68 -13.5t48.5 -35t29.5 -48.5t10 -55q0 -29 -10 -56t-29.5 -48t-48.5 -33.5t-68 -12.5t-68 12.5t-48.5 33.5t-29 48t-9.5 56q0 28 9.5 55t29 48.5t48.5 35t68 13.5zM561 295
q39 0 68 -13t48.5 -34.5t29.5 -48.5t10 -55q0 -29 -10 -56t-29.5 -48t-48.5 -33.5t-68 -12.5t-68 12.5t-48.5 33.5t-29 48t-9.5 56q0 28 9.5 55t29 48.5t48.5 34.5t68 13zM561 236q-23 0 -40 -7.5t-28 -20.5t-17 -29t-6 -33t6 -33.5t17.5 -29.5t28.5 -21t40 -8t40 7.5
t28.5 20.5t17 29t5.5 33t-6 33.5t-17.5 29.5t-28.5 21t-40 8zM192 636q-23 0 -40 -7.5t-28.5 -20t-17 -28t-5.5 -31.5q0 -17 5.5 -33t17 -28.5t29 -20t40.5 -7.5q22 0 38.5 7.5t28 20t17 28t5.5 31.5t-5.5 32t-17 29t-28.5 20.5t-39 7.5z" />
    <glyph glyph-name="ampersand" unicode="&#x26;" horiz-adv-x="695" 
d="M323 330q-54 0 -90.5 -12.5t-59.5 -32t-33 -44.5t-10 -49q0 -66 49.5 -103t143.5 -37q27 0 59 8t59.5 25t46 42.5t18.5 60.5v142h-183zM567 188q0 -25 4 -48t13.5 -40.5t25.5 -28t40 -10.5v-62q-5 -1 -9 -1h-9q-37 0 -64.5 20.5t-40.5 66.5q-14 -23 -39 -40.5
t-53.5 -29.5t-58 -18t-51.5 -6q-126 0 -195 50t-69 152q0 31 10.5 57t29 47t42.5 36t51 24q-54 17 -87.5 59.5t-33.5 97.5q0 44 18 79.5t50.5 60.5t78.5 38.5t103 13.5q43 0 85 -7t76 -26.5t55 -53.5t21 -89h-62q0 37 -15.5 60.5t-40 36.5t-56.5 17.5t-65 4.5q-48 0 -82 -11
t-55.5 -29.5t-32 -43t-10.5 -50.5q0 -37 18.5 -62t46.5 -40t60.5 -21.5t60.5 -6.5h304v-55h-64v-142z" />
    <glyph glyph-name="quotesingle" unicode="'" horiz-adv-x="211" 
d="M136 703v-259h-61v259h61z" />
    <glyph glyph-name="parenleft" unicode="(" horiz-adv-x="332" 
d="M306 704q-46 -33 -80.5 -77t-58.5 -94t-36 -106t-13 -113q0 -58 11 -114t34.5 -107t59 -96t83.5 -80l-36 -51q-52 34 -91.5 79.5t-67.5 98.5t-43.5 111.5t-18.5 118.5q-4 69 8 138t40 131.5t71.5 116.5t103.5 93z" />
    <glyph glyph-name="parenright" unicode=")" horiz-adv-x="330" 
d="M60 752q56 -36 98 -85.5t69.5 -107.5t41.5 -121.5t14 -128.5q0 -62 -13.5 -124t-41 -120t-69.5 -109t-98 -91l-35 52q94 70 140.5 172.5t46.5 216.5q0 129 -45.5 225t-142.5 172z" />
    <glyph glyph-name="asterisk" unicode="*" horiz-adv-x="365" 
d="M234 472l-53 77l-54 -77l-44 32l59 72l-83 22l16 51l82 -29l-3 85h55l-4 -85l88 28l15 -50l-89 -22l59 -72z" />
    <glyph glyph-name="plus" unicode="+" horiz-adv-x="500" 
d="M217 375v166h66v-166h168v-64h-168v-170h-66v170h-168v64h168z" />
    <glyph glyph-name="comma" unicode="," horiz-adv-x="233" 
d="M164 35q0 -19 -13.5 -49.5t-29.5 -76.5h-50l28 87q-13 4 -21.5 13.5t-8.5 26.5q0 22 15 33.5t32.5 11.5t32.5 -11t15 -35z" />
    <glyph glyph-name="hyphen" unicode="-" horiz-adv-x="497" 
d="M71 319h355v-61h-355v61z" />
    <glyph glyph-name="period" unicode="." horiz-adv-x="231" 
d="M68 38q0 24 15 35.5t32.5 11.5t32.5 -11.5t15 -35.5t-15 -35.5t-32.5 -11.5t-32.5 11.5t-15 35.5z" />
    <glyph glyph-name="slash" unicode="/" horiz-adv-x="484" 
d="M458 761l-364 -843h-69l363 843h70z" />
    <glyph glyph-name="zero" unicode="0" horiz-adv-x="683" 
d="M133 427v-154q0 -55 18 -96t47 -68.5t66.5 -41t76.5 -13.5t76.5 13.5t66.5 41t47 68.5t18 96v154q0 54 -18 95t-47.5 68.5t-67 41t-76.5 13.5t-76 -13.5t-66.5 -41t-47 -68.5t-17.5 -95zM65 274v152q0 71 23.5 124.5t62.5 89t88.5 53.5t101.5 18t101.5 -18t88.5 -53.5
t63 -89t24 -124.5v-152q0 -71 -24 -124.5t-63 -89t-88.5 -53.5t-101.5 -18t-101.5 18t-88.5 53.5t-62.5 89t-23.5 124.5z" />
    <glyph glyph-name="one" unicode="1" horiz-adv-x="406" 
d="M51 57h133v562l-127 -32v58l192 55v-643h132v-57h-330v57z" />
    <glyph glyph-name="two" unicode="2" horiz-adv-x="672" 
d="M68 510q1 57 26 95.5t64 61.5t87.5 32.5t96.5 9.5t96.5 -10.5t87 -35t62.5 -64t24 -97.5q0 -57 -24 -95.5t-62.5 -62.5t-87 -34t-97.5 -10q-34 0 -71.5 -6t-68.5 -21t-51 -41t-20 -67v-100h478v-65h-543v164q0 59 24.5 97t63.5 60.5t88 31.5t99 9q30 0 66.5 6.5t67.5 22
t52 42.5t21 68q0 42 -19 70t-49 45.5t-66.5 25t-70.5 7.5q-33 0 -69.5 -6t-66.5 -21.5t-49.5 -42.5t-19.5 -69h-69z" />
    <glyph glyph-name="three" unicode="3" horiz-adv-x="663" 
d="M335 329h-115v59h110q46 0 82 11t61.5 29t39.5 41t14 48q0 24 -12 48t-36 43t-60.5 31t-85.5 12q-30 0 -64.5 -5t-64.5 -19.5t-49.5 -39.5t-19.5 -64h-68q0 55 24.5 91t63 57t85.5 29.5t92 8.5q59 0 106.5 -14t81 -39t52 -60.5t18.5 -78.5q0 -28 -9.5 -54t-27 -47
t-41.5 -35.5t-53 -20.5q30 -6 56.5 -20.5t46 -35.5t31 -48.5t11.5 -60.5q0 -47 -19 -85t-54.5 -64.5t-85.5 -40.5t-112 -14q-47 0 -96 8.5t-89 30.5t-66 59.5t-26 95.5h67q0 -44 22 -69.5t53.5 -39t68.5 -17.5t67 -4q48 0 85.5 10.5t63.5 29t40 44t14 54.5q0 24 -12 48.5
t-37 44t-63 31.5t-90 12z" />
    <glyph glyph-name="four" unicode="4" horiz-adv-x="646" 
d="M517 700v-483h82v-59h-82v-158h-65v158h-417l-12 54l416 488h78zM452 217v402l-347 -402h347z" />
    <glyph glyph-name="five" unicode="5" horiz-adv-x="659" 
d="M571 636h-426v-205h207q67 0 116 -16.5t80.5 -45t46.5 -68t15 -85.5q0 -47 -18 -87.5t-52.5 -70.5t-85.5 -47t-116 -17q-50 0 -99 9.5t-88 32.5t-63.5 62.5t-24.5 98.5h68q0 -45 20 -72.5t50.5 -42.5t66.5 -20t69 -5q48 0 86 12t64.5 33.5t40 50.5t13.5 63
q0 33 -10.5 60.5t-33.5 48t-59 31.5t-86 11h-273v333h492v-64z" />
    <glyph glyph-name="six" unicode="6" 
d="M146 508v-169q17 25 42 42.5t53.5 28.5t58.5 16t58 5q50 0 99.5 -11.5t89 -37.5t64 -68t24.5 -103q0 -59 -24.5 -101t-64 -68.5t-89.5 -38.5t-100 -12q-51 0 -101 12.5t-90 39.5t-64.5 69t-24.5 101v295q0 52 23.5 90t61.5 63t86.5 37.5t99.5 12.5q54 0 102 -10t85 -31.5
t59.5 -55t24.5 -80.5h-72q-2 30 -18.5 51.5t-43 35.5t-62 20.5t-74.5 6.5q-33 0 -69 -8t-66 -24.5t-49 -43.5t-19 -64zM357 56q36 0 73 8t67 26.5t49 48t19 72.5q0 44 -18.5 74.5t-48.5 49t-67 26.5t-73 8t-73.5 -9.5t-68 -29t-50 -49t-19.5 -69.5q0 -43 19 -72.5t49.5 -48
t68 -27t73.5 -8.5z" />
    <glyph glyph-name="seven" unicode="7" horiz-adv-x="562" 
d="M108 0l357 632h-433v68h511l7 -51l-363 -649h-79z" />
    <glyph glyph-name="eight" unicode="8" horiz-adv-x="703" 
d="M352 332q-31 0 -69.5 -7t-72.5 -23.5t-57.5 -44t-23.5 -67.5q0 -38 19.5 -65t51.5 -44.5t71.5 -26t80.5 -8.5q40 0 80 8t71.5 25.5t51 45t19.5 65.5q0 40 -23 67t-57 43.5t-72.5 24t-69.5 7.5zM59 191q0 32 12 59.5t31.5 49.5t46 37.5t56.5 23.5q-57 20 -94.5 59
t-37.5 99q0 54 24.5 91.5t64 60.5t89 33t100.5 10t100.5 -10t89.5 -32.5t65 -60t25 -92.5q0 -59 -39 -99t-98 -59q30 -8 57 -23.5t47.5 -38t32.5 -50t12 -58.5q0 -58 -24 -97.5t-65 -63.5t-93.5 -34.5t-109.5 -10.5t-109.5 10.5t-93 34.5t-65 63.5t-24.5 97.5zM142 520
q0 -37 21 -61.5t52.5 -39.5t68 -21.5t68.5 -6.5q31 0 68 6.5t68.5 21.5t52.5 39.5t21 61.5q0 38 -18 64t-48 41.5t-68 22.5t-77 7t-77 -7t-67.5 -23t-47 -42t-17.5 -63z" />
    <glyph glyph-name="nine" unicode="9" horiz-adv-x="691" 
d="M547 194v169q-17 -25 -42 -42.5t-54 -28.5t-59.5 -16t-58.5 -5q-50 0 -99.5 11.5t-89 37.5t-64 68t-24.5 103q0 59 24.5 101t64 68.5t89.5 38.5t100 12q51 0 101 -12.5t90 -39.5t64.5 -69t24.5 -101v-295q0 -52 -24 -90t-62.5 -63.5t-87.5 -38t-100 -12.5
q-54 0 -102.5 10t-86 32t-60.5 55.5t-25 80.5h72q2 -30 19 -51.5t44 -35.5t63 -21t75 -7q33 0 70 8t67.5 25t50.5 43.5t20 64.5zM334 646q-36 0 -73 -8t-67 -26.5t-49 -48t-19 -72.5q0 -44 18.5 -74.5t48.5 -49t67 -26.5t73 -8t73.5 9.5t68 29t50 49t19.5 69.5
q0 43 -19 72.5t-49.5 48t-68 27t-73.5 8.5z" />
    <glyph glyph-name="colon" unicode=":" horiz-adv-x="237" 
d="M71 38q0 24 15 35.5t32.5 11.5t32.5 -11.5t15 -35.5q0 -23 -15 -35t-32.5 -12t-32.5 12t-15 35zM71 336q0 23 15 34.5t32.5 11.5t32.5 -11.5t15 -34.5q0 -24 -15 -35.5t-32.5 -11.5t-32.5 11.5t-15 35.5z" />
    <glyph glyph-name="semicolon" unicode=";" horiz-adv-x="237" 
d="M71 336q0 23 15 34.5t32.5 11.5t32.5 -11.5t15 -34.5q0 -24 -15 -35.5t-32.5 -11.5t-32.5 11.5t-15 35.5zM165 35q0 -19 -13.5 -49.5t-29.5 -76.5h-50l28 87q-12 4 -20.5 13.5t-8.5 26.5q0 6 2 9q3 20 17.5 29t31 8t30 -13t13.5 -34z" />
    <glyph glyph-name="less" unicode="&#x3c;" horiz-adv-x="366" 
d="M309 150l-45 -46l-216 196v33l216 197l42 -47l-183 -166z" />
    <glyph glyph-name="equal" unicode="=" horiz-adv-x="557" 
d="M75 243h407v-63h-407v63zM75 450h407v-63h-407v63z" />
    <glyph glyph-name="greater" unicode="&#x3e;" horiz-adv-x="366" 
d="M243 317l-183 168l42 45l216 -197v-33l-216 -196l-45 45z" />
    <glyph glyph-name="question" unicode="?" horiz-adv-x="600" 
d="M224 46q0 24 15.5 36.5t33.5 12.5t33.5 -12.5t15.5 -36.5q0 -25 -15.5 -37.5t-33.5 -12.5t-33.5 12.5t-15.5 37.5zM35 503q0 57 22.5 96t59 64t83 36t95.5 11t97 -10t85.5 -34t60.5 -64t23 -99q0 -52 -15.5 -84.5t-39 -53t-51 -32l-50.5 -20.5q-32 -11 -52 -22
t-31.5 -27.5t-15.5 -42t-4 -65.5h-68q0 50 8 85t25.5 59.5t45 40.5t67.5 29q21 7 41 16.5t35 24.5t24.5 37t9.5 56q0 44 -18.5 71.5t-47 43t-63 21t-67.5 5.5q-32 0 -65.5 -6.5t-61 -23t-45.5 -44t-18 -68.5h-69z" />
    <glyph glyph-name="at" unicode="@" horiz-adv-x="896" 
d="M452 624q-73 0 -134.5 -24.5t-106.5 -68.5t-70 -105t-25 -135q0 -76 25 -136.5t70 -102.5t106 -64t133 -22q42 0 80 10t73 28l29 -47q-45 -27 -90.5 -38t-91.5 -11q-88 0 -161 27t-125.5 77t-81.5 121t-29 158q0 85 29 156.5t81.5 124t126 82t162.5 29.5q88 0 161 -22.5
t125.5 -70t81 -121t28.5 -174.5q0 -41 -9 -84t-26 -78.5t-43 -58.5t-59 -23q-14 0 -28 5t-25 15.5t-18 26t-7 37.5q-15 -24 -36 -42.5t-46 -31t-51.5 -19t-53.5 -6.5q-53 0 -98.5 19t-79.5 53t-53.5 79.5t-19.5 98.5q0 56 19.5 102t53.5 79t79.5 51t98.5 18q27 0 54.5 -6.5
t52.5 -19.5t45 -32t34 -44l2 77l56 -1v-368q0 -18 7 -26t17 -8q21 0 35.5 23.5t23 54.5t12 62t3.5 47q0 92 -24 155t-68 101.5t-106 55.5t-138 17zM446 474q-40 0 -74 -13.5t-59 -38.5t-39 -59.5t-14 -76.5q0 -38 14 -72t39 -59.5t59 -40.5t74 -15q46 0 81 16t58 42t34.5 60
t11.5 70t-11.5 69.5t-34.5 59.5t-57.5 42t-81.5 16z" />
    <glyph glyph-name="A" unicode="A" horiz-adv-x="740" 
d="M573 162h-406l-72 -162h-74l314 700h70l314 -700h-74zM195 226h350l-175 398z" />
    <glyph glyph-name="B" unicode="B" horiz-adv-x="704" 
d="M167 66h228q30 0 62.5 5.5t60 19.5t45 38t17.5 61q0 36 -16.5 62t-42.5 42.5t-58 24t-63 7.5h-233v-260zM167 390h233q31 0 60 6.5t51 21t35 37t13 54.5q0 35 -13.5 59t-36 39t-52.5 21.5t-62 6.5h-228v-245zM395 700q46 0 88.5 -10.5t74.5 -33.5t51.5 -59.5t19.5 -88.5
q0 -51 -29.5 -91.5t-80.5 -57.5q32 -9 56.5 -27t41 -41t25 -49t8.5 -53q0 -54 -22 -90.5t-58 -58.5t-82 -31t-93 -9h-298v700h298z" />
    <glyph glyph-name="C" unicode="C" horiz-adv-x="709" 
d="M672 95q-54 -54 -119 -80t-136 -26q-91 0 -159 28.5t-113.5 77t-68.5 113.5t-23 138q0 72 22.5 137.5t68 116t114 80.5t159.5 30q70 0 136 -25.5t112 -79.5l-43 -43q-43 42 -95.5 63t-109.5 21q-73 0 -128 -25t-92 -66.5t-55.5 -95.5t-18.5 -112q0 -62 18.5 -115
t55.5 -93t92 -62.5t128 -22.5q57 0 112.5 22t97.5 64z" />
    <glyph glyph-name="D" unicode="D" horiz-adv-x="748" 
d="M344 700q89 0 155 -29.5t109.5 -77.5t65 -109.5t21.5 -126.5q0 -66 -20.5 -130.5t-63 -114.5t-109 -81t-158.5 -31h-247v700h247zM167 65h177q73 0 126.5 26t88 67.5t50.5 94t15 105.5q-1 51 -18.5 100.5t-52 88.5t-86.5 63t-123 24h-177v-569z" />
    <glyph glyph-name="E" unicode="E" horiz-adv-x="655" 
d="M599 0h-502v700h493v-66h-423v-251h404v-65h-404v-252h432v-66z" />
    <glyph glyph-name="F" unicode="F" horiz-adv-x="627" 
d="M97 0v700h479v-66h-409v-266h394v-66h-394v-302h-70z" />
    <glyph glyph-name="G" unicode="G" horiz-adv-x="747" 
d="M631 562q-43 43 -100.5 63.5t-114.5 20.5q-72 0 -126.5 -24.5t-92 -66t-56 -95.5t-18.5 -113q0 -57 18 -109.5t55 -92.5t91.5 -63.5t128.5 -23.5q53 0 105 18.5t96 57.5v177h-229v65h296v-271q-54 -56 -120 -85.5t-148 -29.5q-92 0 -160 29t-113 78t-67.5 113.5
t-22.5 135.5q0 80 25.5 147.5t73 116t114.5 75.5t150 26q70 1 136.5 -25t120.5 -79z" />
    <glyph glyph-name="H" unicode="H" horiz-adv-x="758" 
d="M591 0v310h-424v-310h-70v700h70v-324h424v324h70v-700h-70z" />
    <glyph glyph-name="I" unicode="I" horiz-adv-x="264" 
d="M97 0v700h70v-700h-70z" />
    <glyph glyph-name="J" unicode="J" horiz-adv-x="684" 
d="M595 700v-427q0 -66 -21 -118t-59 -88.5t-90 -56t-115 -19.5q-62 0 -114 19.5t-89.5 56t-59 88t-21.5 116.5h70q0 -49 15.5 -88.5t44 -67.5t67.5 -43t87 -15t87.5 14.5t68 42.5t44 68t15.5 91v362h-257v65h327z" />
    <glyph glyph-name="K" unicode="K" horiz-adv-x="606" 
d="M575 695l-341 -331l371 -359v-5h-87l-351 339v-339h-70v700h70v-315l325 315h83v-5z" />
    <glyph glyph-name="L" unicode="L" horiz-adv-x="573" 
d="M167 700v-634h389v-66h-459v700h70z" />
    <glyph glyph-name="M" unicode="M" horiz-adv-x="877" 
d="M710 597l-261 -384h-20l-262 389v-602h-70v700h86l256 -386l253 386h88v-700h-70v597z" />
    <glyph glyph-name="N" unicode="N" horiz-adv-x="757" 
d="M594 132l-4 232v336h70v-700h-42l-453 563l2 -207v-356h-70v700h44z" />
    <glyph glyph-name="O" unicode="O" horiz-adv-x="813" 
d="M407 711q89 1 155.5 -30t110.5 -81.5t66 -116t22 -135.5q0 -69 -22 -134t-66.5 -115.5t-110.5 -81t-155 -29.5q-89 -1 -156 29.5t-111 81.5t-66 116t-22 134q0 74 23.5 140t69 115.5t111.5 78.5t151 28zM122 348q1 -57 18.5 -110.5t53 -94.5t88.5 -65.5t125 -23.5
q72 -1 125 24t88 66t53 94.5t18 109.5q0 59 -17.5 112.5t-53 95t-88.5 66t-125 23.5q-71 1 -124.5 -22.5t-89.5 -64t-54 -94.5t-17 -116z" />
    <glyph glyph-name="P" unicode="P" horiz-adv-x="679" 
d="M167 299h243q55 0 91.5 25t54.5 62t18 80.5t-18 80.5t-54.5 62t-91.5 25h-243v-335zM167 233v-233h-70v700h313q59 0 103 -20t73 -53t44 -74.5t15 -85.5t-15 -86t-44 -74.5t-73 -53t-103 -20.5h-243z" />
    <glyph glyph-name="Q" unicode="Q" horiz-adv-x="815" 
d="M407 711q90 0 156.5 -29.5t110.5 -79.5t66 -115t22 -135q0 -63 -19.5 -124.5t-58.5 -111.5l87 -85l-48 -50l-88 86q-42 -35 -99.5 -55t-128.5 -21q-90 1 -157 31t-111.5 80t-66 115.5t-20.5 137.5q0 69 22.5 133.5t66.5 114t110.5 79t155.5 29.5zM407 645q-66 0 -119 -23
t-90 -63t-56.5 -92.5t-19.5 -112.5q0 -58 17.5 -111.5t53 -94.5t89 -65.5t125.5 -25.5q72 1 125.5 25.5t89 66t53 94.5t16.5 110q0 60 -17.5 113t-53 92.5t-88.5 63t-125 23.5z" />
    <glyph glyph-name="R" unicode="R" horiz-adv-x="708" 
d="M671 0h-91l-232 258h-181v-258h-70v700h314q58 0 101.5 -18t72.5 -48.5t43.5 -71t14.5 -84.5q0 -41 -12 -78.5t-37.5 -67t-66 -48t-95.5 -21.5zM167 634v-310h240q84 0 125 44t41 110q0 33 -10 61.5t-30.5 49.5t-51 33t-70.5 12h-244z" />
    <glyph glyph-name="S" unicode="S" horiz-adv-x="660" 
d="M534 556q-15 25 -38 41.5t-50 27t-56 15.5t-57 5q-32 0 -67 -5.5t-64 -20t-47.5 -39t-18.5 -63.5q0 -31 16 -51.5t43 -34t63 -22t77 -15.5q52 -9 102 -21t89 -34t63 -57.5t24 -91.5q0 -59 -26 -98t-66.5 -62t-90 -32t-97.5 -9q-44 0 -87.5 8.5t-82.5 27t-70.5 48
t-51.5 71.5l61 33q18 -34 44.5 -57t57 -37.5t64 -20.5t65.5 -6t69 5.5t68 20t51.5 41t20.5 68.5q0 36 -18 59t-48 38.5t-68.5 24.5t-79.5 16q-50 9 -97 20t-83.5 31.5t-59 53t-22.5 83.5q-1 55 24 92.5t64 60t86.5 32t91.5 9.5q36 0 72.5 -5.5t70.5 -19.5t64.5 -37.5
t53.5 -59.5z" />
    <glyph glyph-name="T" unicode="T" horiz-adv-x="596" 
d="M263 634h-247v66h564v-66h-247v-634h-70v634z" />
    <glyph glyph-name="U" unicode="U" horiz-adv-x="734" 
d="M645 700v-430q0 -71 -22 -123.5t-59.5 -87.5t-87.5 -52t-107 -17t-108 17t-89 52t-60.5 87.5t-22.5 123.5v430h70v-430q0 -50 16 -90t44.5 -67.5t66.5 -42.5t83 -15q40 0 77 13t65.5 39.5t46 67t17.5 95.5v430h70z" />
    <glyph glyph-name="V" unicode="V" horiz-adv-x="722" 
d="M401 -2h-78l-298 702h77l260 -625l256 625h78z" />
    <glyph glyph-name="W" unicode="W" horiz-adv-x="1080" 
d="M801 -2h-71l-105 301l-85 265l-84 -264l-105 -302h-72l-248 702h79l204 -606l204 606h44l204 -606l205 606h78z" />
    <glyph glyph-name="X" unicode="X" horiz-adv-x="622" 
d="M518 700h76v-2l-237 -340l253 -356v-2h-82l-114 162l-103 154l-109 -161l-110 -155h-80v2l253 356l-237 340v2h78l106 -151l99 -148l103 152z" />
    <glyph glyph-name="Y" unicode="Y" horiz-adv-x="663" 
d="M331 350l226 350h82v-2l-273 -416v-282h-70v282l-269 416v2h81z" />
    <glyph glyph-name="Z" unicode="Z" horiz-adv-x="596" 
d="M61 700h496v-30l-435 -602h435v-68h-535v36l428 599h-389v65z" />
    <glyph glyph-name="bracketleft" unicode="[" horiz-adv-x="319" 
d="M89 -170v883h194v-63h-127v-759h127v-61h-194z" />
    <glyph glyph-name="backslash" unicode="\" horiz-adv-x="485" 
d="M97 761l363 -843h-70l-364 843h71z" />
    <glyph glyph-name="bracketright" unicode="]" horiz-adv-x="319" 
d="M36 -169v63h126v757h-126v63h194v-883h-194z" />
    <glyph glyph-name="asciicircum" unicode="^" horiz-adv-x="593" 
d="M50 373l217 327h57l219 -327l-2 -4h-71l-174 266l-177 -266h-67z" />
    <glyph glyph-name="underscore" unicode="_" horiz-adv-x="609" 
d="M70 -22h469v-60h-469v60z" />
    <glyph glyph-name="grave" unicode="`" horiz-adv-x="234" 
d="M23 700h82l74 -124v-4h-63l-93 126v2z" />
    <glyph glyph-name="a" unicode="a" horiz-adv-x="634" 
d="M493 396v98h63v-494h-62v98q-16 -27 -38.5 -47.5t-48 -34t-53.5 -20t-56 -6.5q-53 0 -98.5 18t-80 51.5t-54 81t-19.5 106.5q0 58 20 105t54 80t80 51t99 18q28 0 57 -6.5t54.5 -19.5t47 -33t35.5 -46zM301 440q-39 0 -73.5 -14t-60 -39t-40 -61t-14.5 -79
q0 -44 14.5 -79.5t40 -61t60 -39.5t73.5 -14q64 0 106.5 28.5t63.5 71.5t21 93.5t-21 93.5t-63.5 71.5t-106.5 28.5z" />
    <glyph glyph-name="b" unicode="b" horiz-adv-x="635" 
d="M335 438q-39 0 -73.5 -14t-60 -39t-40 -60.5t-14.5 -77.5q0 -43 14.5 -78.5t39.5 -61t59.5 -39.5t74.5 -14q38 0 72 12.5t59.5 37t40 60t14.5 82.5t-14.5 83t-40 60t-59.5 36.5t-72 12.5zM145 703v-308q28 55 82 81t112 25q52 1 97.5 -16t79 -49.5t53 -80t19.5 -109.5
t-19 -109.5t-53 -80t-79.5 -49.5t-97.5 -17q-59 0 -109 22.5t-85 81.5l-4 -94h-63v703h67z" />
    <glyph glyph-name="c" unicode="c" horiz-adv-x="516" 
d="M485 65q-39 -38 -85.5 -56.5t-97.5 -18.5q-53 0 -99.5 17t-81 50t-55 81t-20.5 108q0 61 20 108t54.5 80t81 50t100.5 17q50 0 93.5 -17.5t81.5 -55.5l-44 -43q-28 27 -61 40t-69 13q-39 0 -74 -13t-60.5 -37.5t-40.5 -60t-15 -81.5q0 -47 15 -83t41 -60t60 -36.5
t73 -12.5q38 0 73.5 14t63.5 42z" />
    <glyph glyph-name="d" unicode="d" horiz-adv-x="635" 
d="M300 438q-39 0 -72.5 -12.5t-59 -36.5t-40 -60t-14.5 -83t14.5 -82.5t40 -60t59 -37t72.5 -12.5q40 0 74 14t59 39.5t39.5 61t14.5 78.5q0 42 -14.5 77.5t-39.5 60.5t-59.5 39t-73.5 14zM557 699v-699h-65l-2 98q-30 -54 -82.5 -81t-111.5 -27q-53 0 -98 17t-79 49.5
t-53 80t-19 109.5t19 109.5t53 80t79 49.5t98 16q58 1 112 -25t82 -81v304h67z" />
    <glyph glyph-name="e" unicode="e" horiz-adv-x="586" 
d="M545 218h-430q3 -39 19 -69.5t41 -51.5t57.5 -32t69.5 -11q22 0 46 4.5t46.5 13t42 21t32.5 29.5l45 -40q-37 -46 -95 -69t-117 -23q-55 0 -102 18t-81 51.5t-53.5 81t-19.5 106.5q0 55 19 102t52.5 81t80 53t101.5 18q55 1 103 -16t82 -52t51 -88.5t10 -126.5zM115 275
h367q-1 40 -15.5 71.5t-39 52.5t-57.5 32t-70 11q-75 0 -125 -43t-60 -124z" />
    <glyph glyph-name="f" unicode="f" horiz-adv-x="372" 
d="M132 0v431h-98v58h98v41q0 81 39 128t119 47q29 0 56 -9t50 -26l-29 -50q-20 12 -37 18.5t-39 6.5q-43 0 -67.5 -27.5t-24.5 -87.5v-41h158v-58h-158v-431h-67z" />
    <glyph glyph-name="g" unicode="g" horiz-adv-x="611" 
d="M504 524l46 -38l-53 -63q28 -31 47 -68t19 -96q0 -33 -9 -65t-27.5 -60t-46.5 -49.5t-66 -32.5q70 -19 108 -59.5t38 -102.5q0 -47 -21.5 -82t-56.5 -58.5t-81 -35.5t-95 -12q-53 0 -99 13.5t-79.5 40t-52.5 64.5t-19 86h67q0 -35 15 -61t40.5 -43.5t59 -26t68.5 -8.5
q34 0 67.5 7t59.5 21.5t42.5 38t16.5 56.5t-16 56.5t-42.5 39t-60 23t-67.5 7.5q-57 0 -104.5 16.5t-82 47.5t-53.5 76t-19 103q0 60 23 105.5t60 76t83 45.5t93 15q18 0 37.5 -2t39 -7t37.5 -12.5t32 -17.5zM306 439q-34 0 -68 -10.5t-61.5 -33t-44.5 -56.5t-17 -80t15 -80
t40.5 -56.5t60.5 -33.5t75 -11q43 0 78 14.5t60 39t38.5 57.5t13.5 70q0 46 -16 80t-42.5 56t-61 33t-70.5 11z" />
    <glyph glyph-name="h" unicode="h" horiz-adv-x="594" 
d="M144 700v-292q31 51 76.5 71.5t95.5 21.5q52 0 90.5 -16.5t64 -46t38.5 -70.5t13 -91v-277h-67v277q0 75 -36 117.5t-111 42.5q-36 0 -66 -13t-51.5 -36.5t-33.5 -54.5t-12 -67v-266h-67v700h66z" />
    <glyph glyph-name="i" unicode="i" horiz-adv-x="223" 
d="M145 496v-496h-67v496h67zM65 649q0 23 15 35t32 12q18 0 33 -12t15 -35q0 -24 -15 -35.5t-33 -11.5q-17 0 -32 11.5t-15 35.5z" />
    <glyph glyph-name="j" unicode="j" horiz-adv-x="223" 
d="M145 495v-564q0 -39 -6 -72t-21.5 -56.5t-42 -36.5t-67.5 -13q-26 0 -48.5 7t-45.5 21l21 55q34 -18 71 -18q25 0 39.5 8.5t21.5 24t9 36t2 44.5v564h67zM64 653q0 23 15 35t32 12q18 0 33 -12t15 -35q0 -24 -15 -35.5t-33 -11.5q-17 0 -32 11.5t-15 35.5z" />
    <glyph glyph-name="k" unicode="k" horiz-adv-x="482" 
d="M144 700v-418l216 212h85v-4l-237 -229l266 -257v-4h-86l-244 237v-237h-66v700h66z" />
    <glyph glyph-name="l" unicode="l" horiz-adv-x="237" 
d="M152 700v-700h-67v700h67z" />
    <glyph glyph-name="m" unicode="m" horiz-adv-x="929" 
d="M435 0v286q0 33 -10.5 61t-29.5 48.5t-45.5 32.5t-59.5 12t-59.5 -12t-45.5 -32.5t-29.5 -48.5t-10.5 -61v-286h-67v496h63l3 -79q24 47 66 65.5t87 18.5q27 0 53 -5t49.5 -18.5t42 -35.5t29.5 -53q25 59 74 85.5t104 26.5q47 0 85.5 -14.5t65.5 -42.5t42 -67.5t15 -88.5
v-288h-67v288q0 33 -10 61t-28.5 48t-44.5 31.5t-59 11.5t-59.5 -12t-46 -32.5t-30 -48.5t-10.5 -61v-286h-67z" />
    <glyph glyph-name="n" unicode="n" horiz-adv-x="608" 
d="M468 0v277q0 80 -43 121t-118 41q-36 0 -66 -13.5t-51 -36.5t-33 -53.5t-12 -66.5v-269h-67v494h64l2 -83q31 48 76 69.5t94.5 21.5t90 -14t69.5 -42.5t45.5 -70.5t16.5 -97v-278h-68z" />
    <glyph glyph-name="o" unicode="o" horiz-adv-x="600" 
d="M300 501q54 0 100.5 -18.5t80.5 -52.5t53.5 -81.5t19.5 -104.5t-19 -104t-53 -80.5t-80.5 -51.5t-101.5 -18q-54 0 -100.5 18t-80.5 51.5t-53.5 80.5t-19.5 104t19 104.5t52.5 81.5t80 52.5t102.5 18.5zM300 440q-41 0 -75.5 -14.5t-59.5 -40.5t-38.5 -62t-13.5 -79
t14 -78.5t38.5 -60.5t59 -38.5t75.5 -13.5q42 0 76 13.5t59 38.5t38.5 60.5t13.5 78.5t-14 79t-38.5 62t-59 40.5t-75.5 14.5z" />
    <glyph glyph-name="p" unicode="p" horiz-adv-x="635" 
d="M335 55q39 0 73 12.5t59 37t39.5 60t14.5 82.5q0 46 -14 81.5t-39 59.5t-59 36.5t-74 12.5q-41 0 -75 -14.5t-58.5 -40t-38 -60.5t-13.5 -76t14 -76t38.5 -60.5t58.5 -40t74 -14.5zM78 -236v730h65l2 -105q29 53 82 83t118 29q52 -1 96.5 -19t77 -51t51 -79.5
t18.5 -104.5q0 -60 -19 -108t-52 -81t-79 -50.5t-100 -17.5q-57 0 -110.5 27t-83.5 83v-336h-66z" />
    <glyph glyph-name="q" unicode="q" horiz-adv-x="635" 
d="M300 55q40 0 73.5 14.5t58.5 40t39 60.5t14 76t-13.5 76t-38 60.5t-58.5 40t-75 14.5q-40 0 -74 -12.5t-59 -36.5t-39 -59.5t-14 -81.5q0 -47 14.5 -82.5t39.5 -60t59 -37t73 -12.5zM491 -236v336q-30 -56 -83.5 -83t-110.5 -27q-54 0 -100 17.5t-79 50.5t-52 81t-19 108
q0 58 18.5 104.5t51 79.5t77 51t96.5 19q65 1 118 -29t82 -83l2 105h65v-730h-66z" />
    <glyph glyph-name="r" unicode="r" horiz-adv-x="418" 
d="M141 494l4 -81q12 25 29.5 42t38.5 27.5t44 15t45 4.5q34 0 59.5 -8t52.5 -27l-31 -56q-38 26 -85 26q-32 0 -60 -12t-48.5 -32.5t-32.5 -49t-12 -62.5v-281h-67v494h63z" />
    <glyph glyph-name="s" unicode="s" horiz-adv-x="499" 
d="M400 391q-35 32 -70.5 41t-75.5 9q-27 0 -51.5 -4.5t-43 -14.5t-29.5 -25t-10 -34q0 -22 12.5 -36t32 -23t43.5 -14t47 -8q33 -5 69 -12t66 -22t49.5 -42t19.5 -72q-1 -39 -18.5 -66.5t-46 -44.5t-65 -25t-73.5 -8q-64 0 -122.5 22.5t-96.5 73.5l42 46q32 -43 81 -61
t97 -19q21 0 44.5 3.5t44 13t33.5 25.5t13 41q0 24 -11 39.5t-30.5 25t-45.5 14.5t-56 9q-36 5 -70.5 13t-62 23t-45 39.5t-17.5 62.5q0 36 17.5 63t45.5 44.5t64 25.5t72 8q56 0 102 -16t84 -51z" />
    <glyph glyph-name="t" unicode="t" horiz-adv-x="392" 
d="M203 640v-150h160v-57h-160v-276q0 -47 17 -75t67 -28q17 0 35.5 5.5t36.5 13.5l21 -56q-24 -11 -47.5 -17.5t-47.5 -6.5q-80 -1 -114.5 43t-34.5 121v276h-101v57h101v143z" />
    <glyph glyph-name="u" unicode="u" horiz-adv-x="606" 
d="M138 494v-277q0 -78 43.5 -120t118.5 -41q36 0 65.5 13t51 36t33.5 53.5t12 66.5v269h66v-494h-62l-2 83q-31 -48 -77 -70t-98 -23q-48 0 -88 16t-69 45t-45 70.5t-16 94.5v278h67z" />
    <glyph glyph-name="v" unicode="v" horiz-adv-x="554" 
d="M522 494l-208 -495h-74l-208 495h74l171 -421l171 421h74z" />
    <glyph glyph-name="w" unicode="w" horiz-adv-x="833" 
d="M443 494l140 -421l139 421h74l-174 -495h-76l-73 199l-56 187l-57 -188l-73 -198h-76l-175 495h74l140 -421l140 421h53z" />
    <glyph glyph-name="x" unicode="x" horiz-adv-x="490" 
d="M379 494h81v-3l-173 -237l186 -252v-2h-80l-148 207l-148 -207h-80v2l186 252l-173 237v3h80l135 -194z" />
    <glyph glyph-name="y" unicode="y" horiz-adv-x="544" 
d="M515 494l-313 -730h-73l104 242l-198 488h75l105 -273l55 -142l56 142l115 273h74z" />
    <glyph glyph-name="z" unicode="z" horiz-adv-x="466" 
d="M425 494v-29l-292 -401h293v-64h-395v25l295 408h-278v61h377z" />
    <glyph glyph-name="braceleft" unicode="{" horiz-adv-x="318" 
d="M282 -131q-54 -8 -87 -1.5t-51 28t-24.5 57.5t-6.5 87v117q0 19 -2.5 38.5t-10.5 35.5t-23 26t-40 10v52q25 0 40 10t23 25.5t10.5 35t2.5 38.5v136q0 87 37.5 124.5t131.5 19.5v-49q-31 5 -51 2.5t-32 -13.5t-16.5 -32t-4.5 -53v-135q0 -21 -1.5 -42t-8 -39t-21 -32.5
t-40.5 -21.5q26 -7 40.5 -21t21 -33t8 -40t1.5 -42v-144q0 -32 4.5 -52t16.5 -30.5t32 -12.5t51 3v-52z" />
    <glyph glyph-name="bar" unicode="|" horiz-adv-x="246" 
d="M157 -110h-68v827h68v-827z" />
    <glyph glyph-name="braceright" unicode="}" horiz-adv-x="318" 
d="M37 -84q31 -5 51 -3.5t31.5 12t16 31t4.5 52.5v144q0 20 1.5 41.5t8 40t21 33t41.5 21.5q-27 7 -41.5 21t-21 32.5t-8 39.5t-1.5 42v135q0 32 -4.5 53t-16.5 32t-32 13.5t-50 -2.5v49q94 17 131 -20t37 -124v-136q0 -19 2.5 -38.5t11 -35.5t23.5 -26t40 -10v-52
q-25 0 -40 -10t-23.5 -25.5t-11 -35t-2.5 -38.5v-118q0 -51 -6 -87t-24 -57.5t-51 -28t-87 1.5v53z" />
    <glyph glyph-name="asciitilde" unicode="~" horiz-adv-x="630" 
d="M557 344q-23 -71 -70.5 -96t-116.5 4l-118 60q-44 23 -77 10.5t-51 -57.5l-49 20q13 35 33.5 58t46 33.5t54 8.5t57.5 -17l119 -59q20 -9 38 -11.5t33.5 2.5t28 20t20.5 42z" />
    <glyph glyph-name="exclamdown" unicode="&#xa1;" horiz-adv-x="235" 
d="M82 -209v548h71v-548h-71zM165 447q0 -25 -15.5 -37.5t-34 -12.5t-34 12.5t-15.5 37.5q0 24 15.5 36.5t34 12.5t34 -12.5t15.5 -36.5z" />
    <glyph glyph-name="cent" unicode="&#xa2;" horiz-adv-x="536" 
d="M485 56q-32 -31 -70 -49t-80 -23v-71h-65v72q-47 6 -88 25.5t-71 51.5t-47 76t-17 98q0 52 16.5 95.5t46 76t70.5 53.5t90 27v63h65v-63q42 -5 80 -23t70 -49l-43 -43q-29 27 -65 41.5t-73 14.5q-39 0 -73.5 -13t-61 -37.5t-41.5 -60.5t-15 -82q0 -47 15 -82.5
t41.5 -59.5t61 -36.5t73.5 -12.5q37 0 72.5 15.5t64.5 43.5z" />
    <glyph glyph-name="sterling" unicode="&#xa3;" horiz-adv-x="649" 
d="M178 500q0 -37 8 -72.5l16 -70.5h250v-58h-237q4 -28 4 -59t-8 -61.5t-25.5 -60t-47.5 -55.5h453v-63h-532v65q36 32 56.5 61.5t30 58.5t9.5 57t-5 57h-91v58h78l-16.5 67t-8.5 76q0 52 19 91t51.5 64.5t77 38.5t95.5 13q46 0 87.5 -9.5t72.5 -31.5t50 -58t20 -89h-63
q-1 38 -15.5 62.5t-38 39t-53 20t-60.5 5.5q-79 0 -128 -38.5t-49 -107.5z" />
    <glyph glyph-name="currency" unicode="&#xa4;" horiz-adv-x="603" 
d="M301 177q36 0 63 12.5t45 33t27 46.5t9 54t-9 54.5t-27 47t-45 33t-63 12.5q-35 0 -62 -12.5t-45 -33t-27.5 -47t-9.5 -54.5t9.5 -54t27.5 -46.5t45 -33t62 -12.5zM125 93l-50 49l60 59q-20 27 -29.5 58t-9.5 63.5t10 63.5t29 58l-60 59l50 50l58 -60q24 16 53.5 25
t65.5 9q35 0 64 -9t53 -25l60 60l49 -50l-59 -58q19 -27 28 -58.5t9 -64t-9.5 -64t-28.5 -57.5l60 -59l-49 -49l-61 60q-23 -16 -52.5 -24.5t-64.5 -8.5q-67 0 -117 33z" />
    <glyph glyph-name="yen" unicode="&#xa5;" horiz-adv-x="673" 
d="M523 162h-153v-162h-70v162h-157v55h157v60h-157v55h124l-236 366v2h81l223 -352l226 352h82v-2l-240 -366h120v-55h-153v-60h153v-55z" />
    <glyph glyph-name="brokenbar" unicode="&#xa6;" horiz-adv-x="243" 
d="M89 342v365h65v-365h-65zM154 276v-365h-65v365h65z" />
    <glyph glyph-name="section" unicode="&#xa7;" horiz-adv-x="561" 
d="M104 123q32 -42 80.5 -60.5t98.5 -18.5q23 0 48.5 4t47 13.5t36.5 25.5t16 40q1 22 -11.5 36.5t-34 23t-49 13t-57.5 8.5q-38 4 -75.5 13t-67 25t-47.5 40.5t-18 60.5q0 34 24 67t68 47q-42 14 -66 41.5t-24 70.5q0 39 19.5 66t50 43.5t68 24t75.5 7.5q54 0 105 -15.5
t89 -52.5l-43 -41q-36 30 -72.5 39.5t-79.5 9.5q-28 0 -54 -4.5t-46 -14.5t-32 -25.5t-12 -35.5q0 -22 14 -36.5t35 -23.5t46 -13.5t47 -7.5q36 -4 75 -11.5t71 -23t52.5 -41.5t17.5 -67q-2 -46 -29.5 -72t-68.5 -36q44 -13 72 -41.5t26 -75.5q-2 -42 -23.5 -69.5t-53.5 -44
t-70 -23t-71 -6.5q-67 0 -128 24t-96 73zM432 351q0 26 -22 44.5t-55 29t-71 11.5t-70.5 -8t-54 -28.5t-20.5 -50.5q0 -26 22 -44t54.5 -27.5t70.5 -10t70.5 8.5t54 27.5t21.5 47.5z" />
    <glyph glyph-name="dieresis" unicode="&#xa8;" horiz-adv-x="455" 
d="M63 672q0 22 13.5 32.5t30 10.5t30.5 -10.5t14 -32.5t-14 -33t-30.5 -11t-30 11t-13.5 33zM286 672q0 22 13.5 32.5t30 10.5t30.5 -10.5t14 -32.5t-14 -33t-30.5 -11t-30 11t-13.5 33z" />
    <glyph glyph-name="copyright" unicode="&#xa9;" horiz-adv-x="834" 
d="M418 714q87 0 154 -29t113 -79t70 -116t24 -141q0 -74 -24 -140.5t-70 -116.5t-113 -79t-154 -29t-154.5 29t-114 79t-70.5 116.5t-24 140.5q0 75 24 141t70.5 116t114 79t154.5 29zM431 156q-42 0 -78 14.5t-63 40.5t-42 61.5t-15 78.5t15 78.5t42 61.5t63 40.5t78 14.5
q39 0 74.5 -14.5t63.5 -43.5l-42 -42q-42 40 -96 40q-29 0 -54 -10t-43.5 -28t-29 -43t-10.5 -54t10.5 -53.5t29.5 -42.5t43.5 -28t53.5 -10q55 0 96 41l43 -43q-29 -29 -64 -44t-75 -15zM119 349q0 -64 20 -120t58.5 -97.5t94 -65.5t126.5 -24t126 24t93 65.5t57.5 97.5
t19.5 120t-19.5 120.5t-57.5 98.5t-93 66t-126 24t-126.5 -24t-94 -66t-58.5 -98.5t-20 -120.5z" />
    <glyph glyph-name="ordfeminine" unicode="&#xaa;" horiz-adv-x="496" 
d="M355 643v58h56v-324h-55l-1 59q-20 -32 -53.5 -48.5t-68.5 -16.5q-34 0 -64 11.5t-52.5 33t-35.5 53t-13 71.5t13 71t35.5 52t53 32t64.5 11q35 0 68 -16t53 -47zM238 651q-23 0 -42.5 -8t-34.5 -22.5t-23.5 -35t-8.5 -45.5t8.5 -45.5t23.5 -35.5t34.5 -23t42.5 -8
q36 0 60.5 16.5t36.5 41.5t12 53.5t-12 53.5t-36.5 41.5t-60.5 16.5zM416 248h-327v61h327v-61z" />
    <glyph glyph-name="guillemotleft" unicode="&#xab;" horiz-adv-x="435" 
d="M186 516h71v-3l-136 -216l70 -110t66 -111h-71l-139 221zM313 516h72v-3l-136 -216l136 -221h-72l-138 221z" />
    <glyph glyph-name="logicalnot" unicode="&#xac;" horiz-adv-x="511" 
d="M434 169h-64v135h-295v63h359v-198z" />
    <glyph glyph-name="uni00AD" unicode="&#xad;" horiz-adv-x="0" 
 />
    <glyph glyph-name="registered" unicode="&#xae;" horiz-adv-x="832" 
d="M416 714q87 0 154.5 -29t113 -79t69.5 -116.5t24 -140.5t-24 -140.5t-69.5 -116.5t-113 -79t-154.5 -29t-154 29t-113 79t-70 116.5t-24 140.5t24 140.5t70 116.5t113 79t154 29zM119 349q0 -65 20 -121t58 -97.5t93 -65.5t126 -24t126 24t93 65.5t58 97.5t20 121
q0 64 -20 120.5t-58 98t-93 65.5t-126 24t-126 -24t-93 -65.5t-58 -98t-20 -120.5zM591 175v-12h-63l-116 137h-75v-137h-57v379h171q41 0 69 -16t43 -40.5t17.5 -54t-8 -56t-34 -46t-60.5 -24.5zM337 488v-136h112q24 0 40 10t24 25t8.5 33t-7.5 33t-23.5 25t-39.5 10h-114
z" />
    <glyph glyph-name="macron" unicode="&#xaf;" horiz-adv-x="407" 
d="M35 702h325v-57h-325v57z" />
    <glyph glyph-name="degree" unicode="&#xb0;" horiz-adv-x="324" 
d="M164 679q-29 0 -44.5 -18.5t-16 -41t14.5 -41t46 -18.5q29 0 43.5 18.5t14.5 41t-14.5 41t-43.5 18.5zM164 724q35 0 59 -15.5t35.5 -38.5t12 -50t-11.5 -50t-35.5 -38.5t-59.5 -15.5q-38 0 -62 15.5t-36 38.5t-11 50t13 50t36.5 38.5t59.5 15.5z" />
    <glyph glyph-name="plusminus" unicode="&#xb1;" horiz-adv-x="529" 
d="M74 401h159v160h62v-160h159v-60h-159v-164h-62v164h-159v60zM80 103h370v-60h-370v60z" />
    <glyph glyph-name="twosuperior" unicode="&#xb2;" horiz-adv-x="362" 
d="M45 676q0 31 11.5 52t31 33.5t44 17.5t50.5 5q25 0 50 -5t44.5 -18t31.5 -34t12 -53q0 -35 -12.5 -56t-32 -33t-44 -17t-47.5 -7q-17 -2 -32.5 -3.5t-27.5 -7t-19.5 -16.5t-7.5 -31v-27h219v-56h-273v84q0 32 12.5 52.5t32 32.5t44 17t47.5 6q35 1 59.5 14t24.5 48
t-24 48.5t-58 13.5q-15 0 -29.5 -2.5t-25.5 -9.5t-18 -18.5t-7 -29.5h-56z" />
    <glyph glyph-name="threesuperior" unicode="&#xb3;" horiz-adv-x="362" 
d="M181 582h-56v49h52q14 0 28 2.5t25.5 8.5t19 16t7.5 25q0 17 -19 35t-61 18q-12 0 -26 -2.5t-26 -9t-20.5 -17.5t-9.5 -29h-52q0 29 11.5 49t30.5 33t43 18.5t49 5.5q26 0 50.5 -6t43.5 -18.5t30.5 -31.5t11.5 -45t-15 -47.5t-40 -29.5q31 -8 47 -31.5t16 -46.5
q0 -33 -13 -54.5t-33.5 -34.5t-46.5 -18t-52 -5t-50.5 5.5t-44 18t-31.5 33.5t-12 52h56q1 -19 10 -30t21.5 -17t26.5 -7.5t25 -1.5q12 0 27 2t28 8.5t21.5 18t8.5 30.5q0 8 -4 17.5t-13.5 17.5t-25 13.5t-38.5 5.5z" />
    <glyph glyph-name="acute" unicode="&#xb4;" horiz-adv-x="224" 
d="M183 698l-94 -126h-61v4l75 124h80v-2z" />
    <glyph glyph-name="mu" unicode="&#xb5;" horiz-adv-x="603" 
d="M484 0l-6 76q-12 -23 -31 -39t-41.5 -26.5t-47 -15.5t-48.5 -4q-24 0 -48 4.5t-45 15t-38 26.5t-26 39v-300h-67v717h68v-280q0 -39 13.5 -68.5t36 -50t51.5 -31.5t59 -11t59 10t51.5 31.5t36.5 55t14 78.5v266h68v-493h-59z" />
    <glyph glyph-name="mu" unicode="&#x3bc;" horiz-adv-x="603" 
d="M484 0l-6 76q-12 -23 -31 -39t-41.5 -26.5t-47 -15.5t-48.5 -4q-24 0 -48 4.5t-45 15t-38 26.5t-26 39v-300h-67v717h68v-280q0 -39 13.5 -68.5t36 -50t51.5 -31.5t59 -11t59 10t51.5 31.5t36.5 55t14 78.5v266h68v-493h-59z" />
    <glyph glyph-name="paragraph" unicode="&#xb6;" horiz-adv-x="797" 
d="M344 -215h-70v405q-61 1 -106.5 23.5t-76 58t-45 80.5t-14.5 92q1 48 17 94t48 81.5t79 57.5t110 22h477v-64h-103v-850h-68v850h-248v-850z" />
    <glyph glyph-name="periodcentered" unicode="&#xb7;" horiz-adv-x="239" 
d="M71 286q0 24 15 36t33.5 12t33.5 -12t15 -36t-15 -36t-33.5 -12t-33.5 12t-15 36z" />
    <glyph glyph-name="cedilla" unicode="&#xb8;" horiz-adv-x="296" 
d="M59 -126q14 -20 32.5 -28.5t40.5 -9.5q20 0 37.5 8.5t22.5 27.5q4 14 -0.5 26.5t-17 20t-31.5 9.5t-43 -5l-11 10l23 89h49l-15 -54q31 1 52 -8.5t33 -24.5t15.5 -34.5t-1.5 -38.5q-10 -40 -42.5 -58.5t-68.5 -18.5q-33 1 -63 14.5t-46 42.5z" />
    <glyph glyph-name="onesuperior" unicode="&#xb9;" horiz-adv-x="255" 
d="M36 469h68v243l-54 -13v51l110 27v-308h69v-50h-193v50z" />
    <glyph glyph-name="ordmasculine" unicode="&#xba;" horiz-adv-x="475" 
d="M385 252h-298v58h298v-58zM238 371q-35 0 -65.5 11.5t-53 33t-36 53t-13.5 71.5t13 71t36 52t53.5 32t65.5 11t65.5 -11t53.5 -32t36.5 -52t13.5 -71t-13.5 -71.5t-36.5 -53t-53.5 -33t-65.5 -11.5zM238 428q46 0 76.5 30.5t30.5 81.5q0 50 -30.5 80.5t-76.5 30.5
q-45 0 -75.5 -30.5t-30.5 -80.5q0 -51 30.5 -81.5t75.5 -30.5z" />
    <glyph glyph-name="guillemotright" unicode="&#xbb;" horiz-adv-x="433" 
d="M385 298l-139 -220h-71l136 220l-136 216v4h71zM261 298l-138 -220h-72l136 220l-136 216v4h72z" />
    <glyph glyph-name="onequarter" unicode="&#xbc;" horiz-adv-x="733" 
d="M655 359v-231h43v-53h-43v-74h-55v74h-192l-4 47l186 237h65zM600 294l-131 -166h131v166zM139 -2l375 706h67l-376 -706h-66zM49 394h63v245l-54 -12v49l110 26v-308h66v-50h-185v50z" />
    <glyph glyph-name="onehalf" unicode="&#xbd;" horiz-adv-x="787" 
d="M138 -2l375 706h67l-376 -706h-66zM49 395h62v243l-54 -13v51l112 27v-308h65v-50h-185v50zM467 256q0 31 11.5 52.5t31 34t44 18t50.5 5.5q25 0 50 -5.5t44.5 -18.5t31.5 -34.5t12 -53.5q0 -34 -12.5 -55.5t-32 -34t-44 -18.5t-47.5 -8q-17 -2 -32.5 -3.5t-27 -7
t-18.5 -15.5t-7 -29v-27h217v-56h-273v84q0 32 12.5 52t32 31.5t44 16.5t47.5 6q35 1 59.5 15t24.5 49t-24 48.5t-58 13.5q-15 0 -29.5 -2.5t-25.5 -9.5t-18 -18.5t-7 -29.5h-56z" />
    <glyph glyph-name="threequarters" unicode="&#xbe;" horiz-adv-x="771" 
d="M692 358v-231h44v-53h-44v-74h-55v74h-192l-4 47l182 237h69zM637 293l-131 -166h131v166zM182 515h-54v48h50q14 0 28 2.5t25.5 8t18.5 15t7 24.5q0 17 -18.5 34.5t-60.5 17.5q-12 0 -25.5 -2.5t-25.5 -8.5t-20 -17t-8 -29h-51q0 28 11.5 48t30 32.5t42 18t47.5 5.5
q25 0 49 -6t42.5 -18t30 -31t11.5 -44q0 -28 -15 -48t-39 -27q30 -8 45.5 -31t15.5 -45q0 -32 -12.5 -53t-32.5 -34t-45.5 -18t-50.5 -5t-49 5.5t-43 18t-31 33t-12 50.5h57q1 -18 9.5 -29t20.5 -17t25.5 -7.5t24.5 -1.5q12 0 26.5 2t27 8.5t21 18t8.5 29.5q0 8 -4 17
t-14 17t-25.5 13.5t-37.5 5.5zM190 -3l375 707h65l-376 -707h-64z" />
    <glyph glyph-name="questiondown" unicode="&#xbf;" horiz-adv-x="582" 
d="M370 454q0 -24 -15.5 -36.5t-34 -12.5t-34 12.5t-15.5 37.5q0 24 15.5 36.5t34 12.5t34 -12.5t15.5 -37.5zM550 -3q0 -52 -19.5 -91.5t-53.5 -66t-79.5 -40t-97.5 -13.5q-54 0 -102 12.5t-84.5 38.5t-58 65t-21.5 92q3 57 22.5 90.5t47.5 54t59.5 32.5t58.5 25.5t45 33.5
t18 57q0 11 1.5 25.5t1.5 33.5q18 0 35.5 -0.5t34.5 -0.5q0 -51 -7 -87t-23.5 -60.5t-43.5 -41t-67 -29.5q-21 -8 -41 -18t-35.5 -25t-25 -37t-9.5 -53q0 -38 16.5 -65.5t44 -45t62.5 -25.5t71 -8t69 9.5t57.5 28.5t39.5 46t16 63h68z" />
    <glyph glyph-name="Agrave" unicode="&#xc0;" horiz-adv-x="740" 
d="M573 162h-406l-72 -162h-74l314 700h70l314 -700h-74zM195 226h350l-175 398zM244 901h82l74 -124v-4h-63l-93 126v2z" />
    <glyph glyph-name="Aacute" unicode="&#xc1;" horiz-adv-x="740" 
d="M573 162h-406l-72 -162h-74l314 700h70l314 -700h-74zM195 226h350l-175 398zM492 899l-94 -126h-61v4l75 124h80v-2z" />
    <glyph glyph-name="Acircumflex" unicode="&#xc2;" horiz-adv-x="740" 
d="M573 162h-406l-72 -162h-74l314 700h70l314 -700h-74zM195 226h350l-175 398zM393 906l143 -133v-7h-71l-96 87l-96 -87h-71v7l144 133h47z" />
    <glyph glyph-name="Atilde" unicode="&#xc3;" horiz-adv-x="740" 
d="M573 162h-406l-72 -162h-74l314 700h70l314 -700h-74zM195 226h350l-175 398zM236 807q8 39 35.5 57.5t62.5 11.5q15 -3 33.5 -13t36.5 -16t33 -2t23 30l45 -18q-8 -44 -36.5 -60t-59.5 -9q-17 5 -36 15t-36.5 15t-32.5 0.5t-23 -29.5z" />
    <glyph glyph-name="Adieresis" unicode="&#xc4;" horiz-adv-x="740" 
d="M573 162h-406l-72 -162h-74l314 700h70l314 -700h-74zM195 226h350l-175 398zM216 817q0 22 13.5 32.5t30 10.5t30.5 -10.5t14 -32.5t-14 -33t-30.5 -11t-30 11t-13.5 33zM439 817q0 22 13.5 32.5t30 10.5t30.5 -10.5t14 -32.5t-14 -33t-30.5 -11t-30 11t-13.5 33z" />
    <glyph glyph-name="Aring" unicode="&#xc5;" horiz-adv-x="750" 
d="M338 676q-37 10 -55.5 34t-18.5 62q0 25 9.5 44.5t25 32.5t36 19.5t41.5 6.5t41.5 -6.5t36.5 -19.5t26 -32.5t10 -44.5q0 -38 -20 -62.5t-57 -34.5zM375 829q-29 0 -44 -18t-15 -39.5t15 -39.5t44 -18q31 0 46 18t15 39.5t-15.5 39.5t-45.5 18zM578 162h-406l-72 -162
h-74l314 700h70l314 -700h-74zM200 226h350l-175 398z" />
    <glyph glyph-name="AE" unicode="&#xc6;" horiz-adv-x="914" 
d="M860 0h-415v221h-243l-132 -221h-84l430 700h433v-65h-336v-250h320v-65h-320v-253h347v-67zM445 287v167l2 174h-3l-201 -341h202z" />
    <glyph glyph-name="Ccedilla" unicode="&#xc7;" horiz-adv-x="710" 
d="M409 -6l-14 -53q32 1 54 -8.5t34.5 -24.5t15.5 -34.5t-2 -38.5q-10 -40 -43.5 -58.5t-71.5 -18.5q-35 1 -65.5 14.5t-47.5 42.5l35 32q14 -20 33.5 -28.5t42.5 -9.5q21 0 39 8.5t23 27.5q4 14 -0.5 26.5t-17.5 20t-32.5 9.5t-44.5 -5l-12 10l23 88h51zM672 95
q-54 -54 -119 -80t-136 -26q-91 0 -159 28.5t-113.5 77t-68.5 113.5t-23 138q0 72 22.5 137.5t68 116t114 80.5t159.5 30q70 0 136 -25.5t112 -79.5l-43 -43q-43 42 -95.5 63t-109.5 21q-73 0 -128 -25t-92 -66.5t-55.5 -95.5t-18.5 -112q0 -62 18.5 -115t55.5 -93t92 -62.5
t128 -22.5q57 0 112.5 22t97.5 64z" />
    <glyph glyph-name="Egrave" unicode="&#xc8;" horiz-adv-x="655" 
d="M599 0h-502v700h493v-66h-423v-251h404v-65h-404v-252h432v-66zM256 904h82l74 -124v-4h-63l-93 126v2z" />
    <glyph glyph-name="Eacute" unicode="&#xc9;" horiz-adv-x="655" 
d="M599 0h-502v700h493v-66h-423v-251h404v-65h-404v-252h432v-66zM467 899l-94 -126h-61v4l75 124h80v-2z" />
    <glyph glyph-name="Ecircumflex" unicode="&#xca;" horiz-adv-x="655" 
d="M599 0h-502v700h493v-66h-423v-251h404v-65h-404v-252h432v-66zM373.665 914.945l140.862 -131.101v-6.89941h-69.9385l-94.5645 85.7568l-94.5645 -85.7568h-69.9385v6.89941l141.847 131.101h46.2969z" />
    <glyph glyph-name="Edieresis" unicode="&#xcb;" horiz-adv-x="655" 
d="M599 0h-502v700h493v-66h-423v-251h404v-65h-404v-252h432v-66zM208 824q0 22 13.5 32.5t30 10.5t30.5 -10.5t14 -32.5t-14 -33t-30.5 -11t-30 11t-13.5 33zM431 824q0 22 13.5 32.5t30 10.5t30.5 -10.5t14 -32.5t-14 -33t-30.5 -11t-30 11t-13.5 33z" />
    <glyph glyph-name="Igrave" unicode="&#xcc;" horiz-adv-x="264" 
d="M97 0v700h70v-700h-70zM27.7891 899.531h74.1172l66.8867 -123.031v-3.96875h-56.9443l-84.0596 125.016v1.98438z" />
    <glyph glyph-name="Iacute" unicode="&#xcd;" horiz-adv-x="264" 
d="M97 0v700h70v-700h-70zM234.112 898l-84.2979 -126h-54.7041v4l67.2588 124h71.7432v-2z" />
    <glyph glyph-name="Icircumflex" unicode="&#xce;" horiz-adv-x="264" 
d="M97 0v700h70v-700h-70zM147.283 900.93l128.434 -132.042v-6.9502h-63.7676l-86.2207 86.374l-86.2207 -86.374h-63.7676v6.9502l129.331 132.042h42.2119z" />
    <glyph glyph-name="Idieresis" unicode="&#xcf;" horiz-adv-x="264" 
d="M165 813q0 21 13 31t28.5 10t28.5 -10t13 -31t-13 -31t-28.5 -10t-28.5 10t-13 31zM13 813q0 21 13 31t28.5 10t28.5 -10t13 -31t-13 -31t-28.5 -10t-28.5 10t-13 31zM97 0v700h70v-700h-70z" />
    <glyph glyph-name="Eth" unicode="&#xd0;" horiz-adv-x="754" 
d="M22 318v55h323v-55h-323zM349 700q89 0 155 -29.5t109.5 -77.5t65 -109.5t21.5 -126.5q0 -66 -20.5 -130.5t-63 -114.5t-109 -81t-158.5 -31h-247v700h247zM172 65h177q73 0 126.5 26t88 67.5t50.5 94t15 105.5q-1 51 -18.5 100.5t-52 88.5t-86.5 63t-123 24h-177v-569z
" />
    <glyph glyph-name="Ntilde" unicode="&#xd1;" horiz-adv-x="757" 
d="M594 132l-4 232v336h70v-700h-42l-453 563l2 -207v-356h-70v700h44zM245 797q8 39 35.5 57.5t62.5 11.5q15 -3 33.5 -13t36.5 -16t33 -2t23 30l45 -18q-8 -44 -36.5 -60t-59.5 -9q-17 5 -36 15t-36.5 15t-32.5 0.5t-23 -29.5z" />
    <glyph glyph-name="Ograve" unicode="&#xd2;" horiz-adv-x="813" 
d="M407 711q89 1 155.5 -30t110.5 -81.5t66 -116t22 -135.5q0 -69 -22 -134t-66.5 -115.5t-110.5 -81t-155 -29.5q-89 -1 -156 29.5t-111 81.5t-66 116t-22 134q0 74 23.5 140t69 115.5t111.5 78.5t151 28zM122 348q1 -57 18.5 -110.5t53 -94.5t88.5 -65.5t125 -23.5
q72 -1 125 24t88 66t53 94.5t18 109.5q0 59 -17.5 112.5t-53 95t-88.5 66t-125 23.5q-71 1 -124.5 -22.5t-89.5 -64t-54 -94.5t-17 -116zM297 906h82l74 -124v-4h-63l-93 126v2z" />
    <glyph glyph-name="Oacute" unicode="&#xd3;" horiz-adv-x="813" 
d="M407 711q89 1 155.5 -30t110.5 -81.5t66 -116t22 -135.5q0 -69 -22 -134t-66.5 -115.5t-110.5 -81t-155 -29.5q-89 -1 -156 29.5t-111 81.5t-66 116t-22 134q0 74 23.5 140t69 115.5t111.5 78.5t151 28zM122 348q1 -57 18.5 -110.5t53 -94.5t88.5 -65.5t125 -23.5
q72 -1 125 24t88 66t53 94.5t18 109.5q0 59 -17.5 112.5t-53 95t-88.5 66t-125 23.5q-71 1 -124.5 -22.5t-89.5 -64t-54 -94.5t-17 -116zM525 904l-94 -126h-61v4l75 124h80v-2z" />
    <glyph glyph-name="Ocircumflex" unicode="&#xd4;" horiz-adv-x="813" 
d="M407 711q89 1 155.5 -30t110.5 -81.5t66 -116t22 -135.5q0 -69 -22 -134t-66.5 -115.5t-110.5 -81t-155 -29.5q-89 -1 -156 29.5t-111 81.5t-66 116t-22 134q0 74 23.5 140t69 115.5t111.5 78.5t151 28zM122 348q1 -57 18.5 -110.5t53 -94.5t88.5 -65.5t125 -23.5
q72 -1 125 24t88 66t53 94.5t18 109.5q0 59 -17.5 112.5t-53 95t-88.5 66t-125 23.5q-71 1 -124.5 -22.5t-89.5 -64t-54 -94.5t-17 -116zM441 921l143 -133v-7h-71l-96 87l-96 -87h-71v7l144 133h47z" />
    <glyph glyph-name="Otilde" unicode="&#xd5;" horiz-adv-x="813" 
d="M407 711q89 1 155.5 -30t110.5 -81.5t66 -116t22 -135.5q0 -69 -22 -134t-66.5 -115.5t-110.5 -81t-155 -29.5q-89 -1 -156 29.5t-111 81.5t-66 116t-22 134q0 74 23.5 140t69 115.5t111.5 78.5t151 28zM122 348q1 -57 18.5 -110.5t53 -94.5t88.5 -65.5t125 -23.5
q72 -1 125 24t88 66t53 94.5t18 109.5q0 59 -17.5 112.5t-53 95t-88.5 66t-125 23.5q-71 1 -124.5 -22.5t-89.5 -64t-54 -94.5t-17 -116zM284 820q8 39 35.5 57.5t62.5 11.5q15 -3 33.5 -13t36.5 -16t33 -2t23 30l45 -18q-8 -44 -36.5 -60t-59.5 -9q-17 5 -36 15t-36.5 15
t-32.5 0.5t-23 -29.5z" />
    <glyph glyph-name="Odieresis" unicode="&#xd6;" horiz-adv-x="813" 
d="M407 711q89 1 155.5 -30t110.5 -81.5t66 -116t22 -135.5q0 -69 -22 -134t-66.5 -115.5t-110.5 -81t-155 -29.5q-89 -1 -156 29.5t-111 81.5t-66 116t-22 134q0 74 23.5 140t69 115.5t111.5 78.5t151 28zM122 348q1 -57 18.5 -110.5t53 -94.5t88.5 -65.5t125 -23.5
q72 -1 125 24t88 66t53 94.5t18 109.5q0 59 -17.5 112.5t-53 95t-88.5 66t-125 23.5q-71 1 -124.5 -22.5t-89.5 -64t-54 -94.5t-17 -116zM256 816q0 22 13.5 32.5t30 10.5t30.5 -10.5t14 -32.5t-14 -33t-30.5 -11t-30 11t-13.5 33zM479 816q0 22 13.5 32.5t30 10.5
t30.5 -10.5t14 -32.5t-14 -33t-30.5 -11t-30 11t-13.5 33z" />
    <glyph glyph-name="multiply" unicode="&#xd7;" horiz-adv-x="457" 
d="M228 364l117 118l40 -42l-118 -118l123 -121l-42 -41l-123 121l-119 -120l-39 42l120 120l-118 115l43 43z" />
    <glyph glyph-name="Oslash" unicode="&#xd8;" horiz-adv-x="813" 
d="M205 -77h-72l484 839h72zM407 711q89 1 155.5 -30t110.5 -81.5t66 -116t22 -135.5q0 -69 -22 -134t-66.5 -115.5t-110.5 -81t-155 -29.5q-89 -1 -156 29.5t-111 81.5t-66 116t-22 134q0 74 23.5 140t69 115.5t111.5 78.5t151 28zM122 348q1 -57 18.5 -110.5t53 -94.5
t88.5 -65.5t125 -23.5q72 -1 125 24t88 66t53 94.5t18 109.5q0 59 -17.5 112.5t-53 95t-88.5 66t-125 23.5q-71 1 -124.5 -22.5t-89.5 -64t-54 -94.5t-17 -116z" />
    <glyph glyph-name="Ugrave" unicode="&#xd9;" horiz-adv-x="734" 
d="M645 700v-430q0 -71 -22 -123.5t-59.5 -87.5t-87.5 -52t-107 -17t-108 17t-89 52t-60.5 87.5t-22.5 123.5v430h70v-430q0 -50 16 -90t44.5 -67.5t66.5 -42.5t83 -15q40 0 77 13t65.5 39.5t46 67t17.5 95.5v430h70zM260 899h82l74 -124v-4h-63l-93 126v2z" />
    <glyph glyph-name="Uacute" unicode="&#xda;" horiz-adv-x="734" 
d="M645 700v-430q0 -71 -22 -123.5t-59.5 -87.5t-87.5 -52t-107 -17t-108 17t-89 52t-60.5 87.5t-22.5 123.5v430h70v-430q0 -50 16 -90t44.5 -67.5t66.5 -42.5t83 -15q40 0 77 13t65.5 39.5t46 67t17.5 95.5v430h70zM475 896l-94 -126h-61v4l75 124h80v-2z" />
    <glyph glyph-name="Ucircumflex" unicode="&#xdb;" horiz-adv-x="734" 
d="M645 700v-430q0 -71 -22 -123.5t-59.5 -87.5t-87.5 -52t-107 -17t-108 17t-89 52t-60.5 87.5t-22.5 123.5v430h70v-430q0 -50 16 -90t44.5 -67.5t66.5 -42.5t83 -15q40 0 77 13t65.5 39.5t46 67t17.5 95.5v430h70zM393 912l143 -133v-7h-71l-96 87l-96 -87h-71v7l144 133
h47z" />
    <glyph glyph-name="Udieresis" unicode="&#xdc;" horiz-adv-x="734" 
d="M645 700v-430q0 -71 -22 -123.5t-59.5 -87.5t-87.5 -52t-107 -17t-108 17t-89 52t-60.5 87.5t-22.5 123.5v430h70v-430q0 -50 16 -90t44.5 -67.5t66.5 -42.5t83 -15q40 0 77 13t65.5 39.5t46 67t17.5 95.5v430h70zM214 813q0 22 13.5 32.5t30 10.5t30.5 -10.5t14 -32.5
t-14 -33t-30.5 -11t-30 11t-13.5 33zM437 813q0 22 13.5 32.5t30 10.5t30.5 -10.5t14 -32.5t-14 -33t-30.5 -11t-30 11t-13.5 33z" />
    <glyph glyph-name="Yacute" unicode="&#xdd;" horiz-adv-x="663" 
d="M331 350l226 350h82v-2l-273 -416v-282h-70v282l-269 416v2h81zM430 898l-94 -126h-61v4l75 124h80v-2z" />
    <glyph glyph-name="Thorn" unicode="&#xde;" horiz-adv-x="682" 
d="M97 700h71v-121h242q78 0 130.5 -34t78.5 -85.5t26 -111t-26 -111t-78.5 -85.5t-130.5 -34h-241v-118h-72v700zM169 184h241q54 0 90.5 24.5t54.5 60.5t18 79t-18 79t-54.5 60.5t-90.5 24.5h-241v-328z" />
    <glyph glyph-name="germandbls" unicode="&#xdf;" horiz-adv-x="605" 
d="M215 9v63q54 -23 104 -25.5t88.5 13t61.5 48.5t23 81t-17.5 79.5t-46 50t-64.5 26t-73 7.5h-75v60h71q24 0 52 5t51 17.5t39 35t16 57.5q0 37 -13.5 61t-35 38t-47.5 19t-51 5q-151 0 -151 -129v-230v-291h-69v521q0 53 18.5 89t49 58.5t70.5 32.5t82 10q44 0 83 -10.5
t68 -33t46 -57.5t17 -83q0 -51 -28 -89.5t-80 -50.5q42 -9 71.5 -27.5t48 -44.5t27 -57.5t8.5 -66.5q0 -74 -32 -119.5t-82 -66.5t-111 -19t-119 23z" />
    <glyph glyph-name="agrave" unicode="&#xe0;" horiz-adv-x="634" 
d="M493 396v98h63v-494h-62v98q-16 -27 -38.5 -47.5t-48 -34t-53.5 -20t-56 -6.5q-53 0 -98.5 18t-80 51.5t-54 81t-19.5 106.5q0 58 20 105t54 80t80 51t99 18q28 0 57 -6.5t54.5 -19.5t47 -33t35.5 -46zM301 440q-39 0 -73.5 -14t-60 -39t-40 -61t-14.5 -79
q0 -44 14.5 -79.5t40 -61t60 -39.5t73.5 -14q64 0 106.5 28.5t63.5 71.5t21 93.5t-21 93.5t-63.5 71.5t-106.5 28.5zM206 707h82l74 -124v-4h-63l-93 126v2z" />
    <glyph glyph-name="aacute" unicode="&#xe1;" horiz-adv-x="634" 
d="M493 396v98h63v-494h-62v98q-16 -27 -38.5 -47.5t-48 -34t-53.5 -20t-56 -6.5q-53 0 -98.5 18t-80 51.5t-54 81t-19.5 106.5q0 58 20 105t54 80t80 51t99 18q28 0 57 -6.5t54.5 -19.5t47 -33t35.5 -46zM301 440q-39 0 -73.5 -14t-60 -39t-40 -61t-14.5 -79
q0 -44 14.5 -79.5t40 -61t60 -39.5t73.5 -14q64 0 106.5 28.5t63.5 71.5t21 93.5t-21 93.5t-63.5 71.5t-106.5 28.5zM425 703l-94 -126h-61v4l75 124h80v-2z" />
    <glyph glyph-name="acircumflex" unicode="&#xe2;" horiz-adv-x="634" 
d="M493 396v98h63v-494h-62v98q-16 -27 -38.5 -47.5t-48 -34t-53.5 -20t-56 -6.5q-53 0 -98.5 18t-80 51.5t-54 81t-19.5 106.5q0 58 20 105t54 80t80 51t99 18q28 0 57 -6.5t54.5 -19.5t47 -33t35.5 -46zM301 440q-39 0 -73.5 -14t-60 -39t-40 -61t-14.5 -79
q0 -44 14.5 -79.5t40 -61t60 -39.5t73.5 -14q64 0 106.5 28.5t63.5 71.5t21 93.5t-21 93.5t-63.5 71.5t-106.5 28.5zM356.331 705.918l140.007 -130.15v-6.85059h-69.5137l-93.9902 85.1367l-93.9902 -85.1367h-69.5137v6.85059l140.985 130.15h46.0156z" />
    <glyph glyph-name="atilde" unicode="&#xe3;" horiz-adv-x="634" 
d="M493 396v98h63v-494h-62v98q-16 -27 -38.5 -47.5t-48 -34t-53.5 -20t-56 -6.5q-53 0 -98.5 18t-80 51.5t-54 81t-19.5 106.5q0 58 20 105t54 80t80 51t99 18q28 0 57 -6.5t54.5 -19.5t47 -33t35.5 -46zM301 440q-39 0 -73.5 -14t-60 -39t-40 -61t-14.5 -79
q0 -44 14.5 -79.5t40 -61t60 -39.5t73.5 -14q64 0 106.5 28.5t63.5 71.5t21 93.5t-21 93.5t-63.5 71.5t-106.5 28.5zM187 627q8 39 35.5 57.5t62.5 11.5q15 -3 33.5 -13t36.5 -16t33 -2t23 30l45 -18q-8 -44 -36.5 -60t-59.5 -9q-17 5 -36 15t-36.5 15t-32.5 0.5t-23 -29.5z
" />
    <glyph glyph-name="adieresis" unicode="&#xe4;" horiz-adv-x="634" 
d="M493 396v98h63v-494h-62v98q-16 -27 -38.5 -47.5t-48 -34t-53.5 -20t-56 -6.5q-53 0 -98.5 18t-80 51.5t-54 81t-19.5 106.5q0 58 20 105t54 80t80 51t99 18q28 0 57 -6.5t54.5 -19.5t47 -33t35.5 -46zM301 440q-39 0 -73.5 -14t-60 -39t-40 -61t-14.5 -79
q0 -44 14.5 -79.5t40 -61t60 -39.5t73.5 -14q64 0 106.5 28.5t63.5 71.5t21 93.5t-21 93.5t-63.5 71.5t-106.5 28.5zM173 655q0 22 13.5 32.5t30 10.5t30.5 -10.5t14 -32.5t-14 -33t-30.5 -11t-30 11t-13.5 33zM396 655q0 22 13.5 32.5t30 10.5t30.5 -10.5t14 -32.5t-14 -33
t-30.5 -11t-30 11t-13.5 33z" />
    <glyph glyph-name="aring" unicode="&#xe5;" horiz-adv-x="634" 
d="M493 396v98h63v-494h-62v98q-16 -27 -38.5 -47.5t-48 -34t-53.5 -20t-56 -6.5q-53 0 -98.5 18t-80 51.5t-54 81t-19.5 106.5q0 58 20 105t54 80t80 51t99 18q28 0 57 -6.5t54.5 -19.5t47 -33t35.5 -46zM301 440q-39 0 -73.5 -14t-60 -39t-40 -61t-14.5 -79
q0 -44 14.5 -79.5t40 -61t60 -39.5t73.5 -14q64 0 106.5 28.5t63.5 71.5t21 93.5t-21 93.5t-63.5 71.5t-106.5 28.5zM209.379 655.681q0 22.1006 9.07715 38.8975q9.07812 16.7969 23.8896 28.2891q14.8105 11.4922 34.4004 17.2383q19.5889 5.74609 39.6562 5.74609
q20.0664 0 39.6553 -5.74609t34.4004 -16.7969q14.8115 -11.0498 24.3672 -28.2891q9.55566 -17.2383 9.55566 -39.3389q0 -22.9854 -8.59961 -40.2236q-8.60059 -17.2383 -23.4121 -28.7314q-14.8105 -11.4922 -34.8779 -17.6807q-20.0674 -6.1875 -42.0449 -6.1875
q-45.8672 0 -75.9678 23.8682q-30.0996 23.8691 -30.0996 68.9551zM315.446 705.187q-28.667 0 -42.5225 -15.4707t-13.8555 -34.0352q0 -18.5654 14.333 -34.0352q14.333 -15.4707 42.0449 -15.4707q29.6221 0 43.9561 15.4707q14.334 15.4697 14.334 34.0352
q0 18.5645 -14.8115 34.0352t-43.4785 15.4707z" />
    <glyph glyph-name="ae" unicode="&#xe6;" horiz-adv-x="1022" 
d="M980 219h-431q3 -39 19.5 -69.5t42 -51.5t58 -32t69.5 -11q22 0 46 4.5t46.5 13t41.5 21t32 29.5l46 -40q-37 -46 -95.5 -69t-117.5 -23q-64 0 -114 26t-79 74l-1 -91h-53v97q-32 -55 -85 -81t-108 -26q-53 0 -98.5 18t-79.5 51.5t-53.5 81t-19.5 106.5q0 58 20 105
t54 80t80 51t98 18q58 0 111 -26t82 -79l1 98h54v-94q32 51 82 77t111 26q52 0 99.5 -18t82 -53t51.5 -88t8 -125zM301 439q-39 0 -73.5 -13.5t-60 -39t-40 -61t-14.5 -78.5q0 -44 14.5 -79.5t40 -61t60 -39t73.5 -13.5q64 0 107 28.5t64.5 71.5t21.5 92.5t-21.5 92.5
t-64.5 71.5t-107 28.5zM549 276h369q-2 81 -52 124t-130 43q-35 0 -66.5 -11t-57 -32.5t-42 -52.5t-21.5 -71z" />
    <glyph glyph-name="ccedilla" unicode="&#xe7;" horiz-adv-x="519" 
d="M307 1l-13 -54q31 1 51.5 -8.5t32 -24.5t14 -34t-1.5 -37q-10 -40 -43 -58t-70 -17q-32 0 -61.5 14t-46.5 42l34 31q14 -19 30.5 -27t36.5 -9q22 -2 41.5 6t25.5 28q4 14 -0.5 26.5t-17 20.5t-31.5 10t-43 -5l-12 9l22 87h52zM485 65q-39 -38 -85.5 -56.5t-97.5 -18.5
q-53 0 -99.5 17t-81 50t-55 81t-20.5 108q0 61 20 108t54.5 80t81 50t100.5 17q50 0 93.5 -17.5t81.5 -55.5l-44 -43q-28 27 -61 40t-69 13q-39 0 -74 -13t-60.5 -37.5t-40.5 -60t-15 -81.5q0 -47 15 -83t41 -60t60 -36.5t73 -12.5q38 0 73.5 14t63.5 42z" />
    <glyph glyph-name="egrave" unicode="&#xe8;" horiz-adv-x="586" 
d="M545 218h-430q3 -39 19 -69.5t41 -51.5t57.5 -32t69.5 -11q22 0 46 4.5t46.5 13t42 21t32.5 29.5l45 -40q-37 -46 -95 -69t-117 -23q-55 0 -102 18t-81 51.5t-53.5 81t-19.5 106.5q0 55 19 102t52.5 81t80 53t101.5 18q55 1 103 -16t82 -52t51 -88.5t10 -126.5zM115 275
h367q-1 40 -15.5 71.5t-39 52.5t-57.5 32t-70 11q-75 0 -125 -43t-60 -124zM200 700h82l74 -124v-4h-63l-93 126v2z" />
    <glyph glyph-name="eacute" unicode="&#xe9;" horiz-adv-x="586" 
d="M545 218h-430q3 -39 19 -69.5t41 -51.5t57.5 -32t69.5 -11q22 0 46 4.5t46.5 13t42 21t32.5 29.5l45 -40q-37 -46 -95 -69t-117 -23q-55 0 -102 18t-81 51.5t-53.5 81t-19.5 106.5q0 55 19 102t52.5 81t80 53t101.5 18q55 1 103 -16t82 -52t51 -88.5t10 -126.5zM115 275
h367q-1 40 -15.5 71.5t-39 52.5t-57.5 32t-70 11q-75 0 -125 -43t-60 -124zM420 698l-94 -126h-61v4l75 124h80v-2z" />
    <glyph glyph-name="ecircumflex" unicode="&#xea;" horiz-adv-x="586" 
d="M545 218h-430q3 -39 19 -69.5t41 -51.5t57.5 -32t69.5 -11q22 0 46 4.5t46.5 13t42 21t32.5 29.5l45 -40q-37 -46 -95 -69t-117 -23q-55 0 -102 18t-81 51.5t-53.5 81t-19.5 106.5q0 55 19 102t52.5 81t80 53t101.5 18q55 1 103 -16t82 -52t51 -88.5t10 -126.5zM115 275
h367q-1 40 -15.5 71.5t-39 52.5t-57.5 32t-70 11q-75 0 -125 -43t-60 -124zM338 704l143 -133v-7h-71l-96 87l-96 -87h-71v7l144 133h47z" />
    <glyph glyph-name="edieresis" unicode="&#xeb;" horiz-adv-x="586" 
d="M545 218h-430q3 -39 19 -69.5t41 -51.5t57.5 -32t69.5 -11q22 0 46 4.5t46.5 13t42 21t32.5 29.5l45 -40q-37 -46 -95 -69t-117 -23q-55 0 -102 18t-81 51.5t-53.5 81t-19.5 106.5q0 55 19 102t52.5 81t80 53t101.5 18q55 1 103 -16t82 -52t51 -88.5t10 -126.5zM115 275
h367q-1 40 -15.5 71.5t-39 52.5t-57.5 32t-70 11q-75 0 -125 -43t-60 -124zM159 656q0 22 13.5 32.5t30 10.5t30.5 -10.5t14 -32.5t-14 -33t-30.5 -11t-30 11t-13.5 33zM382 656q0 22 13.5 32.5t30 10.5t30.5 -10.5t14 -32.5t-14 -33t-30.5 -11t-30 11t-13.5 33z" />
    <glyph glyph-name="igrave" unicode="&#xec;" horiz-adv-x="225" 
d="M83 580l-67 120v1h77l56 -117v-4h-66zM78 0v491h69v-491h-69z" />
    <glyph glyph-name="iacute" unicode="&#xed;" horiz-adv-x="225" 
d="M73 580v4l56 117h77v-1l-67 -120h-66zM78 0v491h69v-491h-69z" />
    <glyph glyph-name="icircumflex" unicode="&#xee;" horiz-adv-x="225" 
d="M95 702h31l102 -122v-7h-62l-57 69l-58 -69h-59v6zM78 0v491h69v-491h-69z" />
    <glyph glyph-name="idieresis" unicode="&#xef;" horiz-adv-x="225" 
d="M146 658q0 21 13.5 32t30 11t30.5 -11t14 -32t-14 -32t-30.5 -11t-30 11t-13.5 32zM-3 658q0 21 13.5 32t30 11t30.5 -11t14 -32t-14 -32t-30.5 -11t-30 11t-13.5 32zM78 0v491h69v-491h-69z" />
    <glyph glyph-name="eth" unicode="&#xf0;" horiz-adv-x="605" 
d="M301 51q46 0 81 16t58.5 42.5t35 60.5t11.5 69t-11.5 68.5t-35 60t-58.5 42.5t-81 16t-80.5 -16t-58 -42.5t-35 -60t-11.5 -68.5t11.5 -69t35 -60.5t58 -42.5t80.5 -16zM287 485q42 1 87.5 -12t89.5 -54q-7 24 -21 46.5t-32 43.5t-39.5 39t-42.5 32l-39 -54l-39 26l37 52
q-23 14 -48.5 23.5t-49.5 14.5l16 57q70 -20 120 -46l46 63l39 -27l-44 -60q51 -36 86.5 -78t58 -89.5t33 -100t10.5 -109.5q1 -58 -16.5 -106t-50.5 -83t-80 -54.5t-107 -19.5q-64 0 -111.5 21.5t-79 56.5t-47.5 79.5t-16 91.5q0 45 15 88.5t45 78t75 56.5t105 24z" />
    <glyph glyph-name="ntilde" unicode="&#xf1;" horiz-adv-x="608" 
d="M468 0v277q0 80 -43 121t-118 41q-36 0 -66 -13.5t-51 -36.5t-33 -53.5t-12 -66.5v-269h-67v494h64l2 -83q31 48 76 69.5t94.5 21.5t90 -14t69.5 -42.5t45.5 -70.5t16.5 -97v-278h-68zM172.879 644.979q7.96777 36.2393 35.3574 53.4287q27.3887 17.1904 62.248 10.6855
q14.9395 -2.78711 33.3652 -12.0791t36.3525 -14.8672q17.9277 -5.5752 32.8672 -1.8584t22.9072 27.876l44.8193 -16.7256q-7.96777 -40.8848 -36.3535 -55.752q-28.3848 -14.8672 -59.2598 -8.36328q-16.9316 4.64648 -35.8555 13.9385q-18.9229 9.29199 -36.3525 13.9385
q-17.4297 4.64551 -32.3691 0.463867q-14.9395 -4.18066 -22.9072 -27.4111z" />
    <glyph glyph-name="ograve" unicode="&#xf2;" horiz-adv-x="600" 
d="M300 501q54 0 100.5 -18.5t80.5 -52.5t53.5 -81.5t19.5 -104.5t-19 -104t-53 -80.5t-80.5 -51.5t-101.5 -18q-54 0 -100.5 18t-80.5 51.5t-53.5 80.5t-19.5 104t19 104.5t52.5 81.5t80 52.5t102.5 18.5zM300 440q-41 0 -75.5 -14.5t-59.5 -40.5t-38.5 -62t-13.5 -79
t14 -78.5t38.5 -60.5t59 -38.5t75.5 -13.5q42 0 76 13.5t59 38.5t38.5 60.5t13.5 78.5t-14 79t-38.5 62t-59 40.5t-75.5 14.5zM198 700.398h82l74 -119.996v-3.87109h-63l-93 121.932v1.93555z" />
    <glyph glyph-name="oacute" unicode="&#xf3;" horiz-adv-x="600" 
d="M300 501q54 0 100.5 -18.5t80.5 -52.5t53.5 -81.5t19.5 -104.5t-19 -104t-53 -80.5t-80.5 -51.5t-101.5 -18q-54 0 -100.5 18t-80.5 51.5t-53.5 80.5t-19.5 104t19 104.5t52.5 81.5t80 52.5t102.5 18.5zM300 440q-41 0 -75.5 -14.5t-59.5 -40.5t-38.5 -62t-13.5 -79
t14 -78.5t38.5 -60.5t59 -38.5t75.5 -13.5q42 0 76 13.5t59 38.5t38.5 60.5t13.5 78.5t-14 79t-38.5 62t-59 40.5t-75.5 14.5zM409.466 698.969l-90.6436 -117.871h-58.8223v3.74219l72.3223 116h77.1436v-1.87109z" />
    <glyph glyph-name="ocircumflex" unicode="&#xf4;" horiz-adv-x="600" 
d="M300 501q54 0 100.5 -18.5t80.5 -52.5t53.5 -81.5t19.5 -104.5t-19 -104t-53 -80.5t-80.5 -51.5t-101.5 -18q-54 0 -100.5 18t-80.5 51.5t-53.5 80.5t-19.5 104t19 104.5t52.5 81.5t80 52.5t102.5 18.5zM300 440q-41 0 -75.5 -14.5t-59.5 -40.5t-38.5 -62t-13.5 -79
t14 -78.5t38.5 -60.5t59 -38.5t75.5 -13.5q42 0 76 13.5t59 38.5t38.5 60.5t13.5 78.5t-14 79t-38.5 62t-59 40.5t-75.5 14.5zM331 708l143 -133v-7h-71l-96 87l-96 -87h-71v7l144 133h47z" />
    <glyph glyph-name="otilde" unicode="&#xf5;" horiz-adv-x="600" 
d="M300 501q54 0 100.5 -18.5t80.5 -52.5t53.5 -81.5t19.5 -104.5t-19 -104t-53 -80.5t-80.5 -51.5t-101.5 -18q-54 0 -100.5 18t-80.5 51.5t-53.5 80.5t-19.5 104t19 104.5t52.5 81.5t80 52.5t102.5 18.5zM300 440q-41 0 -75.5 -14.5t-59.5 -40.5t-38.5 -62t-13.5 -79
t14 -78.5t38.5 -60.5t59 -38.5t75.5 -13.5q42 0 76 13.5t59 38.5t38.5 60.5t13.5 78.5t-14 79t-38.5 62t-59 40.5t-75.5 14.5zM170.121 641.99q8.03223 37.6191 35.6426 55.4639q27.6113 17.8447 62.752 11.0928q15.0605 -2.89355 33.6348 -12.5391
q18.5742 -9.64648 36.6475 -15.4336q18.0723 -5.78809 33.1328 -1.92969t23.0928 28.9375l45.1807 -17.3623q-8.03223 -42.4424 -36.6465 -57.876q-28.6152 -15.4336 -59.7402 -8.68164q-17.0684 4.82324 -36.1445 14.4688q-19.0771 9.64648 -36.6475 14.4697
t-32.6309 0.482422t-23.0928 -28.4561z" />
    <glyph glyph-name="odieresis" unicode="&#xf6;" horiz-adv-x="600" 
d="M300 501q54 0 100.5 -18.5t80.5 -52.5t53.5 -81.5t19.5 -104.5t-19 -104t-53 -80.5t-80.5 -51.5t-101.5 -18q-54 0 -100.5 18t-80.5 51.5t-53.5 80.5t-19.5 104t19 104.5t52.5 81.5t80 52.5t102.5 18.5zM300 440q-41 0 -75.5 -14.5t-59.5 -40.5t-38.5 -62t-13.5 -79
t14 -78.5t38.5 -60.5t59 -38.5t75.5 -13.5q42 0 76 13.5t59 38.5t38.5 60.5t13.5 78.5t-14 79t-38.5 62t-59 40.5t-75.5 14.5zM150 657q0 22 13.5 32.5t30 10.5t30.5 -10.5t14 -32.5t-14 -33t-30.5 -11t-30 11t-13.5 33zM373 657q0 22 13.5 32.5t30 10.5t30.5 -10.5
t14 -32.5t-14 -33t-30.5 -11t-30 11t-13.5 33z" />
    <glyph glyph-name="divide" unicode="&#xf7;" horiz-adv-x="559" 
d="M75 361h409v-61h-409v61zM234 168q0 24 14.5 35.5t32.5 11.5t32.5 -11.5t14.5 -35.5q0 -23 -14.5 -35t-32.5 -12t-32.5 12t-14.5 35zM234 490q0 23 14.5 34.5t32.5 11.5t32.5 -11.5t14.5 -34.5t-14.5 -35t-32.5 -12t-32.5 12t-14.5 35z" />
    <glyph glyph-name="oslash" unicode="&#xf8;" horiz-adv-x="597" 
d="M154 -57h-66l356 599h67zM299 501q54 0 100.5 -18.5t80.5 -52.5t53.5 -81.5t19.5 -104.5t-19 -104t-53 -80.5t-80.5 -51.5t-101.5 -18q-54 0 -100.5 18t-80.5 51.5t-53.5 80.5t-19.5 104t19 104.5t52.5 81.5t80 52.5t102.5 18.5zM299 440q-41 0 -75.5 -14.5t-59.5 -40.5
t-38.5 -62t-13.5 -79t14 -78.5t38.5 -60.5t59 -38.5t75.5 -13.5q42 0 76 13.5t59 38.5t38.5 60.5t13.5 78.5t-14 79t-38.5 62t-59 40.5t-75.5 14.5z" />
    <glyph glyph-name="ugrave" unicode="&#xf9;" horiz-adv-x="606" 
d="M138 494v-277q0 -78 43.5 -120t118.5 -41q36 0 65.5 13t51 36t33.5 53.5t12 66.5v269h66v-494h-62l-2 83q-31 -48 -77 -70t-98 -23q-48 0 -88 16t-69 45t-45 70.5t-16 94.5v278h67zM199 700h82l74 -124v-4h-63l-93 126v2z" />
    <glyph glyph-name="uacute" unicode="&#xfa;" horiz-adv-x="606" 
d="M138 494v-277q0 -78 43.5 -120t118.5 -41q36 0 65.5 13t51 36t33.5 53.5t12 66.5v269h66v-494h-62l-2 83q-31 -48 -77 -70t-98 -23q-48 0 -88 16t-69 45t-45 70.5t-16 94.5v278h67zM411 698l-94 -126h-61v4l75 124h80v-2z" />
    <glyph glyph-name="ucircumflex" unicode="&#xfb;" horiz-adv-x="606" 
d="M138 494v-277q0 -78 43.5 -120t118.5 -41q36 0 65.5 13t51 36t33.5 53.5t12 66.5v269h66v-494h-62l-2 83q-31 -48 -77 -70t-98 -23q-48 0 -88 16t-69 45t-45 70.5t-16 94.5v278h67zM330.433 703.691l138.147 -128.219v-6.74805h-68.5908l-92.7422 83.8721
l-92.7422 -83.8721h-68.5908v6.74805l139.113 128.219h45.4053z" />
    <glyph glyph-name="udieresis" unicode="&#xfc;" horiz-adv-x="606" 
d="M138 494v-277q0 -78 43.5 -120t118.5 -41q36 0 65.5 13t51 36t33.5 53.5t12 66.5v269h66v-494h-62l-2 83q-31 -48 -77 -70t-98 -23q-48 0 -88 16t-69 45t-45 70.5t-16 94.5v278h67zM154 656q0 22 13.5 32.5t30 10.5t30.5 -10.5t14 -32.5t-14 -33t-30.5 -11t-30 11
t-13.5 33zM377 656q0 22 13.5 32.5t30 10.5t30.5 -10.5t14 -32.5t-14 -33t-30.5 -11t-30 11t-13.5 33z" />
    <glyph glyph-name="yacute" unicode="&#xfd;" horiz-adv-x="544" 
d="M515 494l-313 -730h-73l104 242l-198 488h75l105 -273l55 -142l56 142l115 273h74zM377.545 698.593l-88.6289 -118.887h-57.5156v3.77441l70.7148 116.999h75.4297v-1.88672z" />
    <glyph glyph-name="thorn" unicode="&#xfe;" horiz-adv-x="636" 
d="M335 55q39 0 72.5 12t59 36t40 60t14.5 84q0 47 -14.5 82.5t-40 59.5t-59 36t-72.5 12q-40 0 -74 -14.5t-58.5 -40t-38.5 -60.5t-14 -76t14.5 -76t39 -60.5t58.5 -40t73 -14.5zM78 -206v905h65l1 -310q29 52 83 82.5t119 30.5q51 -2 95.5 -19t77 -49.5t51.5 -79.5
t19 -107q0 -63 -19.5 -111t-53.5 -80.5t-80 -49t-98 -16.5q-57 0 -110 27.5t-84 84.5v-308h-66z" />
    <glyph glyph-name="ydieresis" unicode="&#xff;" horiz-adv-x="544" 
d="M515 494l-313 -730h-73l104 242l-198 488h75l105 -273l55 -142l56 142l115 273h74zM128.989 661.68q0 20.9414 12.8545 30.9365q12.8555 9.99512 28.5664 9.99512q15.7119 0 29.043 -9.99512q13.3301 -9.99512 13.3301 -30.9365t-13.3301 -31.4131
q-13.3311 -10.4707 -29.043 -10.4707q-15.7109 0 -28.5664 10.4707q-12.8545 10.4717 -12.8545 31.4131zM341.332 661.68q0 20.9414 12.8545 30.9365q12.8555 9.99512 28.5664 9.99512q15.7119 0 29.042 -9.99512q13.3311 -9.99512 13.3311 -30.9365t-13.3311 -31.4131
q-13.3301 -10.4707 -29.042 -10.4707q-15.7109 0 -28.5664 10.4707q-12.8545 10.4717 -12.8545 31.4131z" />
    <glyph glyph-name="Amacron" unicode="&#x100;" horiz-adv-x="740" 
d="M573 162h-406l-72 -162h-74l314 700h70l314 -700h-74zM195 226h350l-175 398zM215.953 835.297h305.997v-57.998h-305.997v57.998z" />
    <glyph glyph-name="amacron" unicode="&#x101;" horiz-adv-x="634" 
d="M493 396v98h63v-494h-62v98q-16 -27 -38.5 -47.5t-48 -34t-53.5 -20t-56 -6.5q-53 0 -98.5 18t-80 51.5t-54 81t-19.5 106.5q0 58 20 105t54 80t80 51t99 18q28 0 57 -6.5t54.5 -19.5t47 -33t35.5 -46zM301 440q-39 0 -73.5 -14t-60 -39t-40 -61t-14.5 -79
q0 -44 14.5 -79.5t40 -61t60 -39.5t73.5 -14q64 0 106.5 28.5t63.5 71.5t21 93.5t-21 93.5t-63.5 71.5t-106.5 28.5zM169.093 676.363h298.003v-55h-298.003v55z" />
    <glyph glyph-name="Abreve" unicode="&#x102;" horiz-adv-x="740" 
d="M573 162h-406l-72 -162h-74l314 700h70l314 -700h-74zM195 226h350l-175 398zM506.739 893.17q2.05957 -60.1348 -35.5254 -91.6348q-37.585 -31.499 -101.429 -31.499q-61.7832 0 -99.3682 31.9766t-35.5254 91.1572h55.6055q0 -13.3633 3.60352 -26.249
q3.60449 -12.8867 12.3574 -23.3857q8.75195 -10.5 24.1982 -17.1816q15.4453 -6.68164 39.1289 -6.68164q44.2783 0 61.7842 22.9082q17.5049 22.9092 17.5049 50.5898h57.665z" />
    <glyph glyph-name="abreve" unicode="&#x103;" horiz-adv-x="634" 
d="M493 396v98h63v-494h-62v98q-16 -27 -38.5 -47.5t-48 -34t-53.5 -20t-56 -6.5q-53 0 -98.5 18t-80 51.5t-54 81t-19.5 106.5q0 58 20 105t54 80t80 51t99 18q28 0 57 -6.5t54.5 -19.5t47 -33t35.5 -46zM301 440q-39 0 -73.5 -14t-60 -39t-40 -61t-14.5 -79
q0 -44 14.5 -79.5t40 -61t60 -39.5t73.5 -14q64 0 106.5 28.5t63.5 71.5t21 93.5t-21 93.5t-63.5 71.5t-106.5 28.5zM454 700q2 -63 -34.5 -96t-98.5 -33q-60 0 -96.5 33.5t-34.5 95.5h54q0 -14 3.5 -27.5t12 -24.5t23.5 -18t38 -7q43 0 60 24t17 53h56z" />
    <glyph glyph-name="Aogonek" unicode="&#x104;" horiz-adv-x="745" 
d="M697 48l22 -48q-18 1 -38 1t-37 -2q-34 -6 -51 -24t-17 -37t16.5 -34t49.5 -13q20 1 41.5 11.5t35.5 31.5l40 -25q-17 -32 -48.5 -48t-64.5 -20q-39 -4 -66 7t-41.5 31t-16.5 45t9 48t35.5 41t62.5 24l-5 11h73zM573 162h-406l-72 -162h-74l314 700h70l314 -700h-74z
M195 226h350l-175 398z" />
    <glyph glyph-name="aogonek" unicode="&#x105;" horiz-adv-x="634" 
d="M556 15v-50q-42 4 -67 -9.5t-32.5 -31.5t2 -35.5t38.5 -21.5q9 -2 20.5 -1.5t23.5 4.5t24.5 12t22.5 21l39 -25q-16 -32 -47.5 -49t-65.5 -19q-45 -2 -76 15.5t-41 47.5q-6 17 -4.5 36.5t13 37.5t32.5 32.5t56 21.5v14h62zM493 396v98h63v-494h-62v98
q-16 -27 -38.5 -47.5t-48 -34t-53.5 -20t-56 -6.5q-53 0 -98.5 18t-80 51.5t-54 81t-19.5 106.5q0 58 20 105t54 80t80 51t99 18q28 0 57 -6.5t54.5 -19.5t47 -33t35.5 -46zM301 440q-39 0 -73.5 -14t-60 -39t-40 -61t-14.5 -79q0 -44 14.5 -79.5t40 -61t60 -39.5t73.5 -14
q64 0 106.5 28.5t63.5 71.5t21 93.5t-21 93.5t-63.5 71.5t-106.5 28.5z" />
    <glyph glyph-name="Cacute" unicode="&#x106;" horiz-adv-x="709" 
d="M672 95q-54 -54 -119 -80t-136 -26q-91 0 -159 28.5t-113.5 77t-68.5 113.5t-23 138q0 72 22.5 137.5t68 116t114 80.5t159.5 30q70 0 136 -25.5t112 -79.5l-43 -43q-43 42 -95.5 63t-109.5 21q-73 0 -128 -25t-92 -66.5t-55.5 -95.5t-18.5 -112q0 -62 18.5 -115
t55.5 -93t92 -62.5t128 -22.5q57 0 112.5 22t97.5 64zM511.853 898.216l-89.3018 -119.901h-57.9502v3.80664l71.251 117.998h76.001v-1.90332z" />
    <glyph glyph-name="cacute" unicode="&#x107;" horiz-adv-x="516" 
d="M485 65q-39 -38 -85.5 -56.5t-97.5 -18.5q-53 0 -99.5 17t-81 50t-55 81t-20.5 108q0 61 20 108t54.5 80t81 50t100.5 17q50 0 93.5 -17.5t81.5 -55.5l-44 -43q-28 27 -61 40t-69 13q-39 0 -74 -13t-60.5 -37.5t-40.5 -60t-15 -81.5q0 -47 15 -83t41 -60t60 -36.5
t73 -12.5q38 0 73.5 14t63.5 42zM385.479 698.75l-78.8369 -110.25h-51.1592v3.5l62.9014 108.5h67.0947v-1.75z" />
    <glyph glyph-name="Ccircumflex" unicode="&#x108;" horiz-adv-x="709" 
d="M672 95q-54 -54 -119 -80t-136 -26q-91 0 -159 28.5t-113.5 77t-68.5 113.5t-23 138q0 72 22.5 137.5t68 116t114 80.5t159.5 30q70 0 136 -25.5t112 -79.5l-43 -43q-43 42 -95.5 63t-109.5 21q-73 0 -128 -25t-92 -66.5t-55.5 -95.5t-18.5 -112q0 -62 18.5 -115
t55.5 -93t92 -62.5t128 -22.5q57 0 112.5 22t97.5 64zM439.433 917.691l138.147 -128.219v-6.74805h-68.5908l-92.7422 83.8721l-92.7422 -83.8721h-68.5908v6.74805l139.113 128.219h45.4053z" />
    <glyph glyph-name="ccircumflex" unicode="&#x109;" horiz-adv-x="516" 
d="M485 65q-39 -38 -85.5 -56.5t-97.5 -18.5q-53 0 -99.5 17t-81 50t-55 81t-20.5 108q0 61 20 108t54.5 80t81 50t100.5 17q50 0 93.5 -17.5t81.5 -55.5l-44 -43q-28 27 -61 40t-69 13q-39 0 -74 -13t-60.5 -37.5t-40.5 -60t-15 -81.5q0 -47 15 -83t41 -60t60 -36.5
t73 -12.5q38 0 73.5 14t63.5 42zM315.631 702.727l129.297 -123.502v-6.5h-64.1963l-86.8008 80.7871l-86.8008 -80.7871h-64.1963v6.5l130.201 123.502h42.4961z" />
    <glyph glyph-name="Cdotaccent" unicode="&#x10a;" horiz-adv-x="709" 
d="M672 95q-54 -54 -119 -80t-136 -26q-91 0 -159 28.5t-113.5 77t-68.5 113.5t-23 138q0 72 22.5 137.5t68 116t114 80.5t159.5 30q70 0 136 -25.5t112 -79.5l-43 -43q-43 42 -95.5 63t-109.5 21q-73 0 -128 -25t-92 -66.5t-55.5 -95.5t-18.5 -112q0 -62 18.5 -115
t55.5 -93t92 -62.5t128 -22.5q57 0 112.5 22t97.5 64zM363.263 823q0 24 16.4209 35.5t35.5781 11.5q19.1582 0 35.5791 -11.5t16.4209 -35.5t-16.4209 -35.5t-35.5791 -11.5q-19.1572 0 -35.5781 11.5t-16.4209 35.5z" />
    <glyph glyph-name="cdotaccent" unicode="&#x10b;" horiz-adv-x="516" 
d="M485 65q-39 -38 -85.5 -56.5t-97.5 -18.5q-53 0 -99.5 17t-81 50t-55 81t-20.5 108q0 61 20 108t54.5 80t81 50t100.5 17q50 0 93.5 -17.5t81.5 -55.5l-44 -43q-28 27 -61 40t-69 13q-39 0 -74 -13t-60.5 -37.5t-40.5 -60t-15 -81.5q0 -47 15 -83t41 -60t60 -36.5
t73 -12.5q38 0 73.5 14t63.5 42zM252.58 647.685q0 21.334 14.5264 31.5566q14.5273 10.2227 31.4746 10.2227q16.9482 0 31.4746 -10.2227t14.5264 -31.5566t-14.5264 -31.5566t-31.4746 -10.2227q-16.9473 0 -31.4746 10.2227q-14.5264 10.2227 -14.5264 31.5566z" />
    <glyph glyph-name="Ccaron" unicode="&#x10c;" horiz-adv-x="709" 
d="M672 95q-54 -54 -119 -80t-136 -26q-91 0 -159 28.5t-113.5 77t-68.5 113.5t-23 138q0 72 22.5 137.5t68 116t114 80.5t159.5 30q70 0 136 -25.5t112 -79.5l-43 -43q-43 42 -95.5 63t-109.5 21q-73 0 -128 -25t-92 -66.5t-55.5 -95.5t-18.5 -112q0 -62 18.5 -115
t55.5 -93t92 -62.5t128 -22.5q57 0 112.5 22t97.5 64zM256.8 906.556h65.96l89.1855 -81.667l91.043 81.667h65.0312v-6.49609l-134.707 -124.357h-43.6641l-132.849 124.357v6.49609z" />
    <glyph glyph-name="ccaron" unicode="&#x10d;" horiz-adv-x="516" 
d="M485 65q-39 -38 -85.5 -56.5t-97.5 -18.5q-53 0 -99.5 17t-81 50t-55 81t-20.5 108q0 61 20 108t54.5 80t81 50t100.5 17q50 0 93.5 -17.5t81.5 -55.5l-44 -43q-28 27 -61 40t-69 13q-39 0 -74 -13t-60.5 -37.5t-40.5 -60t-15 -81.5q0 -47 15 -83t41 -60t60 -36.5
t73 -12.5q38 0 73.5 14t63.5 42zM143.417 700.507h65.085l88.002 -81.0332l89.8359 81.0332h64.168v-6.44531l-132.92 -123.393h-43.084l-131.087 123.393v6.44531z" />
    <glyph glyph-name="Dcaron" unicode="&#x10e;" horiz-adv-x="748" 
d="M344 700q89 0 155 -29.5t109.5 -77.5t65 -109.5t21.5 -126.5q0 -66 -20.5 -130.5t-63 -114.5t-109 -81t-158.5 -31h-247v700h247zM167 65h177q73 0 126.5 26t88 67.5t50.5 94t15 105.5q-1 51 -18.5 100.5t-52 88.5t-86.5 63t-123 24h-177v-569zM164.66 906.751h67.9316
l91.8516 -84.2031l93.7656 84.2031h66.9746v-6.69824l-138.733 -128.218h-44.9697l-136.82 128.218v6.69824z" />
    <glyph glyph-name="dcaron" unicode="&#x10f;" horiz-adv-x="662" 
d="M300 438q-39 0 -72.5 -12.5t-59 -36.5t-40 -60t-14.5 -83t14.5 -82.5t40 -60t59 -37t72.5 -12.5q40 0 74 14t59 39.5t39.5 61t14.5 78.5q0 42 -14.5 77.5t-39.5 60.5t-59.5 39t-73.5 14zM557 699v-699h-65l-2 98q-30 -54 -82.5 -81t-111.5 -27q-53 0 -98 17t-79 49.5
t-53 80t-19 109.5t19 109.5t53 80t79 49.5t98 16q58 1 112 -25t82 -81v304h67zM642.526 701.039h65.292l-55.5859 -161.343h-50.293z" />
    <glyph glyph-name="Dcroat" unicode="&#x110;" horiz-adv-x="754" 
d="M22 318v55h323v-55h-323zM349 700q89 0 155 -29.5t109.5 -77.5t65 -109.5t21.5 -126.5q0 -66 -20.5 -130.5t-63 -114.5t-109 -81t-158.5 -31h-247v700h247zM172 65h177q73 0 126.5 26t88 67.5t50.5 94t15 105.5q-1 51 -18.5 100.5t-52 88.5t-86.5 63t-123 24h-177v-569z
" />
    <glyph glyph-name="dcroat" unicode="&#x111;" horiz-adv-x="635" 
d="M382 578v51h248v-51h-248zM300 438q-39 0 -72.5 -12.5t-59 -36.5t-40 -60t-14.5 -83t14.5 -82.5t40 -60t59 -37t72.5 -12.5q40 0 74 14t59 39.5t39.5 61t14.5 78.5q0 42 -14.5 77.5t-39.5 60.5t-59.5 39t-73.5 14zM557 699v-699h-65l-2 98q-30 -54 -82.5 -81t-111.5 -27
q-53 0 -98 17t-79 49.5t-53 80t-19 109.5t19 109.5t53 80t79 49.5t98 16q58 1 112 -25t82 -81v304h67z" />
    <glyph glyph-name="Emacron" unicode="&#x112;" horiz-adv-x="655" 
d="M599 0h-502v700h493v-66h-423v-251h404v-65h-404v-252h432v-66zM208.83 844h276.996v-57h-276.996v57z" />
    <glyph glyph-name="emacron" unicode="&#x113;" horiz-adv-x="586" 
d="M545 218h-430q3 -39 19 -69.5t41 -51.5t57.5 -32t69.5 -11q22 0 46 4.5t46.5 13t42 21t32.5 29.5l45 -40q-37 -46 -95 -69t-117 -23q-55 0 -102 18t-81 51.5t-53.5 81t-19.5 106.5q0 55 19 102t52.5 81t80 53t101.5 18q55 1 103 -16t82 -52t51 -88.5t10 -126.5zM115 275
h367q-1 40 -15.5 71.5t-39 52.5t-57.5 32t-70 11q-75 0 -125 -43t-60 -124zM163.262 675.066h281.003v-54.001h-281.003v54.001z" />
    <glyph glyph-name="Ebreve" unicode="&#x114;" horiz-adv-x="655" 
d="M599 0h-502v700h493v-66h-423v-251h404v-65h-404v-252h432v-66zM492.928 899.106q2.07422 -61.5693 -35.7822 -93.8203t-102.161 -32.251q-62.2305 0 -100.087 32.7393t-35.7822 93.332h56.0068q0 -13.6826 3.62988 -26.876q3.63086 -13.1934 12.4463 -23.9434
q8.81641 -10.75 24.374 -17.5918q15.5576 -6.84082 39.4121 -6.84082q44.5986 0 62.2305 23.4551t17.6318 51.7969h58.0811z" />
    <glyph glyph-name="ebreve" unicode="&#x115;" horiz-adv-x="586" 
d="M545 218h-430q3 -39 19 -69.5t41 -51.5t57.5 -32t69.5 -11q22 0 46 4.5t46.5 13t42 21t32.5 29.5l45 -40q-37 -46 -95 -69t-117 -23q-55 0 -102 18t-81 51.5t-53.5 81t-19.5 106.5q0 55 19 102t52.5 81t80 53t101.5 18q55 1 103 -16t82 -52t51 -88.5t10 -126.5zM115 275
h367q-1 40 -15.5 71.5t-39 52.5t-57.5 32t-70 11q-75 0 -125 -43t-60 -124zM436 699.809q2 -61.0928 -34.5 -93.0938t-98.5 -32.001q-60 0 -96.5 32.4854q-36.5 32.4863 -34.5 92.6094h54q0 -13.5762 3.5 -26.668q3.5 -13.0908 12 -23.7578t23.5 -17.4551t38 -6.78809
q43 0 60 23.2734t17 51.3955h56z" />
    <glyph glyph-name="Edotaccent" unicode="&#x116;" horiz-adv-x="655" 
d="M599 0h-502v700h493v-66h-423v-251h404v-65h-404v-252h432v-66zM305 812q0 24 15 35.5t32.5 11.5t32.5 -11.5t15 -35.5t-15 -35.5t-32.5 -11.5t-32.5 11.5t-15 35.5z" />
    <glyph glyph-name="edotaccent" unicode="&#x117;" horiz-adv-x="586" 
d="M545 218h-430q3 -39 19 -69.5t41 -51.5t57.5 -32t69.5 -11q22 0 46 4.5t46.5 13t42 21t32.5 29.5l45 -40q-37 -46 -95 -69t-117 -23q-55 0 -102 18t-81 51.5t-53.5 81t-19.5 106.5q0 55 19 102t52.5 81t80 53t101.5 18q55 1 103 -16t82 -52t51 -88.5t10 -126.5zM115 275
h367q-1 40 -15.5 71.5t-39 52.5t-57.5 32t-70 11q-75 0 -125 -43t-60 -124zM260 660q0 24 15 35.5t32.5 11.5t32.5 -11.5t15 -35.5t-15 -35.5t-32.5 -11.5t-32.5 11.5t-15 35.5z" />
    <glyph glyph-name="Eogonek" unicode="&#x118;" horiz-adv-x="655" 
d="M599 12v-12q-44 2 -71 -6.5t-40.5 -22t-15 -28.5t4.5 -27q7 -12 20 -19.5t30 -8t35.5 7t36.5 25.5l36 -37q-21 -28 -52.5 -40.5t-63.5 -11.5t-58.5 15.5t-38.5 41.5q-5 10 -7 24.5t2 30t15 30.5t33 26zM599 0h-502v700h493v-66h-423v-251h404v-65h-404v-252h432v-66z" />
    <glyph glyph-name="eogonek" unicode="&#x119;" horiz-adv-x="587" 
d="M405 9q-15 -6 -22.5 -17t-9 -23t2 -23.5t11.5 -18.5q14 -13 32 -16.5t35 1t32 15t24 24.5l40 -25q-15 -28 -41 -45.5t-55.5 -23t-58.5 1t-49 26.5q-22 22 -25 53t23 57zM545 218h-430q3 -39 19 -69.5t41 -51.5t57.5 -32t69.5 -11q22 0 46 4.5t46.5 13t42 21t32.5 29.5
l45 -40q-37 -46 -95 -69t-117 -23q-55 0 -102 18t-81 51.5t-53.5 81t-19.5 106.5q0 55 19 102t52.5 81t80 53t101.5 18q55 1 103 -16t82 -52t51 -88.5t10 -126.5zM115 275h367q-1 40 -15.5 71.5t-39 52.5t-57.5 32t-70 11q-75 0 -125 -43t-60 -124z" />
    <glyph glyph-name="Ecaron" unicode="&#x11a;" horiz-adv-x="655" 
d="M599 0h-502v700h493v-66h-423v-251h404v-65h-404v-252h432v-66zM196.852 906.799h68.3691l92.4434 -84.8359l94.3691 84.8359h67.4072v-6.74805l-139.628 -129.183h-45.2588l-137.702 129.183v6.74805z" />
    <glyph glyph-name="ecaron" unicode="&#x11b;" horiz-adv-x="586" 
d="M545 218h-430q3 -39 19 -69.5t41 -51.5t57.5 -32t69.5 -11q22 0 46 4.5t46.5 13t42 21t32.5 29.5l45 -40q-37 -46 -95 -69t-117 -23q-55 0 -102 18t-81 51.5t-53.5 81t-19.5 106.5q0 55 19 102t52.5 81t80 53t101.5 18q55 1 103 -16t82 -52t51 -88.5t10 -126.5zM115 275
h367q-1 40 -15.5 71.5t-39 52.5t-57.5 32t-70 11q-75 0 -125 -43t-60 -124zM142.47 700.702h67.4941l91.2598 -83.5693l93.1611 83.5693h66.543v-6.64746l-137.84 -127.253h-44.6797l-135.938 127.253v6.64746z" />
    <glyph glyph-name="Gcircumflex" unicode="&#x11c;" horiz-adv-x="747" 
d="M631 562q-43 43 -100.5 63.5t-114.5 20.5q-72 0 -126.5 -24.5t-92 -66t-56 -95.5t-18.5 -113q0 -57 18 -109.5t55 -92.5t91.5 -63.5t128.5 -23.5q53 0 105 18.5t96 57.5v177h-229v65h296v-271q-54 -56 -120 -85.5t-148 -29.5q-92 0 -160 29t-113 78t-67.5 113.5
t-22.5 135.5q0 80 25.5 147.5t73 116t114.5 75.5t150 26q70 1 136.5 -25t120.5 -79zM437.669 915.621l136.376 -127.261v-6.69824h-67.7109l-91.5527 83.2461l-91.5527 -83.2461h-67.7109v6.69824l137.329 127.261h44.8223z" />
    <glyph glyph-name="gcircumflex" unicode="&#x11d;" horiz-adv-x="611" 
d="M504 524l46 -38l-53 -63q28 -31 47 -68t19 -96q0 -33 -9 -65t-27.5 -60t-46.5 -49.5t-66 -32.5q70 -19 108 -59.5t38 -102.5q0 -47 -21.5 -82t-56.5 -58.5t-81 -35.5t-95 -12q-53 0 -99 13.5t-79.5 40t-52.5 64.5t-19 86h67q0 -35 15 -61t40.5 -43.5t59 -26t68.5 -8.5
q34 0 67.5 7t59.5 21.5t42.5 38t16.5 56.5t-16 56.5t-42.5 39t-60 23t-67.5 7.5q-57 0 -104.5 16.5t-82 47.5t-53.5 76t-19 103q0 60 23 105.5t60 76t83 45.5t93 15q18 0 37.5 -2t39 -7t37.5 -12.5t32 -17.5zM306 439q-34 0 -68 -10.5t-61.5 -33t-44.5 -56.5t-17 -80t15 -80
t40.5 -56.5t60.5 -33.5t75 -11q43 0 78 14.5t60 39t38.5 57.5t13.5 70q0 46 -16 80t-42.5 56t-61 33t-70.5 11zM346.989 713.551l135.938 -126.303v-6.64746h-67.4941l-91.2598 82.6191l-91.2598 -82.6191h-67.4941v6.64746l136.89 126.303h44.6797z" />
    <glyph glyph-name="Gbreve" unicode="&#x11e;" horiz-adv-x="747" 
d="M631 562q-43 43 -100.5 63.5t-114.5 20.5q-72 0 -126.5 -24.5t-92 -66t-56 -95.5t-18.5 -113q0 -57 18 -109.5t55 -92.5t91.5 -63.5t128.5 -23.5q53 0 105 18.5t96 57.5v177h-229v65h296v-271q-54 -56 -120 -85.5t-148 -29.5q-92 0 -160 29t-113 78t-67.5 113.5
t-22.5 135.5q0 80 25.5 147.5t73 116t114.5 75.5t150 26q70 1 136.5 -25t120.5 -79zM549.333 898.455q2.01562 -58.9004 -34.7744 -89.7539q-36.7891 -30.8525 -99.2812 -30.8525q-60.4756 0 -97.2656 31.3203q-36.7891 31.3203 -34.7734 89.2861h54.4277
q0 -13.0889 3.52832 -25.71q3.52734 -12.6221 12.0947 -22.9062q8.56836 -10.2842 23.6865 -16.8291q15.1191 -6.54395 38.3018 -6.54395q43.3418 0 60.4766 22.4385t17.1348 49.5508h56.4443z" />
    <glyph glyph-name="gbreve" unicode="&#x11f;" horiz-adv-x="611" 
d="M504 524l46 -38l-53 -63q28 -31 47 -68t19 -96q0 -33 -9 -65t-27.5 -60t-46.5 -49.5t-66 -32.5q70 -19 108 -59.5t38 -102.5q0 -47 -21.5 -82t-56.5 -58.5t-81 -35.5t-95 -12q-53 0 -99 13.5t-79.5 40t-52.5 64.5t-19 86h67q0 -35 15 -61t40.5 -43.5t59 -26t68.5 -8.5
q34 0 67.5 7t59.5 21.5t42.5 38t16.5 56.5t-16 56.5t-42.5 39t-60 23t-67.5 7.5q-57 0 -104.5 16.5t-82 47.5t-53.5 76t-19 103q0 60 23 105.5t60 76t83 45.5t93 15q18 0 37.5 -2t39 -7t37.5 -12.5t32 -17.5zM306 439q-34 0 -68 -10.5t-61.5 -33t-44.5 -56.5t-17 -80t15 -80
t40.5 -56.5t60.5 -33.5t75 -11q43 0 78 14.5t60 39t38.5 57.5t13.5 70q0 46 -16 80t-42.5 56t-61 33t-70.5 11zM447 710q2 -63 -34.5 -96t-98.5 -33q-60 0 -96.5 33.5t-34.5 95.5h54q0 -14 3.5 -27.5t12 -24.5t23.5 -18t38 -7q43 0 60 24t17 53h56z" />
    <glyph glyph-name="Gdotaccent" unicode="&#x120;" horiz-adv-x="747" 
d="M631 562q-43 43 -100.5 63.5t-114.5 20.5q-72 0 -126.5 -24.5t-92 -66t-56 -95.5t-18.5 -113q0 -57 18 -109.5t55 -92.5t91.5 -63.5t128.5 -23.5q53 0 105 18.5t96 57.5v177h-229v65h296v-271q-54 -56 -120 -85.5t-148 -29.5q-92 0 -160 29t-113 78t-67.5 113.5
t-22.5 135.5q0 80 25.5 147.5t73 116t114.5 75.5t150 26q70 1 136.5 -25t120.5 -79zM363.14 819.621q0 23.0781 15.3799 34.1357t33.3232 11.0576t33.3232 -11.0576t15.3799 -34.1357q0 -23.0762 -15.3799 -34.1348q-15.3799 -11.0576 -33.3232 -11.0576t-33.3232 11.0576
q-15.3799 11.0586 -15.3799 34.1348z" />
    <glyph glyph-name="gdotaccent" unicode="&#x121;" horiz-adv-x="611" 
d="M504 524l46 -38l-53 -63q28 -31 47 -68t19 -96q0 -33 -9 -65t-27.5 -60t-46.5 -49.5t-66 -32.5q70 -19 108 -59.5t38 -102.5q0 -47 -21.5 -82t-56.5 -58.5t-81 -35.5t-95 -12q-53 0 -99 13.5t-79.5 40t-52.5 64.5t-19 86h67q0 -35 15 -61t40.5 -43.5t59 -26t68.5 -8.5
q34 0 67.5 7t59.5 21.5t42.5 38t16.5 56.5t-16 56.5t-42.5 39t-60 23t-67.5 7.5q-57 0 -104.5 16.5t-82 47.5t-53.5 76t-19 103q0 60 23 105.5t60 76t83 45.5t93 15q18 0 37.5 -2t39 -7t37.5 -12.5t32 -17.5zM306 439q-34 0 -68 -10.5t-61.5 -33t-44.5 -56.5t-17 -80t15 -80
t40.5 -56.5t60.5 -33.5t75 -11q43 0 78 14.5t60 39t38.5 57.5t13.5 70q0 46 -16 80t-42.5 56t-61 33t-70.5 11zM273.14 659.621q0 23.0781 15.3799 34.1357t33.3232 11.0576t33.3232 -11.0576t15.3799 -34.1357q0 -23.0762 -15.3799 -34.1348
q-15.3799 -11.0576 -33.3232 -11.0576t-33.3232 11.0576q-15.3799 11.0586 -15.3799 34.1348z" />
    <glyph glyph-name="Gcommaaccent" unicode="&#x122;" horiz-adv-x="747" 
d="M631 562q-43 43 -100.5 63.5t-114.5 20.5q-72 0 -126.5 -24.5t-92 -66t-56 -95.5t-18.5 -113q0 -57 18 -109.5t55 -92.5t91.5 -63.5t128.5 -23.5q53 0 105 18.5t96 57.5v177h-229v65h296v-271q-54 -56 -120 -85.5t-148 -29.5q-92 0 -160 29t-113 78t-67.5 113.5
t-22.5 135.5q0 80 25.5 147.5t73 116t114.5 75.5t150 26q70 1 136.5 -25t120.5 -79zM451 -126q0 -19 -13.5 -49.5t-29.5 -76.5h-50l28 87q-13 4 -21.5 13.5t-8.5 26.5q0 22 15 33.5t32.5 11.5t32.5 -11t15 -35z" />
    <glyph glyph-name="gcommaaccent" unicode="&#x123;" horiz-adv-x="611" 
d="M257 652q0 18 12.5 47t27.5 72h47l-26 -82q12 -4 20 -13t8 -25q0 -20 -14 -31t-30.5 -11t-30.5 10.5t-14 32.5zM504 524l46 -38l-53 -63q28 -31 47 -68t19 -96q0 -33 -9 -65t-27.5 -60t-46.5 -49.5t-66 -32.5q70 -19 108 -59.5t38 -102.5q0 -47 -21.5 -82t-56.5 -58.5
t-81 -35.5t-95 -12q-53 0 -99 13.5t-79.5 40t-52.5 64.5t-19 86h67q0 -35 15 -61t40.5 -43.5t59 -26t68.5 -8.5q34 0 67.5 7t59.5 21.5t42.5 38t16.5 56.5t-16 56.5t-42.5 39t-60 23t-67.5 7.5q-57 0 -104.5 16.5t-82 47.5t-53.5 76t-19 103q0 60 23 105.5t60 76t83 45.5
t93 15q18 0 37.5 -2t39 -7t37.5 -12.5t32 -17.5zM306 439q-34 0 -68 -10.5t-61.5 -33t-44.5 -56.5t-17 -80t15 -80t40.5 -56.5t60.5 -33.5t75 -11q43 0 78 14.5t60 39t38.5 57.5t13.5 70q0 46 -16 80t-42.5 56t-61 33t-70.5 11z" />
    <glyph glyph-name="Hcircumflex" unicode="&#x124;" horiz-adv-x="758" 
d="M591 0v310h-424v-310h-70v700h70v-324h424v324h70v-700h-70zM398.807 909.789l139.029 -130.126v-6.84863h-69.0283l-93.334 85.1201l-93.334 -85.1201h-69.0283v6.84863l140.001 130.126h45.6943z" />
    <glyph glyph-name="hcircumflex" unicode="&#x125;" horiz-adv-x="594" 
d="M144 700v-292q31 51 76.5 71.5t95.5 21.5q52 0 90.5 -16.5t64 -46t38.5 -70.5t13 -91v-277h-67v277q0 75 -36 117.5t-111 42.5q-36 0 -66 -13t-51.5 -36.5t-33.5 -54.5t-12 -67v-266h-67v700h66zM315.058 901.691l137.266 -128.219v-6.74805h-68.1523l-92.1504 83.8721
l-92.1504 -83.8721h-68.1533v6.74805l138.226 128.219h45.1152z" />
    <glyph glyph-name="Hbar" unicode="&#x126;" horiz-adv-x="773" 
d="M31 579h712v-51h-712v51zM597 0v310h-424v-310h-70v700h70v-324h424v324h70v-700h-70z" />
    <glyph glyph-name="hbar" unicode="&#x127;" horiz-adv-x="594" 
d="M14 572v52h252v-52h-252zM144 700v-292q31 51 76.5 71.5t95.5 21.5q52 0 90.5 -16.5t64 -46t38.5 -70.5t13 -91v-277h-67v277q0 75 -36 117.5t-111 42.5q-36 0 -66 -13t-51.5 -36.5t-33.5 -54.5t-12 -67v-266h-67v700h66z" />
    <glyph glyph-name="Itilde" unicode="&#x128;" horiz-adv-x="264" 
d="M97 0v700h70v-700h-70zM1.27539 803.742q7.80664 37.9648 34.6416 55.9736t60.9893 11.1943q14.6377 -2.91992 32.6904 -12.6543t35.6182 -15.5752q17.5645 -5.84082 32.2021 -1.94727t22.4443 29.2031l43.9121 -17.5215q-7.80664 -42.832 -35.6182 -58.4072
t-58.0615 -8.76074q-16.5898 4.86719 -35.1299 14.6016q-18.541 9.73438 -35.6182 14.6016t-31.7148 0.487305q-14.6367 -4.38086 -22.4434 -28.7168z" />
    <glyph glyph-name="itilde" unicode="&#x129;" horiz-adv-x="225" 
d="M78 0v491h69v-491h-69zM4.20117 652.482q6.45312 37.5283 28.6377 55.3311q22.1846 17.8018 50.4189 11.0664q12.1006 -2.8877 27.0244 -12.5098q14.9238 -9.62305 29.4443 -15.3965q14.5215 -5.77441 26.6211 -1.9248q12.1006 3.84961 18.5547 28.8682l36.3018 -17.3213
q-6.4541 -42.3398 -29.4453 -57.7363q-22.9902 -15.3965 -47.998 -8.66016q-13.7139 4.81055 -29.042 14.4336q-15.3271 9.62305 -29.4443 14.4346t-26.2178 0.481445q-12.1006 -4.33105 -18.5537 -28.3877z" />
    <glyph glyph-name="Imacron" unicode="&#x12a;" horiz-adv-x="264" 
d="M97 0v700h70v-700h-70zM11.1943 821.746h243.234v-55.7607h-243.234v55.7607z" />
    <glyph glyph-name="imacron" unicode="&#x12b;" horiz-adv-x="225" 
d="M78 0v491h69v-491h-69zM11.7529 698.363h201.995v-55h-201.995v55z" />
    <glyph glyph-name="Ibreve" unicode="&#x12c;" horiz-adv-x="264" 
d="M97 0v700h70v-700h-70zM254.86 894.979q1.8291 -58.2275 -31.5498 -88.7285q-33.3789 -30.5 -90.0781 -30.5q-54.8691 0 -88.248 30.9629q-33.3789 30.9619 -31.5498 88.2656h49.3828q0 -12.9395 3.2002 -25.417q3.20117 -12.4775 10.9746 -22.6436
q7.77246 -10.167 21.4902 -16.6367q13.7168 -6.46973 34.75 -6.46973q39.3232 0 54.8701 22.1816q15.5459 22.1826 15.5459 48.9854h51.2119z" />
    <glyph glyph-name="ibreve" unicode="&#x12d;" horiz-adv-x="225" 
d="M223 692q1 -30 -7.5 -52.5t-23.5 -37.5t-35.5 -22.5t-43.5 -7.5q-53 0 -84 28t-29 92h48q0 -28 12.5 -48.5t51.5 -20.5q37 0 49 20t12 49h50zM78 0v491h69v-491h-69z" />
    <glyph glyph-name="Iogonek" unicode="&#x12e;" horiz-adv-x="269" 
d="M170 0q-37 0 -56.5 -15t-22 -33t9.5 -34t36 -19q18 -5 44 1.5t46 32.5l40 -26q-17 -33 -51.5 -50t-70.5 -18q-49 -1 -78.5 22.5t-34.5 56.5q-3 15 -0.5 30.5t10.5 30t22.5 26.5t35.5 19zM100 0v700h70v-700h-70z" />
    <glyph glyph-name="iogonek" unicode="&#x12f;" horiz-adv-x="226" 
d="M148 0q-28 0 -46 -10t-26 -24t-6.5 -30t12.5 -29q10 -11 24 -15.5t29 -2.5t30 10t26 21l34 -25q-13 -24 -35.5 -38t-48.5 -17t-52 5.5t-46 28.5q-14 15 -20.5 36.5t-3 43.5t18 41t43.5 29zM148 496v-496h-67v496h67zM68 649q0 23 15 35t32 12q18 0 33 -12t15 -35
q0 -24 -15 -35.5t-33 -11.5q-17 0 -32 11.5t-15 35.5z" />
    <glyph glyph-name="Idotaccent" unicode="&#x130;" horiz-adv-x="264" 
d="M97 0v700h70v-700h-70zM84.8955 815.816q0 23.0469 15.6318 34.0908q15.6309 11.0439 33.8682 11.0439t33.8691 -11.0439t15.6318 -34.0908q0 -23.0488 -15.6318 -34.0918q-15.6318 -11.0439 -33.8691 -11.0439t-33.8682 11.0439q-15.6318 11.043 -15.6318 34.0918z" />
    <glyph glyph-name="dotlessi" unicode="&#x131;" horiz-adv-x="225" 
d="M78 0v491h69v-491h-69z" />
    <glyph glyph-name="IJ" unicode="&#x132;" horiz-adv-x="948" 
d="M97 0v700h70v-700h-70zM859 700v-427q0 -66 -21 -118t-59 -88.5t-90 -56t-115 -19.5q-62 0 -114 19.5t-89.5 56t-59 88t-21.5 116.5h70q0 -49 15.5 -88.5t44 -67.5t67.5 -43t87 -15t87.5 14.5t68 42.5t44 68t15.5 91v362h-257v65h327z" />
    <glyph glyph-name="ij" unicode="&#x133;" horiz-adv-x="446" 
d="M145 496v-496h-67v496h67zM65 649q0 23 15 35t32 12q18 0 33 -12t15 -35q0 -24 -15 -35.5t-33 -11.5q-17 0 -32 11.5t-15 35.5zM368 495v-564q0 -39 -6 -72t-21.5 -56.5t-42 -36.5t-67.5 -13q-26 0 -48.5 7t-45.5 21l21 55q34 -18 71 -18q25 0 39.5 8.5t21.5 24t9 36
t2 44.5v564h67zM287 653q0 23 15 35t32 12q18 0 33 -12t15 -35q0 -24 -15 -35.5t-33 -11.5q-17 0 -32 11.5t-15 35.5z" />
    <glyph glyph-name="Jcircumflex" unicode="&#x134;" horiz-adv-x="684" 
d="M595 700v-427q0 -66 -21 -118t-59 -88.5t-90 -56t-115 -19.5q-62 0 -114 19.5t-89.5 56t-59 88t-21.5 116.5h70q0 -49 15.5 -88.5t44 -67.5t67.5 -43t87 -15t87.5 14.5t68 42.5t44 68t15.5 91v362h-257v65h327zM422.807 909.762l139.029 -129.177v-6.79883h-69.0283
l-93.334 84.499l-93.334 -84.499h-69.0283v6.79883l140.001 129.177h45.6943z" />
    <glyph glyph-name="jcircumflex" unicode="&#x135;" horiz-adv-x="223" 
d="M145 495v-564q0 -39 -6 -72t-21.5 -56.5t-42 -36.5t-67.5 -13q-26 0 -48.5 7t-45.5 21l21 55q34 -18 71 -18q25 0 39.5 8.5t21.5 24t9 36t2 44.5v564h67zM125 704l107 -130v-7h-56l-69 81l-71 -81h-54v7l108 130h35z" />
    <glyph glyph-name="Kcommaaccent" unicode="&#x136;" horiz-adv-x="606" 
d="M575 695l-341 -331l371 -359v-5h-87l-351 339v-339h-70v700h70v-315l325 315h83v-5zM381.825 -113.111q0 -18.3965 -13.0742 -47.9287t-28.5693 -74.0713h-48.4219l27.1162 84.2383q-12.5898 3.87305 -20.8213 13.0713q-8.23242 9.19824 -8.23242 25.6592
q0 21.3018 14.5273 32.4365q14.5264 11.1357 31.4746 11.1357q16.9473 0 31.4736 -10.6514q14.5273 -10.6514 14.5273 -33.8896z" />
    <glyph glyph-name="kcommaaccent" unicode="&#x137;" horiz-adv-x="482" 
d="M144 700v-418l216 212h85v-4l-237 -229l266 -257v-4h-86l-244 237v-237h-66v700h66zM304.733 -107.888q0 -16.8896 -12.0791 -44.002q-12.0781 -27.1113 -26.3936 -68.002h-44.7363l25.0527 77.3359q-11.6318 3.55566 -19.2363 12q-7.60547 8.44531 -7.60547 23.5566
q0 19.5557 13.4209 29.7783t29.0781 10.2227t29.0781 -9.77734q13.4209 -9.77832 13.4209 -31.1123z" />
    <glyph glyph-name="kgreenlandic" unicode="&#x138;" horiz-adv-x="483" 
d="M145 494v-212l216 212h85v-4l-237 -229l266 -257v-4h-83l-247 237v-237h-67v494h67z" />
    <glyph glyph-name="Lacute" unicode="&#x139;" horiz-adv-x="573" 
d="M167 700v-634h389v-66h-459v700h70zM257.238 895.969l-87.958 -117.871h-57.0801v3.74219l70.1797 116h74.8584v-1.87109z" />
    <glyph glyph-name="lacute" unicode="&#x13a;" horiz-adv-x="237" 
d="M152 700v-700h-67v700h67zM215.784 875.562l-82.5889 -110.757h-53.5947v3.51562l65.8955 109h70.2881v-1.75879z" />
    <glyph glyph-name="Lcommaaccent" unicode="&#x13b;" horiz-adv-x="573" 
d="M167 700v-634h389v-66h-459v700h70zM371.187 -118.963q0 -17.3916 -12.3633 -45.3096q-12.3623 -27.918 -27.0146 -70.0234h-45.7891l25.6416 79.6348q-11.9053 3.66113 -19.6885 12.3564q-7.78418 8.69629 -7.78418 24.2568q0 20.1377 13.7363 30.6641t29.7627 10.5264
q16.0254 0 29.7627 -10.0684q13.7363 -10.0693 13.7363 -32.0371z" />
    <glyph glyph-name="lcommaaccent" unicode="&#x13c;" horiz-adv-x="237" 
d="M152 700v-700h-67v700h67zM160.187 -118.963q0 -17.3916 -12.3633 -45.3096q-12.3623 -27.918 -27.0146 -70.0234h-45.7891l25.6416 79.6348q-11.9053 3.66113 -19.6885 12.3564q-7.78418 8.69629 -7.78418 24.2568q0 20.1377 13.7363 30.6641t29.7627 10.5264
q16.0254 0 29.7627 -10.0684q13.7363 -10.0693 13.7363 -32.0371z" />
    <glyph glyph-name="Lcaron" unicode="&#x13d;" horiz-adv-x="574" 
d="M167 700v-634h389v-66h-459v700h70zM407.645 697.64h67.4688l-57.4395 -165.677h-51.9688z" />
    <glyph glyph-name="lcaron" unicode="&#x13e;" horiz-adv-x="252" 
d="M152 700v-700h-67v700h67zM240.645 700.79h67.4688l-57.4395 -166.76h-51.9688z" />
    <glyph glyph-name="Ldot" unicode="&#x13f;" horiz-adv-x="573" 
d="M167 700v-634h389v-66h-459v700h70zM308 306q0 24 15 36t33.5 12t33.5 -12t15 -36t-15 -36t-33.5 -12t-33.5 12t-15 36z" />
    <glyph glyph-name="ldot" unicode="&#x140;" horiz-adv-x="327" 
d="M152 700v-700h-67v700h67zM232 299q0 24 15 36t33.5 12t33.5 -12t15 -36t-15 -36t-33.5 -12t-33.5 12t-15 36z" />
    <glyph glyph-name="Lslash" unicode="&#x141;" horiz-adv-x="577" 
d="M285 430v-62l-254 -110v61zM172 700v-634h389v-66h-459v700h70z" />
    <glyph glyph-name="lslash" unicode="&#x142;" horiz-adv-x="267" 
d="M245 350l-216 -90v58l216 92v-60zM167 700v-700h-67v700h67z" />
    <glyph glyph-name="Nacute" unicode="&#x143;" horiz-adv-x="757" 
d="M594 132l-4 232v336h70v-700h-42l-453 563l2 -207v-356h-70v700h44zM474.772 894.463l-91.3145 -121.932h-59.2578v3.87109l72.8574 119.996h77.7148v-1.93555z" />
    <glyph glyph-name="nacute" unicode="&#x144;" horiz-adv-x="608" 
d="M468 0v277q0 80 -43 121t-118 41q-36 0 -66 -13.5t-51 -36.5t-33 -53.5t-12 -66.5v-269h-67v494h64l2 -83q31 48 76 69.5t94.5 21.5t90 -14t69.5 -42.5t45.5 -70.5t16.5 -97v-278h-68zM411.545 701.593l-88.6289 -118.887h-57.5156v3.77441l70.7148 116.999h75.4297
v-1.88672z" />
    <glyph glyph-name="Ncommaaccent" unicode="&#x145;" horiz-adv-x="757" 
d="M594 132l-4 232v336h70v-700h-42l-453 563l2 -207v-356h-70v700h44zM422.187 -103.963q0 -17.3916 -12.3633 -45.3096q-12.3623 -27.918 -27.0146 -70.0234h-45.7891l25.6416 79.6348q-11.9053 3.66113 -19.6885 12.3564q-7.78418 8.69629 -7.78418 24.2568
q0 20.1377 13.7363 30.6641t29.7627 10.5264q16.0254 0 29.7627 -10.0684q13.7363 -10.0693 13.7363 -32.0371z" />
    <glyph glyph-name="ncommaaccent" unicode="&#x146;" horiz-adv-x="608" 
d="M468 0v277q0 80 -43 121t-118 41q-36 0 -66 -13.5t-51 -36.5t-33 -53.5t-12 -66.5v-269h-67v494h64l2 -83q31 48 76 69.5t94.5 21.5t90 -14t69.5 -42.5t45.5 -70.5t16.5 -97v-278h-68zM348.187 -103.963q0 -17.3916 -12.3633 -45.3096
q-12.3623 -27.918 -27.0146 -70.0234h-45.7891l25.6416 79.6348q-11.9053 3.66113 -19.6885 12.3564q-7.78418 8.69629 -7.78418 24.2568q0 20.1377 13.7363 30.6641t29.7627 10.5264q16.0254 0 29.7627 -10.0684q13.7363 -10.0693 13.7363 -32.0371z" />
    <glyph glyph-name="Ncaron" unicode="&#x147;" horiz-adv-x="757" 
d="M594 132l-4 232v336h70v-700h-42l-453 563l2 -207v-356h-70v700h44zM225.47 906.702h67.4941l91.2598 -83.5693l93.1611 83.5693h66.543v-6.64746l-137.84 -127.253h-44.6797l-135.938 127.253v6.64746z" />
    <glyph glyph-name="ncaron" unicode="&#x148;" horiz-adv-x="608" 
d="M468 0v277q0 80 -43 121t-118 41q-36 0 -66 -13.5t-51 -36.5t-33 -53.5t-12 -66.5v-269h-67v494h64l2 -83q31 48 76 69.5t94.5 21.5t90 -14t69.5 -42.5t45.5 -70.5t16.5 -97v-278h-68zM164.132 705.351h64.4307l87.1172 -79.8838l88.9316 79.8838h63.5234v-6.35449
l-131.584 -121.642h-42.6504l-129.769 121.642v6.35449z" />
    <glyph glyph-name="napostrophe" unicode="&#x149;" horiz-adv-x="608" 
d="M468 0v277q0 80 -43 121t-118 41q-36 0 -66 -13.5t-51 -36.5t-33 -53.5t-12 -66.5v-269h-67v494h64l2 -83q31 48 76 69.5t94.5 21.5t90 -14t69.5 -42.5t45.5 -70.5t16.5 -97v-278h-68z" />
    <glyph glyph-name="Eng" unicode="&#x14a;" horiz-adv-x="757" 
d="M660 36v-62q0 -39 -6 -71.5t-22 -56t-43 -36t-69 -12.5q-26 0 -46.5 6t-43.5 20l22 55q33 -18 67 -18q25 0 40 8.5t23 24t10.5 36t2.5 44.5v62h65zM594 132l-4 232v336h70v-700h-42l-453 563l2 -207v-356h-70v700h44z" />
    <glyph glyph-name="eng" unicode="&#x14b;" horiz-adv-x="608" 
d="M536 18v-41q0 -39 -6.5 -71t-22.5 -55.5t-43 -36t-68 -12.5q-26 0 -45 6t-43 20l22 55q17 -9 31.5 -14t32.5 -4q25 0 40 8.5t22.5 23.5t9.5 35.5t2 44.5v41h68zM468 0v277q0 80 -43 121t-118 41q-36 0 -66 -13.5t-51 -36.5t-33 -53.5t-12 -66.5v-269h-67v494h64l2 -83
q31 48 76 69.5t94.5 21.5t90 -14t69.5 -42.5t45.5 -70.5t16.5 -97v-278h-68z" />
    <glyph glyph-name="Omacron" unicode="&#x14c;" horiz-adv-x="813" 
d="M407 711q89 1 155.5 -30t110.5 -81.5t66 -116t22 -135.5q0 -69 -22 -134t-66.5 -115.5t-110.5 -81t-155 -29.5q-89 -1 -156 29.5t-111 81.5t-66 116t-22 134q0 74 23.5 140t69 115.5t111.5 78.5t151 28zM122 348q1 -57 18.5 -110.5t53 -94.5t88.5 -65.5t125 -23.5
q72 -1 125 24t88 66t53 94.5t18 109.5q0 59 -17.5 112.5t-53 95t-88.5 66t-125 23.5q-71 1 -124.5 -22.5t-89.5 -64t-54 -94.5t-17 -116zM269.445 855.637h291.992v-59h-291.992v59z" />
    <glyph glyph-name="omacron" unicode="&#x14d;" horiz-adv-x="600" 
d="M300 501q54 0 100.5 -18.5t80.5 -52.5t53.5 -81.5t19.5 -104.5t-19 -104t-53 -80.5t-80.5 -51.5t-101.5 -18q-54 0 -100.5 18t-80.5 51.5t-53.5 80.5t-19.5 104t19 104.5t52.5 81.5t80 52.5t102.5 18.5zM300 440q-41 0 -75.5 -14.5t-59.5 -40.5t-38.5 -62t-13.5 -79
t14 -78.5t38.5 -60.5t59 -38.5t75.5 -13.5q42 0 76 13.5t59 38.5t38.5 60.5t13.5 78.5t-14 79t-38.5 62t-59 40.5t-75.5 14.5zM174.108 686.703h261.008v-56.002h-261.008v56.002z" />
    <glyph glyph-name="Obreve" unicode="&#x14e;" horiz-adv-x="813" 
d="M407 711q89 1 155.5 -30t110.5 -81.5t66 -116t22 -135.5q0 -69 -22 -134t-66.5 -115.5t-110.5 -81t-155 -29.5q-89 -1 -156 29.5t-111 81.5t-66 116t-22 134q0 74 23.5 140t69 115.5t111.5 78.5t151 28zM122 348q1 -57 18.5 -110.5t53 -94.5t88.5 -65.5t125 -23.5
q72 -1 125 24t88 66t53 94.5t18 109.5q0 59 -17.5 112.5t-53 95t-88.5 66t-125 23.5q-71 1 -124.5 -22.5t-89.5 -64t-54 -94.5t-17 -116zM542.834 893.727q1.99219 -56.8555 -34.3633 -86.6367q-36.3555 -29.7822 -98.1094 -29.7822q-59.7617 0 -96.1172 30.2334
q-36.3555 30.2324 -34.3633 86.1855h53.7861q0 -12.6348 3.48633 -24.8184q3.48535 -12.1836 11.9521 -22.1104q8.46582 -9.92676 23.4062 -16.2441t37.8496 -6.31738q42.8291 0 59.7617 21.6592t16.9326 47.8311h55.7783z" />
    <glyph glyph-name="obreve" unicode="&#x14f;" horiz-adv-x="600" 
d="M300 501q54 0 100.5 -18.5t80.5 -52.5t53.5 -81.5t19.5 -104.5t-19 -104t-53 -80.5t-80.5 -51.5t-101.5 -18q-54 0 -100.5 18t-80.5 51.5t-53.5 80.5t-19.5 104t19 104.5t52.5 81.5t80 52.5t102.5 18.5zM300 440q-41 0 -75.5 -14.5t-59.5 -40.5t-38.5 -62t-13.5 -79
t14 -78.5t38.5 -60.5t59 -38.5t75.5 -13.5q42 0 76 13.5t59 38.5t38.5 60.5t13.5 78.5t-14 79t-38.5 62t-59 40.5t-75.5 14.5zM439.501 699.545q1.97559 -60.4385 -34.0898 -92.0977q-36.0654 -31.6582 -97.3271 -31.6582q-59.2861 0 -95.3516 32.1387
q-36.0654 32.1377 -34.0898 91.6172h53.3574q0 -13.4307 3.45898 -26.3818q3.45801 -12.9512 11.8564 -23.5039q8.39941 -10.5527 23.2207 -17.2686q14.8213 -6.71484 37.5479 -6.71484q42.4883 0 59.2861 23.0244q16.7969 23.0244 16.7969 50.8447h55.334z" />
    <glyph glyph-name="Ohungarumlaut" unicode="&#x150;" horiz-adv-x="813" 
d="M407 711q89 1 155.5 -30t110.5 -81.5t66 -116t22 -135.5q0 -69 -22 -134t-66.5 -115.5t-110.5 -81t-155 -29.5q-89 -1 -156 29.5t-111 81.5t-66 116t-22 134q0 74 23.5 140t69 115.5t111.5 78.5t151 28zM122 348q1 -57 18.5 -110.5t53 -94.5t88.5 -65.5t125 -23.5
q72 -1 125 24t88 66t53 94.5t18 109.5q0 59 -17.5 112.5t-53 95t-88.5 66t-125 23.5q-71 1 -124.5 -22.5t-89.5 -64t-54 -94.5t-17 -116zM591.873 892.069l-86.3193 -112.779h-58.5059v2.86816l72.8926 111.822h71.9326v-1.91113zM453.762 892.069l-85.3604 -112.779
h-59.4648v2.86816l72.8926 111.822h71.9326v-1.91113z" />
    <glyph glyph-name="ohungarumlaut" unicode="&#x151;" horiz-adv-x="600" 
d="M300 501q54 0 100.5 -18.5t80.5 -52.5t53.5 -81.5t19.5 -104.5t-19 -104t-53 -80.5t-80.5 -51.5t-101.5 -18q-54 0 -100.5 18t-80.5 51.5t-53.5 80.5t-19.5 104t19 104.5t52.5 81.5t80 52.5t102.5 18.5zM300 440q-41 0 -75.5 -14.5t-59.5 -40.5t-38.5 -62t-13.5 -79
t14 -78.5t38.5 -60.5t59 -38.5t75.5 -13.5q42 0 76 13.5t59 38.5t38.5 60.5t13.5 78.5t-14 79t-38.5 62t-59 40.5t-75.5 14.5zM472.746 687.462l-82.6387 -98.1582h-56.0117v2.49512l69.7852 97.3271h68.8652v-1.66406zM340.523 687.462l-81.7207 -98.1582h-56.9297v2.49512
l69.7852 97.3271h68.8652v-1.66406z" />
    <glyph glyph-name="OE" unicode="&#x152;" horiz-adv-x="972" 
d="M919 0h-432q-40 -8 -80 -8q-89 0 -155.5 28t-110.5 77t-66 114.5t-22 140.5q0 76 22 141.5t66 113t110.5 74.5t155.5 27q44 0 82 -9v1h419v-63h-356v-251h336v-64h-336v-258l367 1v-65zM407 649q-71 0 -124.5 -22t-89 -61.5t-53 -94.5t-17.5 -121q0 -75 23.5 -130.5
t64 -92t95.5 -55t117 -18.5q34 2 64 9v576q-18 5 -38 7.5t-42 2.5z" />
    <glyph glyph-name="oe" unicode="&#x153;" horiz-adv-x="1009" 
d="M967 219h-212t-212 -1q8 -77 59.5 -120t125.5 -43q22 0 45.5 4.5t45.5 13t40.5 21t31.5 29.5l46 -40q-37 -46 -94 -69t-116 -23q-75 0 -132 36.5t-84 98.5q-29 -65 -83.5 -99.5t-129.5 -34.5q-54 0 -100 18t-80 51.5t-53 80.5t-19 104t19.5 104.5t53 81.5t79.5 52.5
t100 18.5q74 0 130.5 -36t84.5 -102q26 61 82 99.5t130 38.5q54 0 101.5 -17t81 -52t50 -88.5t9.5 -126.5zM298 441q-40 0 -74 -14.5t-58.5 -40.5t-38.5 -61.5t-14 -78.5t14 -78t38.5 -60t58.5 -38.5t74 -13.5t74 13.5t58.5 38.5t38.5 60t14 78t-14 78.5t-39 61.5t-59 40.5
t-73 14.5zM543 276h362q-2 81 -50 124t-129 43q-35 0 -66 -11t-55.5 -32.5t-40.5 -52.5t-21 -71z" />
    <glyph glyph-name="Racute" unicode="&#x154;" horiz-adv-x="708" 
d="M671 0h-91l-232 258h-181v-258h-70v700h314q58 0 101.5 -18t72.5 -48.5t43.5 -71t14.5 -84.5q0 -41 -12 -78.5t-37.5 -67t-66 -48t-95.5 -21.5zM167 634v-310h240q84 0 125 44t41 110q0 33 -10 61.5t-30.5 49.5t-51 33t-70.5 12h-244zM444.159 898.84l-89.9727 -120.917
h-58.3857v3.83887l71.7861 118.997h76.5723v-1.91895z" />
    <glyph glyph-name="racute" unicode="&#x155;" horiz-adv-x="418" 
d="M141 494l4 -81q12 25 29.5 42t38.5 27.5t44 15t45 4.5q34 0 59.5 -8t52.5 -27l-31 -56q-38 26 -85 26q-32 0 -60 -12t-48.5 -32.5t-32.5 -49t-12 -62.5v-281h-67v494h63zM331.091 698.186l-83.2598 -111.773h-54.0303v3.54883l66.4307 109.998h70.8594v-1.77344z" />
    <glyph glyph-name="Rcommaaccent" unicode="&#x156;" horiz-adv-x="708" 
d="M671 0h-91l-232 258h-181v-258h-70v700h314q58 0 101.5 -18t72.5 -48.5t43.5 -71t14.5 -84.5q0 -41 -12 -78.5t-37.5 -67t-66 -48t-95.5 -21.5zM167 634v-310h240q84 0 125 44t41 110q0 33 -10 61.5t-30.5 49.5t-51 33t-70.5 12h-244zM403.187 -103.963
q0 -17.3916 -12.3633 -45.3096q-12.3623 -27.918 -27.0146 -70.0234h-45.7891l25.6416 79.6348q-11.9053 3.66113 -19.6885 12.3564q-7.78418 8.69629 -7.78418 24.2568q0 20.1377 13.7363 30.6641t29.7627 10.5264q16.0254 0 29.7627 -10.0684
q13.7363 -10.0693 13.7363 -32.0371z" />
    <glyph glyph-name="rcommaaccent" unicode="&#x157;" horiz-adv-x="418" 
d="M141 494l4 -81q12 25 29.5 42t38.5 27.5t44 15t45 4.5q34 0 59.5 -8t52.5 -27l-31 -56q-38 26 -85 26q-32 0 -60 -12t-48.5 -32.5t-32.5 -49t-12 -62.5v-281h-67v494h63zM155.187 -103.963q0 -17.3916 -12.3633 -45.3096q-12.3623 -27.918 -27.0146 -70.0234h-45.7891
l25.6416 79.6348q-11.9053 3.66113 -19.6885 12.3564q-7.78418 8.69629 -7.78418 24.2568q0 20.1377 13.7363 30.6641t29.7627 10.5264q16.0254 0 29.7627 -10.0684q13.7363 -10.0693 13.7363 -32.0371z" />
    <glyph glyph-name="Rcaron" unicode="&#x158;" horiz-adv-x="708" 
d="M671 0h-91l-232 258h-181v-258h-70v700h314q58 0 101.5 -18t72.5 -48.5t43.5 -71t14.5 -84.5q0 -41 -12 -78.5t-37.5 -67t-66 -48t-95.5 -21.5zM167 634v-310h240q84 0 125 44t41 110q0 33 -10 61.5t-30.5 49.5t-51 33t-70.5 12h-244zM180.47 906.702h67.4941
l91.2598 -83.5693l93.1611 83.5693h66.543v-6.64746l-137.84 -127.253h-44.6797l-135.938 127.253v6.64746z" />
    <glyph glyph-name="rcaron" unicode="&#x159;" horiz-adv-x="418" 
d="M141 494l4 -81q12 25 29.5 42t38.5 27.5t44 15t45 4.5q34 0 59.5 -8t52.5 -27l-31 -56q-38 26 -85 26q-32 0 -60 -12t-48.5 -32.5t-32.5 -49t-12 -62.5v-281h-67v494h63zM92.5566 703.604h63.1133l85.3359 -82.3018l87.1133 82.3018h62.2246v-6.54688l-128.894 -125.322
h-41.7783l-127.115 125.322v6.54688z" />
    <glyph glyph-name="Sacute" unicode="&#x15a;" horiz-adv-x="660" 
d="M534 556q-15 25 -38 41.5t-50 27t-56 15.5t-57 5q-32 0 -67 -5.5t-64 -20t-47.5 -39t-18.5 -63.5q0 -31 16 -51.5t43 -34t63 -22t77 -15.5q52 -9 102 -21t89 -34t63 -57.5t24 -91.5q0 -59 -26 -98t-66.5 -62t-90 -32t-97.5 -9q-44 0 -87.5 8.5t-82.5 27t-70.5 48
t-51.5 71.5l61 33q18 -34 44.5 -57t57 -37.5t64 -20.5t65.5 -6t69 5.5t68 20t51.5 41t20.5 68.5q0 36 -18 59t-48 38.5t-68.5 24.5t-79.5 16q-50 9 -97 20t-83.5 31.5t-59 53t-22.5 83.5q-1 55 24 92.5t64 60t86.5 32t91.5 9.5q36 0 72.5 -5.5t70.5 -19.5t64.5 -37.5
t53.5 -59.5zM442.693 903.377l-93.3291 -124.985h-60.5645v3.96777l74.4648 123.001h79.4287v-1.9834z" />
    <glyph glyph-name="sacute" unicode="&#x15b;" horiz-adv-x="499" 
d="M400 391q-35 32 -70.5 41t-75.5 9q-27 0 -51.5 -4.5t-43 -14.5t-29.5 -25t-10 -34q0 -22 12.5 -36t32 -23t43.5 -14t47 -8q33 -5 69 -12t66 -22t49.5 -42t19.5 -72q-1 -39 -18.5 -66.5t-46 -44.5t-65 -25t-73.5 -8q-64 0 -122.5 22.5t-96.5 73.5l42 46q32 -43 81 -61
t97 -19q21 0 44.5 3.5t44 13t33.5 25.5t13 41q0 24 -11 39.5t-30.5 25t-45.5 14.5t-56 9q-36 5 -70.5 13t-62 23t-45 39.5t-17.5 62.5q0 36 17.5 63t45.5 44.5t64 25.5t72 8q56 0 102 -16t84 -51zM350.625 698.722l-86.6162 -115.841h-56.208v3.67773l69.1084 114.002
h73.7158v-1.83887z" />
    <glyph glyph-name="Scircumflex" unicode="&#x15c;" horiz-adv-x="660" 
d="M534 556q-15 25 -38 41.5t-50 27t-56 15.5t-57 5q-32 0 -67 -5.5t-64 -20t-47.5 -39t-18.5 -63.5q0 -31 16 -51.5t43 -34t63 -22t77 -15.5q52 -9 102 -21t89 -34t63 -57.5t24 -91.5q0 -59 -26 -98t-66.5 -62t-90 -32t-97.5 -9q-44 0 -87.5 8.5t-82.5 27t-70.5 48
t-51.5 71.5l61 33q18 -34 44.5 -57t57 -37.5t64 -20.5t65.5 -6t69 5.5t68 20t51.5 41t20.5 68.5q0 36 -18 59t-48 38.5t-68.5 24.5t-79.5 16q-50 9 -97 20t-83.5 31.5t-59 53t-22.5 83.5q-1 55 24 92.5t64 60t86.5 32t91.5 9.5q36 0 72.5 -5.5t70.5 -19.5t64.5 -37.5
t53.5 -59.5zM367 925l143 -133v-7h-71l-96 87l-96 -87h-71v7l144 133h47z" />
    <glyph glyph-name="scircumflex" unicode="&#x15d;" horiz-adv-x="499" 
d="M400 391q-35 32 -70.5 41t-75.5 9q-27 0 -51.5 -4.5t-43 -14.5t-29.5 -25t-10 -34q0 -22 12.5 -36t32 -23t43.5 -14t47 -8q33 -5 69 -12t66 -22t49.5 -42t19.5 -72q-1 -39 -18.5 -66.5t-46 -44.5t-65 -25t-73.5 -8q-64 0 -122.5 22.5t-96.5 73.5l42 46q32 -43 81 -61
t97 -19q21 0 44.5 3.5t44 13t33.5 25.5t13 41q0 24 -11 39.5t-30.5 25t-45.5 14.5t-56 9q-36 5 -70.5 13t-62 23t-45 39.5t-17.5 62.5q0 36 17.5 63t45.5 44.5t64 25.5t72 8q56 0 102 -16t84 -51zM282.171 703.34l132.849 -123.43v-6.49609h-65.96l-89.1855 80.7393
l-89.1855 -80.7393h-65.96v6.49609l133.778 123.43h43.6641z" />
    <glyph glyph-name="Scedilla" unicode="&#x15e;" horiz-adv-x="660" 
d="M349 0l-13 -59q31 1 52.5 -7.5t34 -23.5t15.5 -34.5t-1 -38.5q-9 -36 -38 -54t-62 -20q-35 -3 -69.5 10t-53.5 45l35 31q13 -19 30 -27t37 -9q22 -2 42 6t25 28q4 14 -0.5 26.5t-17 20t-31.5 9.5t-43 -5l-12 10l21 92h49zM534 556q-15 25 -38 41.5t-50 27t-56 15.5t-57 5
q-32 0 -67 -5.5t-64 -20t-47.5 -39t-18.5 -63.5q0 -31 16 -51.5t43 -34t63 -22t77 -15.5q52 -9 102 -21t89 -34t63 -57.5t24 -91.5q0 -59 -26 -98t-66.5 -62t-90 -32t-97.5 -9q-44 0 -87.5 8.5t-82.5 27t-70.5 48t-51.5 71.5l61 33q18 -34 44.5 -57t57 -37.5t64 -20.5
t65.5 -6t69 5.5t68 20t51.5 41t20.5 68.5q0 36 -18 59t-48 38.5t-68.5 24.5t-79.5 16q-50 9 -97 20t-83.5 31.5t-59 53t-22.5 83.5q-1 55 24 92.5t64 60t86.5 32t91.5 9.5q36 0 72.5 -5.5t70.5 -19.5t64.5 -37.5t53.5 -59.5z" />
    <glyph glyph-name="scedilla" unicode="&#x15f;" horiz-adv-x="503" 
d="M274 -3l-13 -49q29 1 48 -6t30.5 -19t15 -27.5t0.5 -30.5q-3 -20 -13.5 -34.5t-25.5 -24t-33 -14t-37 -4.5q-31 1 -59.5 13t-43.5 38l33 28q12 -17 28 -24t36 -8q20 -2 39 5.5t24 24.5q4 12 -0.5 23t-16 18t-30 8.5t-41.5 -4.5l-11 9l24 78h46zM400 391q-35 32 -70.5 41
t-75.5 9q-27 0 -51.5 -4.5t-43 -14.5t-29.5 -25t-10 -34q0 -22 12.5 -36t32 -23t43.5 -14t47 -8q33 -5 69 -12t66 -22t49.5 -42t19.5 -72q-1 -39 -18.5 -66.5t-46 -44.5t-65 -25t-73.5 -8q-64 0 -122.5 22.5t-96.5 73.5l42 46q32 -43 81 -61t97 -19q21 0 44.5 3.5t44 13
t33.5 25.5t13 41q0 24 -11 39.5t-30.5 25t-45.5 14.5t-56 9q-36 5 -70.5 13t-62 23t-45 39.5t-17.5 62.5q0 36 17.5 63t45.5 44.5t64 25.5t72 8q56 0 102 -16t84 -51z" />
    <glyph glyph-name="Scaron" unicode="&#x160;" horiz-adv-x="660" 
d="M534 556q-15 25 -38 41.5t-50 27t-56 15.5t-57 5q-32 0 -67 -5.5t-64 -20t-47.5 -39t-18.5 -63.5q0 -31 16 -51.5t43 -34t63 -22t77 -15.5q52 -9 102 -21t89 -34t63 -57.5t24 -91.5q0 -59 -26 -98t-66.5 -62t-90 -32t-97.5 -9q-44 0 -87.5 8.5t-82.5 27t-70.5 48
t-51.5 71.5l61 33q18 -34 44.5 -57t57 -37.5t64 -20.5t65.5 -6t69 5.5t68 20t51.5 41t20.5 68.5q0 36 -18 59t-48 38.5t-68.5 24.5t-79.5 16q-50 9 -97 20t-83.5 31.5t-59 53t-22.5 83.5q-1 55 24 92.5t64 60t86.5 32t91.5 9.5q36 0 72.5 -5.5t70.5 -19.5t64.5 -37.5
t53.5 -59.5zM174 917h71l96 -88l98 88h70v-7l-145 -134h-47l-143 134v7z" />
    <glyph glyph-name="scaron" unicode="&#x161;" horiz-adv-x="499" 
d="M400 391q-35 32 -70.5 41t-75.5 9q-27 0 -51.5 -4.5t-43 -14.5t-29.5 -25t-10 -34q0 -22 12.5 -36t32 -23t43.5 -14t47 -8q33 -5 69 -12t66 -22t49.5 -42t19.5 -72q-1 -39 -18.5 -66.5t-46 -44.5t-65 -25t-73.5 -8q-64 0 -122.5 22.5t-96.5 73.5l42 46q32 -43 81 -61
t97 -19q21 0 44.5 3.5t44 13t33.5 25.5t13 41q0 24 -11 39.5t-30.5 25t-45.5 14.5t-56 9q-36 5 -70.5 13t-62 23t-45 39.5t-17.5 62.5q0 36 17.5 63t45.5 44.5t64 25.5t72 8q56 0 102 -16t84 -51zM109.033 703.452h64.2051l86.8125 -79.7715l88.6211 79.7715h63.3008
v-6.34473l-131.123 -121.471h-42.502l-129.314 121.471v6.34473z" />
    <glyph glyph-name="Tcommaaccent" unicode="&#x162;" horiz-adv-x="598" 
d="M313 0l-9 -41q32 1 52.5 -8t32 -24t13.5 -34t-2 -37q-5 -20 -16 -34t-26 -23.5t-32 -14t-35 -4.5q-32 0 -63.5 13.5t-48.5 42.5l35 31q13 -17 34 -27t43 -9q19 0 35 9.5t21 25.5q4 14 -0.5 26.5t-16 20t-30.5 9.5t-43 -5l-12 10l18 74zM263 634h-247v66h564v-66h-247
v-634h-70v634z" />
    <glyph glyph-name="tcommaaccent" unicode="&#x163;" horiz-adv-x="392" 
d="M260 1l-13 -52q31 1 52.5 -6.5t34 -21t16 -31t-1.5 -35.5q-9 -35 -40.5 -52t-67.5 -18q-34 -1 -65.5 12t-48.5 40l34 29q27 -34 73 -34q21 0 39 8t23 25q4 12 -0.5 23t-17 17.5t-31.5 7.5t-44 -5l-11 9l25 96zM203 640v-150h160v-57h-160v-276q0 -47 17 -75t67 -28
q17 0 35.5 5.5t36.5 13.5l21 -56q-24 -11 -47.5 -17.5t-47.5 -6.5q-80 -1 -114.5 43t-34.5 121v276h-101v57h101v143z" />
    <glyph glyph-name="Tcaron" unicode="&#x164;" horiz-adv-x="596" 
d="M263 634h-247v66h564v-66h-247v-634h-70v634zM133.075 907.215h68.8809l93.1348 -83.6328l95.0752 83.6328h67.9102v-6.65234l-140.672 -127.351h-45.5977l-138.731 127.351v6.65234z" />
    <glyph glyph-name="tcaron" unicode="&#x165;" horiz-adv-x="423" 
d="M199 640v-147h102v-57h-102v-279q0 -47 17 -75t67 -28q17 0 35.5 5.5t36.5 13.5l21 -56q-24 -11 -47.5 -17.5t-47.5 -6.5q-80 -1 -114.5 43t-34.5 121v279h-97v57h97v140zM389 641h66l-57 -163h-50z" />
    <glyph glyph-name="Tbar" unicode="&#x166;" horiz-adv-x="608" 
d="M144 304v56h323v-56h-323zM270 634h-247v66h564v-66h-247v-634h-70v634z" />
    <glyph glyph-name="tbar" unicode="&#x167;" horiz-adv-x="392" 
d="M322 306v-50h-264v50h264zM203 640v-150h160v-57h-160v-276q0 -47 17 -75t67 -28q17 0 35.5 5.5t36.5 13.5l21 -56q-24 -11 -47.5 -17.5t-47.5 -6.5q-80 -1 -114.5 43t-34.5 121v276h-101v57h101v143z" />
    <glyph glyph-name="Utilde" unicode="&#x168;" horiz-adv-x="734" 
d="M645 700v-430q0 -71 -22 -123.5t-59.5 -87.5t-87.5 -52t-107 -17t-108 17t-89 52t-60.5 87.5t-22.5 123.5v430h70v-430q0 -50 16 -90t44.5 -67.5t66.5 -42.5t83 -15q40 0 77 13t65.5 39.5t46 67t17.5 95.5v430h70zM237 803.99q8 37.6191 35.5 55.4639t62.5 11.0928
q15 -2.89355 33.5 -12.5391q18.5 -9.64648 36.5 -15.4336q18 -5.78809 33 -1.92969t23 28.9375l45 -17.3623q-8 -42.4424 -36.5 -57.876t-59.5 -8.68164q-17 4.82324 -36 14.4688q-19 9.64648 -36.5 14.4697t-32.5 0.482422t-23 -28.4561z" />
    <glyph glyph-name="utilde" unicode="&#x169;" horiz-adv-x="606" 
d="M138 494v-277q0 -78 43.5 -120t118.5 -41q36 0 65.5 13t51 36t33.5 53.5t12 66.5v269h66v-494h-62l-2 83q-31 -48 -77 -70t-98 -23q-48 0 -88 16t-69 45t-45 70.5t-16 94.5v278h67zM172 651.227q8 35.8936 35.5 52.9199q27.5 17.0273 62.5 10.585
q15 -2.76172 33.5 -11.9648q18.5 -9.2041 36.5 -14.7256q18 -5.52246 33 -1.84082t23 27.6104l45 -16.5664q-8 -40.4951 -36.5 -55.2207t-59.5 -8.2832q-17 4.60156 -36 13.8057q-19 9.20312 -36.5 13.8047t-32.5 0.459961t-23 -27.1504z" />
    <glyph glyph-name="Umacron" unicode="&#x16a;" horiz-adv-x="734" 
d="M645 700v-430q0 -71 -22 -123.5t-59.5 -87.5t-87.5 -52t-107 -17t-108 17t-89 52t-60.5 87.5t-22.5 123.5v430h70v-430q0 -50 16 -90t44.5 -67.5t66.5 -42.5t83 -15q40 0 77 13t65.5 39.5t46 67t17.5 95.5v430h70zM245.108 831.363h261.008v-55h-261.008v55z" />
    <glyph glyph-name="umacron" unicode="&#x16b;" horiz-adv-x="606" 
d="M138 494v-277q0 -78 43.5 -120t118.5 -41q36 0 65.5 13t51 36t33.5 53.5t12 66.5v269h66v-494h-62l-2 83q-31 -48 -77 -70t-98 -23q-48 0 -88 16t-69 45t-45 70.5t-16 94.5v278h67zM180.029 697.727h250.99v-52.999h-250.99v52.999z" />
    <glyph glyph-name="Ubreve" unicode="&#x16c;" horiz-adv-x="734" 
d="M645 700v-430q0 -71 -22 -123.5t-59.5 -87.5t-87.5 -52t-107 -17t-108 17t-89 52t-60.5 87.5t-22.5 123.5v430h70v-430q0 -50 16 -90t44.5 -67.5t66.5 -42.5t83 -15q40 0 77 13t65.5 39.5t46 67t17.5 95.5v430h70zM507 893q2 -63 -34.5 -96t-98.5 -33q-60 0 -96.5 33.5
t-34.5 95.5h54q0 -14 3.5 -27.5t12 -24.5t23.5 -18t38 -7q43 0 60 24t17 53h56z" />
    <glyph glyph-name="ubreve" unicode="&#x16d;" horiz-adv-x="606" 
d="M138 494v-277q0 -78 43.5 -120t118.5 -41q36 0 65.5 13t51 36t33.5 53.5t12 66.5v269h66v-494h-62l-2 83q-31 -48 -77 -70t-98 -23q-48 0 -88 16t-69 45t-45 70.5t-16 94.5v278h67zM439.002 699.545q1.95215 -60.4385 -33.6787 -92.0977
q-35.6318 -31.6582 -96.1553 -31.6582q-58.5723 0 -94.2031 32.1387q-35.6309 32.1377 -33.6787 91.6172h52.7139q0 -13.4307 3.41699 -26.3818t11.7148 -23.5039t22.9404 -17.2686q14.6426 -6.71484 37.0957 -6.71484q41.9766 0 58.5713 23.0244
q16.5957 23.0244 16.5957 50.8447h54.667z" />
    <glyph glyph-name="Uring" unicode="&#x16e;" horiz-adv-x="734" 
d="M645 700v-430q0 -71 -22 -123.5t-59.5 -87.5t-87.5 -52t-107 -17t-108 17t-89 52t-60.5 87.5t-22.5 123.5v430h70v-430q0 -50 16 -90t44.5 -67.5t66.5 -42.5t83 -15q40 0 77 13t65.5 39.5t46 67t17.5 95.5v430h70zM266.381 828.938q0 22.4365 8.91699 39.4883
q8.91797 17.0518 23.4668 28.7188t33.792 17.501q19.2422 5.83301 38.9541 5.83301t38.9541 -5.83301q19.2432 -5.83398 33.792 -17.0527q14.5498 -11.2178 23.9355 -28.7188q9.38672 -17.5 9.38672 -39.9365q0 -23.334 -8.44727 -40.835q-8.44824 -17.5 -22.998 -29.167
q-14.5488 -11.667 -34.2607 -17.9492t-41.3008 -6.28223q-45.0557 0 -74.624 24.2314q-29.5674 24.2314 -29.5674 70.002zM370.572 879.196q-28.1602 0 -41.7705 -15.7061q-13.6104 -15.7051 -13.6104 -34.5518t14.0801 -34.5518q14.0791 -15.7061 41.3008 -15.7061
q29.0986 0 43.1777 15.7061q14.0801 15.7051 14.0801 34.5518t-14.5488 34.5518q-14.5488 15.7061 -42.709 15.7061z" />
    <glyph glyph-name="uring" unicode="&#x16f;" horiz-adv-x="606" 
d="M138 494v-277q0 -78 43.5 -120t118.5 -41q36 0 65.5 13t51 36t33.5 53.5t12 66.5v269h66v-494h-62l-2 83q-31 -48 -77 -70t-98 -23q-48 0 -88 16t-69 45t-45 70.5t-16 94.5v278h67zM203.714 636.326q0 21.9238 8.64844 38.5859q8.64941 16.6621 22.7598 28.0625
q14.1113 11.4004 32.7744 17.1006q18.6641 5.7002 37.7822 5.7002t37.7812 -5.7002t32.7744 -16.6621t23.2148 -28.0625q9.10449 -17.1006 9.10449 -39.0244q0 -22.8008 -8.19336 -39.9014q-8.19434 -17.1006 -22.3047 -28.501q-14.1113 -11.4004 -33.2295 -17.5391
q-19.1191 -6.13867 -40.0586 -6.13867q-43.6992 0 -72.376 23.6777q-28.6777 23.6777 -28.6777 68.4023zM304.768 685.436q-27.3115 0 -40.5127 -15.3467q-13.2002 -15.3467 -13.2002 -33.7627t13.6562 -33.7627q13.6553 -15.3467 40.0566 -15.3467
q28.2227 0 41.8789 15.3467t13.6562 33.7627t-14.1113 33.7627t-41.4238 15.3467z" />
    <glyph glyph-name="Uhungarumlaut" unicode="&#x170;" horiz-adv-x="734" 
d="M645 700v-430q0 -71 -22 -123.5t-59.5 -87.5t-87.5 -52t-107 -17t-108 17t-89 52t-60.5 87.5t-22.5 123.5v430h70v-430q0 -50 16 -90t44.5 -67.5t66.5 -42.5t83 -15q40 0 77 13t65.5 39.5t46 67t17.5 95.5v430h70zM542.264 882.441l-86.9902 -114.867h-58.959v2.91992
l73.457 113.895h72.4922v-1.94727zM403.08 882.441l-86.0234 -114.867h-59.9258v2.91992l73.457 113.895h72.4922v-1.94727z" />
    <glyph glyph-name="uhungarumlaut" unicode="&#x171;" horiz-adv-x="606" 
d="M138 494v-277q0 -78 43.5 -120t118.5 -41q36 0 65.5 13t51 36t33.5 53.5t12 66.5v269h66v-494h-62l-2 83q-31 -48 -77 -70t-98 -23q-48 0 -88 16t-69 45t-45 70.5t-16 94.5v278h67zM451.941 699.324l-82.9746 -108.602h-56.2373v2.76172l70.0664 107.681h69.1455
v-1.84082zM319.183 699.324l-82.0518 -108.602h-57.1602v2.76172l70.0664 107.681h69.1455v-1.84082z" />
    <glyph glyph-name="Uogonek" unicode="&#x172;" horiz-adv-x="733" 
d="M470 5q-25 -13 -34 -32.5t-4.5 -37t21.5 -30t44 -12.5q21 1 45.5 13t41.5 35l42 -28q-9 -17 -23 -31t-31.5 -23.5t-36.5 -15.5t-38 -7q-42 -2 -70 13.5t-42 39t-14.5 51t13.5 51.5zM645 700v-430q0 -71 -22 -123.5t-59.5 -87.5t-87.5 -52t-107 -17t-108 17t-89 52
t-60.5 87.5t-22.5 123.5v430h70v-430q0 -50 16 -90t44.5 -67.5t66.5 -42.5t83 -15q40 0 77 13t65.5 39.5t46 67t17.5 95.5v430h70z" />
    <glyph glyph-name="uogonek" unicode="&#x173;" horiz-adv-x="604" 
d="M526 8v-53q-17 1 -37.5 -1.5t-38 -10.5t-27.5 -21.5t-5 -35.5q5 -19 23 -27t41 -8q24 0 44.5 9.5t33.5 20.5l26 -31q-20 -23 -48.5 -35t-57.5 -12q-43 0 -72 14.5t-40 47.5q-6 18 -3.5 38t14 37.5t33 30.5t52.5 17v20h62zM136 494v-277q0 -78 43.5 -120t118.5 -41
q36 0 65.5 13t51 36t33.5 53.5t12 66.5v269h66v-494h-62l-2 83q-31 -48 -77 -70t-98 -23q-48 0 -88 16t-69 45t-45 70.5t-16 94.5v278h67z" />
    <glyph glyph-name="Wcircumflex" unicode="&#x174;" horiz-adv-x="1080" 
d="M801 -2h-71l-105 301l-85 265l-84 -264l-105 -302h-72l-248 702h79l204 -606l204 606h44l204 -606l205 606h78zM559.876 917.789l140.355 -130.126v-6.84863h-69.6875l-94.2246 85.1201l-94.2246 -85.1201h-69.6865v6.84863l141.337 130.126h46.1309z" />
    <glyph glyph-name="wcircumflex" unicode="&#x175;" horiz-adv-x="833" 
d="M443 494l140 -421l139 421h74l-174 -495h-76l-73 199l-56 187l-57 -188l-73 -198h-76l-175 495h74l140 -421l140 421h53zM441.738 703.691l137.702 -128.219v-6.74805h-68.3701l-92.4434 83.8721l-92.4434 -83.8721h-68.3691v6.74805l138.665 128.219h45.2588z" />
    <glyph glyph-name="Ycircumflex" unicode="&#x176;" horiz-adv-x="663" 
d="M331 350l226 350h82v-2l-273 -416v-282h-70v282l-269 416v2h81zM357.363 913.621l136.82 -127.261v-6.69824h-67.9316l-91.8516 83.2461l-91.8516 -83.2461h-67.9316v6.69824l137.777 127.261h44.9688z" />
    <glyph glyph-name="ycircumflex" unicode="&#x177;" horiz-adv-x="544" 
d="M515 494l-313 -730h-73l104 242l-198 488h75l105 -273l55 -142l56 142l115 273h74zM293.545 703.41l133.731 -124.387v-6.54688h-66.3984l-89.7773 81.3662l-89.7773 -81.3662h-66.3975v6.54688l134.666 124.387h43.9531z" />
    <glyph glyph-name="Ydieresis" unicode="&#x178;" horiz-adv-x="663" 
d="M331 350l226 350h82v-2l-273 -416v-282h-70v282l-269 416v2h81zM184.989 807.68q0 20.9414 12.8545 30.9365q12.8555 9.99512 28.5664 9.99512q15.7119 0 29.043 -9.99512q13.3301 -9.99512 13.3301 -30.9365t-13.3301 -31.4131q-13.3311 -10.4707 -29.043 -10.4707
q-15.7109 0 -28.5664 10.4707q-12.8545 10.4717 -12.8545 31.4131zM397.332 807.68q0 20.9414 12.8545 30.9365q12.8555 9.99512 28.5664 9.99512q15.7119 0 29.042 -9.99512q13.3311 -9.99512 13.3311 -30.9365t-13.3311 -31.4131q-13.3301 -10.4707 -29.042 -10.4707
q-15.7109 0 -28.5664 10.4707q-12.8545 10.4717 -12.8545 31.4131z" />
    <glyph glyph-name="Zacute" unicode="&#x179;" horiz-adv-x="596" 
d="M61 700h496v-30l-435 -602h435v-68h-535v36l428 599h-389v65zM394 904l-94 -126h-61v4l75 124h80v-2z" />
    <glyph glyph-name="zacute" unicode="&#x17a;" horiz-adv-x="466" 
d="M425 494v-29l-292 -401h293v-64h-395v25l295 408h-278v61h377zM335.238 697.969l-87.958 -117.871h-57.0801v3.74219l70.1797 116h74.8584v-1.87109z" />
    <glyph glyph-name="Zdotaccent" unicode="&#x17b;" horiz-adv-x="596" 
d="M61 700h496v-30l-435 -602h435v-68h-535v36l428 599h-389v65zM255 819q0 24 15 35.5t32.5 11.5t32.5 -11.5t15 -35.5t-15 -35.5t-32.5 -11.5t-32.5 11.5t-15 35.5z" />
    <glyph glyph-name="zdotaccent" unicode="&#x17c;" horiz-adv-x="466" 
d="M425 494v-29l-292 -401h293v-64h-395v25l295 408h-278v61h377zM200 647q0 24 15 35.5t32.5 11.5t32.5 -11.5t15 -35.5t-15 -35.5t-32.5 -11.5t-32.5 11.5t-15 35.5z" />
    <glyph glyph-name="Zcaron" unicode="&#x17d;" horiz-adv-x="596" 
d="M61 700h496v-30l-435 -602h435v-68h-535v36l428 599h-389v65zM141 917h71l96 -88l98 88h70v-7l-145 -134h-47l-143 134v7z" />
    <glyph glyph-name="zcaron" unicode="&#x17e;" horiz-adv-x="466" 
d="M425 494v-29l-292 -401h293v-64h-395v25l295 408h-278v61h377zM93.9385 700.452h63.9883l86.5195 -79.7715l88.3223 79.7715h63.0869v-6.34473l-130.681 -121.471h-42.3584l-128.878 121.471v6.34473z" />
    <glyph glyph-name="longs" unicode="&#x17f;" horiz-adv-x="297" 
d="M132 0v430h-98v59h98v41q0 81 39 128t119 47q29 0 56 -9t50 -26l-29 -50q-20 12 -37 18.5t-39 6.5q-43 0 -67.5 -27.5t-24.5 -87.5v-530h-67z" />
    <glyph glyph-name="florin" unicode="&#x192;" horiz-adv-x="454" 
d="M173 431h-122v58h122v41q0 81 39 128t119 47q29 0 56 -9t50 -26l-29 -50q-20 12 -37 18.5t-39 6.5q-43 0 -67.5 -27.5t-24.5 -87.5v-41h158v-58h-158v-432q0 -80 -34.5 -128t-113.5 -48q-29 0 -52.5 9t-46.5 26l28 48q20 -14 34 -19t36 -5q43 0 62.5 28.5t19.5 88.5v432z
" />
    <glyph glyph-name="Aringacute" unicode="&#x1fa;" horiz-adv-x="750" 
d="M376 866q48 0 77 -21.5t36 -50.5t-9.5 -58t-61.5 -43l311 -693h-77l-74 165h-407l-73 -165h-77l311 694q-43 16 -58.5 44.5t-8 57t36.5 49.5t74 21zM550 230l-92 210l-83 201l-85 -204l-91 -207h351zM375 820q-29 0 -44 -14t-15 -30.5t15 -30t44 -13.5q31 0 46 13.5
t15 30t-15.5 30.5t-45.5 14zM500 979l-98 -86h-64v3l78 84h84v-1z" />
    <glyph glyph-name="aringacute" unicode="&#x1fb;" horiz-adv-x="634" 
d="M493 396v98h63v-494h-62v98q-16 -27 -38.5 -47.5t-48 -34t-53.5 -20t-56 -6.5q-53 0 -98.5 18t-80 51.5t-54 81t-19.5 106.5q0 58 20 105t54 80t80 51t99 18q28 0 57 -6.5t54.5 -19.5t47 -33t35.5 -46zM301 440q-39 0 -73.5 -14t-60 -39t-40 -61t-14.5 -79
q0 -44 14.5 -79.5t40 -61t60 -39.5t73.5 -14q64 0 106.5 28.5t63.5 71.5t21 93.5t-21 93.5t-63.5 71.5t-106.5 28.5zM223.043 621.452q0 20.3838 8.37988 35.876t22.0518 26.0918t31.7549 15.8994t36.6064 5.2998t36.6064 -5.2998q18.082 -5.2998 31.7549 -15.4922
q13.6719 -10.1914 22.4922 -26.0918q8.82129 -15.8994 8.82129 -36.2832q0 -21.2002 -7.93848 -37.0996q-7.93945 -15.8994 -21.6113 -26.5q-13.6719 -10.5996 -32.1953 -16.3066q-18.5244 -5.70801 -38.8125 -5.70801q-42.3398 0 -70.125 22.0146
q-27.7852 22.0156 -27.7852 63.5996zM320.953 667.112q-26.4619 0 -39.252 -14.2686q-12.79 -14.2695 -12.79 -31.3916q0 -17.123 13.2314 -31.3916q13.2305 -14.2695 38.8105 -14.2695q27.3447 0 40.5762 14.2695q13.2314 14.2686 13.2314 31.3916
q0 17.1221 -13.6729 31.3916q-13.6719 14.2686 -40.1348 14.2686zM438.238 827.877l-87.958 -93.4854h-57.0801v2.96777l70.1797 92.001h74.8584v-1.4834z" />
    <glyph glyph-name="AEacute" unicode="&#x1fc;" horiz-adv-x="914" 
d="M860 0h-415v221h-243l-132 -221h-84l430 700h433v-65h-336v-250h320v-65h-320v-253h347v-67zM445 287v167l2 174h-3l-201 -341h202zM604 904l-94 -126h-61v4l75 124h80v-2z" />
    <glyph glyph-name="aeacute" unicode="&#x1fd;" horiz-adv-x="1022" 
d="M980 219h-431q3 -39 19.5 -69.5t42 -51.5t58 -32t69.5 -11q22 0 46 4.5t46.5 13t41.5 21t32 29.5l46 -40q-37 -46 -95.5 -69t-117.5 -23q-64 0 -114 26t-79 74l-1 -91h-53v97q-32 -55 -85 -81t-108 -26q-53 0 -98.5 18t-79.5 51.5t-53.5 81t-19.5 106.5q0 58 20 105
t54 80t80 51t98 18q58 0 111 -26t82 -79l1 98h54v-94q32 51 82 77t111 26q52 0 99.5 -18t82 -53t51.5 -88t8 -125zM301 439q-39 0 -73.5 -13.5t-60 -39t-40 -61t-14.5 -78.5q0 -44 14.5 -79.5t40 -61t60 -39t73.5 -13.5q64 0 107 28.5t64.5 71.5t21.5 92.5t-21.5 92.5
t-64.5 71.5t-107 28.5zM549 276h369q-2 81 -52 124t-130 43q-35 0 -66.5 -11t-57 -32.5t-42 -52.5t-21.5 -71zM627.625 699.722l-86.6162 -115.841h-56.208v3.67773l69.1084 114.002h73.7158v-1.83887z" />
    <glyph glyph-name="Oslashacute" unicode="&#x1fe;" horiz-adv-x="813" 
d="M205 -77h-72l484 839h72zM533 913l-94 -126h-61v4l75 124h80v-2zM407 711q89 1 155.5 -30t110.5 -81.5t66 -116t22 -135.5q0 -69 -22 -134t-66.5 -115.5t-110.5 -81t-155 -29.5q-89 -1 -156 29.5t-111 81.5t-66 116t-22 134q0 74 23.5 140t69 115.5t111.5 78.5t151 28z
M122 348q1 -57 18.5 -110.5t53 -94.5t88.5 -65.5t125 -23.5q72 -1 125 24t88 66t53 94.5t18 109.5q0 59 -17.5 112.5t-53 95t-88.5 66t-125 23.5q-71 1 -124.5 -22.5t-89.5 -64t-54 -94.5t-17 -116z" />
    <glyph glyph-name="oslashacute" unicode="&#x1ff;" horiz-adv-x="597" 
d="M444 542h67l-357 -599h-66zM413 693l-85 -113h-55v3l68 112h72v-2zM299 501q54 0 100.5 -18.5t80.5 -52.5t53.5 -81.5t19.5 -104.5t-19 -104t-53 -80.5t-80.5 -51.5t-101.5 -18q-54 0 -100.5 18t-80.5 51.5t-53.5 80.5t-19.5 104t19 104.5t52.5 81.5t80 52.5t102.5 18.5z
M299 440q-41 0 -75.5 -14.5t-59.5 -40.5t-38.5 -62t-13.5 -79t14 -78.5t38.5 -60.5t59 -38.5t75.5 -13.5q42 0 76 13.5t59 38.5t38.5 60.5t13.5 78.5t-14 79t-38.5 62t-59 40.5t-75.5 14.5z" />
    <glyph glyph-name="Scommaaccent" unicode="&#x218;" horiz-adv-x="660" 
d="M534 556q-15 25 -38 41.5t-50 27t-56 15.5t-57 5q-32 0 -67 -5.5t-64 -20t-47.5 -39t-18.5 -63.5q0 -31 16 -51.5t43 -34t63 -22t77 -15.5q52 -9 102 -21t89 -34t63 -57.5t24 -91.5q0 -59 -26 -98t-66.5 -62t-90 -32t-97.5 -9q-44 0 -87.5 8.5t-82.5 27t-70.5 48
t-51.5 71.5l61 33q18 -34 44.5 -57t57 -37.5t64 -20.5t65.5 -6t69 5.5t68 20t51.5 41t20.5 68.5q0 36 -18 59t-48 38.5t-68.5 24.5t-79.5 16q-50 9 -97 20t-83.5 31.5t-59 53t-22.5 83.5q-1 55 24 92.5t64 60t86.5 32t91.5 9.5q36 0 72.5 -5.5t70.5 -19.5t64.5 -37.5
t53.5 -59.5zM381.187 -139.963q0 -17.3916 -12.3633 -45.3096q-12.3623 -27.918 -27.0146 -70.0234h-45.7891l25.6416 79.6348q-11.9053 3.66113 -19.6885 12.3564q-7.78418 8.69629 -7.78418 24.2568q0 20.1377 13.7363 30.6641t29.7627 10.5264
q16.0254 0 29.7627 -10.0684q13.7363 -10.0693 13.7363 -32.0371z" />
    <glyph glyph-name="scommaaccent" unicode="&#x219;" horiz-adv-x="499" 
d="M400 391q-35 32 -70.5 41t-75.5 9q-27 0 -51.5 -4.5t-43 -14.5t-29.5 -25t-10 -34q0 -22 12.5 -36t32 -23t43.5 -14t47 -8q33 -5 69 -12t66 -22t49.5 -42t19.5 -72q-1 -39 -18.5 -66.5t-46 -44.5t-65 -25t-73.5 -8q-64 0 -122.5 22.5t-96.5 73.5l42 46q32 -43 81 -61
t97 -19q21 0 44.5 3.5t44 13t33.5 25.5t13 41q0 24 -11 39.5t-30.5 25t-45.5 14.5t-56 9q-36 5 -70.5 13t-62 23t-45 39.5t-17.5 62.5q0 36 17.5 63t45.5 44.5t64 25.5t72 8q56 0 102 -16t84 -51zM303.187 -126.963q0 -17.3916 -12.3633 -45.3096
q-12.3623 -27.918 -27.0146 -70.0234h-45.7891l25.6416 79.6348q-11.9053 3.66113 -19.6885 12.3564q-7.78418 8.69629 -7.78418 24.2568q0 20.1377 13.7363 30.6641t29.7627 10.5264q16.0254 0 29.7627 -10.0684q13.7363 -10.0693 13.7363 -32.0371z" />
    <glyph glyph-name="uni021A" unicode="&#x21a;" horiz-adv-x="596" 
d="M263 634h-247v66h564v-66h-247v-634h-70v634zM338.187 -128.963q0 -17.3916 -12.3633 -45.3096q-12.3623 -27.918 -27.0146 -70.0234h-45.7891l25.6416 79.6348q-11.9053 3.66113 -19.6885 12.3564q-7.78418 8.69629 -7.78418 24.2568q0 20.1377 13.7363 30.6641
t29.7627 10.5264q16.0254 0 29.7627 -10.0684q13.7363 -10.0693 13.7363 -32.0371z" />
    <glyph glyph-name="uni021B" unicode="&#x21b;" horiz-adv-x="392" 
d="M203 640v-150h160v-57h-160v-276q0 -47 17 -75t67 -28q17 0 35.5 5.5t36.5 13.5l21 -56q-24 -11 -47.5 -17.5t-47.5 -6.5q-80 -1 -114.5 43t-34.5 121v276h-101v57h101v143zM292.187 -122.963q0 -17.3916 -12.3633 -45.3096q-12.3623 -27.918 -27.0146 -70.0234h-45.7891
l25.6416 79.6348q-11.9053 3.66113 -19.6885 12.3564q-7.78418 8.69629 -7.78418 24.2568q0 20.1377 13.7363 30.6641t29.7627 10.5264q16.0254 0 29.7627 -10.0684q13.7363 -10.0693 13.7363 -32.0371z" />
    <glyph glyph-name="dotlessj" unicode="&#x237;" horiz-adv-x="223" 
d="M145 495v-564q0 -39 -6.5 -71.5t-22.5 -56t-43 -36t-68 -12.5q-26 0 -48.5 6t-45.5 20l21 55q34 -18 71 -18q25 0 40 8.5t22.5 24t10 36t2.5 44.5v564h67z" />
    <glyph glyph-name="circumflex" unicode="&#x2c6;" horiz-adv-x="421" 
d="M223 704l143 -133v-7h-71l-96 87l-96 -87h-71v7l144 133h47z" />
    <glyph glyph-name="caron" unicode="&#x2c7;" horiz-adv-x="404" 
d="M31 701h71l96 -88l98 88h70v-7l-145 -134h-47l-143 134v7z" />
    <glyph glyph-name="breve" unicode="&#x2d8;" horiz-adv-x="333" 
d="M294 700q2 -63 -34.5 -96t-98.5 -33q-60 0 -96.5 33.5t-34.5 95.5h54q0 -14 3.5 -27.5t12 -24.5t23.5 -18t38 -7q43 0 60 24t17 53h56z" />
    <glyph glyph-name="dotaccent" unicode="&#x2d9;" horiz-adv-x="206" 
d="M45 660q0 24 15 35.5t32.5 11.5t32.5 -11.5t15 -35.5t-15 -35.5t-32.5 -11.5t-32.5 11.5t-15 35.5z" />
    <glyph glyph-name="ring" unicode="&#x2da;" horiz-adv-x="397" 
d="M59 615q0 25 9.5 44t25 32t36 19.5t41.5 6.5t41.5 -6.5t36 -19t25.5 -32t10 -44.5q0 -26 -9 -45.5t-24.5 -32.5t-36.5 -20t-44 -7q-48 0 -79.5 27t-31.5 78zM170 671q-30 0 -44.5 -17.5t-14.5 -38.5t15 -38.5t44 -17.5q31 0 46 17.5t15 38.5t-15.5 38.5t-45.5 17.5z" />
    <glyph glyph-name="ogonek" unicode="&#x2db;" horiz-adv-x="407" 
d="M302 -140q-17 -32 -48.5 -49t-66.5 -19q-52 -2 -83.5 22.5t-36.5 59.5q-3 20 3.5 42.5t25.5 40t50 26.5t78 3l15 -37q-33 6 -57.5 1t-40 -16t-20.5 -27.5t2 -32.5q6 -14 23 -24t41 -8q19 1 40.5 11.5t35.5 31.5z" />
    <glyph glyph-name="tilde" unicode="&#x2dc;" horiz-adv-x="336" 
d="M30 650q8 39 35.5 57.5t62.5 11.5q15 -3 33.5 -13t36.5 -16t33 -2t23 30l45 -18q-8 -44 -36.5 -60t-59.5 -9q-17 5 -36 15t-36.5 15t-32.5 0.5t-23 -29.5z" />
    <glyph glyph-name="hungarumlaut" unicode="&#x2dd;" horiz-adv-x="352" 
d="M321 699l-90 -118h-61v3l76 117h75v-2zM177 699l-89 -118h-62v3l76 117h75v-2z" />
    <glyph glyph-name="glyph341" unicode="&#x394;" horiz-adv-x="693" 
d="M696 0h-708l314 700h80zM90 63h503l-251 568z" />
    <glyph glyph-name="glyph342" unicode="&#x3a9;" horiz-adv-x="801" 
d="M385 644q-71 0 -124.5 -24.5t-88.5 -65t-52.5 -93t-17.5 -109.5q0 -48 13 -94.5t39 -85.5t65 -68t92 -41v-63h-250v63l133 -2q-82 45 -123 122.5t-41 169.5q0 72 23.5 137t68.5 114.5t111 78.5t152 29t152.5 -29t111.5 -78.5t68.5 -114.5t23.5 -137q0 -92 -41 -169.5
t-123 -122.5l133 2v-63h-250v63q52 12 91 41t65 68t39.5 85.5t13.5 94.5q0 57 -17.5 109.5t-53 93t-89 65t-124.5 24.5z" />
    <glyph glyph-name="pi" unicode="&#x3c0;" horiz-adv-x="679" 
d="M145 0v436h-118v58h618v-58h-120v-292q0 -25 4 -44.5t15.5 -31.5t31 -16.5t49.5 0.5l3 -54q-45 -9 -77.5 -2t-53 26.5t-29.5 50.5t-9 70v293h-248v-436h-66z" />
    <glyph glyph-name="Wgrave" unicode="&#x1e80;" horiz-adv-x="1080" 
d="M801 -2h-71l-105 301l-85 265l-84 -264l-105 -302h-72l-248 702h79l204 -606l204 606h44l204 -606l205 606h78zM422.851 900.119h77.9004l70.3008 -117.998v-3.80664h-59.8506l-88.3506 119.901v1.90332z" />
    <glyph glyph-name="wgrave" unicode="&#x1e81;" horiz-adv-x="833" 
d="M443 494l140 -421l139 421h74l-174 -495h-76l-73 199l-56 187l-57 -188l-73 -198h-76l-175 495h74l140 -421l140 421h53zM308.084 699.031h75.168l67.835 -107.531v-3.46875h-57.751l-85.252 109.266v1.73438z" />
    <glyph glyph-name="Wacute" unicode="&#x1e82;" horiz-adv-x="1080" 
d="M801 -2h-71l-105 301l-85 265l-84 -264l-105 -302h-72l-248 702h79l204 -606l204 606h44l204 -606l205 606h78zM662.644 894.922l-92.79 -117.141h-60.2139v3.71875l74.0342 115.281h78.9697v-1.85938z" />
    <glyph glyph-name="wacute" unicode="&#x1e83;" horiz-adv-x="833" 
d="M443 494l140 -421l139 421h74l-174 -495h-76l-73 199l-56 187l-57 -188l-73 -198h-76l-175 495h74l140 -421l140 421h53zM515.784 698.562l-82.5889 -110.757h-53.5947v3.51562l65.8955 109h70.2881v-1.75879z" />
    <glyph glyph-name="Wdieresis" unicode="&#x1e84;" horiz-adv-x="1080" 
d="M801 -2h-71l-105 301l-85 265l-84 -264l-105 -302h-72l-248 702h79l204 -606l204 606h44l204 -606l205 606h78zM385 827q0 22 13.5 32.5t30 10.5t30.5 -10.5t14 -32.5t-14 -33t-30.5 -11t-30 11t-13.5 33zM608 827q0 22 13.5 32.5t30 10.5t30.5 -10.5t14 -32.5t-14 -33
t-30.5 -11t-30 11t-13.5 33z" />
    <glyph glyph-name="wdieresis" unicode="&#x1e85;" horiz-adv-x="833" 
d="M443 494l140 -421l139 421h74l-174 -495h-76l-73 199l-56 187l-57 -188l-73 -198h-76l-175 495h74l140 -421l140 421h53zM258 654q0 22 13.5 32.5t30 10.5t30.5 -10.5t14 -32.5t-14 -33t-30.5 -11t-30 11t-13.5 33zM481 654q0 22 13.5 32.5t30 10.5t30.5 -10.5t14 -32.5
t-14 -33t-30.5 -11t-30 11t-13.5 33z" />
    <glyph glyph-name="Ygrave" unicode="&#x1ef2;" horiz-adv-x="663" 
d="M331 350l226 350h82v-2l-273 -416v-282h-70v282l-269 416v2h81zM224.193 896.561h75.5586l68.1875 -114.002v-3.67773h-58.0518l-85.6943 115.841v1.83887z" />
    <glyph glyph-name="ygrave" unicode="&#x1ef3;" horiz-adv-x="544" 
d="M515 494l-313 -730h-73l104 242l-198 488h75l105 -273l55 -142l56 142l115 273h74zM186.7 700.238h73.8027l66.6016 -111.996v-3.61328h-56.7021l-83.7021 113.804v1.80566z" />
    <glyph glyph-name="endash" unicode="&#x2013;" horiz-adv-x="596" 
d="M72 317h452v-61h-452v61z" />
    <glyph glyph-name="emdash" unicode="&#x2014;" horiz-adv-x="701" 
d="M72 316h557v-61h-557v61z" />
    <glyph glyph-name="quoteleft" unicode="&#x2018;" horiz-adv-x="223" 
d="M130 522h-75l63 179h57z" />
    <glyph glyph-name="quoteright" unicode="&#x2019;" horiz-adv-x="222" 
d="M106 701h74l-63 -183h-57z" />
    <glyph glyph-name="quotesinglbase" unicode="&#x201a;" horiz-adv-x="238" 
d="M87 72h74l-63 -183h-57z" />
    <glyph glyph-name="quotedblleft" unicode="&#x201c;" horiz-adv-x="364" 
d="M267 516h-74l65 182h57zM131 516h-75l65 182h57z" />
    <glyph glyph-name="quotedblright" unicode="&#x201d;" horiz-adv-x="356" 
d="M104 701h74l-63 -177h-57zM241 701h74l-63 -177h-57z" />
    <glyph glyph-name="quotedblbase" unicode="&#x201e;" horiz-adv-x="367" 
d="M87 72h66l-57 -183h-55zM221 72h69l-62 -183h-53z" />
    <glyph glyph-name="dagger" unicode="&#x2020;" horiz-adv-x="560" 
d="M315 505h211v-63h-211v-570h-70v570h-211v63h211v195h70v-195z" />
    <glyph glyph-name="daggerdbl" unicode="&#x2021;" horiz-adv-x="608" 
d="M339 506h211v-63h-211v-264h211v-62h-211v-247h-70v247h-211v62h211v264h-211v63h211v194h70v-194z" />
    <glyph glyph-name="bullet" unicode="&#x2022;" horiz-adv-x="390" 
d="M196 179q-45 0 -75.5 28t-30.5 75q0 48 30.5 76t75.5 28t74.5 -28t29.5 -76q0 -47 -29.5 -75t-74.5 -28z" />
    <glyph glyph-name="ellipsis" unicode="&#x2026;" horiz-adv-x="603" 
d="M68 38q0 24 15 35.5t32.5 11.5t32.5 -11.5t15 -35.5t-15 -35.5t-32.5 -11.5t-32.5 11.5t-15 35.5zM255 38q0 24 15 35.5t32.5 11.5t32.5 -11.5t15 -35.5t-15 -35.5t-32.5 -11.5t-32.5 11.5t-15 35.5zM440 38q0 24 15 35.5t32.5 11.5t32.5 -11.5t15 -35.5t-15 -35.5
t-32.5 -11.5t-32.5 11.5t-15 35.5z" />
    <glyph glyph-name="perthousand" unicode="&#x2030;" horiz-adv-x="1121" 
d="M638 700l-452 -700h-73l110.5 172l115.5 177l115.5 177.5l111.5 173.5h72zM195 699q39 0 68 -13.5t48.5 -35t29.5 -48.5t10 -55q0 -29 -10 -56t-29.5 -48t-48.5 -33.5t-68 -12.5t-68 12.5t-48.5 33.5t-29 48t-9.5 56q0 28 9.5 55t29 48.5t48.5 35t68 13.5zM564 295
q39 0 68 -13t48.5 -34.5t29.5 -48.5t10 -55q0 -29 -10 -56t-29.5 -48t-48.5 -33.5t-68 -12.5t-68 12.5t-48.5 33.5t-29 48t-9.5 56q0 28 9.5 55t29 48.5t48.5 34.5t68 13zM564 236q-23 0 -40 -7.5t-28 -20.5t-17 -29t-6 -33t6 -33.5t17.5 -29.5t28.5 -21t40 -8t40 7.5
t28.5 20.5t17 29t5.5 33t-6 33.5t-17.5 29.5t-28.5 21t-40 8zM195 636q-23 0 -40 -7.5t-28.5 -20t-17 -28t-5.5 -31.5q0 -17 5.5 -33t17 -28.5t29 -20t40.5 -7.5q22 0 38.5 7.5t28 20t17 28t5.5 31.5t-5.5 32t-17 29t-28.5 20.5t-39 7.5zM931 295q39 0 68 -13t48.5 -34.5
t29.5 -48.5t10 -55q0 -29 -10 -56t-29.5 -48t-48.5 -33.5t-68 -12.5t-68 12.5t-48.5 33.5t-29 48t-9.5 56q0 28 9.5 55t29 48.5t48.5 34.5t68 13zM931 236q-23 0 -40 -7.5t-28 -20.5t-17 -29t-6 -33t6 -33.5t17.5 -29.5t28.5 -21t40 -8t40 7.5t28.5 20.5t17 29t5.5 33
t-6 33.5t-17.5 29.5t-28.5 21t-40 8z" />
    <glyph glyph-name="guilsinglleft" unicode="&#x2039;" horiz-adv-x="307" 
d="M186 518h71v-4l-136 -216l63.5 -101l63.5 -101l9 -18h-71l-139 220z" />
    <glyph glyph-name="guilsinglright" unicode="&#x203a;" horiz-adv-x="308" 
d="M261 296l-139 -221h-71l136 221l-136 216v3h71z" />
    <glyph glyph-name="fraction" unicode="&#x2044;" horiz-adv-x="149" 
d="M293 704l-376 -707h-63l375 707h64z" />
    <glyph glyph-name="zerosuperior" unicode="&#x2070;" horiz-adv-x="385" 
d="M100 658v-53q0 -35 13.5 -58t34 -34.5t44 -12t44 11t34 35t13.5 58.5v53q0 35 -13.5 59t-34 36t-44 12t-44 -12t-34 -35.5t-13.5 -59.5zM43 605v53q0 53 22 88.5t55.5 53t72 17.5t72 -18t55.5 -53t22 -88v-53q0 -53 -22 -88.5t-55.5 -53t-72 -17.5t-72 17.5t-55.5 53
t-22 88.5z" />
    <glyph glyph-name="foursuperior" unicode="&#x2074;" horiz-adv-x="360" 
d="M277 812v-231h48v-50h-48v-77h-56v77h-192l-3 45l187 236h64zM221 742l-130 -161h130v161z" />
    <glyph glyph-name="fivesuperior" unicode="&#x2075;" horiz-adv-x="360" 
d="M303 761h-199v-81h75q70 0 107.5 -31t37.5 -86q0 -54 -37.5 -85t-105.5 -31q-26 0 -51 5t-45 17t-32.5 32.5t-12.5 51.5h55q0 -15 7.5 -25.5t19.5 -17t27 -9t31 -2.5q49 0 67.5 19.5t18.5 44.5q0 11 -4 23t-13.5 21.5t-26.5 15.5t-43 6h-130v183h254v-51z" />
    <glyph glyph-name="sixsuperior" unicode="&#x2076;" horiz-adv-x="375" 
d="M193 494q15 0 30.5 3t27.5 10.5t20 19.5t8 30t-7.5 30t-20 20t-27.5 11.5t-30 3.5q-16 0 -31.5 -3.5t-28 -11.5t-20.5 -20t-8 -29q0 -18 8 -30.5t20.5 -20t28 -10.5t30.5 -3zM194 671q26 0 51.5 -5.5t46 -18.5t33 -35t12.5 -55q0 -31 -13 -52t-33.5 -34.5t-46 -19.5
t-51.5 -6q-27 0 -52.5 6.5t-46 20t-33 35t-12.5 51.5v141q0 31 12 53t31.5 36t44.5 20.5t51 6.5q28 0 53 -5.5t44 -17.5t30.5 -30t13.5 -43h-56q-5 44 -84 44q-37 0 -60 -15t-23 -49v-60q16 17 40 24.5t48 7.5z" />
    <glyph glyph-name="sevensuperior" unicode="&#x2077;" horiz-adv-x="315" 
d="M56 453l165 307h-191v52h264l4 -26l-176 -333h-66z" />
    <glyph glyph-name="eightsuperior" unicode="&#x2078;" horiz-adv-x="382" 
d="M101 547q0 -15 9 -26t22.5 -18t29 -10t29.5 -3t29.5 3t29 10t22.5 18t9 26q0 16 -8 28t-21 20t-29 11.5t-32 3.5t-32 -3.5t-29 -11t-21 -19.5t-8 -29zM41 547q0 33 21 56t52 31q-29 10 -47.5 29.5t-18.5 51.5q0 28 13 47t33.5 31t46 17.5t50.5 5.5q24 0 49.5 -5t46.5 -17
t34.5 -31.5t13.5 -47.5q0 -31 -18 -50.5t-48 -30.5q31 -8 51.5 -31.5t20.5 -55.5q0 -31 -13.5 -51.5t-35 -33t-48.5 -17.5t-53 -5t-52.5 5t-48.5 17.5t-35.5 33t-13.5 51.5zM107 714q0 -15 7 -25t19 -17t27 -10t31 -3t31 3t27 10t19 17t7 25q0 16 -8 26.5t-21 16.5
t-27.5 8.5t-27.5 2.5t-27.5 -2.5t-27 -8.5t-21 -16.5t-8.5 -26.5z" />
    <glyph glyph-name="ninesuperior" unicode="&#x2079;" horiz-adv-x="375" 
d="M182 766q-15 0 -30.5 -3.5t-27.5 -11t-20 -19.5t-8 -30t7.5 -30t20 -20t28 -11.5t30.5 -3.5t30.5 4t28 11.5t20.5 19.5t8 29q0 18 -8 30.5t-20.5 20t-28 11t-30.5 3.5zM182 589q-26 0 -52 5.5t-46 18t-32.5 34.5t-12.5 55q0 31 12.5 52.5t33 35t46 19.5t51.5 6
q27 0 52.5 -6.5t46 -20t33 -35.5t12.5 -52v-141q0 -30 -12 -52t-31.5 -36t-44.5 -20.5t-51 -6.5q-28 0 -53 5.5t-44 17t-31 29.5t-13 43h56q5 -44 85 -44q36 0 59.5 15t23.5 49v61q-17 -17 -40.5 -24.5t-47.5 -7.5z" />
    <glyph glyph-name="zeroinferior" unicode="&#x2080;" horiz-adv-x="385" 
d="M100 119v-53q0 -34 13.5 -57t34 -35t44 -12t44 11.5t34 34.5t13.5 58v53q0 36 -13.5 59.5t-34 35.5t-44 12t-44 -12t-34 -35.5t-13.5 -59.5zM43 67v52q0 53 22 88.5t55.5 53t72 17.5t72 -18t55.5 -53t22 -88v-52q0 -53 -22 -88t-55.5 -52.5t-72 -17.5t-72 17.5
t-55.5 52.5t-22 88z" />
    <glyph glyph-name="oneinferior" unicode="&#x2081;" horiz-adv-x="250" 
d="M38 -36h62v243l-54 -14v52l112 26v-307h65v-50h-185v50z" />
    <glyph glyph-name="twoinferior" unicode="&#x2082;" horiz-adv-x="361" 
d="M45 170q0 31 11.5 52t31 33.5t44 17.5t50.5 5q25 0 50 -5t44.5 -18t31.5 -34t12 -53q0 -35 -12.5 -56t-32 -33t-44 -17t-47.5 -7q-17 -2 -32.5 -3.5t-27.5 -7t-19.5 -16.5t-7.5 -31v-27h219v-56h-273v84q0 32 12.5 52.5t32 32.5t44 17t47.5 6q35 1 59.5 14t24.5 48
t-24 48.5t-58 13.5q-15 0 -29.5 -2.5t-25.5 -9.5t-18 -18.5t-7 -29.5h-56z" />
    <glyph glyph-name="threeinferior" unicode="&#x2083;" horiz-adv-x="362" 
d="M181 75h-55v49h51q14 0 28 2.5t25.5 8t19 15.5t7.5 25q0 17 -19 35t-61 18q-12 0 -26 -2.5t-26 -8.5t-20.5 -17.5t-9.5 -29.5h-51q0 29 11.5 49.5t30.5 33t43 18.5t49 6t49.5 -6t44 -19t31 -32t11.5 -45q0 -29 -15 -49t-41 -27q32 -8 47.5 -32t15.5 -47
q0 -33 -12.5 -54.5t-33 -34t-46.5 -18t-52 -5.5t-50.5 5.5t-44 18t-32 33.5t-12.5 52h59q1 -19 9.5 -30t21 -17t26.5 -7.5t25 -1.5q12 0 27 2t27.5 8.5t21 18t8.5 30.5q0 8 -4 17.5t-14 18t-25.5 14t-38.5 5.5z" />
    <glyph glyph-name="fourinferior" unicode="&#x2084;" horiz-adv-x="356" 
d="M277 272v-231h42v-53h-42v-74h-56v74h-192l-3 47l173 237h78zM221 217l-130 -176h130v176z" />
    <glyph glyph-name="fiveinferior" unicode="&#x2085;" horiz-adv-x="360" 
d="M304 221h-199v-81h75q70 0 107.5 -31t37.5 -86q0 -53 -37.5 -84.5t-105.5 -31.5q-26 0 -51 5t-45 17t-32.5 32.5t-12.5 51.5h55q0 -15 7.5 -25.5t19.5 -17t27 -9t31 -2.5q49 0 67.5 19.5t18.5 44.5q0 11 -4 23t-13.5 21.5t-26.5 15.5t-43 6h-130v183h254v-51z" />
    <glyph glyph-name="sixinferior" unicode="&#x2086;" horiz-adv-x="374" 
d="M192 -43q15 0 30.5 3t27.5 10.5t20 19.5t8 30t-7.5 30t-20 20t-27.5 11.5t-30 3.5q-32 0 -59.5 -15.5t-28.5 -48.5q0 -18 8 -30.5t20.5 -20t28 -10.5t30.5 -3zM193 134q26 0 51.5 -5.5t46 -18.5t33 -35t12.5 -55q0 -31 -13 -52.5t-33.5 -35t-46 -19.5t-51.5 -6
q-27 0 -52.5 6.5t-46 20t-33 35.5t-12.5 52v141q0 31 12 52.5t31.5 35.5t44.5 20.5t51 6.5q28 0 53 -5.5t44 -17t30.5 -29.5t13.5 -43h-56q-5 44 -84 44q-37 0 -60 -15t-23 -49v-60q16 17 40 24.5t48 7.5z" />
    <glyph glyph-name="seveninferior" unicode="&#x2087;" horiz-adv-x="315" 
d="M56 -86l165 306h-191v52h264l4 -25l-176 -333h-66z" />
    <glyph glyph-name="eightinferior" unicode="&#x2088;" horiz-adv-x="382" 
d="M101 15q0 -15 9 -26t22.5 -18t29 -10t29.5 -3t29.5 3t29 10t22.5 18t9 26q0 16 -8 28t-21 19.5t-29 11t-32 3.5t-32 -3.5t-29 -11t-21 -19.5t-8 -28zM41 14q0 33 20.5 56.5t52.5 31.5q-29 10 -47.5 29t-18.5 51q0 28 13 47t33.5 31t46 17.5t50.5 5.5q24 0 49.5 -5
t46.5 -17t34 -31.5t13 -47.5q0 -31 -17.5 -50.5t-47.5 -29.5q31 -8 51.5 -32t20.5 -56q0 -31 -13.5 -51.5t-35 -32.5t-48.5 -17t-53 -5t-52.5 5t-48.5 17t-35.5 32.5t-13.5 51.5zM107 182q0 -30 25.5 -42.5t58.5 -12.5q16 0 31 3t27 9.5t19 17t7 25.5t-8.5 25.5t-21 17
t-27 9t-27.5 2.5t-28 -2.5t-27.5 -9t-20.5 -17t-8 -25.5z" />
    <glyph glyph-name="nineinferior" unicode="&#x2089;" horiz-adv-x="373" 
d="M181 228q-15 0 -30.5 -3.5t-27.5 -11t-20 -19.5t-8 -30t7.5 -30t20 -20t28 -11.5t30.5 -3.5t30.5 4t28 11.5t20.5 19.5t8 29q0 18 -8 30.5t-20.5 20t-28 11t-30.5 3.5zM181 51q-26 0 -52 5.5t-46 18t-32.5 34.5t-12.5 55q0 31 12.5 52.5t33 35t46 19.5t51.5 6
q27 0 52.5 -6.5t46 -20t33 -35.5t12.5 -52v-141q0 -30 -12 -52t-31.5 -36t-44.5 -20.5t-51 -6.5q-28 0 -53 5.5t-44 17t-31 29.5t-13 43h56q5 -44 85 -44q36 0 59.5 15t23.5 49v61q-17 -17 -40.5 -24.5t-47.5 -7.5z" />
    <glyph glyph-name="Euro" unicode="&#x20ac;" horiz-adv-x="610" 
d="M571 12q-30 -11 -61 -16.5t-63 -5.5q-77 0 -135 19.5t-99.5 54.5t-67.5 85t-38 111h-65v58h57q-1 5 -1 14v14v15.5t1 15.5h-57v57h66q10 58 35.5 108.5t67.5 87.5t101 58t135 21q52 0 102 -15l-19 -58q-20 6 -41 8.5t-42 2.5q-119 0 -183 -52.5t-87 -160.5h264l-15 -57
h-262q-1 -7 -1 -15v-15v-14.5t1 -14.5h248l-13 -58h-223q20 -100 86.5 -152t184.5 -52q52 0 104 19z" />
    <glyph glyph-name="afii61289" unicode="&#x2113;" horiz-adv-x="402" 
d="M204 147q0 -45 38 -62t92 -4v-69q-47 -15 -89 -16t-73.5 16t-50 54t-18.5 97l-49 -24l-14 46q34 14 62 30v333q0 45 7.5 76.5t25.5 51.5t48 29.5t75 9.5q42 0 66 -17.5t35.5 -45t12 -62t-3.5 -68.5q-5 -42 -20 -80.5t-37 -74t-49.5 -67t-57.5 -58.5v-95zM201 548v-50.5
t-0.5 -62t-0.5 -65v-59.5q18 21 38 47t37 55t29 59t16 59q2 19 3.5 42t-3.5 43t-18.5 33.5t-41.5 13.5q-15 0 -26 -10t-18.5 -26.5t-11 -37t-3.5 -41.5z" />
    <glyph glyph-name="uni2117" unicode="&#x2117;" horiz-adv-x="832" 
d="M416 714q87 0 154.5 -29t113 -79t69.5 -116.5t24 -140.5t-24 -140.5t-69.5 -116.5t-113 -79t-154.5 -29t-154 29t-113 79t-70 116.5t-24 140.5t24 140.5t70 116.5t113 79t154 29zM120 349q0 -65 19.5 -121t57.5 -97.5t93 -65.5t126 -24t126 24t93 65.5t58 97.5t20 121
q0 64 -20 120.5t-58 98t-93 65.5t-126 24t-126 -24t-93 -65.5t-57.5 -98t-19.5 -120.5zM351 281v-126h-60v379h172q42 0 70.5 -18.5t43 -47t15 -61t-13.5 -61t-43 -47t-74 -18.5h-110zM351 478v-145h109q31 0 49 17.5t22.5 40t-4.5 45t-31 33.5q-7 4 -15 6.5t-18 2.5h-112z
" />
    <glyph glyph-name="trademark" unicode="&#x2122;" horiz-adv-x="791" 
d="M173 657h-111v43h273v-43h-113v-237h-49v237zM387 700h46l115 -147l116 147h44v-280h-49v201l-108 -131h-9l-106 133v-203h-49v280z" />
    <glyph glyph-name="Omega" unicode="&#x2126;" horiz-adv-x="821" 
d="M410 644q-71 0 -124.5 -24.5t-88.5 -65t-52.5 -93t-17.5 -109.5q0 -48 13 -94.5t39 -85.5t65 -68t92 -41v-63h-250v63l133 -2q-82 45 -123 122.5t-41 169.5q0 72 23.5 137t68.5 114.5t111 78.5t152 29t152.5 -29t111.5 -78.5t68.5 -114.5t23.5 -137q0 -92 -41 -169.5
t-123 -122.5l133 2v-63h-250v63q52 12 91 41t65 68t39.5 85.5t13.5 94.5q0 57 -17.5 109.5t-53 93t-89 65t-124.5 24.5z" />
    <glyph glyph-name="estimated" unicode="&#x212e;" horiz-adv-x="646" 
d="M331 -7q-56 0 -104.5 19t-85 56.5t-57.5 92.5t-21 128t21 129t57 93t84.5 56t104.5 19q55 0 106 -16.5t88 -54t56 -99.5t12 -153h-402v-170q29 -26 65 -39.5t76 -13.5q59 0 106.5 20.5t83.5 72.5l37 -29q-45 -64 -101 -87.5t-126 -23.5zM330 539q-41 0 -76 -10.5
t-64 -35.5v-183h283v186q-55 43 -143 43z" />
    <glyph glyph-name="onethird" unicode="&#x2153;" horiz-adv-x="749" 
d="M51 401h63v243l-55 -13v51l113 27v-308h65v-50h-186v50zM571 163h-56v49h52q14 0 28 2.5t25.5 8t19 15.5t7.5 25q0 17 -19 35t-61 18q-12 0 -26 -2.5t-26 -8.5t-20.5 -17.5t-9.5 -29.5h-52q0 29 11.5 49.5t30.5 33t43 18.5t49 6q26 0 50.5 -6t43.5 -19t30.5 -32t11.5 -45
q0 -29 -15 -49t-40 -27q31 -8 47 -32t16 -47q0 -33 -13 -54.5t-33.5 -34t-46 -18t-51.5 -5.5t-51 5.5t-44.5 18t-31.5 33.5t-12 52h59q1 -19 9.5 -30t21 -16.5t26 -7t24.5 -1.5q12 0 27 2t27.5 8t21 17.5t8.5 30.5q0 8 -4 17.5t-13.5 18t-25 14t-38.5 5.5zM564 704
l-376 -707h-65l375 707h66z" />
    <glyph glyph-name="twothirds" unicode="&#x2154;" horiz-adv-x="828" 
d="M649 163h-56v49h52q14 0 28 2.5t25.5 8t19 15.5t7.5 25q0 18 -19 35.5t-61 17.5q-12 0 -26 -2.5t-26 -8.5t-20.5 -17.5t-9.5 -29.5h-52q0 29 11.5 49.5t30.5 33t43 18.5t49 6q26 0 50.5 -6t44 -19t31 -32t11.5 -45q0 -29 -15 -49t-41 -27q31 -8 47 -32t16 -47
q0 -33 -13 -54.5t-33.5 -34t-46 -18t-51.5 -5.5t-51 5.5t-44.5 18t-31.5 33.5t-12 52h59q1 -18 9.5 -29t20.5 -17t25.5 -7.5t25.5 -1.5q13 0 27.5 2t27.5 8t21.5 17.5t8.5 30.5q0 8 -4 17.5t-14 18t-25.5 14t-38.5 5.5zM643 704l-377 -707h-65l375 707h67zM53 601
q0 31 11.5 51.5t30.5 32.5t43 17t50 5q25 0 49.5 -5t43.5 -17.5t30.5 -33.5t11.5 -52q0 -35 -12 -55.5t-31.5 -32t-43 -16.5t-46.5 -7q-17 -2 -32.5 -3.5t-27.5 -7t-19 -16.5t-7 -30v-27h215v-55h-268v83q0 31 12.5 51t32 32t43 17t46.5 6q35 2 58.5 14t23.5 47
q0 34 -23.5 47.5t-56.5 13.5q-15 0 -29 -2.5t-25.5 -9.5t-18 -18t-6.5 -29h-55z" />
    <glyph glyph-name="oneeighth" unicode="&#x215b;" horiz-adv-x="775" 
d="M51 401h63v243l-55 -13v51l114 27v-308h64v-50h-186v50zM564 704l-376 -707h-65l375 707h66zM496 99q0 -15 8.5 -26t22 -18t29.5 -10t30 -3q13 0 29 3t29.5 10t22.5 18t9 26q0 16 -8 28t-21 19.5t-29 11t-32 3.5t-32 -3.5t-29 -11t-21 -19.5t-8 -28zM435 98q0 33 21 56.5
t53 31.5q-29 10 -48 29t-19 51q0 28 13 47t34 31t46.5 17.5t49.5 5.5q25 0 50.5 -5t46.5 -17t34 -31.5t13 -47.5q0 -31 -17.5 -50.5t-48.5 -29.5q31 -8 52 -32t21 -56q0 -31 -14 -51.5t-35.5 -32.5t-48.5 -17t-53 -5t-52 5t-48 17t-36 32.5t-14 51.5zM502 266
q0 -30 25.5 -42.5t58.5 -12.5q16 0 31 3t27 9.5t19 17t7 25.5t-8.5 25.5t-21 17t-27.5 9t-28 2.5t-27.5 -2.5t-27 -9t-20.5 -17t-8 -25.5z" />
    <glyph glyph-name="threeeighths" unicode="&#x215c;" horiz-adv-x="834" 
d="M630 704l-376 -707h-65l375 707h66zM555 99q0 -15 8.5 -26t22 -18t29 -10t29.5 -3t29.5 3t29 10t23 18t9.5 26q0 16 -8 28t-21 19.5t-29 11t-32 3.5t-32 -3.5t-29 -11t-21 -19.5t-8 -28zM494 98q0 33 21 56.5t53 31.5q-29 10 -48 29t-19 51q0 28 13 47t33.5 31t46 17.5
t50.5 5.5t50.5 -5t46.5 -17t34 -31.5t13 -47.5q0 -31 -17.5 -50.5t-48.5 -29.5q31 -8 52 -32t21 -56q0 -31 -14 -51.5t-35.5 -32.5t-48.5 -17t-53 -5t-52.5 5t-48.5 17t-35.5 32.5t-13.5 51.5zM560 266q1 -30 26.5 -42.5t57.5 -12.5q33 0 58.5 12.5t26.5 42.5
q0 15 -8.5 25.5t-21.5 17t-27.5 9t-27.5 2.5t-27.5 -2.5t-27 -9t-21 -17t-8.5 -25.5zM187 504h-55v49h51q14 0 28.5 2.5t26 8.5t18.5 16t7 25q0 17 -18.5 35t-60.5 18q-12 0 -26 -2.5t-26 -9t-20.5 -17.5t-9.5 -29h-52q0 29 11.5 49t30.5 33t43 18.5t49 5.5t49.5 -6
t44 -18.5t31 -32t11.5 -45.5q0 -29 -15 -48.5t-40 -27.5q31 -8 47 -31.5t16 -46.5q0 -33 -13 -54.5t-33.5 -34.5t-46.5 -18t-52 -5t-50.5 5.5t-44 18t-32 33.5t-12.5 52h59q1 -19 9.5 -30t21 -17t26.5 -7.5t25 -1.5q12 0 27 2t27.5 8.5t21 18t8.5 30.5q0 8 -4 17.5t-14 17.5
t-25.5 13.5t-38.5 5.5z" />
    <glyph glyph-name="fiveeighths" unicode="&#x215d;" horiz-adv-x="837" 
d="M633 704l-376 -707h-65l375 707h66zM558 99q0 -15 8.5 -26t22 -18t29 -10t29.5 -3t29.5 3t29 10t23 18t9.5 26q0 16 -8 28t-21 19.5t-29 11t-32 3.5t-32 -3.5t-29 -11t-21 -19.5t-8 -28zM497 98q0 33 21 56.5t53 31.5q-29 10 -48 29t-19 51q0 28 13 47t33.5 31t46 17.5
t50.5 5.5t50.5 -5t46.5 -17t34 -31.5t13 -47.5q0 -31 -17.5 -50.5t-48.5 -29.5q31 -8 52 -32t21 -56q0 -31 -14 -51.5t-35.5 -32.5t-48.5 -17t-53 -5t-52.5 5t-48.5 17t-35.5 32.5t-13.5 51.5zM563 266q1 -30 26.5 -42.5t57.5 -12.5q33 0 58.5 12.5t26.5 42.5
q0 15 -8.5 25.5t-21.5 17t-27.5 9t-27.5 2.5t-27.5 -2.5t-27 -9t-21 -17t-8.5 -25.5zM309 650h-199v-80h75q70 0 107.5 -31.5t37.5 -85.5t-37.5 -85t-106.5 -31q-26 0 -50.5 5t-44.5 17t-32.5 32.5t-12.5 51.5h55q0 -15 7 -25.5t19 -17t27 -9t31 -2.5q50 0 68.5 19.5
t18.5 44.5q0 11 -4 23t-13.5 21.5t-26.5 15.5t-43 6h-131v183h255v-52z" />
    <glyph glyph-name="seveneighths" unicode="&#x215e;" horiz-adv-x="755" 
d="M548 704l-376 -707h-65l375 707h66zM476 99q0 -15 8.5 -26t22 -18t29 -10t29.5 -3t29.5 3t29 10t23 18t9.5 26q0 16 -8 28t-21 19.5t-29 11t-32 3.5t-32 -3.5t-29 -11t-21 -19.5t-8 -28zM415 98q0 33 21 56.5t53 31.5q-29 10 -48 29t-19 51q0 28 13 47t33.5 31t46 17.5
t50.5 5.5t50.5 -5t46.5 -17t34 -31.5t13 -47.5q0 -31 -17.5 -50.5t-48.5 -29.5q31 -8 52 -32t21 -56q0 -31 -14 -51.5t-35.5 -32.5t-48.5 -17t-53 -5t-52.5 5t-48.5 17t-35.5 32.5t-13.5 51.5zM481 266q1 -30 26.5 -42.5t57.5 -12.5q33 0 58.5 12.5t26.5 42.5
q0 15 -8.5 25.5t-21.5 17t-27.5 9t-27.5 2.5t-27.5 -2.5t-27 -9t-21 -17t-8.5 -25.5zM66 343l165 306h-190v52h263l4 -25l-176 -333h-66z" />
    <glyph glyph-name="arrowleft" unicode="&#x2190;" horiz-adv-x="632" 
d="M39 351l217 217l38 -37l-147 -149h423v-64h-422l145 -149l-37 -35z" />
    <glyph glyph-name="arrowup" unicode="&#x2191;" horiz-adv-x="499" 
d="M249 619l217 -218l-37 -37l-149 147v-423h-64v422l-149 -145l-35 37z" />
    <glyph glyph-name="arrowright" unicode="&#x2192;" horiz-adv-x="632" 
d="M593 351l-217 -217l-38 36l147 150h-423v63h422l-145 150l37 35z" />
    <glyph glyph-name="arrowdown" unicode="&#x2193;" horiz-adv-x="500" 
d="M250 76l-217 217l36 38l150 -147v423h63v-423l150 146l35 -37z" />
    <glyph glyph-name="uni2196" unicode="&#x2196;" horiz-adv-x="503" 
d="M66 538h308l1 -53l-210 -1l299 -299l-45 -46l-298 299l-3 -208l-52 1v307z" />
    <glyph glyph-name="uni2197" unicode="&#x2197;" horiz-adv-x="503" 
d="M130 538h308q0 -78 -0.5 -154t-0.5 -153l-52 -1q-1 53 -1 104.5t-1 103.5l-298 -299l-46 46l299 299l-209 3z" />
    <glyph glyph-name="uni2198" unicode="&#x2198;" horiz-adv-x="548" 
d="M137 212l209 3l-299 299l45 46l299 -299q0 52 0.5 103.5t0.5 104.5l53 -1v-307h-307z" />
    <glyph glyph-name="uni2199" unicode="&#x2199;" horiz-adv-x="548" 
d="M410 161h-307v307l53 1q1 -53 1 -104.5t1 -103.5l298 299l45 -46l-299 -299l209 -3z" />
    <glyph glyph-name="partialdiff" unicode="&#x2202;" horiz-adv-x="605" 
d="M301 51q46 0 81 16t58.5 42.5t35 60.5t11.5 69t-11.5 68.5t-35 60t-58.5 42.5t-81 16t-80.5 -16t-58 -42.5t-35 -60t-11.5 -68.5t11.5 -69t35 -60.5t58 -42.5t80.5 -16zM287 485q21 1 43 -1.5t44.5 -10t45 -21t44.5 -35.5q-14 42 -43.5 79t-67 66t-80.5 49.5t-83 30.5
l16 57q166 -48 256.5 -160t92.5 -287q1 -58 -16.5 -106t-50.5 -83t-80 -54.5t-107 -19.5q-64 0 -111.5 21.5t-79 56.5t-47.5 79.5t-16 91.5q0 45 15 88.5t45 78t75 56.5t105 24z" />
    <glyph glyph-name="Delta" unicode="&#x2206;" horiz-adv-x="762" 
d="M735 0h-708l314 700h80zM129 63h503l-251 568z" />
    <glyph glyph-name="product" unicode="&#x220f;" horiz-adv-x="685" 
d="M517 -189v822h-349v-822h-74v889h497v-889h-74z" />
    <glyph glyph-name="summation" unicode="&#x2211;" horiz-adv-x="580" 
d="M132 66h394v-66h-490v36l231 331l-214 303v30h467v-63h-364l189 -271z" />
    <glyph glyph-name="minus" unicode="&#x2212;" horiz-adv-x="529" 
d="M75 360h379v-61h-379v61z" />
    <glyph glyph-name="uni2215" unicode="&#x2215;" horiz-adv-x="433" 
d="M434 704l-376 -707h-63l375 707h64z" />
    <glyph glyph-name="uni2219" unicode="&#x2219;" horiz-adv-x="240" 
d="M71 311q0 24 15.5 36t33.5 12t33.5 -12t15.5 -36t-15.5 -36t-33.5 -12t-33.5 12t-15.5 36z" />
    <glyph glyph-name="radical" unicode="&#x221a;" horiz-adv-x="615" 
d="M364 0h-63l-167 353l-92 -40l-21 50l161 71l153 -350l215 628l51 -14z" />
    <glyph glyph-name="infinity" unicode="&#x221e;" horiz-adv-x="793" 
d="M222 168q-41 0 -72 14t-51 36t-30 50t-10 57q0 30 10.5 58t31.5 50.5t52.5 36t73.5 13.5q26 0 49.5 -10t44.5 -25.5t40.5 -36t36.5 -41.5q17 21 36.5 41.5t41 36t44.5 25.5t47 10q41 0 72.5 -13.5t53 -36t32.5 -50.5t11 -58q0 -29 -10 -57t-30.5 -50t-51.5 -36t-72 -14
q-27 0 -50.5 9t-45 24.5t-41 35.5t-37.5 42q-18 -22 -37.5 -42t-41 -35.5t-45.5 -24.5t-52 -9zM224 226q20 0 37 7t32 18t28.5 25l26.5 28q5 5 9.5 10.5t9.5 10.5l-16 20l-26.5 29.5t-29 26t-33 18.5t-38.5 7q-29 0 -50 -9.5t-34.5 -25.5t-19.5 -35.5t-4 -39.5
q4 -34 30.5 -61t77.5 -29zM571 226q28 1 48.5 10t34 23t19.5 32t6 36q0 19 -7 36.5t-20.5 31.5t-33.5 22.5t-47 8.5q-21 0 -38.5 -7.5t-32.5 -19.5t-29 -27l-27 -30l-15 -17q5 -4 8.5 -8l7.5 -9l26.5 -28.5t28.5 -26.5t32.5 -19.5t38.5 -7.5z" />
    <glyph glyph-name="integral" unicode="&#x222b;" horiz-adv-x="456" 
d="M186 530q0 81 39 128t119 47q29 0 56 -9t50 -26l-29 -50q-20 12 -37 18.5t-39 6.5q-43 0 -67.5 -27.5t-24.5 -87.5v-531q0 -80 -34.5 -128t-113.5 -48q-29 0 -52.5 9t-46.5 26l28 48q20 -14 34 -19t36 -5q43 0 62.5 28.5t19.5 88.5v531z" />
    <glyph glyph-name="approxequal" unicode="&#x2248;" horiz-adv-x="566" 
d="M76 399q23 38 60 55.5t88 3.5l122 -42q32 -10 58 -3t40 36l47 -25q-20 -44 -58 -62.5t-95 -2.5l-121 44q-32 11 -56 -1t-40 -33zM76 202q23 38 60.5 56.5t87.5 2.5l122 -43q32 -10 58 -2.5t40 36.5l47 -26q-10 -21 -24 -38t-33 -26.5t-43 -10t-53 10.5l-121 43
q-19 8 -33 8t-25.5 -5.5t-20.5 -15t-17 -20.5z" />
    <glyph glyph-name="notequal" unicode="&#x2260;" horiz-adv-x="553" 
d="M72 245h138l87 140h-225v56h264l44 70l35 -20l-32 -50h96v-56h-135l-86 -140h221v-56h-260l-45 -74l-35 21l32 53h-99v56z" />
    <glyph glyph-name="lessequal" unicode="&#x2264;" horiz-adv-x="452" 
d="M75 150h302v-55h-302v55zM81 432l242 168l35 -45l-207 -139l210 -149l-38 -44l-242 176v33z" />
    <glyph glyph-name="greaterequal" unicode="&#x2265;" horiz-adv-x="451" 
d="M376 95h-301v56h301v-56zM371 399l-242 -176l-38 44l209 149l-206 139l34 45l243 -168v-33z" />
    <glyph glyph-name="lozenge" unicode="&#x25ca;" horiz-adv-x="564" 
d="M309 7h-55l-216 345l216 344h55l219 -344zM281 73l173 278l-173 278l-164 -278z" />
    <glyph glyph-name="fi" unicode="&#xfb01;" horiz-adv-x="573" 
d="M352 630q-15 8 -29.5 11.5t-31.5 3.5q-43 0 -67.5 -27.5t-24.5 -87.5v-41h152v-58h-152v-431h-67v431h-98v58h98v41q0 81 38.5 128t119.5 47q47 0 84 -22zM496 496v-496h-67v496h67zM416 649q0 23 15 35t32 12q18 0 33 -12t15 -35q0 -24 -15 -35.5t-33 -11.5
q-17 0 -32 11.5t-15 35.5z" />
    <glyph glyph-name="fl" unicode="&#xfb02;" horiz-adv-x="573" 
d="M345 634q-26 13 -57 13q-43 0 -66 -28.5t-23 -88.5v-41h142v-58h-142v-431h-67v431h-98v58h98v41q0 81 39 128t119 47q37 0 67 -13zM488 700v-700h-67v700h67z" />
    <glyph glyph-name="uniFEFF" unicode="&#xfeff;" horiz-adv-x="0" 
 />
    <glyph glyph-name="guilsinglright.case" horiz-adv-x="343" 
d="M283 341l-139 -221h-71l136 221l-136 216v3h71z" />
    <glyph glyph-name="guillemotleft.case" horiz-adv-x="466" 
d="M200 552h71v-4l-136 -216l63.5 -101l63.5 -101l9 -18h-71l-139 220zM323 552h72v-4l-136 -216l136 -220h-72l-138 220z" />
    <glyph glyph-name="guillemotright.case" horiz-adv-x="467" 
d="M406 340l-138 -221h-71l135 221l-135 215v4h71zM282 340l-138 -221h-72l136 221l-136 215v4h72z" />
    <glyph glyph-name="endash.case" horiz-adv-x="601" 
d="M74 369h453v-61h-453v61z" />
    <glyph glyph-name="emdash.case" horiz-adv-x="709" 
d="M76 371h557v-61h-557v61z" />
    <glyph glyph-name="bullet.case" horiz-adv-x="386" 
d="M194 236q-46 0 -76 28t-30 76q0 47 30 75t76 28q44 0 74 -28t30 -75q0 -48 -30 -76t-74 -28z" />
    <glyph glyph-name="periodcentered.case" horiz-adv-x="247" 
d="M75 337q0 24 15 36t33.5 12t33.5 -12t15 -36t-15 -36t-33.5 -12t-33.5 12t-15 36z" />
    <glyph glyph-name="guilsinglleft.case" horiz-adv-x="343" 
d="M200 565h71v-4l-136 -216l63.5 -101l63.5 -101l9 -18h-71l-139 220z" />
    <glyph glyph-name="braceright.case" horiz-adv-x="329" 
d="M44 -16q31 -5 51 -3t31.5 12.5t16 30.5t4.5 52v144q0 21 1.5 42t8 40t21 33t41.5 21q-27 7 -41.5 21.5t-21 32.5t-8 39t-1.5 42v135q0 32 -4.5 53t-16.5 32t-32 13.5t-50 -2.5v49q47 9 79 4t52 -23.5t28.5 -50t8.5 -74.5v-136q0 -19 2.5 -38.5t11 -35t23.5 -25.5t40 -10
v-52q-25 0 -40 -10t-23.5 -26t-11 -35.5t-2.5 -38.5v-117q0 -51 -6 -87t-24 -57.5t-51 -28t-87 1.5v52z" />
    <glyph glyph-name="bar.case" horiz-adv-x="257" 
d="M162 -73h-67v830h67v-830z" />
    <glyph glyph-name="braceleft.case" horiz-adv-x="328" 
d="M285 -69q-54 -8 -87 -1.5t-51 28t-24.5 57.5t-6.5 87v117q0 19 -2.5 38.5t-10.5 35.5t-23 26t-40 10v52q25 0 40 10t23 25.5t10.5 35t2.5 38.5v137q0 87 37.5 124t131.5 20v-50q-31 5 -51 2.5t-32 -13.5t-16.5 -32t-4.5 -53v-135q0 -21 -1.5 -42t-8 -39t-21 -32.5
t-40.5 -21.5q26 -7 40.5 -21t21 -33t8 -40t1.5 -42v-143q0 -32 4.5 -52.5t16.5 -31t32 -12.5t51 3v-52z" />
    <glyph glyph-name="bracketright.case" horiz-adv-x="333" 
d="M43 -95v64h126v758h-126v62h196v-884h-196z" />
    <glyph glyph-name="bracketleft.case" horiz-adv-x="333" 
d="M94 -94v883h196v-63h-127v-757h127v-63h-196z" />
    <glyph glyph-name="hyphen.case" horiz-adv-x="505" 
d="M75 364h355v-63h-355v63z" />
    <glyph glyph-name="parenleft.case" horiz-adv-x="343" 
d="M310 752q-46 -33 -81 -76.5t-58.5 -94t-36 -106t-12.5 -112.5q-1 -58 10.5 -114t35 -107t59 -96t83.5 -80l-36 -52q-52 34 -92 79.5t-67.5 98.5t-43 112t-18.5 119q-5 69 7 137.5t40 131.5t71.5 116.5t103.5 92.5z" />
    <glyph glyph-name="nine.num" horiz-adv-x="374" 
d="M182 661q-15 0 -30.5 -3t-27.5 -10.5t-20 -20t-8 -30.5q0 -17 7.5 -29.5t20 -20t28 -11t30.5 -3.5t30.5 3.5t28 11.5t20.5 20t8 29q0 18 -8 30t-20.5 19.5t-28 11t-30.5 3.5zM182 484q-26 0 -52 5.5t-46 18t-32.5 34.5t-12.5 55q0 31 12.5 52.5t33 35t46 19.5t51.5 6
q27 0 52.5 -6.5t46 -20t33 -35t12.5 -52.5v-140q0 -31 -12 -53t-31.5 -36t-44.5 -20.5t-51 -6.5q-28 0 -53 5.5t-44 17.5t-31 30t-13 43h56q5 -45 85 -45q36 0 59.5 15.5t23.5 49.5v60q-17 -17 -40.5 -24.5t-47.5 -7.5z" />
    <glyph glyph-name="eight.num" horiz-adv-x="382" 
d="M101 442q0 -15 9 -26t22.5 -18t29 -10.5t29.5 -3.5t29.5 3t29 10t22.5 18t9 27t-8 28t-21 19.5t-29 11t-32 3.5t-32 -3.5t-29 -11t-21 -19.5t-8 -28zM41 441q0 33 21 56t52 31q-29 10 -47.5 29.5t-18.5 51.5q0 28 13 47t33.5 31t46 17.5t50.5 5.5q24 0 49.5 -5t46.5 -17
t34.5 -31.5t13.5 -47.5q0 -31 -18 -50.5t-48 -30.5q31 -8 51.5 -31.5t20.5 -55.5q0 -31 -13.5 -51.5t-35 -32.5t-48.5 -17t-53 -5t-52.5 5t-48.5 17t-35.5 32.5t-13.5 51.5zM107 609q0 -15 7 -25.5t19 -17t27 -9.5t31 -3t31 3t27 9.5t19 17t7 25.5t-8 25.5t-21 17t-27.5 9
t-27.5 2.5t-27.5 -2.5t-27 -9t-21 -17t-8.5 -25.5z" />
    <glyph glyph-name="seven.num" horiz-adv-x="314" 
d="M55 342l165 307h-191v52h264l4 -26l-176 -333h-66z" />
    <glyph glyph-name="six.num" horiz-adv-x="374" 
d="M193 389q15 0 30.5 3t27.5 10.5t20 19.5t8 30t-7.5 30t-20 20t-28 11.5t-30.5 3.5t-30.5 -4t-28 -11.5t-20.5 -20t-8 -28.5q0 -18 8 -30.5t20.5 -20t28 -10.5t30.5 -3zM193 566q26 0 51.5 -5.5t46 -18.5t33 -35t12.5 -55q0 -31 -12.5 -52.5t-33 -35t-46 -19.5t-51.5 -6
q-27 0 -52.5 6.5t-46 20t-33 35.5t-12.5 52v141q0 31 12 52.5t31.5 35.5t44.5 20.5t51 6.5q28 0 53 -5.5t44 -17t30.5 -29.5t13.5 -43h-56q-5 44 -85 44q-36 0 -59.5 -15t-23.5 -49v-60q17 17 40.5 24.5t47.5 7.5z" />
    <glyph glyph-name="five.num" horiz-adv-x="361" 
d="M304 649h-199v-80h75q70 0 107.5 -31.5t37.5 -85.5t-37.5 -85t-106.5 -31q-26 0 -50.5 5t-44.5 17t-32.5 32.5t-12.5 51.5h55q0 -15 7 -25.5t19 -17t27 -9t31 -2.5q50 0 68.5 19.5t18.5 44.5q0 11 -4 23t-13.5 21.5t-26.5 15.5t-43 6h-131v183h255v-52z" />
    <glyph glyph-name="four.num" horiz-adv-x="356" 
d="M277 702v-231h42v-52h-42v-75h-56v75h-192l-3 46l173 237h78zM221 648l-130 -177h130v177z" />
    <glyph glyph-name="three.num" horiz-adv-x="362" 
d="M181 507h-56v49h52q14 0 28 2.5t25.5 8.5t19 16t7.5 25q0 17 -19 34.5t-61 17.5q-12 0 -26 -2.5t-26 -8.5t-20.5 -17t-9.5 -29h-52q0 28 11.5 48.5t30.5 33t43 18.5t49 6q26 0 50.5 -6t43.5 -18.5t30.5 -32t11.5 -45.5q0 -29 -15 -49t-40 -27q31 -8 47 -31.5t16 -46.5
q0 -33 -13 -55t-33.5 -34.5t-46 -18t-51.5 -5.5t-51 5.5t-44.5 18.5t-31.5 34t-12 51h59q1 -19 9.5 -30t21 -16.5t26 -7t24.5 -1.5q12 0 27 2t27.5 8.5t21 18t8.5 29.5q0 9 -4 18.5t-13.5 17.5t-25 13.5t-38.5 5.5z" />
    <glyph glyph-name="two.num" horiz-adv-x="362" 
d="M45 598q0 31 11.5 52t31 33.5t44 17.5t50.5 5q25 0 50 -5t44.5 -18t31.5 -34t12 -53q0 -35 -12.5 -56t-32 -33t-44 -17t-47.5 -7q-17 -2 -32.5 -3.5t-27.5 -7t-19.5 -16.5t-7.5 -31v-27h219v-56h-273v84q0 32 12.5 52.5t32 32.5t44 17t47.5 6q35 1 59.5 14t24.5 48
t-24 48.5t-58 13.5q-15 0 -29.5 -2.5t-25.5 -9.5t-18 -18.5t-7 -29.5h-56z" />
    <glyph glyph-name="one.num" horiz-adv-x="252" 
d="M38 402h63v243l-55 -13v52l113 26v-308h65v-50h-186v50z" />
    <glyph glyph-name="zero.num" horiz-adv-x="385" 
d="M100 552v-53q0 -35 13.5 -58t34 -34.5t44 -12t44 11t34 35t13.5 58.5v53q0 35 -13.5 59t-34 36t-44 12t-44 -12t-34 -35.5t-13.5 -59.5zM43 499v53q0 53 22 88.5t55.5 53t72 17.5t72 -18t55.5 -53t22 -88v-53q0 -53 -22 -88.5t-55.5 -53t-72 -17.5t-72 17.5t-55.5 53
t-22 88.5z" />
    <glyph glyph-name="nine.denom" horiz-adv-x="375" 
d="M182 314q-15 0 -30.5 -3t-27.5 -10.5t-20 -19.5t-8 -30t7.5 -30t20 -20t28 -11.5t30.5 -3.5t30.5 4t28 11.5t20.5 19.5t8 29q0 18 -8 30t-20.5 19.5t-28 11t-30.5 3.5zM182 137q-26 0 -52 5.5t-46 18.5t-32.5 35t-12.5 55q0 31 12.5 52.5t33 35t46 19.5t51.5 6
q27 0 52.5 -6.5t46 -20t33 -35.5t12.5 -52v-141q0 -31 -12 -52.5t-31.5 -35.5t-44.5 -20.5t-51 -6.5q-28 0 -53 5.5t-44 17t-31 29.5t-13 43h56q5 -44 85 -44q36 0 59.5 15t23.5 49v60q-17 -17 -40.5 -24.5t-47.5 -7.5z" />
    <glyph glyph-name="eight.denom" horiz-adv-x="383" 
d="M102 99q0 -15 8.5 -26t22 -18t29 -10.5t29.5 -3.5t29.5 3t29 10t23 18t9.5 27t-8 28t-21 19.5t-29 11t-32 3.5t-32 -3.5t-29 -11t-21 -19.5t-8 -28zM41 98q0 33 21 56t53 31q-29 10 -48 29.5t-19 51.5q0 28 13 47t33.5 31t46 17.5t50.5 5.5t50.5 -5t46.5 -17t34 -31.5
t13 -47.5q0 -31 -17.5 -50.5t-48.5 -30.5q31 -8 52 -31.5t21 -55.5q0 -31 -14 -51.5t-35.5 -32.5t-48.5 -17t-53 -5t-52.5 5t-48.5 17t-35.5 32.5t-13.5 51.5zM107 266q1 -30 26.5 -42.5t57.5 -12.5q33 0 58.5 12.5t26.5 42.5q0 15 -8.5 25.5t-21.5 17t-27.5 9t-27.5 2.5
t-27.5 -2.5t-27 -9t-21 -17t-8.5 -25.5z" />
    <glyph glyph-name="seven.denom" horiz-adv-x="313" 
d="M55 0l165 307h-191v52h264l4 -26l-176 -333h-66z" />
    <glyph glyph-name="six.denom" horiz-adv-x="374" 
d="M192 44q15 0 30.5 3t27.5 10.5t20 19.5t8 30t-7.5 30t-20 20t-27.5 11.5t-30 3.5q-16 0 -31.5 -3.5t-28 -11.5t-20.5 -20t-8 -29q0 -18 8 -30.5t20.5 -20t28 -10.5t30.5 -3zM193 221q26 0 51.5 -5.5t46 -18.5t33 -35t12.5 -55q0 -31 -13 -52t-33.5 -34.5t-46 -19.5
t-51.5 -6q-27 0 -52.5 6.5t-46 20t-33 35t-12.5 51.5v141q0 31 12 53t31.5 36t44.5 20.5t51 6.5q28 0 53 -5.5t44 -17.5t30.5 -30t13.5 -43h-56q-5 44 -84 44q-37 0 -60 -15t-23 -49v-60q16 17 40 24.5t48 7.5z" />
    <glyph glyph-name="five.denom" horiz-adv-x="360" 
d="M303 307h-199v-81h75q70 0 107.5 -31t37.5 -85t-37.5 -85.5t-105.5 -31.5q-26 0 -51 5t-45 17.5t-32.5 33t-12.5 51.5h55q0 -15 7.5 -25.5t19.5 -17t27 -9t31 -2.5q49 0 67.5 19t18.5 45q0 11 -4 23t-13.5 21.5t-26.5 15.5t-43 6h-130v183h254v-52z" />
    <glyph glyph-name="four.denom" horiz-adv-x="362" 
d="M278 359v-231h47v-53h-47v-74h-56v74h-192l-3 47l173 237h78zM222 304l-130 -176h130v176z" />
    <glyph glyph-name="three.denom" horiz-adv-x="362" 
d="M181 162h-56v49h52q14 0 28 2.5t25.5 8.5t19 16t7.5 25q0 17 -19 34.5t-61 17.5q-12 0 -26 -2t-26 -8t-20.5 -17t-9.5 -30h-52q0 28 11.5 48.5t30.5 33t43 18.5t49 6q26 0 50.5 -6t43.5 -18.5t31 -32t12 -45.5q0 -29 -15 -49t-41 -27q31 -8 47 -31.5t16 -46.5
q0 -33 -13 -55t-33.5 -34.5t-46 -18t-51.5 -5.5t-51 5.5t-44.5 18.5t-31.5 34t-12 51h59q1 -19 9.5 -30t21 -17t26 -7.5t24.5 -1.5q13 0 27.5 2t27.5 8t21.5 17.5t8.5 31.5q0 9 -4 18.5t-14 17.5t-25.5 13.5t-38.5 5.5z" />
    <glyph glyph-name="two.denom" horiz-adv-x="362" 
d="M45 256q0 31 11.5 52t31 33.5t44 17.5t50.5 5q25 0 50 -5t44.5 -18t31.5 -34t12 -53q0 -35 -12.5 -56t-32 -33t-44 -17t-47.5 -7q-17 -2 -32.5 -3.5t-27.5 -7t-19.5 -16.5t-7.5 -31v-27h219v-56h-273v84q0 32 12.5 52.5t32 32.5t44 17t47.5 6q35 1 59.5 14t24.5 48
t-24 48.5t-58 13.5q-15 0 -29.5 -2.5t-25.5 -9.5t-18 -18.5t-7 -29.5h-56z" />
    <glyph glyph-name="one.denom" horiz-adv-x="255" 
d="M35 48h71v245l-55 -14v52l111 26v-309h66v-48h-193v48z" />
    <glyph glyph-name="zero.denom" horiz-adv-x="392" 
d="M100 204v-53q0 -35 14 -58t35.5 -34.5t46 -12t46 11t35.5 35t14 58.5v53q0 35 -14 59t-35.5 36t-46 12t-46 -12t-35.5 -35.5t-14 -59.5zM43 149v57q0 53 22.5 88t56.5 52.5t74 17.5t74 -18t56.5 -53t22.5 -88v-55q0 -53 -22.5 -88.5t-56.5 -53t-74 -18t-74 17t-56.5 53
t-22.5 88.5z" />
    <glyph glyph-name="dollar.tf" 
d="M547 551q-13 24 -35.5 41t-49.5 28.5t-57 16.5t-57 5q-31 0 -66 -6.5t-64.5 -21t-49 -38.5t-18.5 -60q0 -31 16 -51t43.5 -33t64 -21t77.5 -15q51 -9 101.5 -20t90 -33t64 -58t24.5 -94q0 -50 -22.5 -86t-58.5 -59.5t-80.5 -36t-87.5 -14.5v-97h-65v96q-39 2 -78 11.5
t-74.5 26.5t-64 43.5t-46.5 63.5l66 30q14 -29 39.5 -49.5t56.5 -33t65 -18.5t66 -6q33 0 69.5 6.5t68 21.5t52 39.5t20.5 61.5q0 36 -18 59t-48.5 38.5t-69.5 24.5t-80 16q-49 8 -96 18.5t-84 30.5t-60 52.5t-24 84.5q-1 49 21 84t56.5 58t77.5 35t85 15v97h65v-97
q33 -3 66.5 -10.5t63.5 -22.5t54.5 -37.5t41.5 -53.5z" />
    <glyph glyph-name="yen.tf" 
d="M531 162h-153v-162h-70v162h-157v55h157v60h-157v55h124l-236 366v2h81l223 -352l226 352h82v-2l-240 -366h120v-55h-153v-60h153v-55z" />
    <glyph glyph-name="florin.tf" 
d="M297 430h-144v59h144v48q0 81 38.5 128t119.5 47q29 0 55.5 -9t49.5 -26l-29 -50q-20 12 -37 18.5t-39 6.5q-43 0 -67.5 -27.5t-24.5 -87.5v-48h175v-59h-175v-431q0 -80 -34.5 -128t-113.5 -48q-29 0 -52.5 9t-46.5 26l29 48q19 -14 33.5 -19t35.5 -5q43 0 63 28.5
t20 88.5v431z" />
    <glyph glyph-name="sterling.tf" 
d="M202 500q0 -37 8 -72.5l16 -70.5h246v-60h-234q5 -29 5.5 -58.5t-7 -59t-24.5 -57.5t-48 -55h446v-67h-531v65q36 32 56.5 61.5t29.5 57.5t9.5 56t-4.5 57h-91v60h77l-16 67t-8 76q0 52 18.5 91t51.5 64.5t77.5 38.5t95.5 13q46 0 87 -9.5t72.5 -31.5t50 -58t19.5 -89
h-64q-1 37 -15.5 61t-37.5 38t-52.5 20t-59.5 6q-80 0 -126.5 -37.5t-46.5 -106.5z" />
    <glyph glyph-name="cent.tf" 
d="M563 62q-64 -63 -150 -72v-71h-64v72q-48 6 -89 25.5t-71 51.5t-47 76t-17 98q0 52 16.5 95.5t46.5 76t71 53.5t90 27v63h64v-63q42 -5 80 -23t70 -49l-43 -43q-29 27 -65 41.5t-73 14.5q-39 0 -73.5 -13t-60.5 -37.5t-41 -60.5t-15 -82q0 -47 15 -82.5t41 -59.5
t60.5 -36.5t73.5 -12.5q37 0 73 15.5t64 43.5z" />
    <glyph glyph-name="Euro.tf" 
d="M611 11q-59 -21 -123 -21q-77 0 -136 19.5t-101 54.5t-68 85t-38 111h-65v59h57q-1 5 -1 13.5v13.5v15t1 15h-57v59h66q10 58 36 108t68.5 87t101.5 58t136 21q51 0 101 -15l-19 -62q-20 6 -41 8.5t-41 2.5q-116 0 -181.5 -54.5t-86.5 -153.5h262l-16 -59h-259
q-1 -7 -1 -14.5v-14.5v-14t1 -14h245l-13 -59h-220q19 -96 85 -149t184 -53q51 0 103 19z" />
    <glyph glyph-name="nine.tf" 
d="M546 194v169q-17 -25 -42 -42.5t-54 -28.5t-59.5 -16t-58.5 -5q-50 0 -99.5 11.5t-89 37.5t-64 68t-24.5 103q0 59 24.5 101t64 68.5t89.5 38.5t100 12q51 0 101 -12.5t90 -39.5t64.5 -69t24.5 -101v-295q0 -52 -24 -90t-62.5 -63.5t-87.5 -38t-100 -12.5
q-54 0 -102.5 10t-86 32t-60.5 55.5t-25 80.5h72q2 -30 19 -51.5t44 -35.5t63 -21t75 -7q33 0 70 8t67.5 25t50.5 43.5t20 64.5zM333 646q-36 0 -73 -8t-67 -26.5t-49 -48t-19 -72.5q0 -44 18.5 -74.5t48.5 -49t67 -26.5t73 -8t73.5 9.5t68 29t50 49t19.5 69.5
q0 43 -19 72.5t-49.5 48t-68 27t-73.5 8.5z" />
    <glyph glyph-name="eight.tf" 
d="M345 332q-31 0 -69.5 -7t-72.5 -23.5t-57.5 -44t-23.5 -67.5q0 -38 19.5 -65t51.5 -44.5t71.5 -26t80.5 -8.5q40 0 80 8t71.5 25.5t51 45t19.5 65.5q0 40 -23 67t-57 43.5t-72.5 24t-69.5 7.5zM52 191q0 32 12 59.5t31.5 49.5t46 37.5t56.5 23.5q-57 20 -94.5 59
t-37.5 99q0 54 24.5 91.5t64 60.5t89 33t100.5 10t100.5 -10t89.5 -32.5t65 -60t25 -92.5q0 -59 -39 -99t-98 -59q30 -8 57 -23.5t47.5 -38t32.5 -50t12 -58.5q0 -58 -24 -97.5t-65 -63.5t-93.5 -34.5t-109.5 -10.5t-109.5 10.5t-93 34.5t-65 63.5t-24.5 97.5zM135 520
q0 -37 21 -61.5t52.5 -39.5t68 -21.5t68.5 -6.5q31 0 68 6.5t68.5 21.5t52.5 39.5t21 61.5q0 38 -18 64t-48 41.5t-68 22.5t-77 7t-77 -7t-67.5 -23t-47 -42t-17.5 -63z" />
    <glyph glyph-name="seven.tf" 
d="M171 0l357 632h-433v68h511l7 -51l-363 -649h-79z" />
    <glyph glyph-name="six.tf" 
d="M146 508v-169q17 25 42 42.5t53.5 28.5t58.5 16t58 5q50 0 99.5 -11.5t89 -37.5t64 -68t24.5 -103q0 -59 -24.5 -101t-64 -68.5t-89.5 -38.5t-100 -12q-51 0 -101 12.5t-90 39.5t-64.5 69t-24.5 101v295q0 52 23.5 90t61.5 63t86.5 37.5t99.5 12.5q54 0 102 -10t85 -31.5
t59.5 -55t24.5 -80.5h-72q-2 30 -18.5 51.5t-43 35.5t-62 20.5t-74.5 6.5q-33 0 -69 -8t-66 -24.5t-49 -43.5t-19 -64zM357 56q36 0 73 8t67 26.5t49 48t19 72.5q0 44 -18.5 74.5t-48.5 49t-67 26.5t-73 8t-73.5 -9.5t-68 -29t-50 -49t-19.5 -69.5q0 -43 19 -72.5t49.5 -48
t68 -27t73.5 -8.5z" />
    <glyph glyph-name="five.tf" 
d="M586 636h-426v-205h207q67 0 116 -16.5t80.5 -45t46.5 -68t15 -85.5q0 -47 -18 -87.5t-52.5 -70.5t-85.5 -47t-116 -17q-50 0 -99 9.5t-88 32.5t-63.5 62.5t-24.5 98.5h68q0 -45 20 -72.5t50.5 -42.5t66.5 -20t69 -5q48 0 86 12t64.5 33.5t40 50.5t13.5 63
q0 33 -10.5 60.5t-33.5 48t-59 31.5t-86 11h-273v333h492v-64z" />
    <glyph glyph-name="four.tf" 
d="M538 700v-483h82v-59h-82v-158h-65v158h-417l-12 54l416 488h78zM473 217v402l-347 -402h347z" />
    <glyph glyph-name="three.tf" 
d="M348 329h-115v59h110q46 0 82 11t61.5 29t39.5 41t14 48q0 24 -12 48t-36 43t-60.5 31t-85.5 12q-30 0 -64.5 -5t-64.5 -19.5t-49.5 -39.5t-19.5 -64h-68q0 55 24.5 91t63 57t85.5 29.5t92 8.5q59 0 106.5 -14t81 -39t52 -60.5t18.5 -78.5q0 -28 -9.5 -54t-27 -47
t-41.5 -35.5t-53 -20.5q30 -6 56.5 -20.5t46 -35.5t31 -48.5t11.5 -60.5q0 -47 -19 -85t-54.5 -64.5t-85.5 -40.5t-112 -14q-47 0 -96 8.5t-89 30.5t-66 59.5t-26 95.5h67q0 -44 22 -69.5t53.5 -39t68.5 -17.5t67 -4q48 0 85.5 10.5t63.5 29t40 44t14 54.5q0 24 -12 48.5
t-37 44t-63 31.5t-90 12z" />
    <glyph glyph-name="two.tf" 
d="M76 510q1 57 26 95.5t64 61.5t87.5 32.5t96.5 9.5t96.5 -10.5t87 -35t62.5 -64t24 -97.5q0 -57 -24 -95.5t-62.5 -62.5t-87 -34t-97.5 -10q-34 0 -71.5 -6t-68.5 -21t-51 -41t-20 -67v-100h478v-65h-543v164q0 59 24.5 97t63.5 60.5t88 31.5t99 9q30 0 66.5 6.5t67.5 22
t52 42.5t21 68q0 42 -19 70t-49 45.5t-66.5 25t-70.5 7.5q-33 0 -69.5 -6t-66.5 -21.5t-49.5 -42.5t-19.5 -69h-69z" />
    <glyph glyph-name="one.tf" 
d="M149 57h176v568l-160 -38v58l225 55v-643h175v-57h-416v57z" />
    <glyph glyph-name="zero.tf" 
d="M136 427v-154q0 -73 31 -121.5t77 -73t100 -24.5t100 24.5t77 73t31 121.5v154q0 72 -31 120.5t-77 73t-100 24.5t-100 -24t-77 -72.5t-31 -121.5zM68 274v152q0 95 41 158.5t102.5 95t133 31.5t133 -32t102.5 -95t41 -158v-152q0 -95 -41 -158t-102.5 -95t-133 -32
t-133 31.5t-102.5 95t-41 158.5z" />
    <glyph glyph-name="commaaccent.alt" horiz-adv-x="462" 
d="M176 664q0 19 13.5 49.5t30.5 77.5h49l-28 -87q13 -4 21.5 -14t8.5 -27q0 -4 -2 -8q-3 -20 -17.5 -29t-31.5 -8t-30.5 12.5t-13.5 33.5z" />
    <glyph glyph-name="commaaccent" horiz-adv-x="462" 
d="M280 -139q0 -19 -13.5 -50t-29.5 -77h-50l28 87q-13 4 -21.5 14t-8.5 27q0 4 2 8q3 20 18 29t31.5 8t30 -12.5t13.5 -33.5z" />
    <glyph glyph-name="glyph476" horiz-adv-x="0" 
 />
    <glyph glyph-name="g.alt" horiz-adv-x="636" 
d="M303 439q-39 0 -73.5 -13.5t-60 -39t-40 -61t-14.5 -78.5q0 -45 14.5 -81t40 -60.5t60 -38t73.5 -13.5q63 0 105.5 28.5t63.5 71.5t21 92.5t-21 92.5t-63.5 71.5t-105.5 28.5zM137 -73q4 -33 19.5 -55.5t38.5 -36.5t52.5 -20.5t63.5 -6.5t67.5 7.5t59 27t41.5 54t16 87.5
v109q-16 -27 -38.5 -46.5t-48 -32t-53.5 -18.5t-56 -6q-53 0 -98.5 17.5t-80 51t-54 81t-19.5 107.5q0 58 20 105t54 80t80 51t99 18q28 0 57 -6.5t55 -19.5t48 -33t36 -46v98h62v-510q0 -66 -20.5 -111.5t-54.5 -74t-78.5 -41t-93.5 -12.5q-101 0 -166 46.5t-72 135.5h64z
" />
    <glyph glyph-name="gcircumflex.alt" horiz-adv-x="636" 
d="M345 715l143 -133v-7h-69l-98 87l-97 -87h-69v7l143 133h47zM303 439q-39 0 -73.5 -13.5t-60 -39t-40 -61t-14.5 -78.5q0 -45 14.5 -81t40 -60.5t60 -38t73.5 -13.5q63 0 105.5 28.5t63.5 71.5t21 92.5t-21 92.5t-63.5 71.5t-105.5 28.5zM137 -73q4 -33 19.5 -55.5
t38.5 -36.5t52.5 -20.5t63.5 -6.5t67.5 7.5t59 27t41.5 54t16 87.5v109q-16 -27 -38.5 -46.5t-48 -32t-53.5 -18.5t-56 -6q-53 0 -98.5 17.5t-80 51t-54 81t-19.5 107.5q0 58 20 105t54 80t80 51t99 18q28 0 57 -6.5t55 -19.5t48 -33t36 -46v98h62v-510q0 -66 -20.5 -111.5
t-54.5 -74t-78.5 -41t-93.5 -12.5q-101 0 -166 46.5t-72 135.5h64z" />
    <glyph glyph-name="a.alt" horiz-adv-x="556" 
d="M84 465q42 17 81.5 26.5t83.5 9.5q48 0 91 -9.5t74.5 -32t50 -58.5t18.5 -89v-312h-58l-2 88q-31 -48 -82 -72.5t-106 -24.5q-37 0 -72.5 9t-63.5 28.5t-45 49.5t-17 73t17 73.5t45 50t63.5 28t72.5 8.5q48 0 94 -10.5t88 -32.5v44q0 37 -14 61.5t-37 38.5t-53.5 20
t-63.5 6q-38 0 -80 -10t-75 -24zM104 151q0 -30 13.5 -50t33.5 -31t44.5 -15.5t46.5 -4.5q34 0 65 12.5t55 34t38.5 51t16.5 62.5q-18 10 -39.5 17.5t-44.5 13t-46.5 9t-44.5 3.5q-25 0 -50 -4.5t-44.5 -16t-31.5 -31.5t-12 -50z" />
    <glyph glyph-name="agrave.alt" horiz-adv-x="556" 
d="M170 702h78l69 -116v-4h-57l-90 118v2zM84 465q42 17 81.5 26.5t83.5 9.5q48 0 91 -9.5t74.5 -32t50 -58.5t18.5 -89v-312h-58l-2 88q-31 -48 -82 -72.5t-106 -24.5q-37 0 -72.5 9t-63.5 28.5t-45 49.5t-17 73t17 73.5t45 50t63.5 28t72.5 8.5q48 0 94 -10.5t88 -32.5v44
q0 37 -14 61.5t-37 38.5t-53.5 20t-63.5 6q-38 0 -80 -10t-75 -24zM104 151q0 -30 13.5 -50t33.5 -31t44.5 -15.5t46.5 -4.5q34 0 65 12.5t55 34t38.5 51t16.5 62.5q-18 10 -39.5 17.5t-44.5 13t-46.5 9t-44.5 3.5q-25 0 -50 -4.5t-44.5 -16t-31.5 -31.5t-12 -50z" />
    <glyph glyph-name="aacute.alt" horiz-adv-x="556" 
d="M380 699l-90 -118h-57v4l69 116h78v-2zM84 465q42 17 81.5 26.5t83.5 9.5q48 0 91 -9.5t74.5 -32t50 -58.5t18.5 -89v-312h-58l-2 88q-31 -48 -82 -72.5t-106 -24.5q-37 0 -72.5 9t-63.5 28.5t-45 49.5t-17 73t17 73.5t45 50t63.5 28t72.5 8.5q48 0 94 -10.5t88 -32.5v44
q0 37 -14 61.5t-37 38.5t-53.5 20t-63.5 6q-38 0 -80 -10t-75 -24zM104 151q0 -30 13.5 -50t33.5 -31t44.5 -15.5t46.5 -4.5q34 0 65 12.5t55 34t38.5 51t16.5 62.5q-18 10 -39.5 17.5t-44.5 13t-46.5 9t-44.5 3.5q-25 0 -50 -4.5t-44.5 -16t-31.5 -31.5t-12 -50z" />
    <glyph glyph-name="acircumflex.alt" horiz-adv-x="556" 
d="M294 701l132 -121v-7h-65l-89 80l-88 -80h-66v7l132 121h44zM84 465q42 17 81.5 26.5t83.5 9.5q48 0 91 -9.5t74.5 -32t50 -58.5t18.5 -89v-312h-58l-2 88q-31 -48 -82 -72.5t-106 -24.5q-37 0 -72.5 9t-63.5 28.5t-45 49.5t-17 73t17 73.5t45 50t63.5 28t72.5 8.5
q48 0 94 -10.5t88 -32.5v44q0 37 -14 61.5t-37 38.5t-53.5 20t-63.5 6q-38 0 -80 -10t-75 -24zM104 151q0 -30 13.5 -50t33.5 -31t44.5 -15.5t46.5 -4.5q34 0 65 12.5t55 34t38.5 51t16.5 62.5q-18 10 -39.5 17.5t-44.5 13t-46.5 9t-44.5 3.5q-25 0 -50 -4.5t-44.5 -16
t-31.5 -31.5t-12 -50z" />
    <glyph glyph-name="atilde.alt" horiz-adv-x="556" 
d="M130.665 628.851q7.91016 38.6309 35.1035 56.9561q27.1924 18.3252 61.8018 11.3916q14.832 -2.97168 33.126 -12.877q18.293 -9.90527 36.0918 -15.8486q17.7998 -5.94336 32.6318 -1.98145t22.7432 29.7158l44.4971 -17.8291q-7.91016 -43.584 -36.0918 -59.4326
t-58.8359 -8.91504q-16.8096 4.95312 -35.5977 14.8584t-36.0928 14.8584q-17.3037 4.95215 -32.1367 0.495117q-14.832 -4.45801 -22.7432 -29.2207zM84 465q42 17 81.5 26.5t83.5 9.5q48 0 91 -9.5t74.5 -32t50 -58.5t18.5 -89v-312h-58l-2 88q-31 -48 -82 -72.5
t-106 -24.5q-37 0 -72.5 9t-63.5 28.5t-45 49.5t-17 73t17 73.5t45 50t63.5 28t72.5 8.5q48 0 94 -10.5t88 -32.5v44q0 37 -14 61.5t-37 38.5t-53.5 20t-63.5 6q-38 0 -80 -10t-75 -24zM104 151q0 -30 13.5 -50t33.5 -31t44.5 -15.5t46.5 -4.5q34 0 65 12.5t55 34t38.5 51
t16.5 62.5q-18 10 -39.5 17.5t-44.5 13t-46.5 9t-44.5 3.5q-25 0 -50 -4.5t-44.5 -16t-31.5 -31.5t-12 -50z" />
    <glyph glyph-name="adieresis.alt" horiz-adv-x="557" 
d="M130 659q0 22 13.5 32.5t30 10.5t30.5 -10.5t14 -32.5t-14 -33t-30.5 -11t-30 11t-13.5 33zM337 659q0 22 13.5 32.5t30 10.5t30.5 -10.5t14 -32.5t-14 -33t-30.5 -11t-30 11t-13.5 33zM84 465q42 17 81.5 26.5t83.5 9.5q48 0 91 -9.5t74.5 -32t50 -58.5t18.5 -89v-312
h-58l-2 88q-31 -48 -82 -72.5t-106 -24.5q-37 0 -72.5 9t-63.5 28.5t-45 49.5t-17 73t17 73.5t45 50t63.5 28t72.5 8.5q48 0 94 -10.5t88 -32.5v44q0 37 -14 61.5t-37 38.5t-53.5 20t-63.5 6q-38 0 -80 -10t-75 -24zM104 151q0 -30 13.5 -50t33.5 -31t44.5 -15.5t46.5 -4.5
q34 0 65 12.5t55 34t38.5 51t16.5 62.5q-18 10 -39.5 17.5t-44.5 13t-46.5 9t-44.5 3.5q-25 0 -50 -4.5t-44.5 -16t-31.5 -31.5t-12 -50z" />
    <glyph glyph-name="amacron.alt" horiz-adv-x="557" 
d="M124 682h295v-55h-295v55zM84 465q42 17 81.5 26.5t83.5 9.5q48 0 91 -9.5t74.5 -32t50 -58.5t18.5 -89v-312h-58l-2 88q-31 -48 -82 -72.5t-106 -24.5q-37 0 -72.5 9t-63.5 28.5t-45 49.5t-17 73t17 73.5t45 50t63.5 28t72.5 8.5q48 0 94 -10.5t88 -32.5v44
q0 37 -14 61.5t-37 38.5t-53.5 20t-63.5 6q-38 0 -80 -10t-75 -24zM104 151q0 -30 13.5 -50t33.5 -31t44.5 -15.5t46.5 -4.5q34 0 65 12.5t55 34t38.5 51t16.5 62.5q-18 10 -39.5 17.5t-44.5 13t-46.5 9t-44.5 3.5q-25 0 -50 -4.5t-44.5 -16t-31.5 -31.5t-12 -50z" />
    <glyph glyph-name="abreve.alt" horiz-adv-x="557" 
d="M406.788 701.872q1.90332 -59.6582 -32.832 -90.9082q-34.7354 -31.249 -93.7393 -31.249q-57.0996 0 -91.835 31.7227q-34.7354 31.7236 -32.832 90.4346h51.3896q0 -13.2568 3.33105 -26.041t11.4199 -23.2002q8.08887 -10.417 22.3643 -17.0459
q14.2744 -6.62891 36.1621 -6.62891q40.9219 0 57.0996 22.7275q16.1787 22.7266 16.1787 50.1885h53.293zM84 465q42 17 81.5 26.5t83.5 9.5q48 0 91 -9.5t74.5 -32t50 -58.5t18.5 -89v-312h-58l-2 88q-31 -48 -82 -72.5t-106 -24.5q-37 0 -72.5 9t-63.5 28.5t-45 49.5
t-17 73t17 73.5t45 50t63.5 28t72.5 8.5q48 0 94 -10.5t88 -32.5v44q0 37 -14 61.5t-37 38.5t-53.5 20t-63.5 6q-38 0 -80 -10t-75 -24zM104 151q0 -30 13.5 -50t33.5 -31t44.5 -15.5t46.5 -4.5q34 0 65 12.5t55 34t38.5 51t16.5 62.5q-18 10 -39.5 17.5t-44.5 13t-46.5 9
t-44.5 3.5q-25 0 -50 -4.5t-44.5 -16t-31.5 -31.5t-12 -50z" />
    <glyph glyph-name="aring.alt" horiz-adv-x="557" 
d="M171 651q0 22 9 39.5t24 28.5t34 17t39 6t39 -6t34 -17t24.5 -28.5t9.5 -39.5t-8.5 -39t-23 -28.5t-34 -17.5t-41.5 -6q-46 0 -76 23.5t-30 67.5zM276 701q-28 0 -42 -15.5t-14 -34t14 -34t42 -15.5q29 0 43 15.5t14 34t-14.5 34t-42.5 15.5zM84 465q42 17 81.5 26.5
t83.5 9.5q48 0 91 -9.5t74.5 -32t50 -58.5t18.5 -89v-312h-58l-2 88q-31 -48 -82 -72.5t-106 -24.5q-37 0 -72.5 9t-63.5 28.5t-45 49.5t-17 73t17 73.5t45 50t63.5 28t72.5 8.5q48 0 94 -10.5t88 -32.5v44q0 37 -14 61.5t-37 38.5t-53.5 20t-63.5 6q-38 0 -80 -10t-75 -24z
M104 151q0 -30 13.5 -50t33.5 -31t44.5 -15.5t46.5 -4.5q34 0 65 12.5t55 34t38.5 51t16.5 62.5q-18 10 -39.5 17.5t-44.5 13t-46.5 9t-44.5 3.5q-25 0 -50 -4.5t-44.5 -16t-31.5 -31.5t-12 -50z" />
    <glyph glyph-name="aringacute.alt" horiz-adv-x="557" 
d="M184 628q0 21 8.5 36.5t22.5 26t31.5 16t36.5 5.5t37 -5.5t32 -16t22.5 -26t8.5 -36.5q0 -41 -29.5 -63t-70.5 -22q-43 0 -71 22t-28 63zM282 674q-26 0 -39 -14t-13 -31.5t13 -31.5t39 -14q27 0 40.5 14t13.5 31.5t-13.5 31.5t-40.5 14zM395 831l-88 -91h-56v3l72 89h72
v-1zM84 465q42 17 81.5 26.5t83.5 9.5q48 0 91 -9.5t74.5 -32t50 -58.5t18.5 -89v-312h-58l-2 88q-31 -48 -82 -72.5t-106 -24.5q-37 0 -72.5 9t-63.5 28.5t-45 49.5t-17 73t17 73.5t45 50t63.5 28t72.5 8.5q48 0 94 -10.5t88 -32.5v44q0 37 -14 61.5t-37 38.5t-53.5 20
t-63.5 6q-38 0 -80 -10t-75 -24zM104 151q0 -30 13.5 -50t33.5 -31t44.5 -15.5t46.5 -4.5q34 0 65 12.5t55 34t38.5 51t16.5 62.5q-18 10 -39.5 17.5t-44.5 13t-46.5 9t-44.5 3.5q-25 0 -50 -4.5t-44.5 -16t-31.5 -31.5t-12 -50z" />
    <glyph glyph-name="aogonek.alt" horiz-adv-x="557" 
d="M483 10v-48q-46 5 -76.5 -10.5t-31.5 -40.5q-2 -20 15 -35.5t50 -13.5q19 1 40.5 11.5t35.5 31.5l37 -25q-17 -34 -50.5 -51t-69.5 -17q-51 -1 -79.5 23t-30.5 58q-1 15 3 31.5t16 31.5t32 26t51 15v13h58zM84 465q42 17 81.5 26.5t83.5 9.5q48 0 91 -9.5t74.5 -32
t50 -58.5t18.5 -89v-312h-58l-2 88q-31 -48 -82 -72.5t-106 -24.5q-37 0 -72.5 9t-63.5 28.5t-45 49.5t-17 73t17 73.5t45 50t63.5 28t72.5 8.5q48 0 94 -10.5t88 -32.5v44q0 37 -14 61.5t-37 38.5t-53.5 20t-63.5 6q-38 0 -80 -10t-75 -24zM104 151q0 -30 13.5 -50
t33.5 -31t44.5 -15.5t46.5 -4.5q34 0 65 12.5t55 34t38.5 51t16.5 62.5q-18 10 -39.5 17.5t-44.5 13t-46.5 9t-44.5 3.5q-25 0 -50 -4.5t-44.5 -16t-31.5 -31.5t-12 -50z" />
    <glyph glyph-name="y.alt" horiz-adv-x="606" 
d="M138 494v-277q0 -78 43.5 -120t118.5 -41q36 0 65.5 13t50.5 36t33 53.5t12 66.5v269h67v-511q0 -61 -17.5 -106t-48 -74t-72 -43.5t-89.5 -14.5q-103 0 -158.5 47.5t-61.5 132.5h65q7 -61 45.5 -89t109.5 -28q33 0 63 10t52 31t35 54t13 80v100q-30 -50 -76.5 -70
t-98.5 -21q-48 0 -88 15t-69 44t-45 70.5t-16 94.5v278h67z" />
    <glyph glyph-name="yacute.alt" horiz-adv-x="606" 
d="M407 701l-92 -123h-55v4l71 121h76v-2zM138 494v-277q0 -78 43.5 -120t118.5 -41q36 0 65.5 13t50.5 36t33 53.5t12 66.5v269h67v-511q0 -61 -17.5 -106t-48 -74t-72 -43.5t-89.5 -14.5q-103 0 -158.5 47.5t-61.5 132.5h65q7 -61 45.5 -89t109.5 -28q33 0 63 10t52 31
t35 54t13 80v100q-30 -50 -76.5 -70t-98.5 -21q-48 0 -88 15t-69 44t-45 70.5t-16 94.5v278h67z" />
    <glyph glyph-name="ycircumflex.alt" horiz-adv-x="606" 
d="M332.314 707.781l134.865 -125.402v-6.59961h-66.9609l-90.5391 82.0293l-90.5391 -82.0293h-66.9609v6.59961l135.809 125.402h44.3262zM138 494v-277q0 -78 43.5 -120t118.5 -41q36 0 65.5 13t50.5 36t33 53.5t12 66.5v269h67v-511q0 -61 -17.5 -106t-48 -74t-72 -43.5
t-89.5 -14.5q-103 0 -158.5 47.5t-61.5 132.5h65q7 -61 45.5 -89t109.5 -28q33 0 63 10t52 31t35 54t13 80v100q-30 -50 -76.5 -70t-98.5 -21q-48 0 -88 15t-69 44t-45 70.5t-16 94.5v278h67z" />
    <glyph glyph-name="ydieresis.alt" horiz-adv-x="606" 
d="M158 659q0 23 14 34.5t31.5 11.5t31.5 -11.5t14 -34.5q0 -22 -14 -33t-31.5 -11t-31.5 11t-14 33zM373 659q0 23 14.5 34.5t31.5 11.5t31.5 -11.5t14.5 -34.5q0 -22 -14.5 -33t-31.5 -11t-31.5 11t-14.5 33zM138 494v-277q0 -78 43.5 -120t118.5 -41q36 0 65.5 13
t50.5 36t33 53.5t12 66.5v269h67v-511q0 -61 -17.5 -106t-48 -74t-72 -43.5t-89.5 -14.5q-103 0 -158.5 47.5t-61.5 132.5h65q7 -61 45.5 -89t109.5 -28q33 0 63 10t52 31t35 54t13 80v100q-30 -50 -76.5 -70t-98.5 -21q-48 0 -88 15t-69 44t-45 70.5t-16 94.5v278h67z" />
    <glyph glyph-name="ygrave.alt" horiz-adv-x="606" 
d="M203 701h78l64 -119v-4h-56l-86 121v2zM138 494v-277q0 -78 43.5 -120t118.5 -41q36 0 65.5 13t50.5 36t33 53.5t12 66.5v269h67v-511q0 -61 -17.5 -106t-48 -74t-72 -43.5t-89.5 -14.5q-103 0 -158.5 47.5t-61.5 132.5h65q7 -61 45.5 -89t109.5 -28q33 0 63 10t52 31
t35 54t13 80v100q-30 -50 -76.5 -70t-98.5 -21q-48 0 -88 15t-69 44t-45 70.5t-16 94.5v278h67z" />
    <glyph glyph-name="gbreve.alt" horiz-adv-x="636" 
d="M456 706q2 -60 -33.5 -93t-92.5 -35q-31 -1 -56.5 7t-44.5 24.5t-29 40.5t-9 56h55q0 -14 3.5 -27.5t12.5 -24.5t24 -17.5t38 -6.5q43 0 59.5 24t16.5 52h56zM303 439q-39 0 -73.5 -13.5t-60 -39t-40 -61t-14.5 -78.5q0 -45 14.5 -81t40 -60.5t60 -38t73.5 -13.5
q63 0 105.5 28.5t63.5 71.5t21 92.5t-21 92.5t-63.5 71.5t-105.5 28.5zM137 -73q4 -33 19.5 -55.5t38.5 -36.5t52.5 -20.5t63.5 -6.5t67.5 7.5t59 27t41.5 54t16 87.5v109q-16 -27 -38.5 -46.5t-48 -32t-53.5 -18.5t-56 -6q-53 0 -98.5 17.5t-80 51t-54 81t-19.5 107.5
q0 58 20 105t54 80t80 51t99 18q28 0 57 -6.5t55 -19.5t48 -33t36 -46v98h62v-510q0 -66 -20.5 -111.5t-54.5 -74t-78.5 -41t-93.5 -12.5q-101 0 -166 46.5t-72 135.5h64z" />
    <glyph glyph-name="gdotaccent.alt" horiz-adv-x="636" 
d="M272 663q0 24 15 35.5t32.5 11.5t32.5 -11.5t15 -35.5q0 -23 -15 -35t-32.5 -12t-32.5 12t-15 35zM303 439q-39 0 -73.5 -13.5t-60 -39t-40 -61t-14.5 -78.5q0 -45 14.5 -81t40 -60.5t60 -38t73.5 -13.5q63 0 105.5 28.5t63.5 71.5t21 92.5t-21 92.5t-63.5 71.5
t-105.5 28.5zM137 -73q4 -33 19.5 -55.5t38.5 -36.5t52.5 -20.5t63.5 -6.5t67.5 7.5t59 27t41.5 54t16 87.5v109q-16 -27 -38.5 -46.5t-48 -32t-53.5 -18.5t-56 -6q-53 0 -98.5 17.5t-80 51t-54 81t-19.5 107.5q0 58 20 105t54 80t80 51t99 18q28 0 57 -6.5t55 -19.5t48 -33
t36 -46v98h62v-510q0 -66 -20.5 -111.5t-54.5 -74t-78.5 -41t-93.5 -12.5q-101 0 -166 46.5t-72 135.5h64z" />
    <glyph glyph-name="gcommaaccent.alt" horiz-adv-x="636" 
d="M267 624q0 17 12.5 43.5t27.5 68.5h49l-24 -73q12 -4 20.5 -13.5t8.5 -26.5q0 -23 -14.5 -34.5t-32.5 -11.5t-32.5 12t-14.5 35zM303 439q-39 0 -73.5 -13.5t-60 -39t-40 -61t-14.5 -78.5q0 -45 14.5 -81t40 -60.5t60 -38t73.5 -13.5q63 0 105.5 28.5t63.5 71.5t21 92.5
t-21 92.5t-63.5 71.5t-105.5 28.5zM137 -73q4 -33 19.5 -55.5t38.5 -36.5t52.5 -20.5t63.5 -6.5t67.5 7.5t59 27t41.5 54t16 87.5v109q-16 -27 -38.5 -46.5t-48 -32t-53.5 -18.5t-56 -6q-53 0 -98.5 17.5t-80 51t-54 81t-19.5 107.5q0 58 20 105t54 80t80 51t99 18
q28 0 57 -6.5t55 -19.5t48 -33t36 -46v98h62v-510q0 -66 -20.5 -111.5t-54.5 -74t-78.5 -41t-93.5 -12.5q-101 0 -166 46.5t-72 135.5h64z" />
    <glyph glyph-name="asterisk.alt" horiz-adv-x="310" 
d="M142 549l-42 -61q-6 -12 -17.5 -13.5t-20.5 4.5t-12 16.5t7 22.5l47 58l-66 19q-12 3 -16 12.5t-1 19t11 15.5t20 2l66 -24l-4 69q0 11 8.5 16.5t19.5 5.5t19.5 -5.5t8.5 -16.5l-4 -69l66 24q12 4 20 -2t11 -15.5t-1 -19t-16 -12.5l-66 -19l47 -58q10 -12 7 -22.5
t-12 -16.5t-20 -4.5t-18 13.5z" />
    <glyph glyph-name="parenright.case" horiz-adv-x="342" 
d="M67 803q60 -39 103.5 -92.5t71.5 -116.5t39.5 -131.5t7.5 -137.5q-3 -60 -18.5 -119t-43 -112t-67.5 -98.5t-92 -79.5l-35 52q48 35 83.5 80t58.5 96t34.5 107t10.5 114q0 57 -12.5 112.5t-36 106t-58.5 94t-81 76.5z" />
    </font>
</defs>
</svg>
